<svg width="1140" height="495.28" xmlns="http://www.w3.org/2000/svg" style="animation-delay: 0s; animation-direction: normal; animation-duration: 0s; animation-fill-mode: none; animation-iteration-count: 1; animation-name: none; animation-play-state: running; animation-timing-function: ease; background-attachment: scroll; background-blend-mode: normal; background-clip: border-box; background-color: rgba(0, 0, 0, 0); background-image: none; background-origin: padding-box; background-position: 0% 0%; background-repeat: repeat; background-size: auto; border-bottom-color: rgb(51, 51, 51); border-bottom-left-radius: 0px; border-bottom-right-radius: 0px; border-bottom-style: none; border-bottom-width: 0px; border-collapse: separate; border-image-outset: 0px; border-image-repeat: stretch; border-image-slice: 100%; border-image-source: none; border-image-width: 1; border-left-color: rgb(51, 51, 51); border-left-style: none; border-left-width: 0px; border-right-color: rgb(51, 51, 51); border-right-style: none; border-right-width: 0px; border-top-color: rgb(51, 51, 51); border-top-left-radius: 0px; border-top-right-radius: 0px; border-top-style: none; border-top-width: 0px; bottom: auto; box-shadow: none; box-sizing: border-box; break-after: auto; break-before: auto; break-inside: auto; caption-side: top; clear: none; clip: auto; color: rgb(51, 51, 51); content: ; cursor: auto; direction: ltr; display: inline; empty-cells: show; float: none; font-family: &quot;Helvetica Neue&quot;, Helvetica, Arial, sans-serif; font-kerning: auto; font-size: 14px; font-stretch: normal; font-style: normal; font-variant: normal; font-variant-ligatures: normal; font-variant-caps: normal; font-variant-numeric: normal; font-weight: normal; height: 495.266px; image-rendering: auto; isolation: auto; left: auto; letter-spacing: normal; line-height: 20px; list-style-image: none; list-style-position: outside; list-style-type: disc; margin-bottom: 0px; margin-left: 0px; margin-right: 0px; margin-top: 0px; max-height: none; max-width: none; min-height: 0px; min-width: 0px; mix-blend-mode: normal; object-fit: fill; object-position: 50% 50%; offset-distance: 0px; offset-path: none; offset-rotate: auto 0deg; offset-rotation: auto 0deg; opacity: 1; orphans: 2; outline-color: rgb(51, 51, 51); outline-offset: 0px; outline-style: none; outline-width: 0px; overflow-anchor: auto; overflow-wrap: normal; overflow-x: hidden; overflow-y: hidden; padding-bottom: 0px; padding-left: 0px; padding-right: 0px; padding-top: 0px; pointer-events: auto; position: static; resize: none; right: auto; speak: normal; table-layout: auto; tab-size: 8; text-align: start; text-align-last: auto; text-decoration: none; text-indent: 0px; text-rendering: auto; text-shadow: none; text-size-adjust: 100%; text-overflow: clip; text-transform: none; top: auto; touch-action: auto; transition-delay: 0s; transition-duration: 0s; transition-property: all; transition-timing-function: ease; unicode-bidi: normal; vertical-align: baseline; visibility: visible; white-space: normal; widows: 2; width: 1140px; will-change: auto; word-break: normal; word-spacing: 0px; word-wrap: normal; z-index: auto; zoom: 1; -webkit-appearance: none; backface-visibility: visible; -webkit-background-clip: border-box; -webkit-background-origin: padding-box; -webkit-border-horizontal-spacing: 0px; -webkit-border-image: none; -webkit-border-vertical-spacing: 0px; -webkit-box-align: stretch; -webkit-box-decoration-break: slice; -webkit-box-direction: normal; -webkit-box-flex: 0; -webkit-box-flex-group: 1; -webkit-box-lines: single; -webkit-box-ordinal-group: 1; -webkit-box-orient: horizontal; -webkit-box-pack: start; -webkit-box-reflect: none; column-count: auto; column-gap: normal; column-rule-color: rgb(51, 51, 51); column-rule-style: none; column-rule-width: 0px; column-span: none; column-width: auto; align-content: stretch; align-items: stretch; align-self: stretch; flex-basis: auto; flex-grow: 0; flex-shrink: 1; flex-direction: row; flex-wrap: nowrap; justify-content: flex-start; -webkit-font-smoothing: auto; -webkit-highlight: none; hyphens: manual; -webkit-hyphenate-character: auto; -webkit-line-break: auto; -webkit-line-clamp: none; -webkit-locale: &quot;en&quot;; -webkit-margin-before-collapse: collapse; -webkit-margin-after-collapse: collapse; -webkit-mask-box-image: none; -webkit-mask-box-image-outset: 0px; -webkit-mask-box-image-repeat: stretch; -webkit-mask-box-image-slice: 0 fill; -webkit-mask-box-image-source: none; -webkit-mask-box-image-width: auto; -webkit-mask-clip: border-box; -webkit-mask-composite: source-over; -webkit-mask-image: none; -webkit-mask-origin: border-box; -webkit-mask-position: 0% 0%; -webkit-mask-repeat: repeat; -webkit-mask-size: auto; order: 0; perspective: none; perspective-origin: 570px 247.625px; -webkit-print-color-adjust: economy; -webkit-rtl-ordering: logical; shape-outside: none; shape-image-threshold: 0; shape-margin: 0px; -webkit-tap-highlight-color: rgba(0, 0, 0, 0); -webkit-text-combine: none; -webkit-text-decorations-in-effect: none; -webkit-text-emphasis-color: rgb(51, 51, 51); -webkit-text-emphasis-position: over; -webkit-text-emphasis-style: none; -webkit-text-fill-color: rgb(51, 51, 51); -webkit-text-orientation: vertical-right; -webkit-text-security: none; -webkit-text-stroke-color: rgb(51, 51, 51); -webkit-text-stroke-width: 0px; transform: none; transform-origin: 570px 247.625px; transform-style: flat; -webkit-user-drag: auto; -webkit-user-modify: read-only; user-select: text; -webkit-writing-mode: horizontal-tb; -webkit-app-region: no-drag; buffered-rendering: auto; clip-path: none; clip-rule: nonzero; mask: none; filter: none; flood-color: rgb(0, 0, 0); flood-opacity: 1; lighting-color: rgb(255, 255, 255); stop-color: rgb(0, 0, 0); stop-opacity: 1; color-interpolation: sRGB; color-interpolation-filters: linearRGB; color-rendering: auto; fill: rgb(0, 0, 0); fill-opacity: 1; fill-rule: nonzero; marker-end: none; marker-mid: none; marker-start: none; mask-type: luminance; shape-rendering: auto; stroke: none; stroke-dasharray: none; stroke-dashoffset: 0px; stroke-linecap: butt; stroke-linejoin: miter; stroke-miterlimit: 4; stroke-opacity: 1; stroke-width: 1px; alignment-baseline: auto; baseline-shift: 0px; dominant-baseline: auto; text-anchor: start; writing-mode: horizontal-tb; vector-effect: none; paint-order: fill stroke markers; d: none; cx: 0px; cy: 0px; x: 0px; y: 0px; r: 0px; rx: auto; ry: auto;" version="1.1" xmlns:xlink="http://www.w3.org/1999/xlink"><style type="text/css">svg:not(:root) { overflow: hidden; }
*, ::before, ::after { box-sizing: border-box; }
.axis path, .axis line { fill: none; stroke: rgb(0, 0, 0); shape-rendering: crispEdges; }
.line { fill: none; stroke: steelblue; stroke-width: 1.5px; }</style><svg xmlns="http://www.w3.org/2000/svg" id="svg"><g transform="translate(50,20)"><g class="axis axis--x" transform="translate(0,445.28)" fill="none" font-size="10" font-family="sans-serif" text-anchor="middle" style="font-style: normal; font-variant: normal; font-weight: normal; font-stretch: normal; font-size: 12px; line-height: normal; font-family: sans-serif;"><path class="domain" stroke="#000" d="M0.5,6V0.5H1005.5V6"/><g class="tick" opacity="1" transform="translate(45.17916950499546,0)"><line stroke="#000" y2="6" x1="0.5" x2="0.5"/><text fill="#000" y="9" x="0.5" dy="0.71em">1994</text></g><g class="tick" opacity="1" transform="translate(128.47276623524067,0)"><line stroke="#000" y2="6" x1="0.5" x2="0.5"/><text fill="#000" y="9" x="0.5" dy="0.71em">1996</text></g><g class="tick" opacity="1" transform="translate(211.8804637829246,0)"><line stroke="#000" y2="6" x1="0.5" x2="0.5"/><text fill="#000" y="9" x="0.5" dy="0.71em">1998</text></g><g class="tick" opacity="1" transform="translate(295.1740605131698,0)"><line stroke="#000" y2="6" x1="0.5" x2="0.5"/><text fill="#000" y="9" x="0.5" dy="0.71em">2000</text></g><g class="tick" opacity="1" transform="translate(378.58175806085376,0)"><line stroke="#000" y2="6" x1="0.5" x2="0.5"/><text fill="#000" y="9" x="0.5" dy="0.71em">2002</text></g><g class="tick" opacity="1" transform="translate(461.87535479109897,0)"><line stroke="#000" y2="6" x1="0.5" x2="0.5"/><text fill="#000" y="9" x="0.5" dy="0.71em">2004</text></g><g class="tick" opacity="1" transform="translate(545.2830523387829,0)"><line stroke="#000" y2="6" x1="0.5" x2="0.5"/><text fill="#000" y="9" x="0.5" dy="0.71em">2006</text></g><g class="tick" opacity="1" transform="translate(628.5766490690281,0)"><line stroke="#000" y2="6" x1="0.5" x2="0.5"/><text fill="#000" y="9" x="0.5" dy="0.71em">2008</text></g><g class="tick" opacity="1" transform="translate(711.9843466167122,0)"><line stroke="#000" y2="6" x1="0.5" x2="0.5"/><text fill="#000" y="9" x="0.5" dy="0.71em">2010</text></g><g class="tick" opacity="1" transform="translate(795.2779433469573,0)"><line stroke="#000" y2="6" x1="0.5" x2="0.5"/><text fill="#000" y="9" x="0.5" dy="0.71em">2012</text></g><g class="tick" opacity="1" transform="translate(878.6856408946412,0)"><line stroke="#000" y2="6" x1="0.5" x2="0.5"/><text fill="#000" y="9" x="0.5" dy="0.71em">2014</text></g><g class="tick" opacity="1" transform="translate(961.9792376248864,0)"><line stroke="#000" y2="6" x1="0.5" x2="0.5"/><text fill="#000" y="9" x="0.5" dy="0.71em">2016</text></g><text transform="translate(994.95,0)" y="-16" dy="0.71em" fill="#000" style="font-style: normal; font-variant: normal; font-weight: normal; font-stretch: normal; font-size: 12px; line-height: normal; font-family: sans-serif;">Year</text></g><g class="axis axis--y" fill="none" font-size="10" font-family="sans-serif" text-anchor="end" style="font-style: normal; font-variant: normal; font-weight: normal; font-stretch: normal; font-size: 12px; line-height: normal; font-family: sans-serif;"><path class="domain" stroke="#000" d="M-6,445.78H0.5V0.5H-6"/><g class="tick" opacity="1" transform="translate(0,445.28)"><line stroke="#000" x2="-6" y1="0.5" y2="0.5"/><text fill="#000" x="-9" y="0.5" dy="0.32em">22</text></g><g class="tick" opacity="1" transform="translate(0,402.8723809523809)"><line stroke="#000" x2="-6" y1="0.5" y2="0.5"/><text fill="#000" x="-9" y="0.5" dy="0.32em">20</text></g><g class="tick" opacity="1" transform="translate(0,360.4647619047619)"><line stroke="#000" x2="-6" y1="0.5" y2="0.5"/><text fill="#000" x="-9" y="0.5" dy="0.32em">18</text></g><g class="tick" opacity="1" transform="translate(0,318.0571428571428)"><line stroke="#000" x2="-6" y1="0.5" y2="0.5"/><text fill="#000" x="-9" y="0.5" dy="0.32em">16</text></g><g class="tick" opacity="1" transform="translate(0,275.6495238095238)"><line stroke="#000" x2="-6" y1="0.5" y2="0.5"/><text fill="#000" x="-9" y="0.5" dy="0.32em">14</text></g><g class="tick" opacity="1" transform="translate(0,233.24190476190475)"><line stroke="#000" x2="-6" y1="0.5" y2="0.5"/><text fill="#000" x="-9" y="0.5" dy="0.32em">12</text></g><g class="tick" opacity="1" transform="translate(0,190.8342857142857)"><line stroke="#000" x2="-6" y1="0.5" y2="0.5"/><text fill="#000" x="-9" y="0.5" dy="0.32em">10</text></g><g class="tick" opacity="1" transform="translate(0,148.42666666666665)"><line stroke="#000" x2="-6" y1="0.5" y2="0.5"/><text fill="#000" x="-9" y="0.5" dy="0.32em">8</text></g><g class="tick" opacity="1" transform="translate(0,106.01904761904761)"><line stroke="#000" x2="-6" y1="0.5" y2="0.5"/><text fill="#000" x="-9" y="0.5" dy="0.32em">6</text></g><g class="tick" opacity="1" transform="translate(0,63.61142857142856)"><line stroke="#000" x2="-6" y1="0.5" y2="0.5"/><text fill="#000" x="-9" y="0.5" dy="0.32em">4</text></g><g class="tick" opacity="1" transform="translate(0,21.20380952380952)"><line stroke="#000" x2="-6" y1="0.5" y2="0.5"/><text fill="#000" x="-9" y="0.5" dy="0.32em">2</text></g><text y="-20" dy="0.71em" fill="#000">Position</text></g><g class="team"><path class="line" d="M0,42.40761904761904L4.75420072661217,60.077460317460314C9.50840145322434,77.74730158730158,19.01680290644868,113.08698412698412,24.64577656675749,106.01904761904761C30.274750227066303,98.9511111111111,32.02429609445958,49.47555555555555,33.45055631244323,24.737777777777776C34.87681653042688,0,35.9797910990009,0,37.063748864668476,10.60190476190476C38.14770663033605,21.20380952380952,39.21264759309719,42.40761904761904,40.391689373297005,49.47555555555555C41.57073115349683,56.54349206349206,42.86387375113534,49.47555555555555,44.53735240690282,42.40761904761904C46.2108310626703,35.339682539682535,48.26464577656676,28.27174603174603,49.824023614895545,24.737777777777776C51.38340145322434,21.20380952380952,52.44834241598547,21.20380952380952,53.64640099909173,17.669841269841267C54.844459582198,14.135873015873015,56.17563578564941,7.0679365079365075,57.37369436875568,3.5339682539682538C58.571752951861946,0,59.636693914623066,0,60.70163487738419,7.0679365079365075C61.76657584014532,14.135873015873015,62.83151680290644,28.27174603174603,64.06760899182561,28.27174603174603C65.30370118074478,28.27174603174603,66.71094459582199,14.135873015873015,68.4414736603088,7.0679365079365075C70.17200272479563,0,72.22581743869209,0,74.05143051771117,0C75.87704359673023,0,77.47445504087193,0,78.80563124432332,0C80.13680744777474,0,81.20174841053587,0,82.266689373297,0C83.33163033605813,0,84.39657129881925,0,86.10808356039963,0C87.81959582198003,0,90.17767938237965,0,92.45969573115349,0C94.74171207992732,0,96.94766121707539,0,98.56408946412353,0C100.18051771117166,0,101.20742506811989,0,102.25334922797457,0C103.29927338782925,0,104.36421435059037,0,105.69539055404177,0C107.02656675749319,0,108.62397820163487,0,109.95515440508628,0C111.2863306085377,0,112.35127157129882,0,113.41621253405994,0C114.48115349682108,0,115.5460944595822,0,116.61103542234333,0C117.67597638510445,0,118.74091734786559,0,119.93897593097186,0C121.13703451407811,0,122.46821071752952,0,123.66626930063576,0C124.86432788374204,0,125.92926884650318,0,127.14634423251589,0C128.3634196185286,0,129.73262942779292,0,130.94970481380562,0C132.16678019981836,0,133.23172116257948,0,134.9622502270663,0C136.69277929155314,0,139.08889645776568,0,140.8194255222525,0C142.54995458673932,0,143.61489554950046,0,144.94607175295187,0C146.27724795640327,0,147.87465940054494,0,149.73830608537693,0C151.6019527702089,0,153.73183469573112,0,155.32924613987282,0C156.92665758401452,0,157.99159854677563,0,159.0565395095368,0C160.12148047229792,0,161.18642143505903,0,162.25136239782017,0C163.3163033605813,0,164.38124432334243,0,165.44618528610354,0C166.51112624886468,0,167.57606721162583,0,169.45873069936422,0C171.34139418710265,0,174.04178019981836,0,176.17166212534062,0C178.30154405086287,0,179.86092188919164,0,181.30619891008178,0C182.75147593097185,0,184.08265213442326,0,185.41382833787466,0C186.74500454132604,0,188.07618074477747,0,189.27423932788372,0C190.47229791099002,0,191.53723887375114,0,192.7352974568574,0C193.93335603996366,0,195.26453224341506,0,196.46259082652134,0C197.6606494096276,0,198.72559037238875,0,199.82856494096276,0C200.9315395095368,0,202.07254768392372,0,203.27060626702996,0C204.4686648501362,0,205.72377384196184,0,206.99789963669392,0C208.27202543142596,0,209.56516802906447,0,211.2956970935513,0C213.02622615803816,0,215.19414168937328,0,216.81056993642144,0C218.42699818346955,0,219.4919391462307,0,220.68999772933697,0C221.88805631244324,0,223.21923251589465,0,224.4172910990009,0C225.61534968210717,0,226.68029064486828,0,228.27770208900998,0C229.87511353315168,0,232.00499545867396,0,233.73552452316073,0C235.4660535876476,0,236.797229791099,0,237.99528837420527,0C239.19334695731155,0,240.2582879200727,0,241.45634650317893,0C242.6544050862852,0,243.98558128973661,0,245.18363987284292,0C246.38169845594916,0,247.44663941871025,0,248.64469800181655,0C249.8427565849228,0,251.17393278837417,0,252.50510899182555,0C253.83628519527701,0,255.1674613987284,0,256.36551998183467,0C257.563578564941,0,258.6285195277021,0,259.6934604904632,0C260.75840145322434,0,261.82334241598545,0,262.88828337874656,0C263.9532243415077,0,265.01816530426885,0,266.08310626703,0C267.14804722979113,0,268.21298819255225,0,269.27792915531336,0C270.3428701180745,0,271.40781108083564,0,272.60586966394186,0C273.8039282470482,0,275.13510445049957,0,276.33316303360584,0C277.5312216167121,0,278.59616257947323,0,279.66110354223434,0C280.7260445049955,0,281.7909854677566,0,282.85592643051774,0C283.92086739327885,0,284.98580835603997,0,286.1838669391462,0C287.3819255222525,0,288.7131017257039,0,290.0442779291553,0C291.37545413260676,0,292.70663033605814,0,293.9046889191644,0C295.10274750227063,0,296.16768846503174,0,297.2326294277929,0C298.29757039055403,0,299.36251135331514,0,300.4274523160763,0C301.4923932788374,0,302.55733424159854,0,303.6222752043597,0C304.68721616712077,0,305.75215712988194,0,306.817098092643,0C307.88203905540416,0,308.94698001816533,0,310.0119209809264,0C311.07686194368756,0,312.1418029064487,0,313.2067438692098,0C314.27168483197096,0,315.3366257947321,0,316.53468437783835,0C317.7327429609446,0,319.063919164396,0,320.2619777475022,0C321.4600363306085,0,322.52497729336966,0,323.7230358764759,0C324.9210944595822,0,326.2522706630336,0,327.583446866485,0C328.91462306993645,0,330.24579927338783,0,331.57697547683927,0C332.9081516802907,0,334.2393278837421,0,335.4373864668483,0C336.63544504995457,0,337.7003860127157,0,338.76532697547685,0C339.83026793823797,0,340.8952089009991,0,341.96014986376025,0C343.02509082652136,0,344.0900317892825,0,345.15497275204365,0C346.2199137148047,0,347.2848546775658,0,348.48291326067215,3.5339682539682538C349.6809718437784,7.0679365079365075,351.01214804722986,14.135873015873015,352.34332425068123,17.669841269841267C353.6745004541326,21.20380952380952,355.005676657584,21.20380952380952,356.2037352406903,21.20380952380952C357.4017938237966,21.20380952380952,358.4667347865577,21.20380952380952,359.664793369664,21.20380952380952C360.8628519527702,21.20380952380952,362.1940281562216,21.20380952380952,363.39208673932785,21.20380952380952C364.5901453224341,21.20380952380952,365.65508628519524,21.20380952380952,366.72002724795635,21.20380952380952C367.7849682107175,21.20380952380952,368.84990917347864,21.20380952380952,370.0479677565849,24.737777777777776C371.24602633969124,28.27174603174603,372.5772025431426,35.339682539682535,373.77526112624884,38.87365079365079C374.9733197093551,42.40761904761904,376.0382606721162,42.40761904761904,377.1032016348774,42.40761904761904C378.1681425976385,42.40761904761904,379.2330835603996,42.40761904761904,380.2980245231608,42.40761904761904C381.3629654859219,42.40761904761904,382.427906448683,42.40761904761904,383.6259650317893,42.40761904761904C384.82402361489557,42.40761904761904,386.15519981834694,42.40761904761904,387.35325840145316,38.87365079365079C388.55131698455943,35.339682539682535,389.61625794732066,28.27174603174603,390.6811989100818,24.737777777777776C391.7461398728429,21.20380952380952,392.81108083560395,21.20380952380952,394.27537465940054,17.669841269841267C395.73966848319714,14.135873015873015,397.60331516802904,7.0679365079365075,399.3338442325159,3.5339682539682538C401.06437329700276,0,402.6617847411444,0,404.126078564941,0C405.5903723887375,0,406.9215485921889,0,408.2527247956403,0C409.58390099909167,0,410.91507720254316,0,412.1131357856494,0C413.31119436875565,0,414.37613533151676,0,415.44107629427793,0C416.50601725703905,0,417.57095821980016,0,418.63589918256133,0C419.70084014532245,0,420.76578110808356,0,421.96383969118983,0C423.16189827429616,0,424.49307447774754,0,425.8242506811989,0C427.1554268846503,0,428.4866030881017,0,429.684661671208,0C430.8827202543143,0,431.9476612170754,0,433.0126021798365,0C434.07754314259756,0,435.14248410535873,0,436.34054268846495,0C437.5386012715712,0,438.86977747502266,0,440.20095367847415,0C441.5321298819255,0,442.8633060853769,0,444.0613646684831,0C445.25942325158945,0,446.3243642143506,0,447.3893051771117,0C448.45424613987285,0,449.5191871026339,0,450.5841280653951,0C451.6490690281562,0,452.7140099909173,0,453.7789509536785,0C454.8438919164396,0,455.9088328792007,0,456.9357402361489,0C457.9626475930972,0,458.9515213442325,0,460.0164623069936,0C461.08140326975473,0,462.2224114441417,0,463.45850363306084,0C464.69459582198004,0,466.0257720254314,0,467.22383060853764,0C468.4218891916439,0,469.486830154405,0,470.5517711171662,0C471.6167120799273,0,472.6816530426884,0,473.7465940054496,0C474.8115349682107,0,475.8764759309718,0,476.941416893733,0C478.0063578564941,0,479.0712988192552,0,480.1362397820163,0C481.2011807447775,0,482.2661217075386,0,483.3310626702997,0C484.39600363306084,0,485.46094459582196,0,486.52588555858307,0C487.59082652134424,0,488.65576748410535,0,489.8538260672116,0C491.05188465031785,0,492.38306085376934,0,493.71423705722077,0C495.04541326067215,0,496.3765894641235,0,497.80284968210725,0C499.22910990009086,0,500.75045413260676,0,502.0816303360582,0C503.4128065395096,0,504.55381471389654,0,505.6567892824705,0C506.7597638510445,0,507.8247048138057,0,509.02276339691184,0C510.2208219800182,0,511.55199818346955,0,512.7500567665758,0C513.9481153496821,0,515.0130563124432,0,516.0779972752043,0C517.1429382379655,0,518.2078792007266,0,519.2728201634877,0C520.3377611262489,0,521.40270208901,0,522.6007606721163,0C523.7988192552225,0,525.129995458674,0,526.3280540417802,0C527.5261126248864,0,528.5910535876475,0,529.6179609445958,0C530.6448683015441,0,531.6337420526794,0,532.7937670299727,0C533.9537920072661,0,535.2849682107176,0,536.616144414169,0C537.9473206176203,0,539.2784968210718,0,540.4195049954587,0C541.5605131698456,0,542.511353315168,0,543.614327883742,0C544.7173024523161,0,545.9724114441417,0,547.132436421435,0C548.2924613987284,0,549.3574023614896,0,550.4223433242506,0C551.4872842870118,0,552.552225249773,0,553.7502838328792,0C554.9483424159854,0,556.2795186194368,0,557.4775772025431,0C558.6756357856494,0,559.7405767484105,0,561.3379881925522,0C562.9353996366939,0,565.0652815622161,0,566.7958106267029,0C568.5263396911897,0,569.8575158946411,0,571.0555744777474,0C572.2536330608538,0,573.3185740236148,0,574.5166326067211,0C575.7146911898275,0,577.0458673932789,0,578.3770435967302,0C579.7082198001816,0,581.0393960036331,0,582.1994209809264,0C583.3594459582199,0,584.3483197093552,0,585.4132606721163,0C586.4782016348775,0,587.6192098092644,0,588.7221843778384,3.5339682539682538C589.8251589464124,7.0679365079365075,590.8900999091735,14.135873015873015,591.9550408719346,21.20380952380952C593.0199818346956,28.27174603174603,594.0849227974568,35.339682539682535,595.2829813805631,38.87365079365079C596.4810399636693,42.40761904761904,597.8122161671208,42.40761904761904,599.010274750227,38.87365079365079C600.2083333333334,35.339682539682535,601.2732742960944,28.27174603174603,602.3382152588556,28.27174603174603C603.4031562216168,28.27174603174603,604.4680971843778,35.339682539682535,605.666155767484,31.805714285714284C606.8642143505903,28.27174603174603,608.1953905540418,14.135873015873015,609.5265667574931,7.0679365079365075C610.8577429609445,0,612.188919164396,0,613.3869777475022,7.0679365079365075C614.5850363306085,14.135873015873015,615.6499772933697,28.27174603174603,616.8480358764759,31.805714285714284C618.0460944595822,35.339682539682535,619.3772706630335,28.27174603174603,620.6133628519527,24.737777777777776C621.8494550408719,21.20380952380952,622.9904632152588,21.20380952380952,624.017370572207,21.20380952380952C625.0442779291553,21.20380952380952,625.9570844686649,21.20380952380952,626.9839918256131,21.20380952380952C628.0108991825613,21.20380952380952,629.1519073569482,21.20380952380952,630.2548819255222,21.20380952380952C631.3578564940963,21.20380952380952,632.4227974568574,21.20380952380952,633.4877384196185,21.20380952380952C634.5526793823797,21.20380952380952,635.6176203451408,21.20380952380952,636.6825613079019,21.20380952380952C637.7475022706631,21.20380952380952,638.8124432334242,21.20380952380952,639.8773841961853,21.20380952380952C640.9423251589463,21.20380952380952,642.0072661217074,21.20380952380952,643.0722070844686,21.20380952380952C644.1371480472297,21.20380952380952,645.2020890099908,21.20380952380952,646.267029972752,28.27174603174603C647.3319709355131,35.339682539682535,648.3969118982743,49.47555555555555,649.5949704813805,63.61142857142857C650.7930290644869,77.74730158730158,652.1242052679382,91.8831746031746,653.3222638510445,98.9511111111111C654.5203224341508,106.01904761904761,655.585263396912,106.01904761904761,656.7833219800182,98.9511111111111C657.9813805631244,91.8831746031746,659.3125567665758,77.74730158730158,660.6437329700273,74.21333333333332C661.9749091734787,70.67936507936507,663.3060853769301,77.74730158730158,664.6372615803815,81.28126984126983C665.9684377838329,84.81523809523809,667.2996139872843,84.81523809523809,668.4976725703906,84.81523809523809C669.6957311534967,84.81523809523809,670.7606721162579,84.81523809523809,671.825613079019,84.81523809523809C672.8905540417801,84.81523809523809,673.9554950045413,84.81523809523809,675.0204359673024,84.81523809523809C676.0853769300635,84.81523809523809,677.1503178928247,84.81523809523809,678.2152588555858,81.28126984126983C679.2801998183469,77.74730158730158,680.3451407811081,70.67936507936507,681.4100817438692,67.14539682539682C682.4750227066303,63.611428571428554,683.5399636693915,63.611428571428554,684.6049046321526,67.14539682539682C685.6698455949136,70.67936507936507,686.7347865576749,77.74730158730158,687.7997275204358,67.14539682539682C688.8646684831971,56.54349206349206,689.9296094459582,28.27174603174603,691.1276680290645,14.135873015873015C692.3257266121708,0,693.6569028156222,0,694.8549613987284,0C696.0530199818346,0,697.1179609445958,0,698.4871707538601,0C699.8563805631244,0,701.5298592188919,0,703.0321866485014,3.5339682539682538C704.5345140781109,7.0679365079365075,705.8656902815623,14.135873015873015,707.0257152588556,17.669841269841267C708.185740236149,21.20380952380952,709.1746139872843,21.20380952380952,710.6008742052678,21.20380952380952C712.0271344232515,21.20380952380952,713.8907811080835,21.20380952380952,715.35507493188,21.20380952380952C716.8193687556767,21.20380952380952,717.8843097184377,21.20380952380952,718.9492506811988,21.20380952380952C720.0141916439601,21.20380952380952,721.0791326067211,21.20380952380952,722.1440735694823,17.669841269841267C723.2090145322435,14.135873015873015,724.2739554950045,7.0679365079365075,725.3388964577657,3.5339682539682538C726.4038374205269,0,727.4687783832879,0,728.9330722070845,7.0679365079365075C730.3973660308811,14.135873015873015,732.261012715713,28.27174603174603,733.7253065395095,35.339682539682535C735.1896003633061,42.40761904761904,736.2545413260672,42.40761904761904,737.4525999091735,45.9415873015873C738.6506584922798,49.47555555555555,739.9818346957312,56.54349206349206,741.3130108991827,56.54349206349206C742.644187102634,56.54349206349206,743.9753633060855,49.47555555555555,745.1734218891917,45.9415873015873C746.371480472298,42.40761904761904,747.436421435059,42.40761904761904,748.5013623978201,45.9415873015873C749.5663033605812,49.47555555555555,750.6312443233423,56.54349206349206,751.6961852861035,60.077460317460314C752.7611262488646,63.611428571428554,753.8260672116257,63.611428571428554,754.7578905540418,63.61142857142857C755.6897138964578,63.611428571428554,756.4884196185286,63.611428571428554,757.5533605812898,63.61142857142857C758.618301544051,63.611428571428554,759.9494777475023,63.611428571428554,761.2806539509537,60.077460317460314C762.6118301544051,56.54349206349206,763.9430063578565,49.47555555555555,765.2741825613078,45.9415873015873C766.6053587647593,42.40761904761904,767.9365349682107,42.40761904761904,769.4008287920072,49.47555555555555C770.8651226158039,56.54349206349206,772.4625340599456,70.67936507936507,773.793710263397,74.21333333333332C775.1248864668484,77.74730158730158,776.1898274296095,70.67936507936507,777.2547683923707,74.21333333333332C778.3197093551316,77.74730158730158,779.3846503178929,91.8831746031746,780.4495912806539,102.48507936507936C781.5145322434151,113.08698412698412,782.5794732061762,120.15492063492063,783.6444141689375,116.62095238095236C784.7093551316984,113.08698412698412,785.7742960944597,98.9511111111111,786.9723546775658,95.41714285714284C788.1704132606723,91.8831746031746,789.5015894641236,98.9511111111111,790.6996480472299,102.48507936507936C791.8977066303361,106.01904761904761,792.9626475930972,106.01904761904761,794.0275885558584,106.01904761904761C795.0925295186195,106.01904761904761,796.1574704813805,106.01904761904761,797.2224114441418,109.55301587301587C798.2873524069028,113.08698412698412,799.352293369664,120.15492063492063,800.2841167120799,116.62095238095236C801.215940054496,113.08698412698412,802.0146457765668,98.9511111111111,803.079586739328,95.41714285714284C804.1445277020889,91.8831746031746,805.4757039055403,98.9511111111111,806.6737624886467,102.48507936507936C807.871821071753,106.01904761904761,808.9367620345141,106.01904761904761,810.0017029972752,102.48507936507936C811.0666439600363,98.9511111111111,812.1315849227975,91.8831746031746,813.1965258855586,109.55301587301587C814.2614668483197,127.22285714285714,815.3264078110809,169.63047619047617,816.5244663941871,197.9022222222222C817.7225249772933,226.17396825396824,819.0537011807447,240.30984126984126,820.251759763851,243.84380952380948C821.4498183469573,247.37777777777774,822.5147593097184,240.30984126984126,823.5797002724795,243.84380952380948C824.6446412352407,247.37777777777777,825.7095821980018,261.5136507936508,826.9076407811081,265.0476190476191C828.1056993642143,268.58158730158726,829.4368755676657,261.5136507936508,830.9011693914623,275.64952380952377C832.3654632152588,289.7853968253968,833.9628746594004,325.12507936507933,835.3130676657584,342.79492063492063C836.6632606721163,360.4647619047619,837.7662352406902,360.4647619047619,838.8501930063579,360.4647619047619C839.9341507720255,360.4647619047619,840.9990917347865,360.4647619047619,842.0640326975476,360.4647619047619C843.1289736603088,360.4647619047619,844.1939146230699,360.4647619047619,845.258855585831,363.9987301587301C846.3237965485922,367.5326984126984,847.3887375113533,374.60063492063483,848.4536784741144,378.13460317460317C849.5186194368756,381.6685714285714,850.5835603996367,381.6685714285714,851.6485013623977,392.27047619047613C852.713442325159,402.872380952381,853.7783832879201,424.07619047619045,854.8433242506811,388.7365079365079C855.9082652134422,353.39682539682536,856.9732061762033,261.5136507936508,858.1712647593098,215.57206349206345C859.3693233424159,169.63047619047617,860.7004995458674,169.63047619047617,862.0316757493188,166.09650793650792C863.3628519527701,162.56253968253966,864.6940281562216,155.49460317460316,866.025204359673,162.56253968253966C867.3563805631244,169.63047619047617,868.6875567665758,190.8342857142857,870.1518505903723,197.9022222222222C871.616144414169,204.97015873015872,873.2135558583108,197.9022222222222,874.411614441417,194.36825396825395C875.6096730245232,190.8342857142857,876.4083787465939,190.8342857142857,877.34020208901,190.8342857142857C878.272025431426,190.8342857142857,879.3369663941871,190.8342857142857,880.4019073569483,187.30031746031742C881.4668483197092,183.7663492063492,882.5317892824705,176.69841269841268,883.5967302452315,173.1644444444444C884.6616712079928,169.63047619047617,885.7266121707538,169.63047619047617,886.7915531335151,159.0285714285714C887.856494096276,148.42666666666665,888.9214350590373,127.22285714285714,889.9863760217983,109.55301587301585C891.0513169845594,91.8831746031746,892.1162579473206,77.74730158730158,893.1811989100817,67.14539682539682C894.2461398728428,56.54349206349206,895.311080835604,49.47555555555555,896.6422570390554,60.077460317460314C897.9734332425068,70.67936507936507,899.5708446866485,98.9511111111111,900.9020208900998,113.08698412698412C902.2331970935512,127.22285714285711,903.2981380563124,127.22285714285711,904.4961966394188,123.68888888888887C905.6942552225249,120.15492063492063,907.0254314259764,113.08698412698412,908.3566076294278,109.55301587301585C909.6877838328792,106.01904761904761,911.0189600363307,106.01904761904761,912.350136239782,106.01904761904761C913.6813124432334,106.01904761904761,915.0124886466848,106.01904761904761,916.077429609446,106.01904761904761C917.1423705722071,106.01904761904761,917.941076294278,106.01904761904761,918.7397820163487,106.01904761904761C919.5384877384196,106.01904761904761,920.3371934604905,106.01904761904761,921.4021344232515,106.01904761904761C922.4670753860128,106.01904761904761,923.7982515894641,106.01904761904761,924.9963101725704,106.01904761904761C926.1943687556767,106.01904761904761,927.2593097184377,106.01904761904761,928.3242506811989,102.48507936507936C929.3891916439601,98.9511111111111,930.4541326067211,91.8831746031746,931.5190735694822,88.34920634920634C932.5840145322435,84.81523809523809,933.6489554950045,84.81523809523809,934.7138964577656,84.81523809523809C935.7788374205267,84.81523809523809,936.8437783832878,84.81523809523809,938.0418369663943,88.34920634920634C939.2398955495004,91.8831746031746,940.5710717529519,98.9511111111111,941.7691303360581,98.9511111111111C942.9671889191644,98.9511111111111,944.0321298819255,91.8831746031746,945.0970708446866,88.34920634920634C946.1620118074478,84.81523809523809,947.2269527702089,84.81523809523809,948.29189373297,91.8831746031746C949.3568346957312,98.9511111111111,950.4217756584922,113.08698412698412,951.6198342415986,123.68888888888887C952.8178928247047,134.29079365079363,954.1490690281562,141.35873015873014,955.3471276112624,137.82476190476189C956.5451861943687,134.29079365079363,957.6101271571298,120.15492063492063,958.8081857402361,113.08698412698412C960.0062443233423,106.01904761904761,961.3374205267937,106.01904761904761,962.5354791099002,106.01904761904761C963.7335376930064,106.01904761904761,964.7984786557676,106.01904761904761,965.8634196185285,106.01904761904761C966.9283605812898,106.01904761904761,967.9933015440507,106.01904761904761,969.191360127157,109.55301587301587C970.3894187102633,113.08698412698412,971.7205949137148,120.15492063492063,972.9186534968211,123.68888888888887C974.1167120799273,127.22285714285711,975.1816530426885,127.22285714285711,976.2465940054495,127.22285714285714C977.3115349682107,127.22285714285711,978.3764759309719,127.22285714285711,979.7076521344233,134.29079365079363C981.0388283378746,141.35873015873014,982.6362397820163,155.49460317460316,983.9674159854677,162.56253968253966C985.2985921889191,169.63047619047617,986.3635331516803,169.63047619047617,987.5615917347865,151.9606349206349C988.7596503178929,134.29079365079363,990.0908265213443,98.9511111111111,991.4220027247957,77.74730158730158C992.753178928247,56.54349206349206,994.0843551316984,49.47555555555555,995.4155313351498,42.40761904761904C996.7467075386013,35.339682539682535,998.0778837420527,28.27174603174603,999.2759423251591,24.737777777777776C1000.4740009082652,21.20380952380952,1001.5389418710264,21.20380952380952,1002.4707652134424,21.20380952380952C1003.4025885558582,21.20380952380952,1004.2012942779292,21.20380952380952,1004.6006471389646,21.20380952380952L1005,21.20380952380952" style="stroke: rgb(31, 119, 180);"/><text transform="translate(1005,21.20380952380952)" x="3" dy="0.35em" style="font-style: normal; font-variant: normal; font-weight: normal; font-stretch: normal; font-size: 14px; line-height: normal; font-family: sans-serif; fill: rgb(31, 119, 180);">Brazil</text></g><g class="team"><path class="line" d="M0,0L4.75420072661217,0C9.50840145322434,0,19.01680290644868,0,24.64577656675749,14.135873015873015C30.274750227066303,28.27174603174603,32.02429609445958,56.54349206349206,33.45055631244323,67.14539682539682C34.87681653042688,77.74730158730158,35.9797910990009,70.67936507936507,37.063748864668476,63.61142857142857C38.14770663033605,56.54349206349206,39.21264759309719,49.47555555555555,40.391689373297005,38.87365079365079C41.57073115349683,28.27174603174603,42.86387375113534,14.135873015873015,44.53735240690282,7.0679365079365075C46.2108310626703,0,48.26464577656676,0,49.824023614895545,0C51.38340145322434,0,52.44834241598547,0,53.64640099909173,3.5339682539682538C54.844459582198,7.0679365079365075,56.17563578564941,14.135873015873015,57.37369436875568,17.669841269841267C58.571752951861946,21.20380952380952,59.636693914623066,21.20380952380952,60.70163487738419,17.669841269841267C61.76657584014532,14.135873015873015,62.83151680290644,7.0679365079365075,64.06760899182561,14.135873015873015C65.30370118074478,21.20380952380952,66.71094459582199,42.40761904761904,68.4414736603088,53.009523809523806C70.17200272479563,63.611428571428554,72.22581743869209,63.611428571428554,74.05143051771117,63.61142857142857C75.87704359673023,63.611428571428554,77.47445504087193,63.611428571428554,78.80563124432332,63.61142857142857C80.13680744777474,63.611428571428554,81.20174841053587,63.611428571428554,82.266689373297,67.14539682539682C83.33163033605813,70.67936507936507,84.39657129881925,77.74730158730158,86.10808356039963,81.28126984126983C87.81959582198003,84.81523809523809,90.17767938237965,84.81523809523809,92.45969573115349,81.28126984126983C94.74171207992732,77.74730158730158,96.94766121707539,70.67936507936507,98.56408946412353,70.67936507936507C100.18051771117166,70.67936507936507,101.20742506811989,77.74730158730158,102.25334922797457,81.28126984126983C103.29927338782925,84.81523809523809,104.36421435059037,84.81523809523809,105.69539055404177,81.28126984126983C107.02656675749319,77.74730158730158,108.62397820163487,70.67936507936507,109.95515440508628,67.14539682539682C111.2863306085377,63.611428571428554,112.35127157129882,63.611428571428554,113.41621253405994,63.61142857142857C114.48115349682108,63.611428571428554,115.5460944595822,63.611428571428554,116.61103542234333,60.077460317460314C117.67597638510445,56.54349206349206,118.74091734786559,49.47555555555555,119.93897593097186,42.40761904761904C121.13703451407811,35.339682539682535,122.46821071752952,28.27174603174603,123.66626930063576,24.737777777777776C124.86432788374204,21.20380952380952,125.92926884650318,21.20380952380952,127.14634423251589,21.20380952380952C128.3634196185286,21.20380952380952,129.73262942779292,21.20380952380952,130.94970481380562,24.737777777777776C132.16678019981836,28.27174603174603,133.23172116257948,35.339682539682535,134.9622502270663,35.339682539682535C136.69277929155314,35.339682539682535,139.08889645776568,28.27174603174603,140.8194255222525,24.737777777777776C142.54995458673932,21.20380952380952,143.61489554950046,21.20380952380952,144.94607175295187,21.20380952380952C146.27724795640327,21.20380952380952,147.87465940054494,21.20380952380952,149.73830608537693,21.20380952380952C151.6019527702089,21.20380952380952,153.73183469573112,21.20380952380952,155.32924613987282,21.20380952380952C156.92665758401452,21.20380952380952,157.99159854677563,21.20380952380952,159.0565395095368,21.20380952380952C160.12148047229792,21.20380952380952,161.18642143505903,21.20380952380952,162.25136239782017,21.20380952380952C163.3163033605813,21.20380952380952,164.38124432334243,21.20380952380952,165.44618528610354,21.20380952380952C166.51112624886468,21.20380952380952,167.57606721162583,21.20380952380952,169.45873069936422,21.20380952380952C171.34139418710265,21.20380952380952,174.04178019981836,21.20380952380952,176.17166212534062,21.20380952380952C178.30154405086287,21.20380952380952,179.86092188919164,21.20380952380952,181.30619891008178,21.20380952380952C182.75147593097185,21.20380952380952,184.08265213442326,21.20380952380952,185.41382833787466,21.20380952380952C186.74500454132604,21.20380952380952,188.07618074477747,21.20380952380952,189.27423932788372,31.805714285714284C190.47229791099002,42.40761904761904,191.53723887375114,63.61142857142857,192.7352974568574,70.67936507936507C193.93335603996366,77.74730158730158,195.26453224341506,70.67936507936507,196.46259082652134,60.077460317460314C197.6606494096276,49.47555555555555,198.72559037238875,35.339682539682535,199.82856494096276,31.805714285714284C200.9315395095368,28.27174603174603,202.07254768392372,35.339682539682535,203.27060626702996,35.339682539682535C204.4686648501362,35.339682539682535,205.72377384196184,28.27174603174603,206.99789963669392,24.737777777777776C208.27202543142596,21.20380952380952,209.56516802906447,21.20380952380952,211.2956970935513,21.20380952380952C213.02622615803816,21.20380952380952,215.19414168937328,21.20380952380952,216.81056993642144,21.20380952380952C218.42699818346955,21.20380952380952,219.4919391462307,21.20380952380952,220.68999772933697,21.20380952380952C221.88805631244324,21.20380952380952,223.21923251589465,21.20380952380952,224.4172910990009,21.20380952380952C225.61534968210717,21.20380952380952,226.68029064486828,21.20380952380952,228.27770208900998,24.737777777777776C229.87511353315168,28.27174603174603,232.00499545867396,35.339682539682535,233.73552452316073,38.87365079365079C235.4660535876476,42.40761904761904,236.797229791099,42.40761904761904,237.99528837420527,42.40761904761904C239.19334695731155,42.40761904761904,240.2582879200727,42.40761904761904,241.45634650317893,42.40761904761904C242.6544050862852,42.40761904761904,243.98558128973661,42.40761904761904,245.18363987284292,42.40761904761904C246.38169845594916,42.40761904761904,247.44663941871025,42.40761904761904,248.64469800181655,42.40761904761904C249.8427565849228,42.40761904761904,251.17393278837417,42.40761904761904,252.50510899182555,49.47555555555555C253.83628519527701,56.54349206349206,255.1674613987284,70.67936507936507,256.36551998183467,77.74730158730158C257.563578564941,84.81523809523809,258.6285195277021,84.81523809523809,259.6934604904632,84.81523809523809C260.75840145322434,84.81523809523809,261.82334241598545,84.81523809523809,262.88828337874656,77.74730158730158C263.9532243415077,70.67936507936507,265.01816530426885,56.54349206349206,266.08310626703,49.47555555555555C267.14804722979113,42.40761904761904,268.21298819255225,42.40761904761904,269.27792915531336,49.47555555555555C270.3428701180745,56.54349206349206,271.40781108083564,70.67936507936507,272.60586966394186,77.74730158730158C273.8039282470482,84.81523809523809,275.13510445049957,84.81523809523809,276.33316303360584,84.81523809523809C277.5312216167121,84.81523809523809,278.59616257947323,84.81523809523809,279.66110354223434,84.81523809523809C280.7260445049955,84.81523809523809,281.7909854677566,84.81523809523809,282.85592643051774,84.81523809523809C283.92086739327885,84.81523809523809,284.98580835603997,84.81523809523809,286.1838669391462,84.81523809523809C287.3819255222525,84.81523809523809,288.7131017257039,84.81523809523809,290.0442779291553,84.81523809523809C291.37545413260676,84.81523809523809,292.70663033605814,84.81523809523809,293.9046889191644,84.81523809523809C295.10274750227063,84.81523809523809,296.16768846503174,84.81523809523809,297.2326294277929,84.81523809523809C298.29757039055403,84.81523809523809,299.36251135331514,84.81523809523809,300.4274523160763,84.81523809523809C301.4923932788374,84.81523809523809,302.55733424159854,84.81523809523809,303.6222752043597,84.81523809523809C304.68721616712077,84.81523809523809,305.75215712988194,84.81523809523809,306.817098092643,88.34920634920634C307.88203905540416,91.8831746031746,308.94698001816533,98.9511111111111,310.0119209809264,102.48507936507936C311.07686194368756,106.01904761904761,312.1418029064487,106.01904761904761,313.2067438692098,116.62095238095237C314.27168483197096,127.22285714285714,315.3366257947321,148.42666666666665,316.53468437783835,166.09650793650792C317.7327429609446,183.7663492063492,319.063919164396,197.9022222222222,320.2619777475022,197.9022222222222C321.4600363306085,197.9022222222222,322.52497729336966,183.7663492063492,323.7230358764759,173.16444444444446C324.9210944595822,162.56253968253966,326.2522706630336,155.49460317460316,327.583446866485,151.9606349206349C328.91462306993645,148.42666666666665,330.24579927338783,148.42666666666665,331.57697547683927,159.0285714285714C332.9081516802907,169.63047619047617,334.2393278837421,190.8342857142857,335.4373864668483,201.43619047619043C336.63544504995457,212.03809523809522,337.7003860127157,212.03809523809522,338.76532697547685,212.03809523809522C339.83026793823797,212.03809523809522,340.8952089009991,212.03809523809522,341.96014986376025,212.03809523809522C343.02509082652136,212.03809523809522,344.0900317892825,212.03809523809522,345.15497275204365,201.4361904761905C346.2199137148047,190.8342857142857,347.2848546775658,169.63047619047617,348.48291326067215,162.56253968253966C349.6809718437784,155.49460317460316,351.01214804722986,162.56253968253966,352.34332425068123,162.56253968253966C353.6745004541326,162.56253968253966,355.005676657584,155.49460317460316,356.2037352406903,141.35873015873014C357.4017938237966,127.22285714285714,358.4667347865577,106.01904761904761,359.664793369664,95.41714285714285C360.8628519527702,84.81523809523809,362.1940281562216,84.81523809523809,363.39208673932785,109.55301587301587C364.5901453224341,134.29079365079363,365.65508628519524,183.7663492063492,366.72002724795635,215.5720634920635C367.7849682107175,247.37777777777777,368.84990917347864,261.5136507936508,370.0479677565849,257.9796825396825C371.24602633969124,254.4457142857143,372.5772025431426,233.24190476190475,373.77526112624884,226.17396825396827C374.9733197093551,219.10603174603173,376.0382606721162,226.17396825396824,377.1032016348774,229.70793650793652C378.1681425976385,233.24190476190475,379.2330835603996,233.24190476190475,380.2980245231608,233.24190476190475C381.3629654859219,233.24190476190475,382.427906448683,233.24190476190475,383.6259650317893,226.17396825396824C384.82402361489557,219.10603174603173,386.15519981834694,204.97015873015872,387.35325840145316,204.97015873015872C388.55131698455943,204.97015873015872,389.61625794732066,219.10603174603173,390.6811989100818,222.64C391.7461398728429,226.17396825396824,392.81108083560395,219.10603174603173,394.27537465940054,194.36825396825395C395.73966848319714,169.63047619047617,397.60331516802904,127.22285714285714,399.3338442325159,106.01904761904761C401.06437329700276,84.81523809523809,402.6617847411444,84.81523809523809,404.126078564941,81.28126984126983C405.5903723887375,77.74730158730158,406.9215485921889,70.67936507936507,408.2527247956403,67.14539682539682C409.58390099909167,63.611428571428554,410.91507720254316,63.611428571428554,412.1131357856494,63.61142857142857C413.31119436875565,63.611428571428554,414.37613533151676,63.611428571428554,415.44107629427793,63.61142857142857C416.50601725703905,63.611428571428554,417.57095821980016,63.611428571428554,418.63589918256133,63.61142857142857C419.70084014532245,63.611428571428554,420.76578110808356,63.611428571428554,421.96383969118983,67.14539682539682C423.16189827429616,70.67936507936507,424.49307447774754,77.74730158730158,425.8242506811989,81.28126984126983C427.1554268846503,84.81523809523809,428.4866030881017,84.81523809523809,429.684661671208,81.28126984126983C430.8827202543143,77.74730158730158,431.9476612170754,70.67936507936507,433.0126021798365,67.14539682539682C434.07754314259756,63.611428571428554,435.14248410535873,63.611428571428554,436.34054268846495,70.67936507936507C437.5386012715712,77.74730158730158,438.86977747502266,91.8831746031746,440.20095367847415,106.01904761904761C441.5321298819255,120.15492063492063,442.8633060853769,134.29079365079363,444.0613646684831,148.42666666666665C445.25942325158945,162.56253968253966,446.3243642143506,176.69841269841268,447.3893051771117,180.23238095238094C448.45424613987285,183.7663492063492,449.5191871026339,176.69841269841268,450.5841280653951,166.09650793650792C451.6490690281562,155.49460317460316,452.7140099909173,141.35873015873014,453.7789509536785,141.35873015873014C454.8438919164396,141.35873015873014,455.9088328792007,155.49460317460316,456.9357402361489,173.16444444444446C457.9626475930972,190.8342857142857,458.9515213442325,212.03809523809522,460.0164623069936,222.64C461.08140326975473,233.24190476190475,462.2224114441417,233.24190476190475,463.45850363306084,233.24190476190475C464.69459582198004,233.24190476190475,466.0257720254314,233.24190476190475,467.22383060853764,226.17396825396824C468.4218891916439,219.10603174603173,469.486830154405,204.97015873015872,470.5517711171662,187.30031746031742C471.6167120799273,169.63047619047617,472.6816530426884,148.42666666666665,473.7465940054496,144.8926984126984C474.8115349682107,141.35873015873014,475.8764759309718,155.49460317460316,476.941416893733,159.0285714285714C478.0063578564941,162.56253968253966,479.0712988192552,155.49460317460316,480.1362397820163,166.09650793650792C481.2011807447775,176.69841269841268,482.2661217075386,204.97015873015872,483.3310626702997,222.64C484.39600363306084,240.30984126984126,485.46094459582196,247.37777777777774,486.52588555858307,243.84380952380948C487.59082652134424,240.30984126984126,488.65576748410535,226.17396825396824,489.8538260672116,226.17396825396824C491.05188465031785,226.17396825396824,492.38306085376934,240.30984126984126,493.71423705722077,257.97968253968247C495.04541326067215,275.64952380952377,496.3765894641235,296.8533333333333,497.80284968210725,318.0571428571428C499.22910990009086,339.26095238095235,500.75045413260676,360.4647619047619,502.0816303360582,360.4647619047619C503.4128065395096,360.4647619047619,504.55381471389654,339.26095238095235,505.6567892824705,332.19301587301584C506.7597638510445,325.12507936507933,507.8247048138057,332.19301587301584,509.02276339691184,339.26095238095235C510.2208219800182,346.3288888888889,511.55199818346955,353.39682539682536,512.7500567665758,363.9987301587301C513.9481153496821,374.60063492063483,515.0130563124432,388.7365079365079,516.0779972752043,392.27047619047613C517.1429382379655,395.8044444444444,518.2078792007266,388.7365079365079,519.2728201634877,392.27047619047613C520.3377611262489,395.8044444444444,521.40270208901,409.94031746031743,522.6007606721163,381.6685714285714C523.7988192552225,353.39682539682536,525.129995458674,282.7174603174603,526.3280540417802,247.37777777777774C527.5261126248864,212.03809523809522,528.5910535876475,212.03809523809522,529.6179609445958,226.17396825396824C530.6448683015441,240.30984126984126,531.6337420526794,268.58158730158726,532.7937670299727,282.7174603174603C533.9537920072661,296.8533333333333,535.2849682107176,296.8533333333333,536.616144414169,300.3873015873016C537.9473206176203,303.9212698412698,539.2784968210718,310.9892063492063,540.4195049954587,314.52317460317454C541.5605131698456,318.0571428571428,542.511353315168,318.0571428571428,543.614327883742,321.5911111111111C544.7173024523161,325.12507936507933,545.9724114441417,332.19301587301584,547.132436421435,342.7949206349206C548.2924613987284,353.39682539682536,549.3574023614896,367.5326984126984,550.4223433242506,385.2025396825397C551.4872842870118,402.872380952381,552.552225249773,424.07619047619045,553.7502838328792,424.07619047619045C554.9483424159854,424.07619047619045,556.2795186194368,402.872380952381,557.4775772025431,392.27047619047613C558.6756357856494,381.6685714285714,559.7405767484105,381.6685714285714,561.3379881925522,346.3288888888888C562.9353996366939,310.9892063492063,565.0652815622161,240.30984126984126,566.7958106267029,204.97015873015872C568.5263396911897,169.63047619047617,569.8575158946411,169.63047619047617,571.0555744777474,166.09650793650792C572.2536330608538,162.56253968253966,573.3185740236148,155.49460317460316,574.5166326067211,144.8926984126984C575.7146911898275,134.29079365079363,577.0458673932789,120.15492063492063,578.3770435967302,113.08698412698412C579.7082198001816,106.01904761904761,581.0393960036331,106.01904761904761,582.1994209809264,106.01904761904761C583.3594459582199,106.01904761904761,584.3483197093552,106.01904761904761,585.4132606721163,102.48507936507936C586.4782016348775,98.9511111111111,587.6192098092644,91.8831746031746,588.7221843778384,88.34920634920634C589.8251589464124,84.81523809523809,590.8900999091735,84.81523809523809,591.9550408719346,84.81523809523809C593.0199818346956,84.81523809523809,594.0849227974568,84.81523809523809,595.2829813805631,84.81523809523809C596.4810399636693,84.81523809523809,597.8122161671208,84.81523809523809,599.010274750227,84.81523809523809C600.2083333333334,84.81523809523809,601.2732742960944,84.81523809523809,602.3382152588556,81.28126984126983C603.4031562216168,77.74730158730158,604.4680971843778,70.67936507936507,605.666155767484,70.67936507936507C606.8642143505903,70.67936507936507,608.1953905540418,77.74730158730158,609.5265667574931,81.28126984126983C610.8577429609445,84.81523809523809,612.188919164396,84.81523809523809,613.3869777475022,81.28126984126983C614.5850363306085,77.74730158730158,615.6499772933697,70.67936507936507,616.8480358764759,70.67936507936507C618.0460944595822,70.67936507936507,619.3772706630335,77.74730158730158,620.6133628519527,81.28126984126983C621.8494550408719,84.81523809523809,622.9904632152588,84.81523809523809,624.017370572207,84.81523809523809C625.0442779291553,84.81523809523809,625.9570844686649,84.81523809523809,626.9839918256131,84.81523809523809C628.0108991825613,84.81523809523809,629.1519073569482,84.81523809523809,630.2548819255222,84.81523809523809C631.3578564940963,84.81523809523809,632.4227974568574,84.81523809523809,633.4877384196185,84.81523809523809C634.5526793823797,84.81523809523809,635.6176203451408,84.81523809523809,636.6825613079019,84.81523809523809C637.7475022706631,84.81523809523809,638.8124432334242,84.81523809523809,639.8773841961853,84.81523809523809C640.9423251589463,84.81523809523809,642.0072661217074,84.81523809523809,643.0722070844686,84.81523809523809C644.1371480472297,84.81523809523809,645.2020890099908,84.81523809523809,646.267029972752,77.74730158730158C647.3319709355131,70.67936507936507,648.3969118982743,56.54349206349206,649.5949704813805,45.9415873015873C650.7930290644869,35.339682539682535,652.1242052679382,28.27174603174603,653.3222638510445,28.27174603174603C654.5203224341508,28.27174603174603,655.585263396912,35.339682539682535,656.7833219800182,38.87365079365079C657.9813805631244,42.40761904761904,659.3125567665758,42.40761904761904,660.6437329700273,38.87365079365079C661.9749091734787,35.339682539682535,663.3060853769301,28.27174603174603,664.6372615803815,24.737777777777776C665.9684377838329,21.20380952380952,667.2996139872843,21.20380952380952,668.4976725703906,21.20380952380952C669.6957311534967,21.20380952380952,670.7606721162579,21.20380952380952,671.825613079019,21.20380952380952C672.8905540417801,21.20380952380952,673.9554950045413,21.20380952380952,675.0204359673024,21.20380952380952C676.0853769300635,21.20380952380952,677.1503178928247,21.20380952380952,678.2152588555858,21.20380952380952C679.2801998183469,21.20380952380952,680.3451407811081,21.20380952380952,681.4100817438692,21.20380952380952C682.4750227066303,21.20380952380952,683.5399636693915,21.20380952380952,684.6049046321526,24.737777777777776C685.6698455949136,28.27174603174603,686.7347865576749,35.339682539682535,687.7997275204358,45.9415873015873C688.8646684831971,56.54349206349206,689.9296094459582,70.67936507936507,691.1276680290645,74.21333333333332C692.3257266121708,77.74730158730158,693.6569028156222,70.67936507936507,694.8549613987284,67.14539682539682C696.0530199818346,63.611428571428554,697.1179609445958,63.611428571428554,698.4871707538601,67.14539682539682C699.8563805631244,70.67936507936507,701.5298592188919,77.74730158730158,703.0321866485014,84.81523809523809C704.5345140781109,91.8831746031746,705.8656902815623,98.9511111111111,707.0257152588556,102.48507936507936C708.185740236149,106.01904761904761,709.1746139872843,106.01904761904761,710.6008742052678,106.01904761904761C712.0271344232515,106.01904761904761,713.8907811080835,106.01904761904761,715.35507493188,102.48507936507936C716.8193687556767,98.9511111111111,717.8843097184377,91.8831746031746,718.9492506811988,91.8831746031746C720.0141916439601,91.8831746031746,721.0791326067211,98.9511111111111,722.1440735694823,102.48507936507936C723.2090145322435,106.01904761904761,724.2739554950045,106.01904761904761,725.3388964577657,106.01904761904761C726.4038374205269,106.01904761904761,727.4687783832879,106.01904761904761,728.9330722070845,98.9511111111111C730.3973660308811,91.8831746031746,732.261012715713,77.74730158730158,733.7253065395095,70.67936507936507C735.1896003633061,63.611428571428554,736.2545413260672,63.611428571428554,737.4525999091735,60.077460317460314C738.6506584922798,56.54349206349206,739.9818346957312,49.47555555555555,741.3130108991827,49.47555555555555C742.644187102634,49.47555555555555,743.9753633060855,56.54349206349206,745.1734218891917,60.077460317460314C746.371480472298,63.611428571428554,747.436421435059,63.611428571428554,748.5013623978201,60.077460317460314C749.5663033605812,56.54349206349206,750.6312443233423,49.47555555555555,751.6961852861035,45.9415873015873C752.7611262488646,42.40761904761904,753.8260672116257,42.40761904761904,754.7578905540418,42.40761904761904C755.6897138964578,42.40761904761904,756.4884196185286,42.40761904761904,757.5533605812898,42.40761904761904C758.618301544051,42.40761904761904,759.9494777475023,42.40761904761904,761.2806539509537,45.9415873015873C762.6118301544051,49.47555555555555,763.9430063578565,56.54349206349206,765.2741825613078,60.077460317460314C766.6053587647593,63.611428571428554,767.9365349682107,63.611428571428554,769.4008287920072,60.077460317460314C770.8651226158039,56.54349206349206,772.4625340599456,49.47555555555555,773.793710263397,45.9415873015873C775.1248864668484,42.40761904761904,776.1898274296095,42.40761904761904,777.2547683923707,42.40761904761904C778.3197093551316,42.40761904761904,779.3846503178929,42.40761904761904,780.4495912806539,42.40761904761904C781.5145322434151,42.40761904761904,782.5794732061762,42.40761904761904,783.6444141689375,42.40761904761904C784.7093551316984,42.40761904761904,785.7742960944597,42.40761904761904,786.9723546775658,42.40761904761904C788.1704132606723,42.40761904761904,789.5015894641236,42.40761904761904,790.6996480472299,42.40761904761904C791.8977066303361,42.40761904761904,792.9626475930972,42.40761904761904,794.0275885558584,42.40761904761904C795.0925295186195,42.40761904761904,796.1574704813805,42.40761904761904,797.2224114441418,38.87365079365079C798.2873524069028,35.339682539682535,799.352293369664,28.27174603174603,800.2841167120799,28.27174603174603C801.215940054496,28.27174603174603,802.0146457765668,35.339682539682535,803.079586739328,35.339682539682535C804.1445277020889,35.339682539682535,805.4757039055403,28.27174603174603,806.6737624886467,24.737777777777776C807.871821071753,21.20380952380952,808.9367620345141,21.20380952380952,810.0017029972752,24.737777777777776C811.0666439600363,28.27174603174603,812.1315849227975,35.339682539682535,813.1965258855586,35.339682539682535C814.2614668483197,35.339682539682535,815.3264078110809,28.27174603174603,816.5244663941871,24.737777777777776C817.7225249772933,21.20380952380952,819.0537011807447,21.20380952380952,820.251759763851,21.20380952380952C821.4498183469573,21.20380952380952,822.5147593097184,21.20380952380952,823.5797002724795,21.20380952380952C824.6446412352407,21.20380952380952,825.7095821980018,21.20380952380952,826.9076407811081,21.20380952380952C828.1056993642143,21.20380952380952,829.4368755676657,21.20380952380952,830.9011693914623,21.20380952380952C832.3654632152588,21.20380952380952,833.9628746594004,21.20380952380952,835.3130676657584,21.20380952380952C836.6632606721163,21.20380952380952,837.7662352406902,21.20380952380952,838.8501930063579,21.20380952380952C839.9341507720255,21.20380952380952,840.9990917347865,21.20380952380952,842.0640326975476,21.20380952380952C843.1289736603088,21.20380952380952,844.1939146230699,21.20380952380952,845.258855585831,21.20380952380952C846.3237965485922,21.20380952380952,847.3887375113533,21.20380952380952,848.4536784741144,21.20380952380952C849.5186194368756,21.20380952380952,850.5835603996367,21.20380952380952,851.6485013623977,21.20380952380952C852.713442325159,21.20380952380952,853.7783832879201,21.20380952380952,854.8433242506811,21.20380952380952C855.9082652134422,21.20380952380952,856.9732061762033,21.20380952380952,858.1712647593098,21.20380952380952C859.3693233424159,21.20380952380952,860.7004995458674,21.20380952380952,862.0316757493188,24.737777777777776C863.3628519527701,28.27174603174603,864.6940281562216,35.339682539682535,866.025204359673,35.339682539682535C867.3563805631244,35.339682539682535,868.6875567665758,28.27174603174603,870.1518505903723,24.737777777777776C871.616144414169,21.20380952380952,873.2135558583108,21.20380952380952,874.411614441417,21.20380952380952C875.6096730245232,21.20380952380952,876.4083787465939,21.20380952380952,877.34020208901,21.20380952380952C878.272025431426,21.20380952380952,879.3369663941871,21.20380952380952,880.4019073569483,21.20380952380952C881.4668483197092,21.20380952380952,882.5317892824705,21.20380952380952,883.5967302452315,21.20380952380952C884.6616712079928,21.20380952380952,885.7266121707538,21.20380952380952,886.7915531335151,21.20380952380952C887.856494096276,21.20380952380952,888.9214350590373,21.20380952380952,889.9863760217983,21.20380952380952C891.0513169845594,21.20380952380952,892.1162579473206,21.20380952380952,893.1811989100817,21.20380952380952C894.2461398728428,21.20380952380952,895.311080835604,21.20380952380952,896.6422570390554,17.669841269841267C897.9734332425068,14.135873015873015,899.5708446866485,7.0679365079365075,900.9020208900998,3.5339682539682538C902.2331970935512,0,903.2981380563124,0,904.4961966394188,0C905.6942552225249,0,907.0254314259764,0,908.3566076294278,0C909.6877838328792,0,911.0189600363307,0,912.350136239782,0C913.6813124432334,0,915.0124886466848,0,916.077429609446,0C917.1423705722071,0,917.941076294278,0,918.7397820163487,0C919.5384877384196,0,920.3371934604905,0,921.4021344232515,0C922.4670753860128,0,923.7982515894641,0,924.9963101725704,0C926.1943687556767,0,927.2593097184377,0,928.3242506811989,0C929.3891916439601,0,930.4541326067211,0,931.5190735694822,0C932.5840145322435,0,933.6489554950045,0,934.7138964577656,0C935.7788374205267,0,936.8437783832878,0,938.0418369663943,3.5339682539682538C939.2398955495004,7.0679365079365075,940.5710717529519,14.135873015873015,941.7691303360581,21.20380952380952C942.9671889191644,28.27174603174603,944.0321298819255,35.339682539682535,945.0970708446866,38.87365079365079C946.1620118074478,42.40761904761904,947.2269527702089,42.40761904761904,948.29189373297,38.87365079365079C949.3568346957312,35.339682539682535,950.4217756584922,28.27174603174603,951.6198342415986,24.737777777777776C952.8178928247047,21.20380952380952,954.1490690281562,21.20380952380952,955.3471276112624,28.27174603174603C956.5451861943687,35.339682539682535,957.6101271571298,49.47555555555555,958.8081857402361,56.54349206349206C960.0062443233423,63.611428571428554,961.3374205267937,63.611428571428554,962.5354791099002,63.61142857142857C963.7335376930064,63.611428571428554,964.7984786557676,63.611428571428554,965.8634196185285,63.61142857142857C966.9283605812898,63.611428571428554,967.9933015440507,63.611428571428554,969.191360127157,67.14539682539682C970.3894187102633,70.67936507936507,971.7205949137148,77.74730158730158,972.9186534968211,81.28126984126983C974.1167120799273,84.81523809523809,975.1816530426885,84.81523809523809,976.2465940054495,81.28126984126983C977.3115349682107,77.74730158730158,978.3764759309719,70.67936507936507,979.7076521344233,67.14539682539682C981.0388283378746,63.611428571428554,982.6362397820163,63.611428571428554,983.9674159854677,63.61142857142857C985.2985921889191,63.611428571428554,986.3635331516803,63.611428571428554,987.5615917347865,60.077460317460314C988.7596503178929,56.54349206349206,990.0908265213443,49.47555555555555,991.4220027247957,42.40761904761904C992.753178928247,35.339682539682535,994.0843551316984,28.27174603174603,995.4155313351498,28.27174603174603C996.7467075386013,28.27174603174603,998.0778837420527,35.339682539682535,999.2759423251591,38.87365079365079C1000.4740009082652,42.40761904761904,1001.5389418710264,42.40761904761904,1002.4707652134424,42.40761904761904C1003.4025885558582,42.40761904761904,1004.2012942779292,42.40761904761904,1004.6006471389646,42.40761904761904L1005,42.40761904761904" style="stroke: rgb(255, 127, 14);"/><text transform="translate(1005,42.40761904761904)" x="3" dy="0.35em" style="font-style: normal; font-variant: normal; font-weight: normal; font-stretch: normal; font-size: 14px; line-height: normal; font-family: sans-serif; fill: rgb(255, 127, 14);">Germany</text></g></g></svg></svg>