<svg width="1140" height="478.88" xmlns="http://www.w3.org/2000/svg" style="animation-delay: 0s; animation-direction: normal; animation-duration: 0s; animation-fill-mode: none; animation-iteration-count: 1; animation-name: none; animation-play-state: running; animation-timing-function: ease; background-attachment: scroll; background-blend-mode: normal; background-clip: border-box; background-color: rgba(0, 0, 0, 0); background-image: none; background-origin: padding-box; background-position: 0% 0%; background-repeat: repeat; background-size: auto; border-bottom-color: rgb(51, 51, 51); border-bottom-left-radius: 0px; border-bottom-right-radius: 0px; border-bottom-style: none; border-bottom-width: 0px; border-collapse: separate; border-image-outset: 0px; border-image-repeat: stretch; border-image-slice: 100%; border-image-source: none; border-image-width: 1; border-left-color: rgb(51, 51, 51); border-left-style: none; border-left-width: 0px; border-right-color: rgb(51, 51, 51); border-right-style: none; border-right-width: 0px; border-top-color: rgb(51, 51, 51); border-top-left-radius: 0px; border-top-right-radius: 0px; border-top-style: none; border-top-width: 0px; bottom: auto; box-shadow: none; box-sizing: border-box; break-after: auto; break-before: auto; break-inside: auto; caption-side: top; clear: none; clip: auto; color: rgb(51, 51, 51); content: ; cursor: auto; direction: ltr; display: inline; empty-cells: show; float: none; font-family: &quot;Helvetica Neue&quot;, Helvetica, Arial, sans-serif; font-kerning: auto; font-size: 14px; font-stretch: normal; font-style: normal; font-variant: normal; font-variant-ligatures: normal; font-variant-caps: normal; font-variant-numeric: normal; font-weight: normal; height: 478.875px; image-rendering: auto; isolation: auto; left: auto; letter-spacing: normal; line-height: 20px; list-style-image: none; list-style-position: outside; list-style-type: disc; margin-bottom: 0px; margin-left: 0px; margin-right: 0px; margin-top: 0px; max-height: none; max-width: none; min-height: 0px; min-width: 0px; mix-blend-mode: normal; object-fit: fill; object-position: 50% 50%; offset-distance: 0px; offset-path: none; offset-rotate: auto 0deg; offset-rotation: auto 0deg; opacity: 1; orphans: 2; outline-color: rgb(51, 51, 51); outline-offset: 0px; outline-style: none; outline-width: 0px; overflow-anchor: auto; overflow-wrap: normal; overflow-x: hidden; overflow-y: hidden; padding-bottom: 0px; padding-left: 0px; padding-right: 0px; padding-top: 0px; pointer-events: auto; position: static; resize: none; right: auto; speak: normal; table-layout: auto; tab-size: 8; text-align: start; text-align-last: auto; text-decoration: none; text-indent: 0px; text-rendering: auto; text-shadow: none; text-size-adjust: 100%; text-overflow: clip; text-transform: none; top: auto; touch-action: auto; transition-delay: 0s; transition-duration: 0s; transition-property: all; transition-timing-function: ease; unicode-bidi: normal; vertical-align: baseline; visibility: visible; white-space: normal; widows: 2; width: 1140px; will-change: auto; word-break: normal; word-spacing: 0px; word-wrap: normal; z-index: auto; zoom: 1; -webkit-appearance: none; backface-visibility: visible; -webkit-background-clip: border-box; -webkit-background-origin: padding-box; -webkit-border-horizontal-spacing: 0px; -webkit-border-image: none; -webkit-border-vertical-spacing: 0px; -webkit-box-align: stretch; -webkit-box-decoration-break: slice; -webkit-box-direction: normal; -webkit-box-flex: 0; -webkit-box-flex-group: 1; -webkit-box-lines: single; -webkit-box-ordinal-group: 1; -webkit-box-orient: horizontal; -webkit-box-pack: start; -webkit-box-reflect: none; column-count: auto; column-gap: normal; column-rule-color: rgb(51, 51, 51); column-rule-style: none; column-rule-width: 0px; column-span: none; column-width: auto; align-content: stretch; align-items: stretch; align-self: stretch; flex-basis: auto; flex-grow: 0; flex-shrink: 1; flex-direction: row; flex-wrap: nowrap; justify-content: flex-start; -webkit-font-smoothing: auto; -webkit-highlight: none; hyphens: manual; -webkit-hyphenate-character: auto; -webkit-line-break: auto; -webkit-line-clamp: none; -webkit-locale: &quot;en&quot;; -webkit-margin-before-collapse: collapse; -webkit-margin-after-collapse: collapse; -webkit-mask-box-image: none; -webkit-mask-box-image-outset: 0px; -webkit-mask-box-image-repeat: stretch; -webkit-mask-box-image-slice: 0 fill; -webkit-mask-box-image-source: none; -webkit-mask-box-image-width: auto; -webkit-mask-clip: border-box; -webkit-mask-composite: source-over; -webkit-mask-image: none; -webkit-mask-origin: border-box; -webkit-mask-position: 0% 0%; -webkit-mask-repeat: repeat; -webkit-mask-size: auto; order: 0; perspective: none; perspective-origin: 570px 239.438px; -webkit-print-color-adjust: economy; -webkit-rtl-ordering: logical; shape-outside: none; shape-image-threshold: 0; shape-margin: 0px; -webkit-tap-highlight-color: rgba(0, 0, 0, 0); -webkit-text-combine: none; -webkit-text-decorations-in-effect: none; -webkit-text-emphasis-color: rgb(51, 51, 51); -webkit-text-emphasis-position: over; -webkit-text-emphasis-style: none; -webkit-text-fill-color: rgb(51, 51, 51); -webkit-text-orientation: vertical-right; -webkit-text-security: none; -webkit-text-stroke-color: rgb(51, 51, 51); -webkit-text-stroke-width: 0px; transform: none; transform-origin: 570px 239.438px; transform-style: flat; -webkit-user-drag: auto; -webkit-user-modify: read-only; user-select: text; -webkit-writing-mode: horizontal-tb; -webkit-app-region: no-drag; buffered-rendering: auto; clip-path: none; clip-rule: nonzero; mask: none; filter: none; flood-color: rgb(0, 0, 0); flood-opacity: 1; lighting-color: rgb(255, 255, 255); stop-color: rgb(0, 0, 0); stop-opacity: 1; color-interpolation: sRGB; color-interpolation-filters: linearRGB; color-rendering: auto; fill: rgb(0, 0, 0); fill-opacity: 1; fill-rule: nonzero; marker-end: none; marker-mid: none; marker-start: none; mask-type: luminance; shape-rendering: auto; stroke: none; stroke-dasharray: none; stroke-dashoffset: 0px; stroke-linecap: butt; stroke-linejoin: miter; stroke-miterlimit: 4; stroke-opacity: 1; stroke-width: 1px; alignment-baseline: auto; baseline-shift: 0px; dominant-baseline: auto; text-anchor: start; writing-mode: horizontal-tb; vector-effect: none; paint-order: fill stroke markers; d: none; cx: 0px; cy: 0px; x: 0px; y: 0px; r: 0px; rx: auto; ry: auto;" version="1.1" xmlns:xlink="http://www.w3.org/1999/xlink"><style type="text/css">svg:not(:root) { overflow: hidden; }
*, ::before, ::after { box-sizing: border-box; }
.axis path, .axis line { fill: none; stroke: rgb(0, 0, 0); shape-rendering: crispEdges; }
.line { fill: none; stroke: steelblue; stroke-width: 1.5px; }</style><svg xmlns="http://www.w3.org/2000/svg" id="svg"><g transform="translate(50,20)"><g class="axis axis--x" transform="translate(0,428.88)" fill="none" font-size="10" font-family="sans-serif" text-anchor="middle" style="font-style: normal; font-variant: normal; font-weight: normal; font-stretch: normal; font-size: 12px; line-height: normal; font-family: sans-serif;"><path class="domain" stroke="#000" d="M0.5,6V0.5H945.5V6"/><g class="tick" opacity="1" transform="translate(42.48190565395095,0)"><line stroke="#000" y2="6" x1="0.5" x2="0.5"/><text fill="#000" y="9" x="0.5" dy="0.71em">1994</text></g><g class="tick" opacity="1" transform="translate(120.80275034059945,0)"><line stroke="#000" y2="6" x1="0.5" x2="0.5"/><text fill="#000" y="9" x="0.5" dy="0.71em">1996</text></g><g class="tick" opacity="1" transform="translate(199.23088385558583,0)"><line stroke="#000" y2="6" x1="0.5" x2="0.5"/><text fill="#000" y="9" x="0.5" dy="0.71em">1998</text></g><g class="tick" opacity="1" transform="translate(277.5517285422343,0)"><line stroke="#000" y2="6" x1="0.5" x2="0.5"/><text fill="#000" y="9" x="0.5" dy="0.71em">2000</text></g><g class="tick" opacity="1" transform="translate(355.9798620572207,0)"><line stroke="#000" y2="6" x1="0.5" x2="0.5"/><text fill="#000" y="9" x="0.5" dy="0.71em">2002</text></g><g class="tick" opacity="1" transform="translate(434.30070674386917,0)"><line stroke="#000" y2="6" x1="0.5" x2="0.5"/><text fill="#000" y="9" x="0.5" dy="0.71em">2004</text></g><g class="tick" opacity="1" transform="translate(512.7288402588556,0)"><line stroke="#000" y2="6" x1="0.5" x2="0.5"/><text fill="#000" y="9" x="0.5" dy="0.71em">2006</text></g><g class="tick" opacity="1" transform="translate(591.049684945504,0)"><line stroke="#000" y2="6" x1="0.5" x2="0.5"/><text fill="#000" y="9" x="0.5" dy="0.71em">2008</text></g><g class="tick" opacity="1" transform="translate(669.4778184604905,0)"><line stroke="#000" y2="6" x1="0.5" x2="0.5"/><text fill="#000" y="9" x="0.5" dy="0.71em">2010</text></g><g class="tick" opacity="1" transform="translate(747.798663147139,0)"><line stroke="#000" y2="6" x1="0.5" x2="0.5"/><text fill="#000" y="9" x="0.5" dy="0.71em">2012</text></g><g class="tick" opacity="1" transform="translate(826.2267966621254,0)"><line stroke="#000" y2="6" x1="0.5" x2="0.5"/><text fill="#000" y="9" x="0.5" dy="0.71em">2014</text></g><g class="tick" opacity="1" transform="translate(904.5476413487738,0)"><line stroke="#000" y2="6" x1="0.5" x2="0.5"/><text fill="#000" y="9" x="0.5" dy="0.71em">2016</text></g><text transform="translate(935.55,0)" y="-16" dy="0.71em" fill="#000" style="font-style: normal; font-variant: normal; font-weight: normal; font-stretch: normal; font-size: 12px; line-height: normal; font-family: sans-serif;">Year</text></g><g class="axis axis--y" fill="none" font-size="10" font-family="sans-serif" text-anchor="end" style="font-style: normal; font-variant: normal; font-weight: normal; font-stretch: normal; font-size: 12px; line-height: normal; font-family: sans-serif;"><path class="domain" stroke="#000" d="M-6,429.38H0.5V0.5H-6"/><g class="tick" opacity="1" transform="translate(0,400.288)"><line stroke="#000" x2="-6" y1="0.5" y2="0.5"/><text fill="#000" x="-9" y="0.5" dy="0.32em">65</text></g><g class="tick" opacity="1" transform="translate(0,364.548)"><line stroke="#000" x2="-6" y1="0.5" y2="0.5"/><text fill="#000" x="-9" y="0.5" dy="0.32em">60</text></g><g class="tick" opacity="1" transform="translate(0,328.808)"><line stroke="#000" x2="-6" y1="0.5" y2="0.5"/><text fill="#000" x="-9" y="0.5" dy="0.32em">55</text></g><g class="tick" opacity="1" transform="translate(0,293.068)"><line stroke="#000" x2="-6" y1="0.5" y2="0.5"/><text fill="#000" x="-9" y="0.5" dy="0.32em">50</text></g><g class="tick" opacity="1" transform="translate(0,257.328)"><line stroke="#000" x2="-6" y1="0.5" y2="0.5"/><text fill="#000" x="-9" y="0.5" dy="0.32em">45</text></g><g class="tick" opacity="1" transform="translate(0,221.58800000000002)"><line stroke="#000" x2="-6" y1="0.5" y2="0.5"/><text fill="#000" x="-9" y="0.5" dy="0.32em">40</text></g><g class="tick" opacity="1" transform="translate(0,185.848)"><line stroke="#000" x2="-6" y1="0.5" y2="0.5"/><text fill="#000" x="-9" y="0.5" dy="0.32em">35</text></g><g class="tick" opacity="1" transform="translate(0,150.10799999999998)"><line stroke="#000" x2="-6" y1="0.5" y2="0.5"/><text fill="#000" x="-9" y="0.5" dy="0.32em">30</text></g><g class="tick" opacity="1" transform="translate(0,114.368)"><line stroke="#000" x2="-6" y1="0.5" y2="0.5"/><text fill="#000" x="-9" y="0.5" dy="0.32em">25</text></g><g class="tick" opacity="1" transform="translate(0,78.628)"><line stroke="#000" x2="-6" y1="0.5" y2="0.5"/><text fill="#000" x="-9" y="0.5" dy="0.32em">20</text></g><g class="tick" opacity="1" transform="translate(0,42.888000000000005)"><line stroke="#000" x2="-6" y1="0.5" y2="0.5"/><text fill="#000" x="-9" y="0.5" dy="0.32em">15</text></g><g class="tick" opacity="1" transform="translate(0,7.148)"><line stroke="#000" x2="-6" y1="0.5" y2="0.5"/><text fill="#000" x="-9" y="0.5" dy="0.32em">10</text></g><text y="-20" dy="0.71em" fill="#000">Position</text></g><g class="team"><path class="line" d="M0,285.91999999999996L4.4703678474114446,270.43266666666665C8.940735694822889,254.9453333333333,17.881471389645778,223.9706666666667,23.174386920980925,208.48333333333335C28.467302452316076,192.996,30.112397820163483,192.996,31.453508174386922,194.18733333333333C32.79461852861035,195.37866666666665,33.83174386920981,197.76133333333334,34.85098773841961,201.33533333333332C35.87023160762943,204.90933333333336,36.87159400544959,209.67466666666667,37.980245231607626,214.43999999999997C39.088896457765664,219.20533333333333,40.30483651226158,223.9706666666667,41.87840599455041,227.54466666666667C43.45197547683924,231.11866666666666,45.383174386920984,233.50133333333335,46.84945504087193,232.30999999999997C48.315735694822884,231.11866666666666,49.31709809264305,226.35333333333335,50.44363079019073,223.9706666666667C51.57016348773842,221.58800000000005,52.82186648501362,221.58800000000005,53.9483991825613,218.014C55.074931880108984,214.44000000000003,56.07629427792915,207.292,57.07765667574932,203.718C58.07901907356948,200.144,59.08038147138964,200.144,60.242677111716624,198.9526666666667C61.40497275204359,197.76133333333334,62.72820163487737,195.37866666666665,64.35541553133514,196.57000000000002C65.98262942779292,197.76133333333334,67.91382833787465,202.52666666666667,69.63044959128064,201.33533333333332C71.34707084468664,200.144,72.84911444141689,192.996,74.10081743869209,189.42200000000003C75.35252043596729,185.84800000000004,76.35388283378747,185.84800000000004,77.35524523160763,185.84799999999998C78.3566076294278,185.84800000000004,79.35797002724796,185.84800000000004,80.96730245231608,183.46533333333332C82.57663487738421,181.08266666666668,84.79393732970027,176.31733333333332,86.93971389645776,176.31733333333332C89.08549046321525,176.31733333333332,91.15974114441417,181.08266666666668,92.67966621253406,185.84800000000004C94.19959128065393,190.61333333333334,95.16519073569482,195.37866666666665,96.14867166212535,197.76133333333334C97.13215258855587,200.144,98.13351498637603,200.144,99.38521798365123,202.52666666666667C100.63692098092643,204.90933333333336,102.13896457765668,209.67466666666667,103.39066757493187,214.43999999999997C104.64237057220708,219.20533333333333,105.64373297002726,223.9706666666667,106.64509536784742,222.7793333333333C107.64645776566759,221.588,108.64782016348774,214.43999999999997,109.64918256130791,222.7793333333333C110.65054495912807,231.11866666666666,111.65190735694823,254.94533333333334,112.77844005449593,262.0933333333333C113.90497275204359,269.24133333333333,115.15667574931881,259.71066666666667,116.28320844686648,257.328C117.40974114441417,254.94533333333334,118.41110354223433,259.71066666666667,119.55551771117166,265.6673333333333C120.69993188010899,271.62399999999997,121.98739782016348,278.772,123.13181198910081,297.8333333333333C124.27622615803814,316.89466666666664,125.2775885558583,347.8693333333333,126.90480245231606,359.78266666666667C128.53201634877382,371.69599999999997,130.7850817438692,364.548,132.41229564032696,351.4433333333334C134.03950953678475,338.3386666666667,135.0408719346049,319.2773333333333,136.2925749318801,312.1293333333333C137.54427792915533,304.98133333333334,139.04632152588556,309.74666666666667,140.79870572207085,297.8333333333333C142.55108991825614,285.92,144.55381471389646,257.328,146.0558583106267,243.032C147.55790190735695,228.736,148.5592643051771,228.736,149.56062670299727,233.5013333333333C150.56198910081744,238.26666666666665,151.56335149863762,247.7973333333333,152.56471389645776,253.754C153.5660762942779,259.71066666666667,154.56743869209808,262.0933333333333,155.56880108991825,260.902C156.57016348773843,259.71066666666667,157.57152588555857,254.94533333333334,159.3417915531335,248.98866666666663C161.11205722070846,243.032,163.65122615803816,235.88400000000001,165.6539509536785,223.9706666666667C167.6566757493188,212.05733333333333,169.12295640326977,195.37866666666665,170.48194822888283,189.42200000000003C171.84094005449592,183.46533333333335,173.09264305177112,188.23066666666668,174.34434604904632,185.84800000000004C175.59604904632155,183.46533333333332,176.84775204359673,173.93466666666666,177.9742847411444,171.552C179.10081743869208,169.16933333333336,180.10217983651228,173.9346666666667,181.22871253405992,176.31733333333332C182.35524523160765,178.70000000000002,183.60694822888283,178.70000000000002,184.7334809264305,179.89133333333336C185.86001362397818,181.08266666666668,186.86137602179838,183.46533333333335,187.8985013623978,183.46533333333335C188.93562670299727,183.46533333333335,190.008514986376,181.08266666666668,191.13504768392372,176.31733333333338C192.2615803814714,171.55200000000002,193.441757493188,164.404,194.6398160762943,156.06466666666668C195.83787465940054,147.72533333333334,197.05381471389646,138.19466666666665,198.68102861035422,125.08999999999999C200.30824250681198,111.98533333333332,202.34673024523158,95.30666666666666,203.86665531335152,91.73266666666666C205.3865803814714,88.15866666666666,206.3879427792916,97.68933333333332,207.51447547683927,102.45466666666665C208.64100817438694,107.21999999999998,209.8927111716621,107.21999999999998,211.01924386920982,102.45466666666668C212.1457765667575,97.68933333333332,213.14713896457764,88.15866666666666,214.64918256130787,84.58466666666666C216.15122615803816,81.01066666666667,218.15395095367845,83.39333333333333,219.7811648501362,84.58466666666668C221.40837874659397,85.77600000000001,222.6600817438692,85.77600000000001,223.78661444141687,84.58466666666668C224.91314713896455,83.39333333333333,225.91450953678475,81.01066666666667,227.04104223433242,78.628C228.16757493188013,76.24533333333333,229.4192779291553,73.86266666666666,230.54581062670297,72.67133333333332C231.67234332425065,71.47999999999999,232.67370572207082,71.47999999999999,233.80023841961852,69.09733333333332C234.92677111716617,66.71466666666666,236.1784741144414,61.94933333333333,237.4301771117166,81.01066666666667C238.6818801089918,100.072,239.93358310626704,142.96,241.0601158038147,162.02133333333333C242.18664850136238,181.08266666666668,243.18801089918256,176.31733333333332,244.1893732970027,177.5086666666667C245.19073569482285,178.70000000000002,246.19209809264302,185.84800000000004,247.1934604904632,189.42200000000003C248.19482288828337,192.996,249.19618528610354,192.996,250.19754768392372,190.61333333333334C251.19891008174386,188.23066666666668,252.20027247956406,183.46533333333335,253.20163487738418,185.84799999999998C254.20299727520435,188.23066666666668,255.20435967302453,197.76133333333334,256.3308923705722,201.33533333333335C257.4574250681199,204.90933333333336,258.7091280653951,202.52666666666667,259.83566076294284,203.718C260.9621934604905,204.90933333333336,261.96355585831066,209.67466666666667,262.96491825613083,213.24866666666665C263.96628065395095,216.8226666666667,264.9676430517711,219.20533333333333,265.9690054495913,220.39666666666668C266.9703678474114,221.58800000000005,267.9717302452316,221.58800000000005,269.0982629427793,222.7793333333333C270.22479564032693,223.9706666666667,271.47649863760216,226.35333333333332,272.7282016348774,239.45799999999997C273.97990463215257,252.56266666666662,275.2316076294278,276.3893333333333,276.3581403269755,289.49399999999997C277.48467302452315,302.5986666666666,278.4860354223433,304.98133333333334,279.4873978201635,301.40733333333327C280.48876021798367,297.8333333333333,281.49012261580384,288.30266666666665,282.491485013624,279.9633333333333C283.4928474114442,271.62399999999997,284.4942098092643,264.47599999999994,285.4955722070845,258.5193333333333C286.49693460490465,252.56266666666662,287.49829700272477,247.7973333333333,288.49965940054494,241.84066666666664C289.5010217983651,235.88400000000001,290.5023841961853,228.73600000000002,291.50374659400546,227.54466666666667C292.50510899182564,226.35333333333335,293.5064713896458,231.11866666666666,294.5078337874659,228.736C295.5091961852861,226.35333333333335,296.5105585831063,216.8226666666667,297.6370912806539,210.866C298.7636239782016,204.90933333333336,300.01532697547685,202.52666666666667,301.1418596730245,208.48333333333335C302.2683923705722,214.43999999999997,303.2697547683924,228.736,304.39628746594,237.07533333333333C305.5228201634877,245.41466666666665,306.77452316076295,247.79733333333334,308.0262261580381,243.032C309.27792915531336,238.26666666666665,310.5296321525886,226.35333333333332,311.78133514986376,221.588C313.03303814713894,216.8226666666667,314.2847411444141,219.20533333333333,315.4112738419618,222.77933333333337C316.5378065395095,226.35333333333335,317.5391689373297,231.11866666666666,318.54053133514986,233.50133333333335C319.54189373297004,235.88400000000001,320.5432561307902,235.88400000000001,321.54461852861033,232.31000000000003C322.54598092643056,228.73600000000002,323.5473433242507,221.588,324.5487057220709,220.39666666666668C325.550068119891,219.20533333333333,326.55143051771114,223.9706666666667,327.67796321525884,223.9706666666667C328.80449591280654,223.9706666666667,330.0561989100817,219.20533333333333,331.30790190735695,214.44000000000003C332.5596049046321,209.67466666666667,333.81130790190736,204.90933333333336,334.937840599455,204.90933333333336C336.0643732970027,204.90933333333336,337.0657356948229,209.67466666666667,338.1922683923705,215.63133333333334C339.3188010899182,221.588,340.57050408719346,228.73600000000002,341.69703678474116,233.50133333333335C342.8235694822888,238.26666666666665,343.824931880109,240.64933333333332,344.8262942779291,241.84066666666664C345.8276566757493,243.032,346.8290190735695,243.032,347.95555177111714,243.03199999999995C349.08208446866485,243.032,350.3337874659401,243.032,351.4603201634877,241.84066666666664C352.58685286103537,240.64933333333332,353.5882152588556,238.26666666666665,354.58957765667566,237.07533333333333C355.5909400544959,235.88400000000001,356.59230245231606,235.88400000000001,357.59366485013624,234.69266666666667C358.59502724795647,233.50133333333335,359.5963896457766,231.11866666666666,360.7229223433242,229.9273333333333C361.849455040872,228.736,363.10115803814716,228.736,364.2276907356948,228.73599999999996C365.35422343324245,228.736,366.3555858310627,228.736,367.35694822888286,227.54466666666664C368.35831062670303,226.35333333333332,369.35967302452315,223.9706666666667,370.73654632152585,201.33533333333335C372.11341961852867,178.70000000000002,373.8658038147139,135.812,375.49301771117166,114.36800000000001C377.1202316076294,92.92400000000002,378.6222752043597,92.92400000000002,379.9991485013624,91.73266666666666C381.3760217983651,90.54133333333334,382.6277247956403,88.15866666666666,383.8794277929155,85.77600000000001C385.13113079019075,83.39333333333333,386.3828337874659,81.01066666666667,387.5093664850136,79.81933333333333C388.63589918256133,78.628,389.63726158038145,78.628,390.6386239782016,78.628C391.6399863760218,78.628,392.6413487738419,78.628,393.6427111716621,78.628C394.6440735694823,78.628,395.6454359673025,78.628,396.7719686648502,78.628C397.89850136239784,78.628,399.15020435967307,78.628,400.40190735694824,77.43666666666667C401.6536103542234,76.24533333333333,402.9053133514986,73.86266666666666,404.03184604904635,75.05399999999999C405.158378746594,76.24533333333333,406.1597411444142,81.01066666666667,407.16110354223434,83.39333333333335C408.1624659400545,85.77600000000001,409.1638283378747,85.77600000000001,410.29036103542234,89.35000000000001C411.41689373297004,92.92400000000002,412.66859673024527,100.072,413.92029972752044,107.21999999999998C415.1720027247957,114.368,416.4237057220709,121.516,417.55023841961855,127.47266666666667C418.67677111716625,133.42933333333332,419.6781335149864,138.19466666666665,420.67949591280654,152.49066666666667C421.6808583106267,166.78666666666666,422.6822207084469,190.61333333333332,423.683583106267,182.274C424.6849455040872,173.93466666666666,425.68630790190736,133.42933333333335,426.6876702997276,113.17666666666666C427.68903269754765,92.92400000000002,428.6903950953679,92.92400000000002,429.65599455040865,92.92399999999999C430.6215940054496,92.92400000000002,431.5514305177112,92.92400000000002,432.55279291553137,92.92399999999999C433.5541553133515,92.92400000000002,434.6270435967303,92.92400000000002,435.7893392370572,94.11533333333334C436.95163487738427,95.30666666666667,438.20333787465944,97.68933333333332,439.3298705722071,97.68933333333332C440.45640326975473,97.68933333333332,441.4577656675749,95.30666666666667,442.4591280653951,91.73266666666667C443.4604904632153,88.15866666666666,444.4618528610354,83.39333333333333,445.4632152588556,79.81933333333335C446.4645776566758,76.24533333333333,447.4659400544959,73.86266666666666,448.46730245231606,73.86266666666666C449.46866485013624,73.86266666666666,450.47002724795647,76.24533333333333,451.4713896457766,77.43666666666665C452.47275204359676,78.628,453.47411444141693,78.628,454.47547683923705,81.01066666666667C455.4768392370572,83.39333333333333,456.4782016348774,88.15866666666666,457.4795640326975,91.73266666666666C458.4809264305177,95.30666666666667,459.48228882833786,97.68933333333332,460.60882152588556,101.26333333333332C461.7353542234332,104.83733333333333,462.98705722070844,109.60266666666666,464.2387602179837,110.794C465.49046321525884,111.98533333333334,466.7421662125341,109.60266666666666,468.08327656675755,106.02866666666667C469.424386920981,102.45466666666668,470.85490463215257,97.68933333333332,472.1066076294278,94.11533333333334C473.35831062670303,90.54133333333334,474.4311989100817,88.15866666666666,475.4683242506812,86.96733333333334C476.50544959128064,85.77600000000001,477.50681198910087,85.77600000000001,478.6333446866485,86.96733333333334C479.7598773841962,88.15866666666666,481.01158038147145,90.54133333333334,482.13811307901915,91.73266666666667C483.2646457765668,92.92400000000002,484.26600817438697,92.92400000000002,485.2673705722071,91.73266666666666C486.26873297002726,90.54133333333334,487.27009536784743,88.15866666666666,488.27145776566755,85.77600000000001C489.2728201634877,83.39333333333333,490.2741825613079,81.01066666666667,491.4007152588556,81.01066666666667C492.52724795640324,81.01066666666667,493.7789509536785,83.39333333333333,494.9054836512261,86.96733333333334C496.0320163487738,90.54133333333334,497.033378746594,95.30666666666667,497.9989782016349,101.26333333333334C498.9645776566758,107.21999999999998,499.8944141689373,114.368,500.98518392370573,121.516C502.07595367847415,128.664,503.3276566757493,135.81199999999998,504.57935967302456,139.38599999999997C505.8310626702998,142.95999999999998,507.08276566757496,142.95999999999998,508.15565395095376,142.96C509.22854223433245,142.95999999999998,510.12261580381465,142.95999999999998,511.1597411444142,142.96C512.1968664850136,142.95999999999998,513.3770435967302,142.95999999999998,514.4678133514986,145.34266666666664C515.5585831062671,147.7253333333333,516.5599455040871,152.49066666666667,517.5613079019073,154.8733333333333C518.5626702997275,157.256,519.5640326975476,157.256,520.6905653950954,156.06466666666665C521.817098092643,154.87333333333333,523.0688010899182,152.49066666666667,524.195333787466,150.10799999999998C525.3218664850136,147.7253333333333,526.3232288828339,145.34266666666664,527.825272479564,176.31733333333332C529.3273160762943,207.292,531.3300408719346,271.624,532.9572547683924,299.0246666666667C534.5844686648501,326.42533333333336,535.8361716621254,316.89466666666664,536.962704359673,308.5553333333333C538.0892370572207,300.21599999999995,539.0905994550409,293.068,540.2171321525885,288.30266666666665C541.3436648501362,283.53733333333327,542.5953678474115,281.1546666666666,543.8470708446866,283.53733333333327C545.0987738419618,285.92,546.3504768392371,293.068,547.4412465940055,296.64199999999994C548.5320163487739,300.21599999999995,549.4618528610355,300.21599999999995,550.4632152588556,300.21599999999995C551.4645776566757,300.21599999999995,552.5374659400545,300.21599999999995,553.5745912806539,291.8766666666666C554.6117166212533,283.53733333333327,555.6130790190736,266.8586666666667,556.6144414168937,263.2846666666666C557.6158038147138,259.71066666666667,558.617166212534,269.24133333333333,559.7436989100817,277.5806666666667C560.8702316076295,285.92,562.1219346049047,293.068,563.2484673024524,296.64199999999994C564.375,300.21599999999995,565.3763623978202,300.21599999999995,566.3777247956403,300.21599999999995C567.3790871934606,300.21599999999995,568.3804495912806,300.21599999999995,569.5069822888283,308.5553333333333C570.6335149863761,316.89466666666664,571.8852179836513,333.5733333333333,573.1369209809264,332.382C574.3886239782017,331.1906666666667,575.6403269754769,312.1293333333333,576.7668596730246,302.59866666666665C577.8933923705722,293.068,578.8947547683924,293.068,580.0212874659401,288.30266666666665C581.1478201634877,283.5373333333333,582.3995231607629,274.00666666666666,583.56181880109,264.476C584.7241144414169,254.94533333333334,585.7970027247957,245.41466666666668,586.7626021798366,240.64933333333337C587.7282016348773,235.88400000000001,588.5865122615804,235.88400000000001,589.5521117166212,234.69266666666667C590.5177111716621,233.50133333333335,591.5905994550409,231.11866666666666,592.6277247956403,229.9273333333333C593.6648501362397,228.736,594.6662125340599,228.736,595.66757493188,235.884C596.6689373297003,243.032,597.6702997275205,257.328,598.6716621253406,268.05C599.6730245231607,278.772,600.674386920981,285.92,601.6757493188011,289.49399999999997C602.6771117166212,293.068,603.6784741144414,293.068,604.6798365122615,287.11133333333333C605.6811989100817,281.1546666666666,606.6825613079019,269.24133333333333,607.683923705722,272.8153333333333C608.6852861035422,276.3893333333333,609.6866485013624,295.4506666666667,610.8131811989101,304.98133333333334C611.9397138964578,314.512,613.1914168937329,314.512,614.3179495912806,312.1293333333333C615.4444822888282,309.74666666666667,616.4458446866485,304.98133333333334,617.5723773841961,307.364C618.6989100817437,309.7466666666666,619.950613079019,319.2773333333333,621.2023160762942,321.65999999999997C622.4540190735694,324.04266666666666,623.7057220708447,319.27733333333333,624.9574250681198,303.79C626.209128065395,288.30266666666665,627.4608310626703,262.0933333333333,628.587363760218,248.98866666666666C629.7138964577656,235.88400000000001,630.7152588555858,235.88400000000001,631.716621253406,240.64933333333337C632.7179836512261,245.41466666666668,633.7193460490463,254.94533333333334,634.7207084468664,257.32800000000003C635.7220708446866,259.71066666666667,636.7234332425068,254.94533333333334,637.724795640327,253.754C638.7261580381472,252.56266666666667,639.7275204359672,254.94533333333334,640.7288828337875,257.328C641.7302452316076,259.71066666666667,642.7316076294278,262.0933333333333,643.7329700272479,263.2846666666667C644.7343324250681,264.476,645.7356948228881,264.476,646.7370572207084,266.8586666666667C647.7384196185286,269.24133333333333,648.7397820163487,274.00666666666666,649.8663147138965,276.3893333333333C650.9928474114441,278.772,652.2445504087193,278.772,653.371083106267,279.9633333333333C654.4976158038147,281.1546666666666,655.4989782016347,283.53733333333327,656.7864441416892,283.53733333333327C658.0739100817437,283.53733333333327,659.6474795640326,281.1546666666666,661.0601158038147,284.72866666666664C662.4727520435966,288.30266666666665,663.7244550408719,297.8333333333333,664.8152247956402,302.59866666666665C665.9059945504086,307.364,666.8358310626703,307.364,668.1769414168937,303.78999999999996C669.5180517711171,300.21599999999995,671.2704359673024,293.068,672.6473092643051,294.2593333333333C674.0241825613078,295.4506666666666,675.0255449591281,304.98133333333334,676.0269073569482,304.98133333333334C677.0282697547683,304.98133333333334,678.0296321525885,295.4506666666666,679.0309945504088,288.30266666666665C680.0323569482289,281.1546666666666,681.0337193460491,276.3893333333333,682.0350817438692,274.0066666666666C683.0364441416895,271.62399999999997,684.0378065395095,271.62399999999997,685.4146798365123,268.05C686.7915531335151,264.47599999999994,688.5439373297003,257.328,689.920810626703,253.75400000000002C691.2976839237057,250.17999999999998,692.2990463215259,250.17999999999998,693.4255790190736,250.18000000000004C694.5521117166212,250.17999999999998,695.8038147138965,250.17999999999998,697.0555177111715,245.41466666666668C698.307220708447,240.64933333333337,699.558923705722,231.11866666666666,700.6854564032698,225.16200000000003C701.8119891008174,219.20533333333333,702.8133514986375,216.8226666666667,703.8147138964578,216.82266666666666C704.816076294278,216.8226666666667,705.8174386920981,219.20533333333333,706.8188010899181,218.014C707.8201634877383,216.8226666666667,708.8215258855586,212.05733333333333,709.6977179836513,202.52666666666667C710.5739100817437,192.996,711.324931880109,178.70000000000002,712.3262942779292,167.97799999999998C713.3276566757494,157.256,714.5793596730246,150.10799999999998,715.8310626702997,148.91666666666666C717.082765667575,147.7253333333333,718.3344686648502,152.49066666666667,719.5861716621254,154.8733333333333C720.8378746594007,157.256,722.0895776566758,157.256,723.4664509536784,151.29933333333332C724.8433242506812,145.34266666666667,726.3453678474115,133.42933333333335,727.5970708446866,129.85533333333333C728.8487738419618,126.28133333333331,729.8501362397819,131.04666666666665,730.8514986376022,139.386C731.8528610354224,147.72533333333334,732.8542234332426,159.6386666666667,733.8555858310627,160.83C734.856948228883,162.02133333333333,735.858310626703,152.49066666666667,736.8596730245232,147.7253333333333C737.8610354223433,142.95999999999998,738.8623978201636,142.95999999999998,739.9889305177112,146.534C741.1154632152588,150.10799999999998,742.367166212534,157.256,743.4936989100819,160.83C744.6202316076295,164.404,745.6215940054495,164.404,746.6229564032698,162.02133333333333C747.6243188010899,159.63866666666664,748.6256811989101,154.8733333333333,749.6270435967302,157.256C750.6284059945505,159.63866666666664,751.6297683923705,169.16933333333336,752.5059604904632,169.16933333333333C753.3821525885559,169.16933333333336,754.1331743869209,159.63866666666664,755.1345367847412,156.06466666666665C756.1358991825613,152.49066666666667,757.3876021798366,154.87333333333333,758.5141348773841,156.06466666666665C759.6406675749319,157.256,760.6420299727521,157.256,761.6433923705722,162.02133333333333C762.6447547683923,166.78666666666666,763.6461171662125,176.31733333333332,764.6474795640328,172.74333333333334C765.6488419618528,169.16933333333336,766.6502043596729,152.49066666666667,767.7767370572207,145.34266666666667C768.9032697547683,138.19466666666665,770.1549727520436,140.5773333333333,771.2815054495912,139.386C772.4080381471389,138.19466666666665,773.4094005449591,133.42933333333332,774.4107629427793,128.664C775.4121253405993,123.89866666666666,776.4134877384195,119.13333333333333,777.5400204359672,125.08999999999999C778.6665531335149,131.04666666666665,779.9182561307902,147.72533333333334,781.2951294277929,159.63866666666664C782.6720027247957,171.552,784.1740463215259,178.70000000000002,785.4436307901907,181.08266666666668C786.7132152588556,183.46533333333335,787.7503405994552,181.08266666666668,788.7695844686649,184.65666666666667C789.7888283378746,188.23066666666668,790.7901907356949,197.76133333333334,791.7915531335151,213.24866666666665C792.7929155313351,228.736,793.7942779291552,250.17999999999998,794.7956403269754,254.9453333333333C795.7970027247957,259.71066666666667,796.7983651226158,247.79733333333334,797.7997275204358,241.8406666666667C798.801089918256,235.88400000000001,799.8024523160763,235.88400000000001,800.8038147138964,233.50133333333335C801.8051771117166,231.11866666666666,802.8065395095367,226.35333333333335,803.807901907357,227.54466666666667C804.8092643051772,228.73600000000002,805.8106267029972,235.88400000000001,806.937159400545,254.94533333333334C808.0636920980927,274.00666666666666,809.3153950953679,304.98133333333334,810.567098092643,322.85133333333334C811.8188010899183,340.72133333333335,813.0705040871935,345.4866666666667,814.3222070844687,345.4866666666667C815.573910081744,345.4866666666667,816.8256130790191,340.72133333333335,818.2024863760217,335.95599999999996C819.5793596730246,331.1906666666667,821.0814032697548,326.4253333333333,822.2079359673025,324.04266666666666C823.3344686648502,321.65999999999997,824.0854904632153,321.65999999999997,824.961682561308,320.4686666666666C825.8378746594007,319.2773333333333,826.8392370572207,316.89466666666664,827.8405994550408,325.234C828.841961852861,333.5733333333333,829.8433242506812,352.63466666666665,830.8446866485014,360.974C831.8460490463216,369.31333333333333,832.8474114441416,366.93066666666664,833.8487738419618,360.974C834.8501362397819,355.0173333333334,835.8514986376022,345.4866666666667,836.8528610354224,339.53000000000003C837.8542234332425,333.5733333333333,838.8555858310627,331.1906666666667,839.8569482288827,332.382C840.858310626703,333.5733333333333,841.8596730245232,338.3386666666667,843.1113760217985,339.53000000000003C844.3630790190736,340.72133333333335,845.8651226158039,338.3386666666667,847.116825613079,338.3386666666667C848.3685286103542,338.3386666666667,849.3698910081744,340.72133333333335,850.4964237057221,349.06066666666675C851.6229564032698,357.40000000000003,852.8746594005448,371.6960000000001,854.1263623978201,382.41800000000006C855.3780653950953,393.14000000000004,856.6297683923705,400.288,857.8814713896458,407.436C859.1331743869209,414.584,860.3848773841961,421.73199999999997,861.3862397820163,425.30600000000004C862.3876021798366,428.87999999999994,863.1386239782017,428.87999999999994,863.8896457765668,428.88000000000005C864.6406675749319,428.87999999999994,865.391689373297,428.87999999999994,866.3930517711173,411.01C867.3944141689373,393.14000000000004,868.6461171662125,357.3999999999999,869.7726498637602,341.91266666666667C870.8991825613078,326.4253333333333,871.9005449591281,331.1906666666667,872.9019073569483,334.76466666666664C873.9032697547683,338.3386666666667,874.9046321525884,340.72133333333335,875.9059945504086,341.9126666666668C876.9073569482289,343.10400000000004,877.9087193460491,343.10400000000004,878.9100817438693,344.2953333333334C879.9114441416895,345.4866666666667,880.9128065395095,347.8693333333334,882.0393392370571,341.91266666666667C883.165871934605,335.95599999999996,884.4175749318802,321.66,885.5441076294278,316.89466666666664C886.6706403269754,312.1293333333333,887.6720027247957,316.89466666666664,888.6733651226159,322.85133333333334C889.674727520436,328.808,890.676089918256,335.956,891.6774523160761,334.76466666666664C892.6788147138964,333.5733333333333,893.6801771117166,324.04266666666666,894.8067098092642,313.3206666666667C895.9332425068119,302.5986666666667,897.1849455040871,290.68533333333335,898.3114782016349,288.30266666666665C899.4380108991826,285.92,900.4393732970026,293.068,901.5659059945502,296.64199999999994C902.6924386920981,300.21599999999995,903.9441416893733,300.21599999999995,905.0706743869209,302.5986666666666C906.1972070844686,304.98133333333334,907.1985694822888,309.74666666666667,908.199931880109,316.89466666666664C909.2012942779292,324.04266666666666,910.2026566757494,333.5733333333333,911.329189373297,337.14733333333334C912.4557220708447,340.72133333333335,913.7074250681198,338.3386666666667,914.8339577656675,334.7646666666667C915.9604904632151,331.1906666666667,916.9618528610354,326.4253333333333,917.9632152588556,319.27733333333333C918.9645776566758,312.1293333333333,919.965940054496,302.59866666666665,921.2176430517711,295.4506666666666C922.4693460490463,288.30266666666665,923.9713896457765,283.5373333333333,925.2230926430517,281.1546666666666C926.474795640327,278.772,927.4761580381472,278.772,928.6026907356949,277.5806666666667C929.7292234332426,276.3893333333333,930.9809264305177,274.00666666666666,932.2326294277931,269.24133333333333C933.4843324250681,264.47599999999994,934.7360354223434,257.328,935.9877384196185,245.41466666666668C937.2394414168938,233.50133333333335,938.491144414169,216.8226666666667,939.6176771117166,208.48333333333335C940.7442098092642,200.144,941.7455722070845,200.144,942.6217643051772,200.144C943.4979564032698,200.144,944.2489782016349,200.144,944.6244891008174,200.144L945,200.144" style="stroke: rgb(31, 119, 180);"/><text transform="translate(945,200.144)" x="3" dy="0.35em" style="font-style: normal; font-variant: normal; font-weight: normal; font-stretch: normal; font-size: 14px; line-height: normal; font-family: sans-serif; fill: rgb(31, 119, 180);">Korea Republic</text></g><g class="team"><path class="line" d="M0,407.436L4.4703678474114446,380.0353333333333C8.940735694822889,352.63466666666665,17.881471389645778,297.8333333333333,23.174386920980925,270.43266666666665C28.467302452316076,243.032,30.112397820163483,243.032,31.453508174386922,244.22333333333333C32.79461852861035,245.41466666666665,33.83174386920981,247.79733333333334,34.85098773841961,247.7973333333333C35.87023160762943,247.79733333333334,36.87159400544959,245.41466666666665,37.980245231607626,244.22333333333333C39.088896457765664,243.032,40.30483651226158,243.032,41.87840599455041,243.03199999999995C43.45197547683924,243.032,45.383174386920984,243.032,46.84945504087193,238.26666666666665C48.315735694822884,233.5013333333333,49.31709809264305,223.9706666666667,50.44363079019073,222.7793333333333C51.57016348773842,221.588,52.82186648501362,228.73600000000002,53.9483991825613,246.606C55.074931880108984,264.476,56.07629427792915,293.068,57.07765667574932,304.98133333333334C58.07901907356948,316.89466666666664,59.08038147138964,312.1293333333333,60.242677111716624,293.068C61.40497275204359,274.00666666666666,62.72820163487737,240.64933333333332,64.35541553133514,227.54466666666667C65.98262942779292,214.43999999999997,67.91382833787465,221.588,69.63044959128064,220.39666666666665C71.34707084468664,219.20533333333333,72.84911444141689,209.67466666666667,74.10081743869209,203.718C75.35252043596729,197.76133333333334,76.35388283378747,195.37866666666665,77.35524523160763,194.18733333333333C78.3566076294278,192.996,79.35797002724796,192.996,80.96730245231608,194.18733333333333C82.57663487738421,195.37866666666665,84.79393732970027,197.76133333333334,86.93971389645776,194.18733333333333C89.08549046321525,190.61333333333334,91.15974114441417,181.08266666666668,92.67966621253406,178.70000000000002C94.19959128065393,176.31733333333332,95.16519073569482,181.08266666666668,96.14867166212535,181.08266666666668C97.13215258855587,181.08266666666668,98.13351498637603,176.31733333333332,99.38521798365123,177.5086666666667C100.63692098092643,178.70000000000002,102.13896457765668,185.84800000000004,103.39066757493187,185.84800000000004C104.64237057220708,185.84800000000004,105.64373297002726,178.70000000000002,106.64509536784742,184.65666666666667C107.64645776566759,190.61333333333334,108.64782016348774,209.67466666666667,109.64918256130791,210.866C110.65054495912807,212.05733333333333,111.65190735694823,195.37866666666665,112.77844005449593,184.65666666666667C113.90497275204359,173.9346666666667,115.15667574931881,169.16933333333336,116.28320844686648,165.59533333333334C117.40974114441417,162.02133333333333,118.41110354223433,159.63866666666667,119.55551771117166,157.256C120.69993188010899,154.87333333333333,121.98739782016348,152.49066666666667,123.13181198910081,151.2993333333333C124.27622615803814,150.10799999999998,125.2775885558583,150.10799999999998,126.90480245231606,148.91666666666663C128.53201634877382,147.7253333333333,130.7850817438692,145.34266666666664,132.41229564032696,140.5773333333333C134.03950953678475,135.81199999999998,135.0408719346049,128.664,136.2925749318801,123.89866666666664C137.54427792915533,119.13333333333333,139.04632152588556,116.75066666666665,140.79870572207085,116.75066666666665C142.55108991825614,116.75066666666665,144.55381471389646,119.13333333333333,146.0558583106267,113.17666666666668C147.55790190735695,107.21999999999998,148.5592643051771,92.92399999999999,149.56062670299727,85.77600000000001C150.56198910081744,78.628,151.56335149863762,78.628,152.56471389645776,81.01066666666667C153.5660762942779,83.39333333333333,154.56743869209808,88.15866666666666,155.56880108991825,89.35000000000001C156.57016348773843,90.54133333333334,157.57152588555857,88.15866666666666,159.3417915531335,84.58466666666668C161.11205722070846,81.01066666666667,163.65122615803816,76.24533333333333,165.6539509536785,70.28866666666666C167.6566757493188,64.332,169.12295640326977,57.184,170.48194822888283,55.99266666666667C171.84094005449592,54.80133333333333,173.09264305177112,59.56666666666666,174.34434604904632,60.758C175.59604904632155,61.94933333333333,176.84775204359673,59.56666666666666,177.9742847411444,58.37533333333332C179.10081743869208,57.184,180.10217983651228,57.184,181.22871253405992,57.18399999999999C182.35524523160765,57.184,183.60694822888283,57.184,184.7334809264305,58.37533333333332C185.86001362397818,59.56666666666666,186.86137602179838,61.94933333333333,187.8985013623978,65.52333333333333C188.93562670299727,69.09733333333332,190.008514986376,73.86266666666667,191.13504768392372,73.86266666666667C192.2615803814714,73.86266666666667,193.441757493188,69.09733333333332,194.6398160762943,61.94933333333333C195.83787465940054,54.80133333333333,197.05381471389646,45.27066666666666,198.68102861035422,34.54866666666666C200.30824250681198,23.826666666666664,202.34673024523158,11.913333333333332,203.86665531335152,5.956666666666666C205.3865803814714,0,206.3879427792916,0,207.51447547683927,2.3826666666666667C208.64100817438694,4.765333333333333,209.8927111716621,9.530666666666667,211.01924386920982,13.104666666666667C212.1457765667575,16.67866666666667,213.14713896457764,19.061333333333334,214.64918256130787,32.166000000000004C216.15122615803816,45.27066666666667,218.15395095367845,69.09733333333334,219.7811648501362,81.01066666666668C221.40837874659397,92.92400000000002,222.6600817438692,92.92400000000002,223.78661444141687,91.73266666666666C224.91314713896455,90.54133333333334,225.91450953678475,88.15866666666666,227.04104223433242,86.96733333333334C228.16757493188013,85.77600000000001,229.4192779291553,85.77600000000001,230.54581062670297,96.498C231.67234332425065,107.21999999999998,232.67370572207082,128.664,233.80023841961852,127.47266666666665C234.92677111716617,126.28133333333331,236.1784741144414,102.45466666666665,237.4301771117166,106.02866666666667C238.6818801089918,109.60266666666666,239.93358310626704,140.57733333333334,241.0601158038147,157.25600000000003C242.18664850136238,173.9346666666667,243.18801089918256,176.31733333333332,244.1893732970027,181.08266666666668C245.19073569482285,185.84800000000004,246.19209809264302,192.996,247.1934604904632,200.144C248.19482288828337,207.292,249.19618528610354,214.44000000000003,250.19754768392372,219.20533333333333C251.19891008174386,223.9706666666667,252.20027247956406,226.35333333333332,253.20163487738418,228.736C254.20299727520435,231.11866666666666,255.20435967302453,233.50133333333335,256.3308923705722,237.07533333333333C257.4574250681199,240.64933333333337,258.7091280653951,245.41466666666668,259.83566076294284,250.17999999999998C260.9621934604905,254.94533333333334,261.96355585831066,259.71066666666667,262.96491825613083,268.05C263.96628065395095,276.3893333333333,264.9676430517711,288.30266666666665,265.9690054495913,294.25933333333325C266.9703678474114,300.21599999999995,267.9717302452316,300.21599999999995,269.0982629427793,301.40733333333327C270.22479564032693,302.5986666666666,271.47649863760216,304.98133333333334,272.7282016348774,312.1293333333333C273.97990463215257,319.27733333333333,275.2316076294278,331.1906666666667,276.3581403269755,338.3386666666667C277.48467302452315,345.4866666666667,278.4860354223433,347.8693333333334,279.4873978201635,353.826C280.48876021798367,359.78266666666667,281.49012261580384,369.31333333333333,282.491485013624,358.5913333333333C283.4928474114442,347.8693333333333,284.4942098092643,316.89466666666664,285.4955722070845,302.59866666666665C286.49693460490465,288.30266666666665,287.49829700272477,290.6853333333333,288.49965940054494,299.0246666666667C289.5010217983651,307.364,290.5023841961853,321.66,291.50374659400546,329.99933333333337C292.50510899182564,338.3386666666667,293.5064713896458,340.72133333333335,294.5078337874659,328.80800000000005C295.5091961852861,316.8946666666667,296.5105585831063,290.68533333333335,297.6370912806539,279.9633333333333C298.7636239782016,269.24133333333333,300.01532697547685,274.00666666666666,301.1418596730245,278.772C302.2683923705722,283.5373333333333,303.2697547683924,288.30266666666665,304.39628746594,289.49399999999997C305.5228201634877,290.6853333333333,306.77452316076295,288.30266666666665,308.0262261580381,269.24133333333333C309.27792915531336,250.17999999999998,310.5296321525886,214.43999999999997,311.78133514986376,201.33533333333332C313.03303814713894,188.23066666666668,314.2847411444141,197.76133333333334,315.4112738419618,204.90933333333336C316.5378065395095,212.05733333333333,317.5391689373297,216.8226666666667,318.54053133514986,219.20533333333333C319.54189373297004,221.58800000000005,320.5432561307902,221.58800000000005,321.54461852861033,223.9706666666667C322.54598092643056,226.35333333333335,323.5473433242507,231.11866666666666,324.5487057220709,233.50133333333335C325.550068119891,235.88400000000001,326.55143051771114,235.88400000000001,327.67796321525884,238.26666666666668C328.80449591280654,240.64933333333337,330.0561989100817,245.41466666666668,331.30790190735695,234.69266666666667C332.5596049046321,223.9706666666667,333.81130790190736,197.76133333333337,334.937840599455,183.46533333333335C336.0643732970027,169.16933333333336,337.0657356948229,166.78666666666666,338.1922683923705,159.63866666666667C339.3188010899182,152.49066666666667,340.57050408719346,140.5773333333333,341.69703678474116,135.81199999999998C342.8235694822888,131.04666666666665,343.824931880109,133.42933333333332,344.8262942779291,132.23799999999997C345.8276566757493,131.04666666666665,346.8290190735695,126.28133333333331,347.95555177111714,134.62066666666666C349.08208446866485,142.96,350.3337874659401,164.404,351.4603201634877,173.93466666666666C352.58685286103537,183.46533333333335,353.5882152588556,181.08266666666668,354.58957765667566,181.08266666666668C355.5909400544959,181.08266666666668,356.59230245231606,183.46533333333335,357.59366485013624,188.23066666666668C358.59502724795647,192.996,359.5963896457766,200.144,360.7229223433242,203.718C361.849455040872,207.292,363.10115803814716,207.292,364.2276907356948,201.33533333333335C365.35422343324245,195.37866666666665,366.3555858310627,183.46533333333335,367.35694822888286,176.31733333333332C368.35831062670303,169.16933333333336,369.35967302452315,166.78666666666666,370.73654632152585,156.06466666666668C372.11341961852867,145.34266666666667,373.8658038147139,126.28133333333334,375.49301771117166,115.55933333333333C377.1202316076294,104.83733333333333,378.6222752043597,102.45466666666668,379.9991485013624,106.02866666666667C381.3760217983651,109.60266666666666,382.6277247956403,119.13333333333333,383.8794277929155,123.89866666666666C385.13113079019075,128.664,386.3828337874659,128.664,387.5093664850136,122.70733333333332C388.63589918256133,116.75066666666665,389.63726158038145,104.83733333333333,390.6386239782016,98.88066666666667C391.6399863760218,92.92400000000002,392.6413487738419,92.92400000000002,393.6427111716621,92.92399999999999C394.6440735694823,92.92400000000002,395.6454359673025,92.92400000000002,396.7719686648502,95.30666666666667C397.89850136239784,97.68933333333332,399.15020435967307,102.45466666666668,400.40190735694824,106.02866666666667C401.6536103542234,109.60266666666666,402.9053133514986,111.98533333333334,404.03184604904635,113.17666666666666C405.158378746594,114.368,406.1597411444142,114.368,407.16110354223434,111.98533333333332C408.1624659400545,109.60266666666666,409.1638283378747,104.83733333333333,410.29036103542234,103.646C411.41689373297004,102.45466666666668,412.66859673024527,104.83733333333333,413.92029972752044,106.02866666666667C415.1720027247957,107.21999999999998,416.4237057220709,107.21999999999998,417.55023841961855,106.02866666666667C418.67677111716625,104.83733333333333,419.6781335149864,102.45466666666668,420.67949591280654,102.45466666666668C421.6808583106267,102.45466666666668,422.6822207084469,104.83733333333333,423.683583106267,107.21999999999998C424.6849455040872,109.60266666666666,425.68630790190736,111.98533333333334,426.6876702997276,116.75066666666667C427.68903269754765,121.516,428.6903950953679,128.664,429.65599455040865,133.42933333333335C430.6215940054496,138.19466666666665,431.5514305177112,140.5773333333333,432.55279291553137,141.76866666666663C433.5541553133515,142.95999999999998,434.6270435967303,142.95999999999998,435.7893392370572,141.76866666666666C436.95163487738427,140.5773333333333,438.20333787465944,138.19466666666665,439.3298705722071,135.81199999999998C440.45640326975473,133.42933333333332,441.4577656675749,131.04666666666665,442.4591280653951,128.664C443.4604904632153,126.28133333333331,444.4618528610354,123.89866666666666,445.4632152588556,121.516C446.4645776566758,119.13333333333333,447.4659400544959,116.75066666666665,448.46730245231606,113.17666666666666C449.46866485013624,109.60266666666666,450.47002724795647,104.83733333333333,451.4713896457766,103.646C452.47275204359676,102.45466666666668,453.47411444141693,104.83733333333333,454.47547683923705,101.26333333333334C455.4768392370572,97.68933333333332,456.4782016348774,88.15866666666666,457.4795640326975,81.01066666666667C458.4809264305177,73.86266666666667,459.48228882833786,69.09733333333332,460.60882152588556,67.90599999999999C461.7353542234332,66.71466666666666,462.98705722070844,69.09733333333332,464.2387602179837,67.90599999999999C465.49046321525884,66.71466666666666,466.7421662125341,61.94933333333333,468.08327656675755,59.56666666666666C469.424386920981,57.184,470.85490463215257,57.184,472.1066076294278,59.56666666666666C473.35831062670303,61.94933333333333,474.4311989100817,66.71466666666666,475.4683242506812,67.90599999999999C476.50544959128064,69.09733333333332,477.50681198910087,66.71466666666666,478.6333446866485,65.52333333333333C479.7598773841962,64.332,481.01158038147145,64.332,482.13811307901915,63.140666666666654C483.2646457765668,61.94933333333333,484.26600817438697,59.56666666666666,485.2673705722071,58.37533333333332C486.26873297002726,57.184,487.27009536784743,57.184,488.27145776566755,58.37533333333332C489.2728201634877,59.56666666666666,490.2741825613079,61.94933333333333,491.4007152588556,57.18399999999999C492.52724795640324,52.41866666666666,493.7789509536785,40.50533333333333,494.9054836512261,39.314C496.0320163487738,38.12266666666667,497.033378746594,47.65333333333333,497.9989782016349,51.22733333333333C498.9645776566758,54.80133333333333,499.8944141689373,52.41866666666667,500.98518392370573,51.22733333333333C502.07595367847415,50.036,503.3276566757493,50.036,504.57935967302456,48.84466666666666C505.8310626702998,47.653333333333336,507.08276566757496,45.27066666666667,508.15565395095376,44.07933333333333C509.22854223433245,42.888000000000005,510.12261580381465,42.888000000000005,511.1597411444142,42.888000000000005C512.1968664850136,42.888000000000005,513.3770435967302,42.888000000000005,514.4678133514986,46.46200000000001C515.5585831062671,50.036,516.5599455040871,57.184,517.5613079019073,60.758C518.5626702997275,64.332,519.5640326975476,64.332,520.6905653950954,63.140666666666654C521.817098092643,61.94933333333333,523.0688010899182,59.56666666666666,524.195333787466,59.56666666666666C525.3218664850136,59.56666666666666,526.3232288828339,61.94933333333333,527.825272479564,100.07199999999999C529.3273160762943,138.19466666666665,531.3300408719346,212.0573333333333,532.9572547683924,247.79733333333328C534.5844686648501,283.53733333333327,535.8361716621254,281.1546666666666,536.962704359673,278.772C538.0892370572207,276.3893333333333,539.0905994550409,274.00666666666666,540.2171321525885,271.62399999999997C541.3436648501362,269.24133333333333,542.5953678474115,266.8586666666667,543.8470708446866,266.8586666666667C545.0987738419618,266.8586666666667,546.3504768392371,269.24133333333333,547.4412465940055,270.43266666666665C548.5320163487739,271.62399999999997,549.4618528610355,271.62399999999997,550.4632152588556,270.43266666666665C551.4645776566757,269.24133333333333,552.5374659400545,266.8586666666667,553.5745912806539,259.71066666666667C554.6117166212533,252.56266666666667,555.6130790190736,240.64933333333332,556.6144414168937,235.88400000000001C557.6158038147138,231.11866666666666,558.617166212534,233.50133333333335,559.7436989100817,239.458C560.8702316076295,245.41466666666668,562.1219346049047,254.94533333333334,563.2484673024524,257.32800000000003C564.375,259.71066666666667,565.3763623978202,254.94533333333334,566.3777247956403,247.7973333333333C567.3790871934606,240.64933333333337,568.3804495912806,231.11866666666666,569.5069822888283,221.58800000000005C570.6335149863761,212.05733333333333,571.8852179836513,202.52666666666667,573.1369209809264,203.718C574.3886239782017,204.90933333333336,575.6403269754769,216.82266666666666,576.7668596730246,214.44000000000003C577.8933923705722,212.05733333333333,578.8947547683924,195.37866666666665,580.0212874659401,182.274C581.1478201634877,169.16933333333336,582.3995231607629,159.63866666666664,583.56181880109,158.44733333333332C584.7241144414169,157.256,585.7970027247957,164.404,586.7626021798366,169.16933333333336C587.7282016348773,173.9346666666667,588.5865122615804,176.31733333333332,589.5521117166212,177.5086666666667C590.5177111716621,178.70000000000002,591.5905994550409,178.70000000000002,592.6277247956403,179.89133333333336C593.6648501362397,181.08266666666668,594.6662125340599,183.46533333333335,595.66757493188,185.84800000000004C596.6689373297003,188.23066666666668,597.6702997275205,190.61333333333334,598.6716621253406,191.8046666666667C599.6730245231607,192.996,600.674386920981,192.996,601.6757493188011,194.18733333333333C602.6771117166212,195.37866666666665,603.6784741144414,197.76133333333334,604.6798365122615,200.144C605.6811989100817,202.52666666666667,606.6825613079019,204.90933333333336,607.683923705722,201.33533333333332C608.6852861035422,197.76133333333334,609.6866485013624,188.23066666666668,610.8131811989101,184.65666666666667C611.9397138964578,181.08266666666668,613.1914168937329,183.46533333333335,614.3179495912806,184.65666666666667C615.4444822888282,185.84800000000004,616.4458446866485,185.84800000000004,617.5723773841961,182.274C618.6989100817437,178.70000000000002,619.950613079019,171.552,621.2023160762942,175.12599999999998C622.4540190735694,178.70000000000002,623.7057220708447,192.996,624.9574250681198,196.57000000000002C626.209128065395,200.144,627.4608310626703,192.996,628.587363760218,188.23066666666668C629.7138964577656,183.46533333333335,630.7152588555858,181.08266666666668,631.716621253406,183.46533333333335C632.7179836512261,185.84800000000004,633.7193460490463,192.996,634.7207084468664,194.18733333333333C635.7220708446866,195.37866666666665,636.7234332425068,190.61333333333334,637.724795640327,188.23066666666668C638.7261580381472,185.84800000000004,639.7275204359672,185.84800000000004,640.7288828337875,185.84799999999998C641.7302452316076,185.84800000000004,642.7316076294278,185.84800000000004,643.7329700272479,181.08266666666668C644.7343324250681,176.31733333333332,645.7356948228881,166.78666666666666,646.7370572207084,172.74333333333334C647.7384196185286,178.70000000000002,648.7397820163487,200.144,649.8663147138965,209.6746666666667C650.9928474114441,219.20533333333333,652.2445504087193,216.8226666666667,653.371083106267,216.82266666666666C654.4976158038147,216.8226666666667,655.4989782016347,219.20533333333333,656.7864441416892,220.39666666666668C658.0739100817437,221.58800000000005,659.6474795640326,221.58800000000005,661.0601158038147,225.162C662.4727520435966,228.73600000000002,663.7244550408719,235.88400000000001,664.8152247956402,239.45799999999997C665.9059945504086,243.032,666.8358310626703,243.032,668.1769414168937,239.45799999999997C669.5180517711171,235.88400000000001,671.2704359673024,228.73600000000002,672.6473092643051,232.31000000000003C674.0241825613078,235.88400000000001,675.0255449591281,250.17999999999998,676.0269073569482,256.13666666666666C677.0282697547683,262.0933333333333,678.0296321525885,259.71066666666667,679.0309945504088,258.51933333333335C680.0323569482289,257.328,681.0337193460491,257.328,682.0350817438692,257.328C683.0364441416895,257.328,684.0378065395095,257.328,685.4146798365123,241.84066666666664C686.7915531335151,226.35333333333332,688.5439373297003,195.37866666666665,689.920810626703,179.89133333333334C691.2976839237057,164.404,692.2990463215259,164.404,693.4255790190736,162.02133333333333C694.5521117166212,159.63866666666664,695.8038147138965,154.8733333333333,697.0555177111715,152.49066666666664C698.307220708447,150.10799999999998,699.558923705722,150.10799999999998,700.6854564032698,150.10799999999998C701.8119891008174,150.10799999999998,702.8133514986375,150.10799999999998,703.8147138964578,148.91666666666663C704.816076294278,147.7253333333333,705.8174386920981,145.34266666666664,706.8188010899181,144.15133333333333C707.8201634877383,142.95999999999998,708.8215258855586,142.95999999999998,709.6977179836513,128.664C710.5739100817437,114.36799999999998,711.324931880109,85.776,712.3262942779292,69.09733333333332C713.3276566757494,52.41866666666667,714.5793596730246,47.653333333333336,715.8310626702997,42.888000000000005C717.082765667575,38.12266666666667,718.3344686648502,33.35733333333334,719.5861716621254,32.166C720.8378746594007,30.974666666666664,722.0895776566758,33.35733333333333,723.4664509536784,33.35733333333332C724.8433242506812,33.35733333333333,726.3453678474115,30.974666666666664,727.5970708446866,30.974666666666668C728.8487738419618,30.974666666666664,729.8501362397819,33.35733333333333,730.8514986376022,35.739999999999995C731.8528610354224,38.12266666666667,732.8542234332426,40.50533333333333,733.8555858310627,41.69666666666667C734.856948228883,42.888000000000005,735.858310626703,42.888000000000005,736.8596730245232,45.27066666666667C737.8610354223433,47.653333333333336,738.8623978201636,52.41866666666667,739.9889305177112,57.184000000000005C741.1154632152588,61.94933333333333,742.367166212534,66.71466666666666,743.4936989100819,69.09733333333332C744.6202316076295,71.47999999999999,745.6215940054495,71.47999999999999,746.6229564032698,71.48C747.6243188010899,71.47999999999999,748.6256811989101,71.47999999999999,749.6270435967302,84.58466666666665C750.6284059945505,97.68933333333332,751.6297683923705,123.89866666666664,752.5059604904632,140.5773333333333C753.3821525885559,157.256,754.1331743869209,164.404,755.1345367847412,164.404C756.1358991825613,164.404,757.3876021798366,157.256,758.5141348773841,153.682C759.6406675749319,150.10799999999998,760.6420299727521,150.10799999999998,761.6433923705722,141.76866666666663C762.6447547683923,133.42933333333332,763.6461171662125,116.75066666666665,764.6474795640328,104.83733333333333C765.6488419618528,92.92399999999999,766.6502043596729,85.776,767.7767370572207,84.58466666666668C768.9032697547683,83.39333333333333,770.1549727520436,88.15866666666666,771.2815054495912,91.73266666666666C772.4080381471389,95.30666666666667,773.4094005449591,97.68933333333332,774.4107629427793,98.88066666666667C775.4121253405993,100.072,776.4134877384195,100.072,777.5400204359672,101.26333333333334C778.6665531335149,102.45466666666668,779.9182561307902,104.83733333333333,781.2951294277929,103.646C782.6720027247957,102.45466666666668,784.1740463215259,97.68933333333332,785.4436307901907,94.11533333333334C786.7132152588556,90.54133333333334,787.7503405994552,88.15866666666666,788.7695844686649,95.30666666666667C789.7888283378746,102.45466666666668,790.7901907356949,119.13333333333333,791.7915531335151,125.08999999999997C792.7929155313351,131.04666666666665,793.7942779291552,126.28133333333331,794.7956403269754,127.47266666666667C795.7970027247957,128.664,796.7983651226158,135.81199999999998,797.7997275204358,140.5773333333333C798.801089918256,145.34266666666664,799.8024523160763,147.7253333333333,800.8038147138964,151.2993333333333C801.8051771117166,154.8733333333333,802.8065395095367,159.63866666666664,803.807901907357,167.97799999999998C804.8092643051772,176.31733333333332,805.8106267029972,188.23066666666668,806.937159400545,194.18733333333333C808.0636920980927,200.144,809.3153950953679,200.144,810.567098092643,206.10066666666668C811.8188010899183,212.05733333333333,813.0705040871935,223.9706666666667,814.3222070844687,232.31000000000003C815.573910081744,240.64933333333337,816.8256130790191,245.41466666666668,818.2024863760217,252.56266666666667C819.5793596730246,259.71066666666667,821.0814032697548,269.24133333333333,822.2079359673025,272.81533333333334C823.3344686648502,276.3893333333333,824.0854904632153,274.00666666666666,824.961682561308,274.0066666666666C825.8378746594007,274.00666666666666,826.8392370572207,276.3893333333333,827.8405994550408,279.9633333333333C828.841961852861,283.5373333333333,829.8433242506812,288.30266666666665,830.8446866485014,288.30266666666665C831.8460490463216,288.30266666666665,832.8474114441416,283.5373333333333,833.8487738419618,279.9633333333333C834.8501362397819,276.3893333333333,835.8514986376022,274.00666666666666,836.8528610354224,272.8153333333333C837.8542234332425,271.62399999999997,838.8555858310627,271.62399999999997,839.8569482288827,270.43266666666665C840.858310626703,269.24133333333333,841.8596730245232,266.8586666666667,843.1113760217985,264.476C844.3630790190736,262.0933333333333,845.8651226158039,259.71066666666667,847.116825613079,257.32800000000003C848.3685286103542,254.94533333333334,849.3698910081744,252.56266666666667,850.4964237057221,256.13666666666666C851.6229564032698,259.71066666666667,852.8746594005448,269.24133333333333,854.1263623978201,278.772C855.3780653950953,288.30266666666665,856.6297683923705,297.8333333333333,857.8814713896458,303.78999999999996C859.1331743869209,309.74666666666667,860.3848773841961,312.1293333333333,861.3862397820163,314.512C862.3876021798366,316.89466666666664,863.1386239782017,319.2773333333333,863.8896457765668,320.46866666666665C864.6406675749319,321.65999999999997,865.391689373297,321.65999999999997,866.3930517711173,322.8513333333333C867.3944141689373,324.04266666666666,868.6461171662125,326.4253333333333,869.7726498637602,325.234C870.8991825613078,324.04266666666666,871.9005449591281,319.27733333333333,872.9019073569483,313.3206666666667C873.9032697547683,307.364,874.9046321525884,300.21599999999995,875.9059945504086,296.642C876.9073569482289,293.068,877.9087193460491,293.068,878.9100817438693,295.4506666666667C879.9114441416895,297.8333333333333,880.9128065395095,302.59866666666665,882.0393392370571,302.59866666666665C883.165871934605,302.59866666666665,884.4175749318802,297.8333333333333,885.5441076294278,302.5986666666667C886.6706403269754,307.364,887.6720027247957,321.66,888.6733651226159,331.1906666666667C889.674727520436,340.72133333333335,890.676089918256,345.4866666666667,891.6774523160761,344.2953333333333C892.6788147138964,343.104,893.6801771117166,335.95599999999996,894.8067098092642,326.4253333333333C895.9332425068119,316.89466666666664,897.1849455040871,304.98133333333334,898.3114782016349,302.59866666666665C899.4380108991826,300.21599999999995,900.4393732970026,307.364,901.5659059945502,310.938C902.6924386920981,314.512,903.9441416893733,314.512,905.0706743869209,320.46866666666665C906.1972070844686,326.42533333333336,907.1985694822888,338.3386666666667,908.199931880109,341.91266666666667C909.2012942779292,345.4866666666667,910.2026566757494,340.72133333333335,911.329189373297,339.53000000000003C912.4557220708447,338.3386666666667,913.7074250681198,340.72133333333335,914.8339577656675,341.9126666666668C915.9604904632151,343.10400000000004,916.9618528610354,343.10400000000004,917.9632152588556,338.3386666666667C918.9645776566758,333.5733333333333,919.965940054496,324.04266666666666,921.2176430517711,324.04266666666666C922.4693460490463,324.04266666666666,923.9713896457765,333.5733333333333,925.2230926430517,328.808C926.474795640327,324.04266666666666,927.4761580381472,304.98133333333334,928.6026907356949,303.78999999999996C929.7292234332426,302.59866666666665,930.9809264305177,319.27733333333333,932.2326294277931,321.66C933.4843324250681,324.04266666666666,934.7360354223434,312.1293333333333,935.9877384196185,299.02466666666663C937.2394414168938,285.91999999999996,938.491144414169,271.62399999999997,939.6176771117166,264.47599999999994C940.7442098092642,257.328,941.7455722070845,257.328,942.6217643051772,258.51933333333335C943.4979564032698,259.71066666666667,944.2489782016349,262.0933333333333,944.6244891008174,263.2846666666667L945,264.476" style="stroke: rgb(255, 127, 14);"/><text transform="translate(945,264.476)" x="3" dy="0.35em" style="font-style: normal; font-variant: normal; font-weight: normal; font-stretch: normal; font-size: 14px; line-height: normal; font-family: sans-serif; fill: rgb(255, 127, 14);">Japan</text></g></g></svg></svg>