<svg width="1140" height="495.28" xmlns="http://www.w3.org/2000/svg" style="animation-delay: 0s; animation-direction: normal; animation-duration: 0s; animation-fill-mode: none; animation-iteration-count: 1; animation-name: none; animation-play-state: running; animation-timing-function: ease; background-attachment: scroll; background-blend-mode: normal; background-clip: border-box; background-color: rgba(0, 0, 0, 0); background-image: none; background-origin: padding-box; background-position: 0% 0%; background-repeat: repeat; background-size: auto; border-bottom-color: rgb(51, 51, 51); border-bottom-left-radius: 0px; border-bottom-right-radius: 0px; border-bottom-style: none; border-bottom-width: 0px; border-collapse: separate; border-image-outset: 0px; border-image-repeat: stretch; border-image-slice: 100%; border-image-source: none; border-image-width: 1; border-left-color: rgb(51, 51, 51); border-left-style: none; border-left-width: 0px; border-right-color: rgb(51, 51, 51); border-right-style: none; border-right-width: 0px; border-top-color: rgb(51, 51, 51); border-top-left-radius: 0px; border-top-right-radius: 0px; border-top-style: none; border-top-width: 0px; bottom: auto; box-shadow: none; box-sizing: border-box; break-after: auto; break-before: auto; break-inside: auto; caption-side: top; clear: none; clip: auto; color: rgb(51, 51, 51); content: ; cursor: auto; direction: ltr; display: inline; empty-cells: show; float: none; font-family: &quot;Helvetica Neue&quot;, Helvetica, Arial, sans-serif; font-kerning: auto; font-size: 14px; font-stretch: normal; font-style: normal; font-variant: normal; font-variant-ligatures: normal; font-variant-caps: normal; font-variant-numeric: normal; font-weight: normal; height: 495.266px; image-rendering: auto; isolation: auto; left: auto; letter-spacing: normal; line-height: 20px; list-style-image: none; list-style-position: outside; list-style-type: disc; margin-bottom: 0px; margin-left: 0px; margin-right: 0px; margin-top: 0px; max-height: none; max-width: none; min-height: 0px; min-width: 0px; mix-blend-mode: normal; object-fit: fill; object-position: 50% 50%; offset-distance: 0px; offset-path: none; offset-rotate: auto 0deg; offset-rotation: auto 0deg; opacity: 1; orphans: 2; outline-color: rgb(51, 51, 51); outline-offset: 0px; outline-style: none; outline-width: 0px; overflow-anchor: auto; overflow-wrap: normal; overflow-x: hidden; overflow-y: hidden; padding-bottom: 0px; padding-left: 0px; padding-right: 0px; padding-top: 0px; pointer-events: auto; position: static; resize: none; right: auto; speak: normal; table-layout: auto; tab-size: 8; text-align: start; text-align-last: auto; text-decoration: none; text-indent: 0px; text-rendering: auto; text-shadow: none; text-size-adjust: 100%; text-overflow: clip; text-transform: none; top: auto; touch-action: auto; transition-delay: 0s; transition-duration: 0s; transition-property: all; transition-timing-function: ease; unicode-bidi: normal; vertical-align: baseline; visibility: visible; white-space: normal; widows: 2; width: 1140px; will-change: auto; word-break: normal; word-spacing: 0px; word-wrap: normal; z-index: auto; zoom: 1; -webkit-appearance: none; backface-visibility: visible; -webkit-background-clip: border-box; -webkit-background-origin: padding-box; -webkit-border-horizontal-spacing: 0px; -webkit-border-image: none; -webkit-border-vertical-spacing: 0px; -webkit-box-align: stretch; -webkit-box-decoration-break: slice; -webkit-box-direction: normal; -webkit-box-flex: 0; -webkit-box-flex-group: 1; -webkit-box-lines: single; -webkit-box-ordinal-group: 1; -webkit-box-orient: horizontal; -webkit-box-pack: start; -webkit-box-reflect: none; column-count: auto; column-gap: normal; column-rule-color: rgb(51, 51, 51); column-rule-style: none; column-rule-width: 0px; column-span: none; column-width: auto; align-content: stretch; align-items: stretch; align-self: stretch; flex-basis: auto; flex-grow: 0; flex-shrink: 1; flex-direction: row; flex-wrap: nowrap; justify-content: flex-start; -webkit-font-smoothing: auto; -webkit-highlight: none; hyphens: manual; -webkit-hyphenate-character: auto; -webkit-line-break: auto; -webkit-line-clamp: none; -webkit-locale: &quot;en&quot;; -webkit-margin-before-collapse: collapse; -webkit-margin-after-collapse: collapse; -webkit-mask-box-image: none; -webkit-mask-box-image-outset: 0px; -webkit-mask-box-image-repeat: stretch; -webkit-mask-box-image-slice: 0 fill; -webkit-mask-box-image-source: none; -webkit-mask-box-image-width: auto; -webkit-mask-clip: border-box; -webkit-mask-composite: source-over; -webkit-mask-image: none; -webkit-mask-origin: border-box; -webkit-mask-position: 0% 0%; -webkit-mask-repeat: repeat; -webkit-mask-size: auto; order: 0; perspective: none; perspective-origin: 570px 247.625px; -webkit-print-color-adjust: economy; -webkit-rtl-ordering: logical; shape-outside: none; shape-image-threshold: 0; shape-margin: 0px; -webkit-tap-highlight-color: rgba(0, 0, 0, 0); -webkit-text-combine: none; -webkit-text-decorations-in-effect: none; -webkit-text-emphasis-color: rgb(51, 51, 51); -webkit-text-emphasis-position: over; -webkit-text-emphasis-style: none; -webkit-text-fill-color: rgb(51, 51, 51); -webkit-text-orientation: vertical-right; -webkit-text-security: none; -webkit-text-stroke-color: rgb(51, 51, 51); -webkit-text-stroke-width: 0px; transform: none; transform-origin: 570px 247.625px; transform-style: flat; -webkit-user-drag: auto; -webkit-user-modify: read-only; user-select: text; -webkit-writing-mode: horizontal-tb; -webkit-app-region: no-drag; buffered-rendering: auto; clip-path: none; clip-rule: nonzero; mask: none; filter: none; flood-color: rgb(0, 0, 0); flood-opacity: 1; lighting-color: rgb(255, 255, 255); stop-color: rgb(0, 0, 0); stop-opacity: 1; color-interpolation: sRGB; color-interpolation-filters: linearRGB; color-rendering: auto; fill: rgb(0, 0, 0); fill-opacity: 1; fill-rule: nonzero; marker-end: none; marker-mid: none; marker-start: none; mask-type: luminance; shape-rendering: auto; stroke: none; stroke-dasharray: none; stroke-dashoffset: 0px; stroke-linecap: butt; stroke-linejoin: miter; stroke-miterlimit: 4; stroke-opacity: 1; stroke-width: 1px; alignment-baseline: auto; baseline-shift: 0px; dominant-baseline: auto; text-anchor: start; writing-mode: horizontal-tb; vector-effect: none; paint-order: fill stroke markers; d: none; cx: 0px; cy: 0px; x: 0px; y: 0px; r: 0px; rx: auto; ry: auto;" version="1.1" xmlns:xlink="http://www.w3.org/1999/xlink"><style type="text/css">svg:not(:root) { overflow: hidden; }
*, ::before, ::after { box-sizing: border-box; }
.axis path, .axis line { fill: none; stroke: rgb(0, 0, 0); shape-rendering: crispEdges; }
.line { fill: none; stroke: steelblue; stroke-width: 1.5px; }</style><svg xmlns="http://www.w3.org/2000/svg" id="svg"><g transform="translate(50,20)"><g class="axis axis--x" transform="translate(0,445.28)" fill="none" font-size="10" font-family="sans-serif" text-anchor="middle" style="font-style: normal; font-variant: normal; font-weight: normal; font-stretch: normal; font-size: 12px; line-height: normal; font-family: sans-serif;"><path class="domain" stroke="#000" d="M0.5,6V0.5H1005.5V6"/><g class="tick" opacity="1" transform="translate(45.17916950499546,0)"><line stroke="#000" y2="6" x1="0.5" x2="0.5"/><text fill="#000" y="9" x="0.5" dy="0.71em">1994</text></g><g class="tick" opacity="1" transform="translate(128.47276623524067,0)"><line stroke="#000" y2="6" x1="0.5" x2="0.5"/><text fill="#000" y="9" x="0.5" dy="0.71em">1996</text></g><g class="tick" opacity="1" transform="translate(211.8804637829246,0)"><line stroke="#000" y2="6" x1="0.5" x2="0.5"/><text fill="#000" y="9" x="0.5" dy="0.71em">1998</text></g><g class="tick" opacity="1" transform="translate(295.1740605131698,0)"><line stroke="#000" y2="6" x1="0.5" x2="0.5"/><text fill="#000" y="9" x="0.5" dy="0.71em">2000</text></g><g class="tick" opacity="1" transform="translate(378.58175806085376,0)"><line stroke="#000" y2="6" x1="0.5" x2="0.5"/><text fill="#000" y="9" x="0.5" dy="0.71em">2002</text></g><g class="tick" opacity="1" transform="translate(461.87535479109897,0)"><line stroke="#000" y2="6" x1="0.5" x2="0.5"/><text fill="#000" y="9" x="0.5" dy="0.71em">2004</text></g><g class="tick" opacity="1" transform="translate(545.2830523387829,0)"><line stroke="#000" y2="6" x1="0.5" x2="0.5"/><text fill="#000" y="9" x="0.5" dy="0.71em">2006</text></g><g class="tick" opacity="1" transform="translate(628.5766490690281,0)"><line stroke="#000" y2="6" x1="0.5" x2="0.5"/><text fill="#000" y="9" x="0.5" dy="0.71em">2008</text></g><g class="tick" opacity="1" transform="translate(711.9843466167122,0)"><line stroke="#000" y2="6" x1="0.5" x2="0.5"/><text fill="#000" y="9" x="0.5" dy="0.71em">2010</text></g><g class="tick" opacity="1" transform="translate(795.2779433469573,0)"><line stroke="#000" y2="6" x1="0.5" x2="0.5"/><text fill="#000" y="9" x="0.5" dy="0.71em">2012</text></g><g class="tick" opacity="1" transform="translate(878.6856408946412,0)"><line stroke="#000" y2="6" x1="0.5" x2="0.5"/><text fill="#000" y="9" x="0.5" dy="0.71em">2014</text></g><g class="tick" opacity="1" transform="translate(961.9792376248864,0)"><line stroke="#000" y2="6" x1="0.5" x2="0.5"/><text fill="#000" y="9" x="0.5" dy="0.71em">2016</text></g><text transform="translate(994.95,0)" y="-16" dy="0.71em" fill="#000" style="font-style: normal; font-variant: normal; font-weight: normal; font-stretch: normal; font-size: 12px; line-height: normal; font-family: sans-serif;">Year</text></g><g class="axis axis--y" fill="none" font-size="10" font-family="sans-serif" text-anchor="end" style="font-style: normal; font-variant: normal; font-weight: normal; font-stretch: normal; font-size: 12px; line-height: normal; font-family: sans-serif;"><path class="domain" stroke="#000" d="M-6,445.78H0.5V0.5H-6"/><g class="tick" opacity="1" transform="translate(0,415.5946666666666)"><line stroke="#000" x2="-6" y1="0.5" y2="0.5"/><text fill="#000" x="-9" y="0.5" dy="0.32em">65</text></g><g class="tick" opacity="1" transform="translate(0,378.48799999999994)"><line stroke="#000" x2="-6" y1="0.5" y2="0.5"/><text fill="#000" x="-9" y="0.5" dy="0.32em">60</text></g><g class="tick" opacity="1" transform="translate(0,341.3813333333333)"><line stroke="#000" x2="-6" y1="0.5" y2="0.5"/><text fill="#000" x="-9" y="0.5" dy="0.32em">55</text></g><g class="tick" opacity="1" transform="translate(0,304.27466666666663)"><line stroke="#000" x2="-6" y1="0.5" y2="0.5"/><text fill="#000" x="-9" y="0.5" dy="0.32em">50</text></g><g class="tick" opacity="1" transform="translate(0,267.16799999999995)"><line stroke="#000" x2="-6" y1="0.5" y2="0.5"/><text fill="#000" x="-9" y="0.5" dy="0.32em">45</text></g><g class="tick" opacity="1" transform="translate(0,230.06133333333335)"><line stroke="#000" x2="-6" y1="0.5" y2="0.5"/><text fill="#000" x="-9" y="0.5" dy="0.32em">40</text></g><g class="tick" opacity="1" transform="translate(0,192.95466666666667)"><line stroke="#000" x2="-6" y1="0.5" y2="0.5"/><text fill="#000" x="-9" y="0.5" dy="0.32em">35</text></g><g class="tick" opacity="1" transform="translate(0,155.84799999999998)"><line stroke="#000" x2="-6" y1="0.5" y2="0.5"/><text fill="#000" x="-9" y="0.5" dy="0.32em">30</text></g><g class="tick" opacity="1" transform="translate(0,118.74133333333333)"><line stroke="#000" x2="-6" y1="0.5" y2="0.5"/><text fill="#000" x="-9" y="0.5" dy="0.32em">25</text></g><g class="tick" opacity="1" transform="translate(0,81.63466666666666)"><line stroke="#000" x2="-6" y1="0.5" y2="0.5"/><text fill="#000" x="-9" y="0.5" dy="0.32em">20</text></g><g class="tick" opacity="1" transform="translate(0,44.528)"><line stroke="#000" x2="-6" y1="0.5" y2="0.5"/><text fill="#000" x="-9" y="0.5" dy="0.32em">15</text></g><g class="tick" opacity="1" transform="translate(0,7.421333333333333)"><line stroke="#000" x2="-6" y1="0.5" y2="0.5"/><text fill="#000" x="-9" y="0.5" dy="0.32em">10</text></g><text y="-20" dy="0.71em" fill="#000">Position</text></g><g class="team"><path class="line" d="M0,423.01599999999996L4.75420072661217,394.56755555555554C9.50840145322434,366.11911111111107,19.01680290644868,309.2222222222222,24.64577656675749,280.77377777777775C30.274750227066303,252.3253333333333,32.02429609445958,252.3253333333333,33.45055631244323,253.5622222222222C34.87681653042688,254.7991111111111,35.9797910990009,257.2728888888889,37.063748864668476,257.2728888888889C38.14770663033605,257.2728888888889,39.21264759309719,254.7991111111111,40.391689373297005,253.56222222222218C41.57073115349683,252.3253333333333,42.86387375113534,252.3253333333333,44.53735240690282,252.3253333333333C46.2108310626703,252.3253333333333,48.26464577656676,252.3253333333333,49.824023614895545,247.37777777777774C51.38340145322434,242.43022222222217,52.44834241598547,232.5351111111111,53.64640099909173,231.2982222222222C54.844459582198,230.06133333333332,56.17563578564941,237.48266666666666,57.37369436875568,256.036C58.571752951861946,274.58933333333334,59.636693914623066,304.27466666666663,60.70163487738419,316.64355555555557C61.76657584014532,329.0124444444444,62.83151680290644,324.06488888888885,64.06760899182561,304.27466666666663C65.30370118074478,284.4844444444444,66.71094459582199,249.85155555555556,68.4414736603088,236.24577777777776C70.17200272479563,222.64,72.22581743869209,230.06133333333332,74.05143051771117,228.82444444444445C75.87704359673023,227.58755555555555,77.47445504087193,217.69244444444442,78.80563124432332,211.508C80.13680744777474,205.32355555555554,81.20174841053587,202.8497777777778,82.266689373297,201.61288888888888C83.33163033605813,200.376,84.39657129881925,200.376,86.10808356039963,201.61288888888888C87.81959582198003,202.8497777777778,90.17767938237965,205.32355555555554,92.45969573115349,201.61288888888888C94.74171207992732,197.9022222222222,96.94766121707539,188.00711111111113,98.56408946412353,185.53333333333333C100.18051771117166,183.05955555555556,101.20742506811989,188.00711111111113,102.25334922797457,188.00711111111113C103.29927338782925,188.00711111111113,104.36421435059037,183.05955555555556,105.69539055404177,184.29644444444443C107.02656675749319,185.53333333333333,108.62397820163487,192.95466666666667,109.95515440508628,192.95466666666667C111.2863306085377,192.95466666666667,112.35127157129882,185.53333333333333,113.41621253405994,191.71777777777777C114.48115349682108,197.90222222222224,115.5460944595822,217.69244444444442,116.61103542234333,218.92933333333335C117.67597638510445,220.16622222222222,118.74091734786559,202.8497777777778,119.93897593097186,191.71777777777777C121.13703451407811,180.5857777777778,122.46821071752952,175.63822222222223,123.66626930063576,171.92755555555553C124.86432788374204,168.2168888888889,125.92926884650318,165.74311111111112,127.14634423251589,163.26933333333332C128.3634196185286,160.79555555555555,129.73262942779292,158.32177777777778,130.94970481380562,157.08488888888886C132.16678019981836,155.84799999999998,133.23172116257948,155.84799999999998,134.9622502270663,154.6111111111111C136.69277929155314,153.37422222222222,139.08889645776568,150.90044444444445,140.8194255222525,145.95288888888885C142.54995458673932,141.0053333333333,143.61489554950046,133.58399999999997,144.94607175295187,128.63644444444444C146.27724795640327,123.68888888888887,147.87465940054494,121.21511111111111,149.73830608537693,121.21511111111109C151.6019527702089,121.21511111111111,153.73183469573112,123.68888888888887,155.32924613987282,117.50444444444445C156.92665758401452,111.32,157.99159854677563,96.47733333333332,159.0565395095368,89.056C160.12148047229792,81.63466666666666,161.18642143505903,81.63466666666666,162.25136239782017,84.10844444444443C163.3163033605813,86.58222222222223,164.38124432334243,91.52977777777778,165.44618528610354,92.76666666666667C166.51112624886468,94.00355555555556,167.57606721162583,91.52977777777778,169.45873069936422,87.81911111111111C171.34139418710265,84.10844444444444,174.04178019981836,79.16088888888889,176.17166212534062,72.97644444444444C178.30154405086287,66.79199999999999,179.86092188919164,59.37066666666666,181.30619891008178,58.133777777777766C182.75147593097185,56.896888888888874,184.08265213442326,61.844444444444434,185.41382833787466,63.081333333333326C186.74500454132604,64.31822222222222,188.07618074477747,61.844444444444434,189.27423932788372,60.60755555555554C190.47229791099002,59.370666666666665,191.53723887375114,59.370666666666665,192.7352974568574,59.37066666666667C193.93335603996366,59.370666666666665,195.26453224341506,59.370666666666665,196.46259082652134,60.60755555555556C197.6606494096276,61.844444444444434,198.72559037238875,64.31822222222222,199.82856494096276,68.02888888888887C200.9315395095368,71.73955555555555,202.07254768392372,76.68711111111111,203.27060626702996,76.6871111111111C204.4686648501362,76.68711111111111,205.72377384196184,71.73955555555555,206.99789963669392,64.31822222222222C208.27202543142596,56.896888888888874,209.56516802906447,47.00177777777777,211.2956970935513,35.86977777777778C213.02622615803816,24.737777777777776,215.19414168937328,12.368888888888888,216.81056993642144,6.184444444444444C218.42699818346955,0,219.4919391462307,0,220.68999772933697,2.473777777777778C221.88805631244324,4.947555555555556,223.21923251589465,9.895111111111111,224.4172910990009,13.605777777777776C225.61534968210717,17.316444444444443,226.68029064486828,19.790222222222223,228.27770208900998,33.395999999999994C229.87511353315168,47.00177777777778,232.00499545867396,71.73955555555555,233.73552452316073,84.10844444444444C235.4660535876476,96.47733333333333,236.797229791099,96.47733333333333,237.99528837420527,95.24044444444445C239.19334695731155,94.00355555555556,240.2582879200727,91.52977777777778,241.45634650317893,90.2928888888889C242.6544050862852,89.056,243.98558128973661,89.056,245.18363987284292,100.18799999999999C246.38169845594916,111.32,247.44663941871025,133.58399999999997,248.64469800181655,132.3471111111111C249.8427565849228,131.1102222222222,251.17393278837417,106.37244444444444,252.50510899182555,110.08311111111111C253.83628519527701,113.79377777777778,255.1674613987284,145.95288888888888,256.36551998183467,163.26933333333332C257.563578564941,180.5857777777778,258.6285195277021,183.05955555555556,259.6934604904632,188.00711111111113C260.75840145322434,192.95466666666667,261.82334241598545,200.37599999999998,262.88828337874656,207.7973333333333C263.9532243415077,215.21866666666665,265.01816530426885,222.64000000000001,266.08310626703,227.58755555555558C267.14804722979113,232.53511111111115,268.21298819255225,235.0088888888889,269.27792915531336,237.48266666666666C270.3428701180745,239.95644444444443,271.40781108083564,242.43022222222223,272.60586966394186,246.1408888888889C273.8039282470482,249.85155555555556,275.13510445049957,254.7991111111111,276.33316303360584,259.74666666666667C277.5312216167121,264.6942222222222,278.59616257947323,269.6417777777778,279.66110354223434,278.3C280.7260445049955,286.9582222222222,281.7909854677566,299.3271111111111,282.85592643051774,305.5115555555555C283.92086739327885,311.69599999999997,284.98580835603997,311.69599999999997,286.1838669391462,312.93288888888884C287.3819255222525,314.1697777777777,288.7131017257039,316.64355555555557,290.0442779291553,324.06488888888885C291.37545413260676,331.48622222222224,292.70663033605814,343.85511111111106,293.9046889191644,351.27644444444445C295.10274750227063,358.69777777777773,296.16768846503174,361.1715555555556,297.2326294277929,367.356C298.29757039055403,373.5404444444444,299.36251135331514,383.43555555555554,300.4274523160763,372.30355555555553C301.4923932788374,361.17155555555547,302.55733424159854,329.0124444444444,303.6222752043597,314.1697777777777C304.68721616712077,299.32711111111104,305.75215712988194,301.8008888888889,306.817098092643,310.4591111111111C307.88203905540416,319.1173333333333,308.94698001816533,333.96,310.0119209809264,342.6182222222222C311.07686194368756,351.27644444444445,312.1418029064487,353.7502222222222,313.2067438692098,341.3813333333333C314.27168483197096,329.01244444444444,315.3366257947321,301.8008888888889,316.53468437783835,290.6688888888889C317.7327429609446,279.5368888888889,319.063919164396,284.4844444444445,320.2619777475022,289.432C321.4600363306085,294.37955555555556,322.52497729336966,299.3271111111111,323.7230358764759,300.56399999999996C324.9210944595822,301.8008888888889,326.2522706630336,299.32711111111104,327.583446866485,279.5368888888889C328.91462306993645,259.7466666666666,330.24579927338783,222.64,331.57697547683927,209.0342222222222C332.9081516802907,195.4284444444444,334.2393278837421,205.32355555555554,335.4373864668483,212.74488888888888C336.63544504995457,220.16622222222222,337.7003860127157,225.11377777777776,338.76532697547685,227.58755555555555C339.83026793823797,230.06133333333335,340.8952089009991,230.06133333333335,341.96014986376025,232.53511111111115C343.02509082652136,235.0088888888889,344.0900317892825,239.95644444444443,345.15497275204365,242.43022222222223C346.2199137148047,244.904,347.2848546775658,244.904,348.48291326067215,247.37777777777777C349.6809718437784,249.85155555555556,351.01214804722986,254.7991111111111,352.34332425068123,243.66711111111113C353.6745004541326,232.5351111111111,355.005676657584,205.32355555555554,356.2037352406903,190.4808888888889C357.4017938237966,175.63822222222223,358.4667347865577,173.16444444444446,359.664793369664,165.7431111111111C360.8628519527702,158.32177777777778,362.1940281562216,145.95288888888888,363.39208673932785,141.0053333333333C364.5901453224341,136.05777777777777,365.65508628519524,138.53155555555554,366.72002724795635,137.29466666666664C367.7849682107175,136.05777777777777,368.84990917347864,131.1102222222222,370.0479677565849,139.76844444444444C371.24602633969124,148.42666666666665,372.5772025431426,170.69066666666666,373.77526112624884,180.5857777777778C374.9733197093551,190.4808888888889,376.0382606721162,188.00711111111113,377.1032016348774,188.00711111111113C378.1681425976385,188.00711111111113,379.2330835603996,190.4808888888889,380.2980245231608,195.4284444444444C381.3629654859219,200.37599999999998,382.427906448683,207.7973333333333,383.6259650317893,211.508C384.82402361489557,215.21866666666665,386.15519981834694,215.21866666666665,387.35325840145316,209.0342222222222C388.55131698455943,202.84977777777775,389.61625794732066,190.48088888888887,390.6811989100818,183.05955555555556C391.7461398728429,175.63822222222223,392.81108083560395,173.16444444444446,394.27537465940054,162.03244444444442C395.73966848319714,150.90044444444445,397.60331516802904,131.1102222222222,399.3338442325159,119.97822222222221C401.06437329700276,108.84622222222221,402.6617847411444,106.37244444444444,404.126078564941,110.08311111111108C405.5903723887375,113.79377777777775,406.9215485921889,123.68888888888887,408.2527247956403,128.6364444444444C409.58390099909167,133.58399999999997,410.91507720254316,133.58399999999997,412.1131357856494,127.39955555555554C413.31119436875565,121.21511111111109,414.37613533151676,108.84622222222221,415.44107629427793,102.66177777777779C416.50601725703905,96.47733333333333,417.57095821980016,96.47733333333333,418.63589918256133,96.47733333333333C419.70084014532245,96.47733333333333,420.76578110808356,96.47733333333333,421.96383969118983,98.95111111111112C423.16189827429616,101.4248888888889,424.49307447774754,106.37244444444444,425.8242506811989,110.08311111111111C427.1554268846503,113.79377777777778,428.4866030881017,116.26755555555555,429.684661671208,117.50444444444445C430.8827202543143,118.74133333333333,431.9476612170754,118.74133333333333,433.0126021798365,116.26755555555557C434.07754314259756,113.79377777777778,435.14248410535873,108.84622222222221,436.34054268846495,107.60933333333332C437.5386012715712,106.37244444444444,438.86977747502266,108.84622222222221,440.20095367847415,110.08311111111111C441.5321298819255,111.32,442.8633060853769,111.32,444.0613646684831,110.08311111111111C445.25942325158945,108.84622222222221,446.3243642143506,106.37244444444444,447.3893051771117,106.37244444444441C448.45424613987285,106.37244444444444,449.5191871026339,108.84622222222221,450.5841280653951,111.32000000000001C451.6490690281562,113.79377777777778,452.7140099909173,116.26755555555555,453.7789509536785,121.21511111111109C454.8438919164396,126.16266666666665,455.9088328792007,133.58399999999997,456.9357402361489,138.5315555555555C457.9626475930972,143.4791111111111,458.9515213442325,145.95288888888888,460.0164623069936,147.18977777777775C461.08140326975473,148.42666666666665,462.2224114441417,148.42666666666665,463.45850363306084,147.18977777777775C464.69459582198004,145.95288888888888,466.0257720254314,143.4791111111111,467.22383060853764,141.0053333333333C468.4218891916439,138.53155555555554,469.486830154405,136.05777777777777,470.5517711171662,133.58399999999997C471.6167120799273,131.1102222222222,472.6816530426884,128.63644444444444,473.7465940054496,126.16266666666665C474.8115349682107,123.68888888888887,475.8764759309718,121.21511111111111,476.941416893733,117.50444444444445C478.0063578564941,113.79377777777778,479.0712988192552,108.84622222222221,480.1362397820163,107.60933333333332C481.2011807447775,106.37244444444444,482.2661217075386,108.84622222222221,483.3310626702997,105.13555555555557C484.39600363306084,101.42488888888887,485.46094459582196,91.52977777777778,486.52588555858307,84.10844444444443C487.59082652134424,76.68711111111111,488.65576748410535,71.73955555555555,489.8538260672116,70.50266666666666C491.05188465031785,69.26577777777777,492.38306085376934,71.73955555555555,493.71423705722077,70.50266666666666C495.04541326067215,69.26577777777777,496.3765894641235,64.31822222222222,497.80284968210725,61.844444444444434C499.22910990009086,59.370666666666665,500.75045413260676,59.370666666666665,502.0816303360582,61.84444444444444C503.4128065395096,64.31822222222222,504.55381471389654,69.26577777777777,505.6567892824705,70.50266666666666C506.7597638510445,71.73955555555555,507.8247048138057,69.26577777777777,509.02276339691184,68.02888888888887C510.2208219800182,66.79199999999999,511.55199818346955,66.79199999999999,512.7500567665758,65.5551111111111C513.9481153496821,64.31822222222222,515.0130563124432,61.844444444444434,516.0779972752043,60.60755555555554C517.1429382379655,59.370666666666665,518.2078792007266,59.370666666666665,519.2728201634877,60.60755555555556C520.3377611262489,61.844444444444434,521.40270208901,64.31822222222222,522.6007606721163,59.37066666666666C523.7988192552225,54.4231111111111,525.129995458674,42.054222222222215,526.3280540417802,40.81733333333333C527.5261126248864,39.580444444444446,528.5910535876475,49.47555555555556,529.6179609445958,53.18622222222223C530.6448683015441,56.89688888888889,531.6337420526794,54.423111111111105,532.7937670299727,53.18622222222223C533.9537920072661,51.94933333333333,535.2849682107176,51.94933333333333,536.616144414169,50.71244444444445C537.9473206176203,49.47555555555555,539.2784968210718,47.00177777777778,540.4195049954587,45.76488888888889C541.5605131698456,44.528,542.511353315168,44.528,543.614327883742,44.528C544.7173024523161,44.528,545.9724114441417,44.528,547.132436421435,48.23866666666666C548.2924613987284,51.94933333333333,549.3574023614896,59.37066666666666,550.4223433242506,63.081333333333326C551.4872842870118,66.79199999999999,552.552225249773,66.79199999999999,553.7502838328792,65.5551111111111C554.9483424159854,64.31822222222222,556.2795186194368,61.844444444444434,557.4775772025431,61.844444444444434C558.6756357856494,61.844444444444434,559.7405767484105,64.31822222222222,561.3379881925522,103.89866666666664C562.9353996366939,143.4791111111111,565.0652815622161,220.16622222222222,566.7958106267029,257.2728888888889C568.5263396911897,294.37955555555556,569.8575158946411,291.90577777777776,571.0555744777474,289.43199999999996C572.2536330608538,286.9582222222222,573.3185740236148,284.4844444444444,574.5166326067211,282.0106666666666C575.7146911898275,279.5368888888889,577.0458673932789,277.0631111111111,578.3770435967302,277.0631111111111C579.7082198001816,277.0631111111111,581.0393960036331,279.5368888888889,582.1994209809264,280.77377777777775C583.3594459582199,282.0106666666666,584.3483197093552,282.0106666666666,585.4132606721163,280.77377777777775C586.4782016348775,279.5368888888889,587.6192098092644,277.0631111111111,588.7221843778384,269.6417777777778C589.8251589464124,262.22044444444447,590.8900999091735,249.85155555555556,591.9550408719346,244.904C593.0199818346956,239.95644444444443,594.0849227974568,242.43022222222223,595.2829813805631,248.6146666666667C596.4810399636693,254.7991111111111,597.8122161671208,264.6942222222222,599.010274750227,267.168C600.2083333333334,269.6417777777778,601.2732742960944,264.6942222222222,602.3382152588556,257.2728888888889C603.4031562216168,249.85155555555556,604.4680971843778,239.95644444444443,605.666155767484,230.06133333333335C606.8642143505903,220.16622222222225,608.1953905540418,210.27111111111114,609.5265667574931,211.50800000000004C610.8577429609445,212.7448888888889,612.188919164396,225.11377777777776,613.3869777475022,222.64C614.5850363306085,220.16622222222222,615.6499772933697,202.8497777777778,616.8480358764759,189.244C618.0460944595822,175.63822222222223,619.3772706630335,165.74311111111112,620.6133628519527,164.5062222222222C621.8494550408719,163.26933333333332,622.9904632152588,170.69066666666666,624.017370572207,175.63822222222223C625.0442779291553,180.5857777777778,625.9570844686649,183.05955555555556,626.9839918256131,184.29644444444443C628.0108991825613,185.53333333333333,629.1519073569482,185.53333333333333,630.2548819255222,186.7702222222222C631.3578564940963,188.00711111111113,632.4227974568574,190.4808888888889,633.4877384196185,192.95466666666667C634.5526793823797,195.42844444444447,635.6176203451408,197.90222222222224,636.6825613079019,199.1391111111111C637.7475022706631,200.376,638.8124432334242,200.376,639.8773841961853,201.61288888888888C640.9423251589463,202.8497777777778,642.0072661217074,205.32355555555554,643.0722070844686,207.7973333333333C644.1371480472297,210.27111111111108,645.2020890099908,212.74488888888888,646.267029972752,209.0342222222222C647.3319709355131,205.32355555555554,648.3969118982743,195.4284444444444,649.5949704813805,191.71777777777777C650.7930290644869,188.00711111111113,652.1242052679382,190.4808888888889,653.3222638510445,191.71777777777777C654.5203224341508,192.95466666666667,655.585263396912,192.95466666666667,656.7833219800182,189.244C657.9813805631244,185.53333333333333,659.3125567665758,178.112,660.6437329700273,181.82266666666666C661.9749091734787,185.5333333333333,663.3060853769301,200.37599999999998,664.6372615803815,204.08666666666667C665.9684377838329,207.7973333333333,667.2996139872843,200.37599999999998,668.4976725703906,195.42844444444447C669.6957311534967,190.4808888888889,670.7606721162579,188.00711111111113,671.825613079019,190.48088888888887C672.8905540417801,192.95466666666667,673.9554950045413,200.37599999999998,675.0204359673024,201.61288888888888C676.0853769300635,202.84977777777775,677.1503178928247,197.90222222222224,678.2152588555858,195.42844444444447C679.2801998183469,192.95466666666667,680.3451407811081,192.95466666666667,681.4100817438692,192.95466666666667C682.4750227066303,192.95466666666667,683.5399636693915,192.95466666666667,684.6049046321526,188.00711111111113C685.6698455949136,183.05955555555556,686.7347865576749,173.16444444444446,687.7997275204358,179.34888888888887C688.8646684831971,185.53333333333333,689.9296094459582,207.79733333333334,691.1276680290645,217.69244444444448C692.3257266121708,227.58755555555558,693.6569028156222,225.11377777777776,694.8549613987284,225.11377777777776C696.0530199818346,225.11377777777776,697.1179609445958,227.58755555555558,698.4871707538601,228.82444444444445C699.8563805631244,230.06133333333335,701.5298592188919,230.06133333333335,703.0321866485014,233.77200000000002C704.5345140781109,237.48266666666666,705.8656902815623,244.904,707.0257152588556,248.61466666666664C708.185740236149,252.3253333333333,709.1746139872843,252.3253333333333,710.6008742052678,248.61466666666664C712.0271344232515,244.904,713.8907811080835,237.48266666666666,715.35507493188,241.19333333333336C716.8193687556767,244.904,717.8843097184377,259.74666666666667,718.9492506811988,265.9311111111111C720.0141916439601,272.11555555555555,721.0791326067211,269.64177777777775,722.1440735694823,268.4048888888888C723.2090145322435,267.16799999999995,724.2739554950045,267.16799999999995,725.3388964577657,267.16799999999995C726.4038374205269,267.16799999999995,727.4687783832879,267.16799999999995,728.9330722070845,251.08844444444438C730.3973660308811,235.00888888888883,732.261012715713,202.84977777777775,733.7253065395095,186.7702222222222C735.1896003633061,170.69066666666666,736.2545413260672,170.69066666666666,737.4525999091735,168.21688888888886C738.6506584922798,165.74311111111112,739.9818346957312,160.79555555555555,741.3130108991827,158.32177777777775C742.644187102634,155.84799999999998,743.9753633060855,155.84799999999998,745.1734218891917,155.84799999999998C746.371480472298,155.84799999999998,747.436421435059,155.84799999999998,748.5013623978201,154.6111111111111C749.5663033605812,153.37422222222222,750.6312443233423,150.90044444444445,751.6961852861035,149.66355555555552C752.7611262488646,148.42666666666665,753.8260672116257,148.42666666666665,754.7578905540418,133.58399999999997C755.6897138964578,118.74133333333332,756.4884196185286,89.056,757.5533605812898,71.73955555555555C758.618301544051,54.423111111111105,759.9494777475023,49.47555555555556,761.2806539509537,44.528C762.6118301544051,39.580444444444446,763.9430063578565,34.632888888888886,765.2741825613078,33.395999999999994C766.6053587647593,32.15911111111111,767.9365349682107,34.632888888888886,769.4008287920072,34.632888888888886C770.8651226158039,34.632888888888886,772.4625340599456,32.15911111111111,773.793710263397,32.15911111111111C775.1248864668484,32.15911111111111,776.1898274296095,34.632888888888886,777.2547683923707,37.10666666666666C778.3197093551316,39.580444444444446,779.3846503178929,42.05422222222222,780.4495912806539,43.291111111111114C781.5145322434151,44.528,782.5794732061762,44.528,783.6444141689375,47.00177777777778C784.7093551316984,49.47555555555556,785.7742960944597,54.423111111111105,786.9723546775658,59.370666666666665C788.1704132606723,64.31822222222222,789.5015894641236,69.26577777777777,790.6996480472299,71.73955555555554C791.8977066303361,74.21333333333332,792.9626475930972,74.21333333333332,794.0275885558584,74.21333333333332C795.0925295186195,74.21333333333332,796.1574704813805,74.21333333333332,797.2224114441418,87.8191111111111C798.2873524069028,101.42488888888887,799.352293369664,128.63644444444444,800.2841167120799,145.95288888888888C801.215940054496,163.26933333333332,802.0146457765668,170.69066666666666,803.079586739328,170.69066666666666C804.1445277020889,170.69066666666666,805.4757039055403,163.26933333333332,806.6737624886467,159.55866666666665C807.871821071753,155.84799999999998,808.9367620345141,155.84799999999998,810.0017029972752,147.18977777777775C811.0666439600363,138.53155555555554,812.1315849227975,121.21511111111109,813.1965258855586,108.84622222222221C814.2614668483197,96.47733333333332,815.3264078110809,89.056,816.5244663941871,87.81911111111111C817.7225249772933,86.58222222222223,819.0537011807447,91.52977777777778,820.251759763851,95.24044444444444C821.4498183469573,98.95111111111112,822.5147593097184,101.42488888888887,823.5797002724795,102.66177777777777C824.6446412352407,103.89866666666666,825.7095821980018,103.89866666666666,826.9076407811081,105.13555555555554C828.1056993642143,106.37244444444444,829.4368755676657,108.84622222222221,830.9011693914623,107.60933333333334C832.3654632152588,106.37244444444444,833.9628746594004,101.4248888888889,835.3130676657584,97.71422222222223C836.6632606721163,94.00355555555556,837.7662352406902,91.52977777777778,838.8501930063579,98.9511111111111C839.9341507720255,106.37244444444444,840.9990917347865,123.68888888888887,842.0640326975476,129.8733333333333C843.1289736603088,136.05777777777777,844.1939146230699,131.1102222222222,845.258855585831,132.3471111111111C846.3237965485922,133.58399999999997,847.3887375113533,141.0053333333333,848.4536784741144,145.95288888888885C849.5186194368756,150.90044444444445,850.5835603996367,153.37422222222222,851.6485013623977,157.08488888888886C852.713442325159,160.79555555555555,853.7783832879201,165.74311111111112,854.8433242506811,174.40133333333333C855.9082652134422,183.05955555555556,856.9732061762033,195.4284444444444,858.1712647593098,201.61288888888885C859.3693233424159,207.7973333333333,860.7004995458674,207.7973333333333,862.0316757493188,213.98177777777778C863.3628519527701,220.16622222222222,864.6940281562216,232.5351111111111,866.025204359673,241.19333333333336C867.3563805631244,249.85155555555556,868.6875567665758,254.7991111111111,870.1518505903723,262.22044444444447C871.616144414169,269.6417777777778,873.2135558583108,279.5368888888889,874.411614441417,283.24755555555555C875.6096730245232,286.9582222222222,876.4083787465939,284.4844444444444,877.34020208901,284.4844444444444C878.272025431426,284.4844444444444,879.3369663941871,286.9582222222222,880.4019073569483,290.6688888888889C881.4668483197092,294.37955555555556,882.5317892824705,299.3271111111111,883.5967302452315,299.3271111111111C884.6616712079928,299.3271111111111,885.7266121707538,294.37955555555556,886.7915531335151,290.6688888888889C887.856494096276,286.9582222222222,888.9214350590373,284.4844444444444,889.9863760217983,283.2475555555555C891.0513169845594,282.0106666666666,892.1162579473206,282.0106666666666,893.1811989100817,280.77377777777775C894.2461398728428,279.5368888888889,895.311080835604,277.0631111111111,896.6422570390554,274.5893333333333C897.9734332425068,272.11555555555555,899.5708446866485,269.64177777777775,900.9020208900998,267.16799999999995C902.2331970935512,264.6942222222222,903.2981380563124,262.2204444444444,904.4961966394188,265.9311111111111C905.6942552225249,269.6417777777778,907.0254314259764,279.5368888888889,908.3566076294278,289.432C909.6877838328792,299.32711111111115,911.0189600363307,309.22222222222223,912.350136239782,315.40666666666664C913.6813124432334,321.5911111111111,915.0124886466848,324.06488888888885,916.077429609446,326.53866666666664C917.1423705722071,329.0124444444444,917.941076294278,331.48622222222224,918.7397820163487,332.7231111111111C919.5384877384196,333.96,920.3371934604905,333.96,921.4021344232515,335.19688888888885C922.4670753860128,336.4337777777778,923.7982515894641,338.9075555555555,924.9963101725704,337.67066666666665C926.1943687556767,336.4337777777778,927.2593097184377,331.48622222222224,928.3242506811989,325.3017777777778C929.3891916439601,319.1173333333333,930.4541326067211,311.69599999999997,931.5190735694822,307.9853333333333C932.5840145322435,304.27466666666663,933.6489554950045,304.27466666666663,934.7138964577656,306.74844444444443C935.7788374205267,309.2222222222222,936.8437783832878,314.1697777777777,938.0418369663943,314.16977777777777C939.2398955495004,314.1697777777777,940.5710717529519,309.2222222222222,941.7691303360581,314.16977777777777C942.9671889191644,319.1173333333333,944.0321298819255,333.96,945.0970708446866,343.85511111111106C946.1620118074478,353.7502222222222,947.2269527702089,358.69777777777773,948.29189373297,357.46088888888886C949.3568346957312,356.224,950.4217756584922,348.80266666666665,951.6198342415986,338.9075555555556C952.8178928247047,329.0124444444444,954.1490690281562,316.64355555555557,955.3471276112624,314.1697777777777C956.5451861943687,311.69599999999997,957.6101271571298,319.1173333333333,958.8081857402361,322.828C960.0062443233423,326.53866666666664,961.3374205267937,326.53866666666664,962.5354791099002,332.7231111111111C963.7335376930064,338.9075555555555,964.7984786557676,351.27644444444445,965.8634196185285,354.98711111111106C966.9283605812898,358.69777777777773,967.9933015440507,353.7502222222222,969.191360127157,352.5133333333333C970.3894187102633,351.27644444444445,971.7205949137148,353.7502222222222,972.9186534968211,354.9871111111111C974.1167120799273,356.224,975.1816530426885,356.224,976.2465940054495,351.27644444444445C977.3115349682107,346.3288888888889,978.3764759309719,336.4337777777778,979.7076521344233,336.4337777777777C981.0388283378746,336.4337777777778,982.6362397820163,346.3288888888889,983.9674159854677,341.3813333333333C985.2985921889191,336.4337777777778,986.3635331516803,316.64355555555557,987.5615917347865,315.40666666666664C988.7596503178929,314.1697777777777,990.0908265213443,331.48622222222224,991.4220027247957,333.96C992.753178928247,336.4337777777778,994.0843551316984,324.06488888888885,995.4155313351498,310.4591111111111C996.7467075386013,296.8533333333333,998.0778837420527,282.0106666666666,999.2759423251591,274.5893333333333C1000.4740009082652,267.16799999999995,1001.5389418710264,267.16799999999995,1002.4707652134424,268.4048888888888C1003.4025885558582,269.64177777777775,1004.2012942779292,272.11555555555555,1004.6006471389646,273.3524444444444L1005,274.58933333333334" style="stroke: rgb(31, 119, 180);"/><text transform="translate(1005,274.58933333333334)" x="3" dy="0.35em" style="font-style: normal; font-variant: normal; font-weight: normal; font-stretch: normal; font-size: 14px; line-height: normal; font-family: sans-serif; fill: rgb(31, 119, 180);">Japan</text></g><g class="team"><path class="line" d="M0,296.8533333333333L4.75420072661217,280.77377777777775C9.50840145322434,264.6942222222222,19.01680290644868,232.5351111111111,24.64577656675749,216.45555555555555C30.274750227066303,200.376,32.02429609445958,200.376,33.45055631244323,201.61288888888888C34.87681653042688,202.8497777777778,35.9797910990009,205.32355555555554,37.063748864668476,209.0342222222222C38.14770663033605,212.74488888888888,39.21264759309719,217.69244444444442,40.391689373297005,222.64000000000001C41.57073115349683,227.58755555555555,42.86387375113534,232.5351111111111,44.53735240690282,236.24577777777776C46.2108310626703,239.95644444444443,48.26464577656676,242.43022222222223,49.824023614895545,241.19333333333336C51.38340145322434,239.95644444444443,52.44834241598547,235.0088888888889,53.64640099909173,232.5351111111111C54.844459582198,230.06133333333335,56.17563578564941,230.06133333333335,57.37369436875568,226.3506666666667C58.571752951861946,222.64000000000001,59.636693914623066,215.21866666666665,60.70163487738419,211.50799999999995C61.76657584014532,207.7973333333333,62.83151680290644,207.7973333333333,64.06760899182561,206.56044444444444C65.30370118074478,205.32355555555554,66.71094459582199,202.8497777777778,68.4414736603088,204.08666666666667C70.17200272479563,205.32355555555554,72.22581743869209,210.27111111111108,74.05143051771117,209.0342222222222C75.87704359673023,207.7973333333333,77.47445504087193,200.37599999999998,78.80563124432332,196.66533333333334C80.13680744777474,192.95466666666667,81.20174841053587,192.95466666666667,82.266689373297,192.95466666666667C83.33163033605813,192.95466666666667,84.39657129881925,192.95466666666667,86.10808356039963,190.4808888888889C87.81959582198003,188.00711111111113,90.17767938237965,183.05955555555556,92.45969573115349,183.05955555555556C94.74171207992732,183.05955555555556,96.94766121707539,188.00711111111113,98.56408946412353,192.95466666666667C100.18051771117166,197.90222222222224,101.20742506811989,202.84977777777775,102.25334922797457,205.32355555555554C103.29927338782925,207.7973333333333,104.36421435059037,207.7973333333333,105.69539055404177,210.27111111111108C107.02656675749319,212.74488888888888,108.62397820163487,217.69244444444442,109.95515440508628,222.64000000000001C111.2863306085377,227.58755555555555,112.35127157129882,232.5351111111111,113.41621253405994,231.2982222222222C114.48115349682108,230.06133333333332,115.5460944595822,222.64,116.61103542234333,231.29822222222222C117.67597638510445,239.95644444444443,118.74091734786559,264.6942222222222,119.93897593097186,272.11555555555555C121.13703451407811,279.5368888888889,122.46821071752952,269.6417777777778,123.66626930063576,267.168C124.86432788374204,264.6942222222222,125.92926884650318,269.6417777777778,127.14634423251589,275.8262222222222C128.3634196185286,282.0106666666666,129.73262942779292,289.43199999999996,130.94970481380562,309.2222222222222C132.16678019981836,329.0124444444444,133.23172116257948,361.17155555555547,134.9622502270663,373.5404444444444C136.69277929155314,385.9093333333333,139.08889645776568,378.488,140.8194255222525,364.8822222222222C142.54995458673932,351.27644444444445,143.61489554950046,331.48622222222224,144.94607175295187,324.06488888888885C146.27724795640327,316.64355555555557,147.87465940054494,321.5911111111111,149.73830608537693,309.2222222222222C151.6019527702089,296.8533333333333,153.73183469573112,267.16799999999995,155.32924613987282,252.3253333333333C156.92665758401452,237.48266666666666,157.99159854677563,237.48266666666666,159.0565395095368,242.43022222222223C160.12148047229792,247.37777777777774,161.18642143505903,257.2728888888889,162.25136239782017,263.4573333333333C163.3163033605813,269.64177777777775,164.38124432334243,272.11555555555555,165.44618528610354,270.8786666666667C166.51112624886468,269.6417777777778,167.57606721162583,264.6942222222222,169.45873069936422,258.5097777777778C171.34139418710265,252.32533333333333,174.04178019981836,244.904,176.17166212534062,232.5351111111111C178.30154405086287,220.16622222222222,179.86092188919164,202.8497777777778,181.30619891008178,196.66533333333334C182.75147593097185,190.4808888888889,184.08265213442326,195.42844444444447,185.41382833787466,192.95466666666667C186.74500454132604,190.4808888888889,188.07618074477747,180.5857777777778,189.27423932788372,178.112C190.47229791099002,175.63822222222223,191.53723887375114,180.5857777777778,192.7352974568574,183.05955555555556C193.93335603996366,185.53333333333333,195.26453224341506,185.53333333333333,196.46259082652134,186.7702222222222C197.6606494096276,188.00711111111113,198.72559037238875,190.4808888888889,199.82856494096276,190.4808888888889C200.9315395095368,190.4808888888889,202.07254768392372,188.00711111111113,203.27060626702996,183.05955555555556C204.4686648501362,178.112,205.72377384196184,170.69066666666666,206.99789963669392,162.03244444444442C208.27202543142596,153.37422222222222,209.56516802906447,143.4791111111111,211.2956970935513,129.8733333333333C213.02622615803816,116.26755555555553,215.19414168937328,98.9511111111111,216.81056993642144,95.24044444444444C218.42699818346955,91.52977777777778,219.4919391462307,101.42488888888887,220.68999772933697,106.37244444444445C221.88805631244324,111.32,223.21923251589465,111.32,224.4172910990009,106.37244444444444C225.61534968210717,101.42488888888887,226.68029064486828,91.52977777777778,228.27770208900998,87.81911111111111C229.87511353315168,84.10844444444444,232.00499545867396,86.58222222222223,233.73552452316073,87.81911111111111C235.4660535876476,89.056,236.797229791099,89.056,237.99528837420527,87.81911111111111C239.19334695731155,86.58222222222223,240.2582879200727,84.10844444444444,241.45634650317893,81.63466666666666C242.6544050862852,79.16088888888889,243.98558128973661,76.68711111111111,245.18363987284292,75.45022222222221C246.38169845594916,74.21333333333332,247.44663941871025,74.21333333333332,248.64469800181655,71.73955555555555C249.8427565849228,69.26577777777777,251.17393278837417,64.31822222222222,252.50510899182555,84.10844444444444C253.83628519527701,103.89866666666667,255.1674613987284,148.42666666666665,256.36551998183467,168.2168888888889C257.563578564941,188.00711111111113,258.6285195277021,183.05955555555556,259.6934604904632,184.29644444444443C260.75840145322434,185.53333333333333,261.82334241598545,192.95466666666667,262.88828337874656,196.66533333333334C263.9532243415077,200.376,265.01816530426885,200.376,266.08310626703,197.90222222222224C267.14804722979113,195.42844444444447,268.21298819255225,190.4808888888889,269.27792915531336,192.95466666666667C270.3428701180745,195.4284444444444,271.40781108083564,205.32355555555554,272.60586966394186,209.0342222222222C273.8039282470482,212.74488888888888,275.13510445049957,210.27111111111108,276.33316303360584,211.50799999999995C277.5312216167121,212.74488888888888,278.59616257947323,217.69244444444442,279.66110354223434,221.40311111111112C280.7260445049955,225.11377777777776,281.7909854677566,227.58755555555558,282.85592643051774,228.82444444444445C283.92086739327885,230.06133333333335,284.98580835603997,230.06133333333335,286.1838669391462,231.29822222222228C287.3819255222525,232.53511111111115,288.7131017257039,235.0088888888889,290.0442779291553,248.61466666666664C291.37545413260676,262.2204444444444,292.70663033605814,286.9582222222222,293.9046889191644,300.56399999999996C295.10274750227063,314.1697777777777,296.16768846503174,316.64355555555557,297.2326294277929,312.93288888888884C298.29757039055403,309.22222222222223,299.36251135331514,299.32711111111115,300.4274523160763,290.6688888888889C301.4923932788374,282.0106666666666,302.55733424159854,274.5893333333333,303.6222752043597,268.4048888888888C304.68721616712077,262.2204444444444,305.75215712988194,257.2728888888889,306.817098092643,251.08844444444443C307.88203905540416,244.904,308.94698001816533,237.48266666666666,310.0119209809264,236.2457777777778C311.07686194368756,235.0088888888889,312.1418029064487,239.95644444444443,313.2067438692098,237.48266666666666C314.27168483197096,235.0088888888889,315.3366257947321,225.11377777777776,316.53468437783835,218.92933333333335C317.7327429609446,212.74488888888888,319.063919164396,210.27111111111108,320.2619777475022,216.45555555555552C321.4600363306085,222.64,322.52497729336966,237.48266666666663,323.7230358764759,246.14088888888887C324.9210944595822,254.7991111111111,326.2522706630336,257.2728888888889,327.583446866485,252.3253333333333C328.91462306993645,247.37777777777777,330.24579927338783,235.0088888888889,331.57697547683927,230.06133333333332C332.9081516802907,225.11377777777776,334.2393278837421,227.58755555555558,335.4373864668483,231.29822222222222C336.63544504995457,235.0088888888889,337.7003860127157,239.95644444444443,338.76532697547685,242.43022222222223C339.83026793823797,244.904,340.8952089009991,244.904,341.96014986376025,241.1933333333333C343.02509082652136,237.48266666666666,344.0900317892825,230.06133333333332,345.15497275204365,228.82444444444445C346.2199137148047,227.58755555555555,347.2848546775658,232.5351111111111,348.48291326067215,232.53511111111106C349.6809718437784,232.5351111111111,351.01214804722986,227.58755555555555,352.34332425068123,222.64000000000001C353.6745004541326,217.69244444444442,355.005676657584,212.74488888888888,356.2037352406903,212.74488888888882C357.4017938237966,212.74488888888888,358.4667347865577,217.69244444444442,359.664793369664,223.87688888888889C360.8628519527702,230.06133333333332,362.1940281562216,237.48266666666666,363.39208673932785,242.43022222222217C364.5901453224341,247.37777777777777,365.65508628519524,249.85155555555556,366.72002724795635,251.08844444444443C367.7849682107175,252.3253333333333,368.84990917347864,252.3253333333333,370.0479677565849,252.3253333333333C371.24602633969124,252.3253333333333,372.5772025431426,252.3253333333333,373.77526112624884,251.08844444444443C374.9733197093551,249.85155555555556,376.0382606721162,247.37777777777777,377.1032016348774,246.14088888888887C378.1681425976385,244.904,379.2330835603996,244.904,380.2980245231608,243.66711111111113C381.3629654859219,242.43022222222223,382.427906448683,239.95644444444443,383.6259650317893,238.71955555555556C384.82402361489557,237.48266666666666,386.15519981834694,237.48266666666666,387.35325840145316,237.4826666666667C388.55131698455943,237.48266666666666,389.61625794732066,237.48266666666666,390.6811989100818,236.2457777777778C391.7461398728429,235.0088888888889,392.81108083560395,232.53511111111115,394.27537465940054,209.0342222222222C395.73966848319714,185.53333333333333,397.60331516802904,141.00533333333334,399.3338442325159,118.74133333333334C401.06437329700276,96.47733333333333,402.6617847411444,96.47733333333333,404.126078564941,95.24044444444445C405.5903723887375,94.00355555555556,406.9215485921889,91.52977777777778,408.2527247956403,89.056C409.58390099909167,86.58222222222223,410.91507720254316,84.10844444444444,412.1131357856494,82.87155555555555C413.31119436875565,81.63466666666666,414.37613533151676,81.63466666666666,415.44107629427793,81.63466666666666C416.50601725703905,81.63466666666666,417.57095821980016,81.63466666666666,418.63589918256133,81.63466666666666C419.70084014532245,81.63466666666666,420.76578110808356,81.63466666666666,421.96383969118983,81.63466666666666C423.16189827429616,81.63466666666666,424.49307447774754,81.63466666666666,425.8242506811989,80.39777777777776C427.1554268846503,79.16088888888889,428.4866030881017,76.68711111111111,429.684661671208,77.92399999999999C430.8827202543143,79.16088888888889,431.9476612170754,84.10844444444444,433.0126021798365,86.58222222222223C434.07754314259756,89.056,435.14248410535873,89.056,436.34054268846495,92.76666666666665C437.5386012715712,96.47733333333333,438.86977747502266,103.89866666666666,440.20095367847415,111.32C441.5321298819255,118.74133333333332,442.8633060853769,126.16266666666665,444.0613646684831,132.3471111111111C445.25942325158945,138.53155555555554,446.3243642143506,143.4791111111111,447.3893051771117,158.32177777777775C448.45424613987285,173.16444444444446,449.5191871026339,197.9022222222222,450.5841280653951,189.244C451.6490690281562,180.5857777777778,452.7140099909173,138.53155555555554,453.7789509536785,117.50444444444446C454.8438919164396,96.47733333333333,455.9088328792007,96.47733333333333,456.9357402361489,96.47733333333333C457.9626475930972,96.47733333333333,458.9515213442325,96.47733333333333,460.0164623069936,96.47733333333333C461.08140326975473,96.47733333333333,462.2224114441417,96.47733333333333,463.45850363306084,97.7142222222222C464.69459582198004,98.95111111111112,466.0257720254314,101.42488888888887,467.22383060853764,101.4248888888889C468.4218891916439,101.42488888888887,469.486830154405,98.95111111111112,470.5517711171662,95.24044444444445C471.6167120799273,91.52977777777778,472.6816530426884,86.58222222222223,473.7465940054496,82.87155555555555C474.8115349682107,79.16088888888889,475.8764759309718,76.68711111111111,476.941416893733,76.6871111111111C478.0063578564941,76.68711111111111,479.0712988192552,79.16088888888889,480.1362397820163,80.39777777777776C481.2011807447775,81.63466666666666,482.2661217075386,81.63466666666666,483.3310626702997,84.10844444444443C484.39600363306084,86.58222222222223,485.46094459582196,91.52977777777778,486.52588555858307,95.24044444444444C487.59082652134424,98.95111111111112,488.65576748410535,101.42488888888887,489.8538260672116,105.13555555555554C491.05188465031785,108.84622222222221,492.38306085376934,113.79377777777778,493.71423705722077,115.03066666666666C495.04541326067215,116.26755555555555,496.3765894641235,113.79377777777778,497.80284968210725,110.08311111111112C499.22910990009086,106.37244444444444,500.75045413260676,101.4248888888889,502.0816303360582,97.71422222222223C503.4128065395096,94.00355555555556,504.55381471389654,91.52977777777778,505.6567892824705,90.2928888888889C506.7597638510445,89.056,507.8247048138057,89.056,509.02276339691184,90.2928888888889C510.2208219800182,91.52977777777778,511.55199818346955,94.00355555555556,512.7500567665758,95.24044444444445C513.9481153496821,96.47733333333333,515.0130563124432,96.47733333333333,516.0779972752043,95.24044444444445C517.1429382379655,94.00355555555556,518.2078792007266,91.52977777777778,519.2728201634877,89.056C520.3377611262489,86.58222222222223,521.40270208901,84.10844444444444,522.6007606721163,84.10844444444443C523.7988192552225,84.10844444444444,525.129995458674,86.58222222222223,526.3280540417802,90.29288888888887C527.5261126248864,94.00355555555556,528.5910535876475,98.9511111111111,529.6179609445958,105.13555555555554C530.6448683015441,111.32,531.6337420526794,118.74133333333332,532.7937670299727,126.16266666666665C533.9537920072661,133.58399999999997,535.2849682107176,141.0053333333333,536.616144414169,144.71599999999998C537.9473206176203,148.42666666666665,539.2784968210718,148.42666666666665,540.4195049954587,148.42666666666665C541.5605131698456,148.42666666666665,542.511353315168,148.42666666666665,543.614327883742,148.42666666666665C544.7173024523161,148.42666666666665,545.9724114441417,148.42666666666665,547.132436421435,150.90044444444442C548.2924613987284,153.37422222222222,549.3574023614896,158.32177777777778,550.4223433242506,160.79555555555552C551.4872842870118,163.26933333333332,552.552225249773,163.26933333333332,553.7502838328792,162.03244444444442C554.9483424159854,160.79555555555555,556.2795186194368,158.32177777777778,557.4775772025431,155.84799999999998C558.6756357856494,153.37422222222222,559.7405767484105,150.90044444444445,561.3379881925522,183.05955555555553C562.9353996366939,215.21866666666665,565.0652815622161,282.0106666666666,566.7958106267029,310.4591111111111C568.5263396911897,338.9075555555555,569.8575158946411,329.0124444444444,571.0555744777474,320.3542222222222C572.2536330608538,311.69599999999997,573.3185740236148,304.27466666666663,574.5166326067211,299.3271111111111C575.7146911898275,294.37955555555556,577.0458673932789,291.90577777777776,578.3770435967302,294.37955555555556C579.7082198001816,296.8533333333333,581.0393960036331,304.27466666666663,582.1994209809264,307.9853333333333C583.3594459582199,311.69599999999997,584.3483197093552,311.69599999999997,585.4132606721163,311.69599999999997C586.4782016348775,311.69599999999997,587.6192098092644,311.69599999999997,588.7221843778384,303.03777777777776C589.8251589464124,294.37955555555556,590.8900999091735,277.0631111111111,591.9550408719346,273.3524444444444C593.0199818346956,269.6417777777778,594.0849227974568,279.5368888888889,595.2829813805631,288.1951111111111C596.4810399636693,296.8533333333333,597.8122161671208,304.27466666666663,599.010274750227,307.9853333333333C600.2083333333334,311.69599999999997,601.2732742960944,311.69599999999997,602.3382152588556,311.69599999999997C603.4031562216168,311.69599999999997,604.4680971843778,311.69599999999997,605.666155767484,320.3542222222222C606.8642143505903,329.0124444444444,608.1953905540418,346.3288888888889,609.5265667574931,345.0919999999999C610.8577429609445,343.85511111111106,612.188919164396,324.06488888888885,613.3869777475022,314.16977777777777C614.5850363306085,304.27466666666663,615.6499772933697,304.27466666666663,616.8480358764759,299.3271111111111C618.0460944595822,294.37955555555556,619.3772706630335,284.4844444444445,620.6133628519527,274.58933333333334C621.8494550408719,264.6942222222222,622.9904632152588,254.7991111111111,624.017370572207,249.85155555555556C625.0442779291553,244.904,625.9570844686649,244.904,626.9839918256131,243.66711111111113C628.0108991825613,242.43022222222223,629.1519073569482,239.95644444444443,630.2548819255222,238.71955555555556C631.3578564940963,237.48266666666666,632.4227974568574,237.48266666666666,633.4877384196185,244.904C634.5526793823797,252.3253333333333,635.6176203451408,267.16799999999995,636.6825613079019,278.29999999999995C637.7475022706631,289.43199999999996,638.8124432334242,296.8533333333333,639.8773841961853,300.56399999999996C640.9423251589463,304.27466666666663,642.0072661217074,304.27466666666663,643.0722070844686,298.09022222222217C644.1371480472297,291.90577777777776,645.2020890099908,279.5368888888888,646.267029972752,283.2475555555555C647.3319709355131,286.9582222222222,648.3969118982743,306.74844444444443,649.5949704813805,316.6435555555555C650.7930290644869,326.53866666666664,652.1242052679382,326.53866666666664,653.3222638510445,324.06488888888885C654.5203224341508,321.5911111111111,655.585263396912,316.64355555555557,656.7833219800182,319.1173333333333C657.9813805631244,321.5911111111111,659.3125567665758,331.48622222222224,660.6437329700273,333.96C661.9749091734787,336.4337777777778,663.3060853769301,331.48622222222224,664.6372615803815,315.40666666666664C665.9684377838329,299.3271111111111,667.2996139872843,272.11555555555555,668.4976725703906,258.50977777777774C669.6957311534967,244.904,670.7606721162579,244.904,671.825613079019,249.85155555555556C672.8905540417801,254.7991111111111,673.9554950045413,264.6942222222222,675.0204359673024,267.168C676.0853769300635,269.6417777777778,677.1503178928247,264.6942222222222,678.2152588555858,263.45733333333334C679.2801998183469,262.2204444444444,680.3451407811081,264.6942222222222,681.4100817438692,267.16799999999995C682.4750227066303,269.64177777777775,683.5399636693915,272.11555555555555,684.6049046321526,273.3524444444444C685.6698455949136,274.58933333333334,686.7347865576749,274.58933333333334,687.7997275204358,277.06311111111114C688.8646684831971,279.5368888888889,689.9296094459582,284.4844444444445,691.1276680290645,286.9582222222222C692.3257266121708,289.432,693.6569028156222,289.432,694.8549613987284,290.6688888888889C696.0530199818346,291.90577777777776,697.1179609445958,294.37955555555556,698.4871707538601,294.37955555555556C699.8563805631244,294.37955555555556,701.5298592188919,291.90577777777776,703.0321866485014,295.6164444444444C704.5345140781109,299.32711111111115,705.8656902815623,309.22222222222223,707.0257152588556,314.16977777777777C708.185740236149,319.1173333333333,709.1746139872843,319.1173333333333,710.6008742052678,315.40666666666664C712.0271344232515,311.69599999999997,713.8907811080835,304.27466666666663,715.35507493188,305.5115555555555C716.8193687556767,306.74844444444443,717.8843097184377,316.64355555555557,718.9492506811988,316.6435555555555C720.0141916439601,316.64355555555557,721.0791326067211,306.74844444444443,722.1440735694823,299.32711111111104C723.2090145322435,291.90577777777776,724.2739554950045,286.9582222222222,725.3388964577657,284.48444444444436C726.4038374205269,282.0106666666666,727.4687783832879,282.0106666666666,728.9330722070845,278.29999999999995C730.3973660308811,274.5893333333333,732.261012715713,267.16799999999995,733.7253065395095,263.45733333333334C735.1896003633061,259.74666666666667,736.2545413260672,259.74666666666667,737.4525999091735,259.74666666666667C738.6506584922798,259.74666666666667,739.9818346957312,259.74666666666667,741.3130108991827,254.7991111111111C742.644187102634,249.85155555555556,743.9753633060855,239.95644444444443,745.1734218891917,233.77200000000002C746.371480472298,227.58755555555558,747.436421435059,225.11377777777776,748.5013623978201,225.11377777777776C749.5663033605812,225.11377777777776,750.6312443233423,227.58755555555558,751.6961852861035,226.35066666666668C752.7611262488646,225.11377777777776,753.8260672116257,220.16622222222222,754.7578905540418,210.27111111111108C755.6897138964578,200.37599999999998,756.4884196185286,185.5333333333333,757.5533605812898,174.40133333333333C758.618301544051,163.26933333333332,759.9494777475023,155.84799999999998,761.2806539509537,154.6111111111111C762.6118301544051,153.37422222222222,763.9430063578565,158.32177777777778,765.2741825613078,160.79555555555552C766.6053587647593,163.26933333333332,767.9365349682107,163.26933333333332,769.4008287920072,157.08488888888886C770.8651226158039,150.90044444444445,772.4625340599456,138.53155555555554,773.793710263397,134.82088888888887C775.1248864668484,131.1102222222222,776.1898274296095,136.05777777777777,777.2547683923707,144.71599999999998C778.3197093551316,153.37422222222222,779.3846503178929,165.74311111111112,780.4495912806539,166.98C781.5145322434151,168.2168888888889,782.5794732061762,158.32177777777778,783.6444141689375,153.3742222222222C784.7093551316984,148.42666666666665,785.7742960944597,148.42666666666665,786.9723546775658,152.13733333333332C788.1704132606723,155.84799999999998,789.5015894641236,163.26933333333332,790.6996480472299,166.98C791.8977066303361,170.69066666666666,792.9626475930972,170.69066666666666,794.0275885558584,168.21688888888886C795.0925295186195,165.74311111111112,796.1574704813805,160.79555555555555,797.2224114441418,163.26933333333332C798.2873524069028,165.74311111111112,799.352293369664,175.63822222222223,800.2841167120799,175.63822222222223C801.215940054496,175.63822222222223,802.0146457765668,165.74311111111112,803.079586739328,162.03244444444442C804.1445277020889,158.32177777777778,805.4757039055403,160.79555555555555,806.6737624886467,162.03244444444442C807.871821071753,163.26933333333332,808.9367620345141,163.26933333333332,810.0017029972752,168.21688888888886C811.0666439600363,173.16444444444446,812.1315849227975,183.05955555555556,813.1965258855586,179.34888888888887C814.2614668483197,175.63822222222223,815.3264078110809,158.32177777777778,816.5244663941871,150.90044444444442C817.7225249772933,143.4791111111111,819.0537011807447,145.95288888888888,820.251759763851,144.71599999999998C821.4498183469573,143.4791111111111,822.5147593097184,138.53155555555554,823.5797002724795,133.58399999999997C824.6446412352407,128.63644444444444,825.7095821980018,123.68888888888887,826.9076407811081,129.8733333333333C828.1056993642143,136.05777777777777,829.4368755676657,153.37422222222222,830.9011693914623,165.7431111111111C832.3654632152588,178.112,833.9628746594004,185.53333333333333,835.3130676657584,188.00711111111113C836.6632606721163,190.4808888888889,837.7662352406902,188.00711111111113,838.8501930063579,191.71777777777777C839.9341507720255,195.4284444444444,840.9990917347865,205.32355555555554,842.0640326975476,221.4031111111111C843.1289736603088,237.48266666666663,844.1939146230699,259.7466666666666,845.258855585831,264.6942222222222C846.3237965485922,269.64177777777775,847.3887375113533,257.2728888888889,848.4536784741144,251.08844444444443C849.5186194368756,244.904,850.5835603996367,244.904,851.6485013623977,242.43022222222223C852.713442325159,239.95644444444443,853.7783832879201,235.0088888888889,854.8433242506811,236.24577777777776C855.9082652134422,237.48266666666666,856.9732061762033,244.904,858.1712647593098,264.6942222222222C859.3693233424159,284.4844444444444,860.7004995458674,316.64355555555557,862.0316757493188,335.19688888888885C863.3628519527701,353.7502222222222,864.6940281562216,358.69777777777773,866.025204359673,358.69777777777773C867.3563805631244,358.69777777777773,868.6875567665758,353.7502222222222,870.1518505903723,348.80266666666665C871.616144414169,343.85511111111106,873.2135558583108,338.9075555555555,874.411614441417,336.4337777777778C875.6096730245232,333.96,876.4083787465939,333.96,877.34020208901,332.7231111111111C878.272025431426,331.48622222222224,879.3369663941871,329.0124444444444,880.4019073569483,337.67066666666665C881.4668483197092,346.3288888888889,882.5317892824705,366.1191111111111,883.5967302452315,374.7773333333333C884.6616712079928,383.43555555555554,885.7266121707538,380.96177777777774,886.7915531335151,374.7773333333333C887.856494096276,368.59288888888887,888.9214350590373,358.69777777777773,889.9863760217983,352.5133333333333C891.0513169845594,346.3288888888889,892.1162579473206,343.85511111111106,893.1811989100817,345.09200000000004C894.2461398728428,346.3288888888889,895.311080835604,351.27644444444445,896.6422570390554,352.5133333333333C897.9734332425068,353.7502222222222,899.5708446866485,351.27644444444445,900.9020208900998,351.27644444444445C902.2331970935512,351.27644444444445,903.2981380563124,353.7502222222222,904.4961966394188,362.40844444444446C905.6942552225249,371.06666666666666,907.0254314259764,385.90933333333334,908.3566076294278,397.04133333333334C909.6877838328792,408.17333333333335,911.0189600363307,415.5946666666666,912.350136239782,423.0159999999999C913.6813124432334,430.4373333333333,915.0124886466848,437.8586666666667,916.077429609446,441.56933333333336C917.1423705722071,445.28,917.941076294278,445.28,918.7397820163487,445.2799999999999C919.5384877384196,445.28,920.3371934604905,445.28,921.4021344232515,426.72666666666663C922.4670753860128,408.17333333333335,923.7982515894641,371.0666666666666,924.9963101725704,354.98711111111106C926.1943687556767,338.9075555555555,927.2593097184377,343.85511111111106,928.3242506811989,347.5657777777778C929.3891916439601,351.27644444444445,930.4541326067211,353.7502222222222,931.5190735694822,354.9871111111111C932.5840145322435,356.224,933.6489554950045,356.224,934.7138964577656,357.46088888888886C935.7788374205267,358.69777777777773,936.8437783832878,361.1715555555556,938.0418369663943,354.98711111111106C939.2398955495004,348.80266666666665,940.5710717529519,333.96,941.7691303360581,329.01244444444444C942.9671889191644,324.06488888888885,944.0321298819255,329.0124444444444,945.0970708446866,335.19688888888885C946.1620118074478,341.3813333333333,947.2269527702089,348.80266666666665,948.29189373297,347.5657777777778C949.3568346957312,346.3288888888889,950.4217756584922,336.4337777777778,951.6198342415986,325.3017777777778C952.8178928247047,314.16977777777777,954.1490690281562,301.8008888888889,955.3471276112624,299.3271111111111C956.5451861943687,296.8533333333333,957.6101271571298,304.27466666666663,958.8081857402361,307.9853333333333C960.0062443233423,311.69599999999997,961.3374205267937,311.69599999999997,962.5354791099002,314.1697777777777C963.7335376930064,316.64355555555557,964.7984786557676,321.5911111111111,965.8634196185285,329.0124444444444C966.9283605812898,336.4337777777778,967.9933015440507,346.3288888888889,969.191360127157,350.0395555555555C970.3894187102633,353.7502222222222,971.7205949137148,351.27644444444445,972.9186534968211,347.5657777777778C974.1167120799273,343.85511111111106,975.1816530426885,338.9075555555555,976.2465940054495,331.48622222222224C977.3115349682107,324.06488888888885,978.3764759309719,314.1697777777777,979.7076521344233,306.74844444444443C981.0388283378746,299.3271111111111,982.6362397820163,294.37955555555556,983.9674159854677,291.9057777777778C985.2985921889191,289.432,986.3635331516803,289.432,987.5615917347865,288.1951111111111C988.7596503178929,286.9582222222222,990.0908265213443,284.4844444444444,991.4220027247957,279.5368888888889C992.753178928247,274.5893333333333,994.0843551316984,267.16799999999995,995.4155313351498,254.7991111111111C996.7467075386013,242.43022222222223,998.0778837420527,225.11377777777776,999.2759423251591,216.45555555555552C1000.4740009082652,207.7973333333333,1001.5389418710264,207.7973333333333,1002.4707652134424,207.79733333333334C1003.4025885558582,207.7973333333333,1004.2012942779292,207.7973333333333,1004.6006471389646,207.79733333333334L1005,207.7973333333333" style="stroke: rgb(255, 127, 14);"/><text transform="translate(1005,207.7973333333333)" x="3" dy="0.35em" style="font-style: normal; font-variant: normal; font-weight: normal; font-stretch: normal; font-size: 14px; line-height: normal; font-family: sans-serif; fill: rgb(255, 127, 14);">Korea Republic</text></g></g></svg></svg>