<?xml version="1.0" encoding="UTF-8" standalone="no"?>
<svg
   xmlns:dc="http://purl.org/dc/elements/1.1/"
   xmlns:cc="http://creativecommons.org/ns#"
   xmlns:rdf="http://www.w3.org/1999/02/22-rdf-syntax-ns#"
   xmlns:svg="http://www.w3.org/2000/svg"
   xmlns="http://www.w3.org/2000/svg"
   xmlns:sodipodi="http://sodipodi.sourceforge.net/DTD/sodipodi-0.dtd"
   xmlns:inkscape="http://www.inkscape.org/namespaces/inkscape"
   width="1140"
   height="495.28"
   style="animation-delay: 0s; animation-direction: normal; animation-duration: 0s; animation-fill-mode: none; animation-iteration-count: 1; animation-name: none; animation-play-state: running; animation-timing-function: ease; background-attachment: scroll; background-blend-mode: normal; background-clip: border-box; background-color: rgba(0, 0, 0, 0); background-image: none; background-origin: padding-box; background-position: 0% 0%; background-repeat: repeat; background-size: auto; border-bottom-color: rgb(51, 51, 51); border-bottom-left-radius: 0px; border-bottom-right-radius: 0px; border-bottom-style: none; border-bottom-width: 0px; border-collapse: separate; border-image-outset: 0px; border-image-repeat: stretch; border-image-slice: 100%; border-image-source: none; border-image-width: 1; border-left-color: rgb(51, 51, 51); border-left-style: none; border-left-width: 0px; border-right-color: rgb(51, 51, 51); border-right-style: none; border-right-width: 0px; border-top-color: rgb(51, 51, 51); border-top-left-radius: 0px; border-top-right-radius: 0px; border-top-style: none; border-top-width: 0px; bottom: auto; box-shadow: none; box-sizing: border-box; break-after: auto; break-before: auto; break-inside: auto; caption-side: top; clear: none; clip: auto; color: rgb(51, 51, 51); content: ; cursor: auto; direction: ltr; display: inline; empty-cells: show; float: none; font-family: &quot;Helvetica Neue&quot;, Helvetica, Arial, sans-serif; font-kerning: auto; font-size: 14px; font-stretch: normal; font-style: normal; font-variant: normal; font-variant-ligatures: normal; font-variant-caps: normal; font-variant-numeric: normal; font-weight: normal; height: 495.266px; image-rendering: auto; isolation: auto; left: auto; letter-spacing: normal; line-height: 20px; list-style-image: none; list-style-position: outside; list-style-type: disc; margin-bottom: 0px; margin-left: 0px; margin-right: 0px; margin-top: 0px; max-height: none; max-width: none; min-height: 0px; min-width: 0px; mix-blend-mode: normal; object-fit: fill; object-position: 50% 50%; offset-distance: 0px; offset-path: none; offset-rotate: auto 0deg; offset-rotation: auto 0deg; opacity: 1; orphans: 2; outline-color: rgb(51, 51, 51); outline-offset: 0px; outline-style: none; outline-width: 0px; overflow-anchor: auto; overflow-wrap: normal; overflow-x: hidden; overflow-y: hidden; padding-bottom: 0px; padding-left: 0px; padding-right: 0px; padding-top: 0px; pointer-events: auto; position: static; resize: none; right: auto; speak: normal; table-layout: auto; tab-size: 8; text-align: start; text-align-last: auto; text-decoration: none; text-indent: 0px; text-rendering: auto; text-shadow: none; text-size-adjust: 100%; text-overflow: clip; text-transform: none; top: auto; touch-action: auto; transition-delay: 0s; transition-duration: 0s; transition-property: all; transition-timing-function: ease; unicode-bidi: normal; vertical-align: baseline; visibility: visible; white-space: normal; widows: 2; width: 1140px; will-change: auto; word-break: normal; word-spacing: 0px; word-wrap: normal; z-index: auto; zoom: 1; -webkit-appearance: none; backface-visibility: visible; -webkit-background-clip: border-box; -webkit-background-origin: padding-box; -webkit-border-horizontal-spacing: 0px; -webkit-border-image: none; -webkit-border-vertical-spacing: 0px; -webkit-box-align: stretch; -webkit-box-decoration-break: slice; -webkit-box-direction: normal; -webkit-box-flex: 0; -webkit-box-flex-group: 1; -webkit-box-lines: single; -webkit-box-ordinal-group: 1; -webkit-box-orient: horizontal; -webkit-box-pack: start; -webkit-box-reflect: none; column-count: auto; column-gap: normal; column-rule-color: rgb(51, 51, 51); column-rule-style: none; column-rule-width: 0px; column-span: none; column-width: auto; align-content: stretch; align-items: stretch; align-self: stretch; flex-basis: auto; flex-grow: 0; flex-shrink: 1; flex-direction: row; flex-wrap: nowrap; justify-content: flex-start; -webkit-font-smoothing: auto; -webkit-highlight: none; hyphens: manual; -webkit-hyphenate-character: auto; -webkit-line-break: auto; -webkit-line-clamp: none; -webkit-locale: &quot;en&quot;; -webkit-margin-before-collapse: collapse; -webkit-margin-after-collapse: collapse; -webkit-mask-box-image: none; -webkit-mask-box-image-outset: 0px; -webkit-mask-box-image-repeat: stretch; -webkit-mask-box-image-slice: 0 fill; -webkit-mask-box-image-source: none; -webkit-mask-box-image-width: auto; -webkit-mask-clip: border-box; -webkit-mask-composite: source-over; -webkit-mask-image: none; -webkit-mask-origin: border-box; -webkit-mask-position: 0% 0%; -webkit-mask-repeat: repeat; -webkit-mask-size: auto; order: 0; perspective: none; perspective-origin: 570px 247.625px; -webkit-print-color-adjust: economy; -webkit-rtl-ordering: logical; shape-outside: none; shape-image-threshold: 0; shape-margin: 0px; -webkit-tap-highlight-color: rgba(0, 0, 0, 0); -webkit-text-combine: none; -webkit-text-decorations-in-effect: none; -webkit-text-emphasis-color: rgb(51, 51, 51); -webkit-text-emphasis-position: over; -webkit-text-emphasis-style: none; -webkit-text-fill-color: rgb(51, 51, 51); -webkit-text-orientation: vertical-right; -webkit-text-security: none; -webkit-text-stroke-color: rgb(51, 51, 51); -webkit-text-stroke-width: 0px; transform: none; transform-origin: 570px 247.625px; transform-style: flat; -webkit-user-drag: auto; -webkit-user-modify: read-only; user-select: text; -webkit-writing-mode: horizontal-tb; -webkit-app-region: no-drag; buffered-rendering: auto; clip-path: none; clip-rule: nonzero; mask: none; filter: none; flood-color: rgb(0, 0, 0); flood-opacity: 1; lighting-color: rgb(255, 255, 255); stop-color: rgb(0, 0, 0); stop-opacity: 1; color-interpolation: sRGB; color-interpolation-filters: linearRGB; color-rendering: auto; fill: rgb(0, 0, 0); fill-opacity: 1; fill-rule: nonzero; marker-end: none; marker-mid: none; marker-start: none; mask-type: luminance; shape-rendering: auto; stroke: none; stroke-dasharray: none; stroke-dashoffset: 0px; stroke-linecap: butt; stroke-linejoin: miter; stroke-miterlimit: 4; stroke-opacity: 1; stroke-width: 1px; alignment-baseline: auto; baseline-shift: 0px; dominant-baseline: auto; text-anchor: start; writing-mode: horizontal-tb; vector-effect: none; paint-order: fill stroke markers; d: none; cx: 0px; cy: 0px; x: 0px; y: 0px; r: 0px; rx: auto; ry: auto;"
   version="1.1"
   id="svg2"
   mask="none"
   clip-path="none"
   inkscape:version="0.91 r13725"
   sodipodi:docname="poland_italy.svg">
  <metadata
     id="metadata151">
    <rdf:RDF>
      <cc:Work
         rdf:about="">
        <dc:format>image/svg+xml</dc:format>
        <dc:type
           rdf:resource="http://purl.org/dc/dcmitype/StillImage" />
      </cc:Work>
    </rdf:RDF>
  </metadata>
  <defs
     id="defs149" />
  <sodipodi:namedview
     pagecolor="#ffffff"
     bordercolor="#666666"
     borderopacity="1"
     objecttolerance="10"
     gridtolerance="10"
     guidetolerance="10"
     inkscape:pageopacity="0"
     inkscape:pageshadow="2"
     inkscape:window-width="1920"
     inkscape:window-height="1018"
     id="namedview147"
     showgrid="false"
     inkscape:zoom="6.8874681"
     inkscape:cx="1054.0087"
     inkscape:cy="374.74746"
     inkscape:window-x="-8"
     inkscape:window-y="-8"
     inkscape:window-maximized="1"
     inkscape:current-layer="svg2" />
  <style
     type="text/css"
     id="style4">svg:not(:root) { overflow: hidden; }
*, ::before, ::after { box-sizing: border-box; }
.axis path, .axis line { fill: none; stroke: rgb(0, 0, 0); shape-rendering: crispEdges; }
.line { fill: none; stroke: steelblue; stroke-width: 1.5px; }</style>
  <svg
     id="svg"
     version="1.1">
    <g
       transform="translate(50,20)"
       id="g7">
      <g
         class="axis axis--x"
         transform="translate(0,445.28)"
         fill="none"
         font-size="10"
         font-family="sans-serif"
         text-anchor="middle"
         style="font-style: normal; font-variant: normal; font-weight: normal; font-stretch: normal; font-size: 12px; line-height: normal; font-family: sans-serif;"
         id="g9">
        <path
           class="domain"
           stroke="#000"
           d="M0.5,6V0.5H1005.5V6"
           id="path11" />
        <g
           class="tick"
           opacity="1"
           transform="translate(45.17916950499546,0)"
           id="g13">
          <line
             stroke="#000"
             y2="6"
             x1="0.5"
             x2="0.5"
             id="line15" />
          <text
             fill="#000"
             y="9"
             x="0.5"
             dy="0.71em"
             id="text17">1994</text>
        </g>
        <g
           class="tick"
           opacity="1"
           transform="translate(128.47276623524067,0)"
           id="g19">
          <line
             stroke="#000"
             y2="6"
             x1="0.5"
             x2="0.5"
             id="line21" />
          <text
             fill="#000"
             y="9"
             x="0.5"
             dy="0.71em"
             id="text23">1996</text>
        </g>
        <g
           class="tick"
           opacity="1"
           transform="translate(211.8804637829246,0)"
           id="g25">
          <line
             stroke="#000"
             y2="6"
             x1="0.5"
             x2="0.5"
             id="line27" />
          <text
             fill="#000"
             y="9"
             x="0.5"
             dy="0.71em"
             id="text29">1998</text>
        </g>
        <g
           class="tick"
           opacity="1"
           transform="translate(295.1740605131698,0)"
           id="g31">
          <line
             stroke="#000"
             y2="6"
             x1="0.5"
             x2="0.5"
             id="line33" />
          <text
             fill="#000"
             y="9"
             x="0.5"
             dy="0.71em"
             id="text35">2000</text>
        </g>
        <g
           class="tick"
           opacity="1"
           transform="translate(378.58175806085376,0)"
           id="g37">
          <line
             stroke="#000"
             y2="6"
             x1="0.5"
             x2="0.5"
             id="line39" />
          <text
             fill="#000"
             y="9"
             x="0.5"
             dy="0.71em"
             id="text41">2002</text>
        </g>
        <g
           class="tick"
           opacity="1"
           transform="translate(461.87535479109897,0)"
           id="g43">
          <line
             stroke="#000"
             y2="6"
             x1="0.5"
             x2="0.5"
             id="line45" />
          <text
             fill="#000"
             y="9"
             x="0.5"
             dy="0.71em"
             id="text47">2004</text>
        </g>
        <g
           class="tick"
           opacity="1"
           transform="translate(545.2830523387829,0)"
           id="g49">
          <line
             stroke="#000"
             y2="6"
             x1="0.5"
             x2="0.5"
             id="line51" />
          <text
             fill="#000"
             y="9"
             x="0.5"
             dy="0.71em"
             id="text53">2006</text>
        </g>
        <g
           class="tick"
           opacity="1"
           transform="translate(628.5766490690281,0)"
           id="g55">
          <line
             stroke="#000"
             y2="6"
             x1="0.5"
             x2="0.5"
             id="line57" />
          <text
             fill="#000"
             y="9"
             x="0.5"
             dy="0.71em"
             id="text59">2008</text>
        </g>
        <g
           class="tick"
           opacity="1"
           transform="translate(711.9843466167122,0)"
           id="g61">
          <line
             stroke="#000"
             y2="6"
             x1="0.5"
             x2="0.5"
             id="line63" />
          <text
             fill="#000"
             y="9"
             x="0.5"
             dy="0.71em"
             id="text65">2010</text>
        </g>
        <g
           class="tick"
           opacity="1"
           transform="translate(795.2779433469573,0)"
           id="g67">
          <line
             stroke="#000"
             y2="6"
             x1="0.5"
             x2="0.5"
             id="line69" />
          <text
             fill="#000"
             y="9"
             x="0.5"
             dy="0.71em"
             id="text71">2012</text>
        </g>
        <g
           class="tick"
           opacity="1"
           transform="translate(878.6856408946412,0)"
           id="g73">
          <line
             stroke="#000"
             y2="6"
             x1="0.5"
             x2="0.5"
             id="line75" />
          <text
             fill="#000"
             y="9"
             x="0.5"
             dy="0.71em"
             id="text77">2014</text>
        </g>
        <g
           class="tick"
           opacity="1"
           transform="translate(961.9792376248864,0)"
           id="g79">
          <line
             stroke="#000"
             y2="6"
             x1="0.5"
             x2="0.5"
             id="line81" />
          <text
             fill="#000"
             y="9"
             x="0.5"
             dy="0.71em"
             id="text83">2016</text>
        </g>
        <text
           transform="translate(994.95,0)"
           y="-16"
           dy="0.71em"
           fill="#000"
           style="font-style: normal; font-variant: normal; font-weight: normal; font-stretch: normal; font-size: 12px; line-height: normal; font-family: sans-serif;"
           id="text85">Year</text>
      </g>
      <g
         class="axis axis--y"
         fill="none"
         font-size="10"
         font-family="sans-serif"
         text-anchor="end"
         style="font-style: normal; font-variant: normal; font-weight: normal; font-stretch: normal; font-size: 12px; line-height: normal; font-family: sans-serif;"
         id="g87">
        <path
           class="domain"
           stroke="#000"
           d="M-6,445.78H0.5V0.5H-6"
           id="path89" />
        <g
           class="tick"
           opacity="1"
           transform="translate(0,399.0171428571428)"
           id="g91">
          <line
             stroke="#000"
             x2="-6"
             y1="0.5"
             y2="0.5"
             id="line93" />
          <text
             fill="#000"
             x="-9"
             y="0.5"
             dy="0.32em"
             id="text95">70</text>
        </g>
        <g
           class="tick"
           opacity="1"
           transform="translate(0,341.18857142857144)"
           id="g97">
          <line
             stroke="#000"
             x2="-6"
             y1="0.5"
             y2="0.5"
             id="line99" />
          <text
             fill="#000"
             x="-9"
             y="0.5"
             dy="0.32em"
             id="text101">60</text>
        </g>
        <g
           class="tick"
           opacity="1"
           transform="translate(0,283.35999999999996)"
           id="g103">
          <line
             stroke="#000"
             x2="-6"
             y1="0.5"
             y2="0.5"
             id="line105" />
          <text
             fill="#000"
             x="-9"
             y="0.5"
             dy="0.32em"
             id="text107">50</text>
        </g>
        <g
           class="tick"
           opacity="1"
           transform="translate(0,225.53142857142853)"
           id="g109">
          <line
             stroke="#000"
             x2="-6"
             y1="0.5"
             y2="0.5"
             id="line111" />
          <text
             fill="#000"
             x="-9"
             y="0.5"
             dy="0.32em"
             id="text113">40</text>
        </g>
        <g
           class="tick"
           opacity="1"
           transform="translate(0,167.70285714285714)"
           id="g115">
          <line
             stroke="#000"
             x2="-6"
             y1="0.5"
             y2="0.5"
             id="line117" />
          <text
             fill="#000"
             x="-9"
             y="0.5"
             dy="0.32em"
             id="text119">30</text>
        </g>
        <g
           class="tick"
           opacity="1"
           transform="translate(0,109.8742857142857)"
           id="g121">
          <line
             stroke="#000"
             x2="-6"
             y1="0.5"
             y2="0.5"
             id="line123" />
          <text
             fill="#000"
             x="-9"
             y="0.5"
             dy="0.32em"
             id="text125">20</text>
        </g>
        <g
           class="tick"
           opacity="1"
           transform="translate(0,52.04571428571428)"
           id="g127">
          <line
             stroke="#000"
             x2="-6"
             y1="0.5"
             y2="0.5"
             id="line129" />
          <text
             fill="#000"
             x="-9"
             y="0.5"
             dy="0.32em"
             id="text131">10</text>
        </g>
        <text
           y="-20"
           dy="0.71em"
           fill="#000"
           id="text133">Position</text>
      </g>
      <g
         class="team"
         id="g135">
        <path
           class="line"
           d="M0,109.8742857142857L4.75420072661217,109.8742857142857C9.50840145322434,109.8742857142857,19.01680290644868,109.8742857142857,24.64577656675749,111.80190476190474C30.274750227066303,113.7295238095238,32.02429609445958,117.58476190476189,33.45055631244323,120.47619047619047C34.87681653042688,123.36761904761903,35.9797910990009,125.29523809523808,37.063748864668476,129.15047619047616C38.14770663033605,133.00571428571428,39.21264759309719,138.78857142857143,40.391689373297005,143.60761904761904C41.57073115349683,148.42666666666665,42.86387375113534,152.28190476190477,44.53735240690282,150.3542857142857C46.2108310626703,148.42666666666665,48.26464577656676,140.71619047619046,49.824023614895545,136.86095238095237C51.38340145322434,133.00571428571428,52.44834241598547,133.00571428571428,53.64640099909173,136.86095238095237C54.844459582198,140.71619047619046,56.17563578564941,148.42666666666665,57.37369436875568,151.31809523809522C58.571752951861946,154.2095238095238,59.636693914623066,152.28190476190477,60.70163487738419,156.13714285714286C61.76657584014532,159.99238095238096,62.83151680290644,169.63047619047617,64.06760899182561,174.4495238095238C65.30370118074478,179.2685714285714,66.71094459582199,179.2685714285714,68.4414736603088,180.23238095238094C70.17200272479563,181.19619047619048,72.22581743869209,183.12380952380954,74.05143051771117,186.9790476190476C75.87704359673023,190.8342857142857,77.47445504087193,196.61714285714285,78.80563124432332,196.61714285714285C80.13680744777474,196.61714285714285,81.20174841053587,190.8342857142857,82.266689373297,184.08761904761903C83.33163033605813,177.34095238095236,84.39657129881925,169.63047619047617,86.10808356039963,168.66666666666666C87.81959582198003,167.70285714285714,90.17767938237965,173.48571428571427,92.45969573115349,178.3047619047619C94.74171207992732,183.1238095238095,96.94766121707539,186.9790476190476,98.56408946412353,190.83428571428567C100.18051771117166,194.68952380952382,101.20742506811989,198.54476190476188,102.25334922797457,193.72571428571428C103.29927338782925,188.90666666666664,104.36421435059037,175.41333333333333,105.69539055404177,171.55809523809523C107.02656675749319,167.70285714285714,108.62397820163487,173.48571428571427,109.95515440508628,172.52190476190472C111.2863306085377,171.55809523809523,112.35127157129882,163.84761904761905,113.41621253405994,164.8114285714286C114.48115349682108,165.7752380952381,115.5460944595822,175.41333333333333,116.61103542234333,174.4495238095238C117.67597638510445,173.48571428571427,118.74091734786559,161.92,119.93897593097186,161.92C121.13703451407811,161.92,122.46821071752952,173.48571428571427,123.66626930063576,179.2685714285714C124.86432788374204,185.05142857142857,125.92926884650318,185.05142857142857,127.14634423251589,186.9790476190476C128.3634196185286,188.90666666666667,129.73262942779292,192.76190476190473,130.94970481380562,196.61714285714285C132.16678019981836,200.47238095238095,133.23172116257948,204.327619047619,134.9622502270663,209.14666666666665C136.69277929155314,213.96571428571428,139.08889645776568,219.7485714285714,140.8194255222525,224.56761904761902C142.54995458673932,229.38666666666663,143.61489554950046,233.24190476190472,144.94607175295187,242.87999999999997C146.27724795640327,252.51809523809519,147.87465940054494,267.9390476190476,149.73830608537693,280.4685714285714C151.6019527702089,292.99809523809523,153.73183469573112,302.63619047619045,155.32924613987282,308.4190476190476C156.92665758401452,314.20190476190476,157.99159854677563,316.1295238095238,159.0565395095368,316.1295238095238C160.12148047229792,316.1295238095238,161.18642143505903,314.20190476190476,162.25136239782017,310.3466666666667C163.3163033605813,306.49142857142857,164.38124432334243,300.7085714285714,165.44618528610354,298.7809523809524C166.51112624886468,296.8533333333333,167.57606721162583,298.7809523809524,169.45873069936422,302.63619047619045C171.34139418710265,306.49142857142857,174.04178019981836,312.27428571428567,176.17166212534062,311.31047619047615C178.30154405086287,310.34666666666664,179.86092188919164,302.63619047619045,181.30619891008178,303.59999999999997C182.75147593097185,304.56380952380954,184.08265213442326,314.2019047619047,185.41382833787466,319.02095238095234C186.74500454132604,323.84,188.07618074477747,323.84,189.27423932788372,318.0571428571428C190.47229791099002,312.27428571428567,191.53723887375114,300.70857142857136,192.7352974568574,296.8533333333333C193.93335603996366,292.99809523809523,195.26453224341506,296.8533333333333,196.46259082652134,295.8895238095238C197.6606494096276,294.92571428571426,198.72559037238875,289.1428571428571,199.82856494096276,281.4323809523809C200.9315395095368,273.7219047619047,202.07254768392372,264.0838095238095,203.27060626702996,261.1923809523809C204.4686648501362,258.30095238095237,205.72377384196184,262.15619047619043,206.99789963669392,265.04761904761904C208.27202543142596,267.9390476190476,209.56516802906447,269.8666666666666,211.2956970935513,282.39619047619044C213.02622615803816,294.92571428571426,215.19414168937328,318.0571428571429,216.81056993642144,330.58666666666664C218.42699818346955,343.11619047619047,219.4919391462307,345.04380952380956,220.68999772933697,340.2247619047619C221.88805631244324,335.4057142857143,223.21923251589465,323.84,224.4172910990009,317.0933333333333C225.61534968210717,310.34666666666664,226.68029064486828,308.4190476190476,228.27770208900998,301.67238095238093C229.87511353315168,294.92571428571426,232.00499545867396,283.35999999999996,233.73552452316073,269.8666666666666C235.4660535876476,256.3733333333333,236.797229791099,240.95238095238093,237.99528837420527,227.4590476190476C239.19334695731155,213.96571428571426,240.2582879200727,202.39999999999998,241.45634650317893,196.61714285714285C242.6544050862852,190.8342857142857,243.98558128973661,190.8342857142857,245.18363987284292,186.01523809523806C246.38169845594916,181.19619047619048,247.44663941871025,171.55809523809523,248.64469800181655,168.66666666666666C249.8427565849228,165.7752380952381,251.17393278837417,169.6304761904762,252.50510899182555,169.63047619047617C253.83628519527701,169.6304761904762,255.1674613987284,165.7752380952381,256.36551998183467,162.8838095238095C257.563578564941,159.99238095238096,258.6285195277021,158.0647619047619,259.6934604904632,156.13714285714286C260.75840145322434,154.2095238095238,261.82334241598545,152.28190476190477,262.88828337874656,156.13714285714286C263.9532243415077,159.99238095238096,265.01816530426885,169.63047619047617,266.08310626703,171.55809523809523C267.14804722979113,173.48571428571427,268.21298819255225,167.70285714285714,269.27792915531336,159.0285714285714C270.3428701180745,150.35428571428568,271.40781108083564,138.78857142857143,272.60586966394186,135.89714285714282C273.8039282470482,133.00571428571428,275.13510445049957,138.78857142857143,276.33316303360584,142.64380952380952C277.5312216167121,146.49904761904762,278.59616257947323,148.42666666666665,279.66110354223434,151.31809523809522C280.7260445049955,154.2095238095238,281.7909854677566,158.0647619047619,282.85592643051774,161.92C283.92086739327885,165.7752380952381,284.98580835603997,169.6304761904762,286.1838669391462,172.52190476190478C287.3819255222525,175.41333333333333,288.7131017257039,177.34095238095236,290.0442779291553,178.3047619047619C291.37545413260676,179.2685714285714,292.70663033605814,179.2685714285714,293.9046889191644,179.26857142857145C295.10274750227063,179.2685714285714,296.16768846503174,179.2685714285714,297.2326294277929,179.26857142857145C298.29757039055403,179.2685714285714,299.36251135331514,179.2685714285714,300.4274523160763,179.26857142857145C301.4923932788374,179.2685714285714,302.55733424159854,179.2685714285714,303.6222752043597,181.19619047619048C304.68721616712077,183.1238095238095,305.75215712988194,186.9790476190476,306.817098092643,189.87047619047618C307.88203905540416,192.76190476190473,308.94698001816533,194.68952380952376,310.0119209809264,197.58095238095234C311.07686194368756,200.47238095238095,312.1418029064487,204.327619047619,313.2067438692098,210.1104761904762C314.27168483197096,215.89333333333332,315.3366257947321,223.60380952380947,316.53468437783835,230.35047619047614C317.7327429609446,237.0971428571428,319.063919164396,242.87999999999997,320.2619777475022,238.06095238095236C321.4600363306085,233.24190476190475,322.52497729336966,217.82095238095235,323.7230358764759,210.11047619047613C324.9210944595822,202.39999999999998,326.2522706630336,202.39999999999998,327.583446866485,210.1104761904762C328.91462306993645,217.82095238095235,330.24579927338783,233.24190476190475,331.57697547683927,239.9885714285714C332.9081516802907,246.73523809523806,334.2393278837421,244.80761904761903,335.4373864668483,239.98857142857142C336.63544504995457,235.16952380952378,337.7003860127157,227.4590476190476,338.76532697547685,222.64C339.83026793823797,217.82095238095235,340.8952089009991,215.89333333333332,341.96014986376025,209.14666666666665C343.02509082652136,202.39999999999998,344.0900317892825,190.8342857142857,345.15497275204365,176.37714285714284C346.2199137148047,161.92,347.2848546775658,144.57142857142856,348.48291326067215,135.89714285714282C349.6809718437784,127.22285714285711,351.01214804722986,127.22285714285711,352.34332425068123,127.22285714285714C353.6745004541326,127.22285714285711,355.005676657584,127.22285714285711,356.2037352406903,128.18666666666664C357.4017938237966,129.15047619047618,358.4667347865577,131.07809523809522,359.664793369664,133.9695238095238C360.8628519527702,136.86095238095237,362.1940281562216,140.71619047619046,363.39208673932785,143.607619047619C364.5901453224341,146.49904761904762,365.65508628519524,148.42666666666665,366.72002724795635,150.3542857142857C367.7849682107175,152.28190476190477,368.84990917347864,154.2095238095238,370.0479677565849,159.99238095238096C371.24602633969124,165.7752380952381,372.5772025431426,175.41333333333333,373.77526112624884,180.23238095238094C374.9733197093551,185.05142857142857,376.0382606721162,185.05142857142857,377.1032016348774,183.12380952380954C378.1681425976385,181.19619047619048,379.2330835603996,177.34095238095242,380.2980245231608,180.23238095238094C381.3629654859219,183.12380952380954,382.427906448683,192.76190476190473,383.6259650317893,194.68952380952382C384.82402361489557,196.61714285714285,386.15519981834694,190.8342857142857,387.35325840145316,192.76190476190473C388.55131698455943,194.68952380952382,389.61625794732066,204.327619047619,390.6811989100818,209.14666666666665C391.7461398728429,213.96571428571426,392.81108083560395,213.96571428571426,394.27537465940054,214.92952380952377C395.73966848319714,215.89333333333332,397.60331516802904,217.82095238095235,399.3338442325159,216.8571428571428C401.06437329700276,215.89333333333332,402.6617847411444,212.03809523809522,404.126078564941,208.18285714285716C405.5903723887375,204.327619047619,406.9215485921889,200.47238095238095,408.2527247956403,199.5085714285714C409.58390099909167,198.54476190476188,410.91507720254316,200.47238095238095,412.1131357856494,198.54476190476188C413.31119436875565,196.61714285714285,414.37613533151676,190.8342857142857,415.44107629427793,188.90666666666667C416.50601725703905,186.9790476190476,417.57095821980016,188.90666666666667,418.63589918256133,188.90666666666667C419.70084014532245,188.90666666666667,420.76578110808356,186.9790476190476,421.96383969118983,186.9790476190476C423.16189827429616,186.9790476190476,424.49307447774754,188.90666666666667,425.8242506811989,188.90666666666667C427.1554268846503,188.90666666666667,428.4866030881017,186.9790476190476,429.684661671208,181.19619047619048C430.8827202543143,175.41333333333333,431.9476612170754,165.7752380952381,433.0126021798365,161.92C434.07754314259756,158.0647619047619,435.14248410535873,159.99238095238096,436.34054268846495,164.81142857142856C437.5386012715712,169.63047619047617,438.86977747502266,177.34095238095236,440.20095367847415,184.08761904761903C441.5321298819255,190.8342857142857,442.8633060853769,196.61714285714285,444.0613646684831,197.58095238095237C445.25942325158945,198.54476190476188,446.3243642143506,194.68952380952382,447.3893051771117,189.87047619047618C448.45424613987285,185.05142857142857,449.5191871026339,179.26857142857145,450.5841280653951,171.55809523809523C451.6490690281562,163.84761904761905,452.7140099909173,154.2095238095238,453.7789509536785,147.46285714285713C454.8438919164396,140.71619047619046,455.9088328792007,136.86095238095237,456.9357402361489,135.89714285714285C457.9626475930972,134.9333333333333,458.9515213442325,136.8609523809524,460.0164623069936,137.8247619047619C461.08140326975473,138.78857142857143,462.2224114441417,138.78857142857143,463.45850363306084,139.75238095238095C464.69459582198004,140.71619047619046,466.0257720254314,142.64380952380952,467.22383060853764,141.67999999999998C468.4218891916439,140.71619047619046,469.486830154405,136.86095238095237,470.5517711171662,140.71619047619046C471.6167120799273,144.57142857142856,472.6816530426884,156.13714285714286,473.7465940054496,160.95619047619047C474.8115349682107,165.7752380952381,475.8764759309718,163.84761904761902,476.941416893733,159.99238095238096C478.0063578564941,156.13714285714283,479.0712988192552,150.35428571428568,480.1362397820163,148.42666666666665C481.2011807447775,146.49904761904762,482.2661217075386,148.42666666666665,483.3310626702997,150.3542857142857C484.39600363306084,152.28190476190477,485.46094459582196,154.2095238095238,486.52588555858307,156.13714285714283C487.59082652134424,158.0647619047619,488.65576748410535,159.99238095238096,489.8538260672116,160.95619047619047C491.05188465031785,161.92,492.38306085376934,161.92,493.71423705722077,159.0285714285714C495.04541326067215,156.13714285714283,496.3765894641235,150.35428571428568,497.80284968210725,146.49904761904762C499.22910990009086,142.64380952380952,500.75045413260676,140.71619047619046,502.0816303360582,139.75238095238095C503.4128065395096,138.78857142857143,504.55381471389654,138.78857142857143,505.6567892824705,138.78857142857143C506.7597638510445,138.78857142857143,507.8247048138057,138.78857142857143,509.02276339691184,140.7161904761905C510.2208219800182,142.64380952380952,511.55199818346955,146.49904761904762,512.7500567665758,146.49904761904762C513.9481153496821,146.49904761904762,515.0130563124432,142.64380952380952,516.0779972752043,139.75238095238095C517.1429382379655,136.8609523809524,518.2078792007266,134.9333333333333,519.2728201634877,133.00571428571428C520.3377611262489,131.07809523809522,521.40270208901,129.15047619047618,522.6007606721163,129.15047619047616C523.7988192552225,129.15047619047618,525.129995458674,131.07809523809522,526.3280540417802,130.1142857142857C527.5261126248864,129.15047619047618,528.5910535876475,125.29523809523808,529.6179609445958,118.5485714285714C530.6448683015441,111.80190476190474,531.6337420526794,102.16380952380952,532.7937670299727,103.12761904761904C533.9537920072661,104.09142857142858,535.2849682107176,115.65714285714284,536.616144414169,121.44C537.9473206176203,127.22285714285711,539.2784968210718,127.22285714285711,540.4195049954587,126.25904761904759C541.5605131698456,125.29523809523808,542.511353315168,123.36761904761903,543.614327883742,122.4038095238095C544.7173024523161,121.43999999999998,545.9724114441417,121.43999999999998,547.132436421435,125.29523809523808C548.2924613987284,129.15047619047618,549.3574023614896,136.86095238095237,550.4223433242506,140.71619047619046C551.4872842870118,144.57142857142856,552.552225249773,144.57142857142856,553.7502838328792,146.49904761904762C554.9483424159854,148.42666666666665,556.2795186194368,152.28190476190477,557.4775772025431,155.17333333333332C558.6756357856494,158.0647619047619,559.7405767484105,159.99238095238096,561.3379881925522,161.92C562.9353996366939,163.84761904761902,565.0652815622161,165.7752380952381,566.7958106267029,166.73904761904762C568.5263396911897,167.70285714285714,569.8575158946411,167.70285714285714,571.0555744777474,172.52190476190478C572.2536330608538,177.34095238095236,573.3185740236148,186.9790476190476,574.5166326067211,184.08761904761903C575.7146911898275,181.19619047619048,577.0458673932789,165.77523809523808,578.3770435967302,153.24571428571429C579.7082198001816,140.71619047619046,581.0393960036331,131.07809523809522,582.1994209809264,128.18666666666664C583.3594459582199,125.29523809523808,584.3483197093552,129.15047619047618,585.4132606721163,132.04190476190476C586.4782016348775,134.9333333333333,587.6192098092644,136.8609523809524,588.7221843778384,135.89714285714285C589.8251589464124,134.9333333333333,590.8900999091735,131.07809523809522,591.9550408719346,130.1142857142857C593.0199818346956,129.15047619047618,594.0849227974568,131.07809523809522,595.2829813805631,129.15047619047618C596.4810399636693,127.22285714285714,597.8122161671208,121.43999999999998,599.010274750227,115.65714285714284C600.2083333333334,109.8742857142857,601.2732742960944,104.09142857142855,602.3382152588556,101.19999999999999C603.4031562216168,98.3085714285714,604.4680971843778,98.3085714285714,605.666155767484,101.19999999999999C606.8642143505903,104.09142857142855,608.1953905540418,109.8742857142857,609.5265667574931,111.80190476190477C610.8577429609445,113.7295238095238,612.188919164396,111.80190476190474,613.3869777475022,106.98285714285713C614.5850363306085,102.16380952380952,615.6499772933697,94.45333333333333,616.8480358764759,94.45333333333333C618.0460944595822,94.45333333333333,619.3772706630335,102.16380952380952,620.6133628519527,108.91047619047619C621.8494550408719,115.65714285714284,622.9904632152588,121.43999999999998,624.017370572207,123.36761904761903C625.0442779291553,125.29523809523808,625.9570844686649,123.36761904761903,626.9839918256131,123.36761904761903C628.0108991825613,123.36761904761903,629.1519073569482,125.29523809523808,630.2548819255222,123.36761904761903C631.3578564940963,121.43999999999998,632.4227974568574,115.65714285714284,633.4877384196185,116.62095238095236C634.5526793823797,117.58476190476189,635.6176203451408,125.29523809523808,636.6825613079019,133.00571428571428C637.7475022706631,140.71619047619046,638.8124432334242,148.42666666666665,639.8773841961853,151.31809523809522C640.9423251589463,154.2095238095238,642.0072661217074,152.28190476190477,643.0722070844686,152.28190476190477C644.1371480472297,152.28190476190477,645.2020890099908,154.2095238095238,646.267029972752,159.02857142857144C647.3319709355131,163.84761904761905,648.3969118982743,171.55809523809523,649.5949704813805,172.52190476190478C650.7930290644869,173.48571428571427,652.1242052679382,167.70285714285714,653.3222638510445,165.77523809523808C654.5203224341508,163.84761904761902,655.585263396912,165.7752380952381,656.7833219800182,166.73904761904762C657.9813805631244,167.70285714285714,659.3125567665758,167.70285714285714,660.6437329700273,169.6304761904762C661.9749091734787,171.55809523809523,663.3060853769301,175.41333333333333,664.6372615803815,179.26857142857145C665.9684377838329,183.1238095238095,667.2996139872843,186.9790476190476,668.4976725703906,186.01523809523806C669.6957311534967,185.05142857142857,670.7606721162579,179.26857142857145,671.825613079019,173.48571428571427C672.8905540417801,167.70285714285714,673.9554950045413,161.92,675.0204359673024,159.99238095238096C676.0853769300635,158.0647619047619,677.1503178928247,159.99238095238096,678.2152588555858,172.52190476190472C679.2801998183469,185.05142857142854,680.3451407811081,208.1828571428571,681.4100817438692,218.7847619047619C682.4750227066303,229.38666666666663,683.5399636693915,227.4590476190476,684.6049046321526,225.53142857142856C685.6698455949136,223.60380952380947,686.7347865576749,221.67619047619044,687.7997275204358,222.64C688.8646684831971,223.60380952380947,689.9296094459582,227.4590476190476,691.1276680290645,228.4228571428571C692.3257266121708,229.38666666666663,693.6569028156222,227.4590476190476,694.8549613987284,222.63999999999996C696.0530199818346,217.82095238095235,697.1179609445958,210.11047619047613,698.4871707538601,225.53142857142856C699.8563805631244,240.95238095238093,701.5298592188919,279.5047619047619,703.0321866485014,298.7809523809524C704.5345140781109,318.0571428571428,705.8656902815623,318.0571428571428,707.0257152588556,319.9847619047619C708.185740236149,321.91238095238094,709.1746139872843,325.767619047619,710.6008742052678,326.7314285714286C712.0271344232515,327.69523809523804,713.8907811080835,325.767619047619,715.35507493188,326.7314285714286C716.8193687556767,327.69523809523804,717.8843097184377,331.5504761904762,718.9492506811988,333.47809523809525C720.0141916439601,335.4057142857143,721.0791326067211,335.4057142857143,722.1440735694823,334.44190476190477C723.2090145322435,333.47809523809525,724.2739554950045,331.5504761904762,725.3388964577657,330.58666666666664C726.4038374205269,329.62285714285713,727.4687783832879,329.62285714285713,728.9330722070845,327.69523809523804C730.3973660308811,325.767619047619,732.261012715713,321.91238095238094,733.7253065395095,319.98476190476185C735.1896003633061,318.0571428571428,736.2545413260672,318.0571428571428,737.4525999091735,327.69523809523804C738.6506584922798,337.3333333333333,739.9818346957312,356.60952380952375,741.3130108991827,369.13904761904763C742.644187102634,381.66857142857134,743.9753633060855,387.45142857142855,745.1734218891917,392.2704761904761C746.371480472298,397.08952380952377,747.436421435059,400.9447619047619,748.5013623978201,404.79999999999995C749.5663033605812,408.655238095238,750.6312443233423,412.51047619047614,751.6961852861035,413.4742857142856C752.7611262488646,414.43809523809523,753.8260672116257,412.51047619047614,754.7578905540418,410.5828571428571C755.6897138964578,408.655238095238,756.4884196185286,406.72761904761904,757.5533605812898,404.79999999999995C758.618301544051,402.87238095238087,759.9494777475023,400.9447619047619,761.2806539509537,400.9447619047619C762.6118301544051,400.9447619047619,763.9430063578565,402.87238095238087,765.2741825613078,403.83619047619044C766.6053587647593,404.79999999999995,767.9365349682107,404.79999999999995,769.4008287920072,400.9447619047619C770.8651226158039,397.08952380952377,772.4625340599456,389.37904761904764,773.793710263397,387.45142857142855C775.1248864668484,385.52380952380946,776.1898274296095,389.3790476190475,777.2547683923707,387.45142857142855C778.3197093551316,385.52380952380946,779.3846503178929,377.81333333333333,780.4495912806539,373.9580952380952C781.5145322434151,370.10285714285715,782.5794732061762,370.10285714285715,783.6444141689375,369.13904761904763C784.7093551316984,368.17523809523806,785.7742960944597,366.2476190476191,786.9723546775658,367.21142857142854C788.1704132606723,368.17523809523806,789.5015894641236,372.0304761904761,790.6996480472299,373.9580952380952C791.8977066303361,375.8857142857143,792.9626475930972,375.8857142857143,794.0275885558584,377.8133333333333C795.0925295186195,379.74095238095236,796.1574704813805,383.59619047619043,797.2224114441418,387.45142857142855C798.2873524069028,391.3066666666666,799.352293369664,395.1619047619047,800.2841167120799,401.90857142857135C801.215940054496,408.655238095238,802.0146457765668,418.2933333333333,803.079586739328,413.4742857142857C804.1445277020889,408.655238095238,805.4757039055403,389.37904761904764,806.6737624886467,379.7409523809524C807.871821071753,370.10285714285715,808.9367620345141,370.10285714285715,810.0017029972752,367.21142857142854C811.0666439600363,364.32,812.1315849227975,358.5371428571428,813.1965258855586,347.93523809523805C814.2614668483197,337.3333333333333,815.3264078110809,321.91238095238094,816.5244663941871,314.20190476190476C817.7225249772933,306.49142857142857,819.0537011807447,306.49142857142857,820.251759763851,308.4190476190476C821.4498183469573,310.34666666666664,822.5147593097184,314.2019047619047,823.5797002724795,314.2019047619047C824.6446412352407,314.2019047619047,825.7095821980018,310.34666666666664,826.9076407811081,308.4190476190476C828.1056993642143,306.49142857142857,829.4368755676657,306.49142857142857,830.9011693914623,307.4552380952381C832.3654632152588,308.4190476190476,833.9628746594004,310.34666666666664,835.3130676657584,312.2742857142857C836.6632606721163,314.20190476190476,837.7662352406902,316.1295238095238,838.8501930063579,319.9847619047619C839.9341507720255,323.84,840.9990917347865,329.62285714285713,842.0640326975476,334.4419047619047C843.1289736603088,339.2609523809524,844.1939146230699,343.11619047619047,845.258855585831,346.9714285714286C846.3237965485922,350.82666666666665,847.3887375113533,354.6819047619047,848.4536784741144,356.6095238095238C849.5186194368756,358.5371428571428,850.5835603996367,358.5371428571428,851.6485013623977,360.4647619047619C852.713442325159,362.39238095238096,853.7783832879201,366.2476190476191,854.8433242506811,377.81333333333333C855.9082652134422,389.37904761904764,856.9732061762033,408.655238095238,858.1712647593098,415.4019047619047C859.3693233424159,422.14857142857136,860.7004995458674,416.3657142857142,862.0316757493188,406.72761904761893C863.3628519527701,397.08952380952377,864.6940281562216,383.5961904761905,866.025204359673,380.7047619047619C867.3563805631244,377.81333333333333,868.6875567665758,385.52380952380946,870.1518505903723,398.0533333333333C871.616144414169,410.5828571428571,873.2135558583108,427.93142857142857,874.411614441417,434.67809523809524C875.6096730245232,441.4247619047619,876.4083787465939,437.5695238095238,877.34020208901,436.6057142857143C878.272025431426,435.6419047619047,879.3369663941871,437.5695238095238,880.4019073569483,431.78666666666663C881.4668483197092,426.0038095238095,882.5317892824705,412.51047619047614,883.5967302452315,408.655238095238C884.6616712079928,404.79999999999995,885.7266121707538,410.5828571428571,886.7915531335151,412.51047619047614C887.856494096276,414.43809523809523,888.9214350590373,412.51047619047614,889.9863760217983,411.5466666666666C891.0513169845594,410.5828571428571,892.1162579473206,410.5828571428571,893.1811989100817,407.69142857142856C894.2461398728428,404.79999999999995,895.311080835604,399.0171428571428,896.6422570390554,388.41523809523807C897.9734332425068,377.8133333333333,899.5708446866485,362.39238095238096,900.9020208900998,354.6819047619047C902.2331970935512,346.9714285714286,903.2981380563124,346.9714285714286,904.4961966394188,355.6457142857143C905.6942552225249,364.32,907.0254314259764,381.6685714285714,908.3566076294278,365.28380952380945C909.6877838328792,348.8990476190476,911.0189600363307,298.78095238095233,912.350136239782,269.8666666666666C913.6813124432334,240.95238095238093,915.0124886466848,233.24190476190472,916.077429609446,230.35047619047614C917.1423705722071,227.4590476190476,917.941076294278,229.38666666666663,918.7397820163487,230.35047619047614C919.5384877384196,231.3142857142857,920.3371934604905,231.3142857142857,921.4021344232515,230.35047619047614C922.4670753860128,229.38666666666663,923.7982515894641,227.4590476190476,924.9963101725704,220.71238095238093C926.1943687556767,213.96571428571426,927.2593097184377,202.39999999999998,928.3242506811989,197.58095238095237C929.3891916439601,192.76190476190473,930.4541326067211,194.68952380952376,931.5190735694822,195.6533333333333C932.5840145322435,196.6171428571428,933.6489554950045,196.6171428571428,934.7138964577656,193.72571428571428C935.7788374205267,190.83428571428567,936.8437783832878,185.05142857142854,938.0418369663943,180.23238095238094C939.2398955495004,175.41333333333333,940.5710717529519,171.55809523809523,941.7691303360581,172.52190476190472C942.9671889191644,173.48571428571427,944.0321298819255,179.26857142857145,945.0970708446866,183.12380952380954C946.1620118074478,186.9790476190476,947.2269527702089,188.90666666666667,948.29189373297,198.54476190476188C949.3568346957312,208.1828571428571,950.4217756584922,225.53142857142856,951.6198342415986,229.38666666666666C952.8178928247047,233.24190476190472,954.1490690281562,223.60380952380947,955.3471276112624,214.92952380952377C956.5451861943687,206.25523809523807,957.6101271571298,198.54476190476188,958.8081857402361,195.6533333333333C960.0062443233423,192.76190476190473,961.3374205267937,194.68952380952376,962.5354791099002,194.68952380952376C963.7335376930064,194.68952380952376,964.7984786557676,192.76190476190473,965.8634196185285,188.90666666666664C966.9283605812898,185.05142857142857,967.9933015440507,179.26857142857145,969.191360127157,172.52190476190478C970.3894187102633,165.7752380952381,971.7205949137148,158.0647619047619,972.9186534968211,154.2095238095238C974.1167120799273,150.3542857142857,975.1816530426885,150.3542857142857,976.2465940054495,150.35428571428568C977.3115349682107,150.3542857142857,978.3764759309719,150.3542857142857,979.7076521344233,139.75238095238095C981.0388283378746,129.15047619047618,982.6362397820163,107.94666666666667,983.9674159854677,97.34476190476191C985.2985921889191,86.74285714285715,986.3635331516803,86.74285714285715,987.5615917347865,87.70666666666666C988.7596503178929,88.67047619047621,990.0908265213443,90.59809523809524,991.4220027247957,89.63428571428572C992.753178928247,88.67047619047618,994.0843551316984,84.81523809523809,995.4155313351498,82.88761904761904C996.7467075386013,80.96,998.0778837420527,80.96,999.2759423251591,80.96C1000.4740009082652,80.96,1001.5389418710264,80.96,1002.4707652134424,80.96C1003.4025885558582,80.96,1004.2012942779292,80.96,1004.6006471389646,80.96L1005,80.96"
           style="stroke: rgb(31, 119, 180);"
           id="path137" />
        <text
           transform="translate(1005,80.96)"
           x="3"
           dy="0.35em"
           style="font-style: normal; font-variant: normal; font-weight: normal; font-stretch: normal; font-size: 14px; line-height: normal; font-family: sans-serif; fill: rgb(31, 119, 180);"
           id="text139">Poland</text>
      </g>
      <g
         class="team"
         id="g141">
        <path
           class="line"
           d="M0,5.782857142857143L4.75420072661217,5.782857142857143C9.50840145322434,5.782857142857143,19.01680290644868,5.782857142857143,24.64577656675749,5.782857142857143C30.274750227066303,5.782857142857143,32.02429609445958,5.782857142857143,33.45055631244323,6.746666666666667C34.87681653042688,7.71047619047619,35.9797910990009,9.638095238095238,37.063748864668476,8.674285714285714C38.14770663033605,7.71047619047619,39.21264759309719,3.855238095238095,40.391689373297005,2.8914285714285715C41.57073115349683,1.9276190476190476,42.86387375113534,3.855238095238095,44.53735240690282,9.638095238095238C46.2108310626703,15.42095238095238,48.26464577656676,25.059047619047618,49.824023614895545,33.733333333333334C51.38340145322434,42.40761904761904,52.44834241598547,50.118095238095236,53.64640099909173,55.90095238095238C54.844459582198,61.68380952380952,56.17563578564941,65.53904761904762,57.37369436875568,70.35809523809523C58.571752951861946,75.17714285714287,59.636693914623066,80.96,60.70163487738419,72.28571428571429C61.76657584014532,63.611428571428576,62.83151680290644,40.48,64.06760899182561,26.986666666666668C65.30370118074478,13.493333333333334,66.71094459582199,9.638095238095238,68.4414736603088,7.71047619047619C70.17200272479563,5.782857142857143,72.22581743869209,5.782857142857143,74.05143051771117,5.782857142857143C75.87704359673023,5.782857142857143,77.47445504087193,5.782857142857143,78.80563124432332,6.746666666666667C80.13680744777474,7.71047619047619,81.20174841053587,9.638095238095238,82.266689373297,11.565714285714286C83.33163033605813,13.493333333333334,84.39657129881925,15.42095238095238,86.10808356039963,15.42095238095238C87.81959582198003,15.42095238095238,90.17767938237965,13.493333333333334,92.45969573115349,11.565714285714286C94.74171207992732,9.638095238095238,96.94766121707539,7.71047619047619,98.56408946412353,6.746666666666667C100.18051771117166,5.782857142857143,101.20742506811989,5.782857142857143,102.25334922797457,5.782857142857143C103.29927338782925,5.782857142857143,104.36421435059037,5.782857142857143,105.69539055404177,9.638095238095238C107.02656675749319,13.493333333333332,108.62397820163487,21.20380952380952,109.95515440508628,25.059047619047618C111.2863306085377,28.91428571428571,112.35127157129882,28.91428571428571,113.41621253405994,25.059047619047618C114.48115349682108,21.20380952380952,115.5460944595822,13.493333333333332,116.61103542234333,13.493333333333332C117.67597638510445,13.493333333333332,118.74091734786559,21.20380952380952,119.93897593097186,23.131428571428568C121.13703451407811,25.059047619047618,122.46821071752952,21.20380952380952,123.66626930063576,18.312380952380952C124.86432788374204,15.42095238095238,125.92926884650318,13.493333333333334,127.14634423251589,12.529523809523809C128.3634196185286,11.565714285714286,129.73262942779292,11.565714285714286,130.94970481380562,10.601904761904763C132.16678019981836,9.638095238095238,133.23172116257948,7.71047619047619,134.9622502270663,8.674285714285714C136.69277929155314,9.638095238095238,139.08889645776568,13.493333333333334,140.8194255222525,18.312380952380952C142.54995458673932,23.13142857142857,143.61489554950046,28.914285714285715,144.94607175295187,29.878095238095238C146.27724795640327,30.84190476190476,147.87465940054494,26.986666666666668,149.73830608537693,25.059047619047618C151.6019527702089,23.13142857142857,153.73183469573112,23.13142857142857,155.32924613987282,24.09523809523809C156.92665758401452,25.059047619047618,157.99159854677563,26.986666666666665,159.0565395095368,26.98666666666666C160.12148047229792,26.986666666666665,161.18642143505903,25.059047619047618,162.25136239782017,27.95047619047619C163.3163033605813,30.84190476190476,164.38124432334243,38.55238095238095,165.44618528610354,43.37142857142857C166.51112624886468,48.19047619047618,167.57606721162583,50.118095238095236,169.45873069936422,51.08190476190476C171.34139418710265,52.04571428571429,174.04178019981836,52.04571428571429,176.17166212534062,49.15428571428571C178.30154405086287,46.26285714285714,179.86092188919164,40.48,181.30619891008178,36.624761904761904C182.75147593097185,32.76952380952381,184.08265213442326,30.84190476190476,185.41382833787466,32.76952380952381C186.74500454132604,34.69714285714286,188.07618074477747,40.48,189.27423932788372,43.37142857142857C190.47229791099002,46.26285714285714,191.53723887375114,46.26285714285714,192.7352974568574,45.29904761904762C193.93335603996366,44.33523809523809,195.26453224341506,42.40761904761904,196.46259082652134,45.29904761904762C197.6606494096276,48.19047619047618,198.72559037238875,55.90095238095237,199.82856494096276,63.61142857142857C200.9315395095368,71.32190476190476,202.07254768392372,79.03238095238095,203.27060626702996,77.1047619047619C204.4686648501362,75.17714285714287,205.72377384196184,63.611428571428576,206.99789963669392,56.864761904761906C208.27202543142596,50.118095238095236,209.56516802906447,48.19047619047618,211.2956970935513,52.04571428571429C213.02622615803816,55.90095238095238,215.19414168937328,65.53904761904762,216.81056993642144,69.39428571428572C218.42699818346955,73.24952380952381,219.4919391462307,71.32190476190476,220.68999772933697,73.24952380952381C221.88805631244324,75.17714285714287,223.21923251589465,80.96,224.4172910990009,81.92380952380954C225.61534968210717,82.88761904761905,226.68029064486828,79.03238095238095,228.27770208900998,71.32190476190476C229.87511353315168,63.61142857142857,232.00499545867396,52.04571428571429,233.73552452316073,46.26285714285714C235.4660535876476,40.48,236.797229791099,40.48,237.99528837420527,39.516190476190474C239.19334695731155,38.55238095238095,240.2582879200727,36.624761904761904,241.45634650317893,34.69714285714286C242.6544050862852,32.76952380952381,243.98558128973661,30.84190476190476,245.18363987284292,31.805714285714284C246.38169845594916,32.769523809523804,247.44663941871025,36.624761904761904,248.64469800181655,37.58857142857143C249.8427565849228,38.55238095238095,251.17393278837417,36.624761904761904,252.50510899182555,32.76952380952381C253.83628519527701,28.914285714285715,255.1674613987284,23.13142857142857,256.36551998183467,20.24C257.563578564941,17.34857142857143,258.6285195277021,17.34857142857143,259.6934604904632,17.34857142857143C260.75840145322434,17.34857142857143,261.82334241598545,17.34857142857143,262.88828337874656,17.34857142857143C263.9532243415077,17.34857142857143,265.01816530426885,17.34857142857143,266.08310626703,17.34857142857143C267.14804722979113,17.34857142857143,268.21298819255225,17.34857142857143,269.27792915531336,17.34857142857143C270.3428701180745,17.34857142857143,271.40781108083564,17.34857142857143,272.60586966394186,17.34857142857143C273.8039282470482,17.34857142857143,275.13510445049957,17.34857142857143,276.33316303360584,17.34857142857143C277.5312216167121,17.34857142857143,278.59616257947323,17.34857142857143,279.66110354223434,21.203809523809525C280.7260445049955,25.059047619047618,281.7909854677566,32.76952380952381,282.85592643051774,38.55238095238095C283.92086739327885,44.33523809523809,284.98580835603997,48.19047619047618,286.1838669391462,52.045714285714276C287.3819255222525,55.90095238095237,288.7131017257039,59.756190476190476,290.0442779291553,63.611428571428554C291.37545413260676,67.46666666666665,292.70663033605814,71.32190476190476,293.9046889191644,73.24952380952381C295.10274750227063,75.17714285714285,296.16768846503174,75.17714285714285,297.2326294277929,75.17714285714284C298.29757039055403,75.17714285714285,299.36251135331514,75.17714285714285,300.4274523160763,75.17714285714284C301.4923932788374,75.17714285714285,302.55733424159854,75.17714285714285,303.6222752043597,75.17714285714284C304.68721616712077,75.17714285714285,305.75215712988194,75.17714285714285,306.817098092643,75.17714285714284C307.88203905540416,75.17714285714285,308.94698001816533,75.17714285714285,310.0119209809264,75.17714285714284C311.07686194368756,75.17714285714285,312.1418029064487,75.17714285714285,313.2067438692098,67.46666666666665C314.27168483197096,59.756190476190476,315.3366257947321,44.33523809523809,316.53468437783835,36.624761904761904C317.7327429609446,28.91428571428571,319.063919164396,28.91428571428571,320.2619777475022,28.91428571428571C321.4600363306085,28.91428571428571,322.52497729336966,28.91428571428571,323.7230358764759,28.91428571428571C324.9210944595822,28.91428571428571,326.2522706630336,28.91428571428571,327.583446866485,27.950476190476184C328.91462306993645,26.986666666666665,330.24579927338783,25.059047619047618,331.57697547683927,23.13142857142857C332.9081516802907,21.203809523809525,334.2393278837421,19.276190476190475,335.4373864668483,19.276190476190475C336.63544504995457,19.276190476190475,337.7003860127157,21.203809523809525,338.76532697547685,21.203809523809525C339.83026793823797,21.203809523809525,340.8952089009991,19.276190476190475,341.96014986376025,19.276190476190475C343.02509082652136,19.276190476190475,344.0900317892825,21.203809523809525,345.15497275204365,21.203809523809525C346.2199137148047,21.203809523809525,347.2848546775658,19.276190476190475,348.48291326067215,18.312380952380952C349.6809718437784,17.34857142857143,351.01214804722986,17.34857142857143,352.34332425068123,17.34857142857143C353.6745004541326,17.34857142857143,355.005676657584,17.34857142857143,356.2037352406903,17.34857142857143C357.4017938237966,17.34857142857143,358.4667347865577,17.34857142857143,359.664793369664,17.34857142857143C360.8628519527702,17.34857142857143,362.1940281562216,17.34857142857143,363.39208673932785,17.34857142857143C364.5901453224341,17.34857142857143,365.65508628519524,17.34857142857143,366.72002724795635,17.34857142857143C367.7849682107175,17.34857142857143,368.84990917347864,17.34857142857143,370.0479677565849,19.276190476190475C371.24602633969124,21.20380952380952,372.5772025431426,25.059047619047618,373.77526112624884,26.986666666666665C374.9733197093551,28.91428571428571,376.0382606721162,28.91428571428571,377.1032016348774,28.91428571428571C378.1681425976385,28.91428571428571,379.2330835603996,28.91428571428571,380.2980245231608,28.91428571428571C381.3629654859219,28.91428571428571,382.427906448683,28.91428571428571,383.6259650317893,26.986666666666665C384.82402361489557,25.059047619047618,386.15519981834694,21.20380952380952,387.35325840145316,21.20380952380952C388.55131698455943,21.20380952380952,389.61625794732066,25.059047619047618,390.6811989100818,26.986666666666665C391.7461398728429,28.91428571428571,392.81108083560395,28.91428571428571,394.27537465940054,32.769523809523804C395.73966848319714,36.624761904761904,397.60331516802904,44.33523809523809,399.3338442325159,47.22666666666667C401.06437329700276,50.118095238095236,402.6617847411444,48.19047619047618,404.126078564941,48.19047619047618C405.5903723887375,48.19047619047618,406.9215485921889,50.118095238095236,408.2527247956403,52.04571428571429C409.58390099909167,53.97333333333333,410.91507720254316,55.90095238095237,412.1131357856494,56.8647619047619C413.31119436875565,57.82857142857142,414.37613533151676,57.82857142857142,415.44107629427793,59.756190476190476C416.50601725703905,61.68380952380952,417.57095821980016,65.53904761904762,418.63589918256133,67.46666666666667C419.70084014532245,69.39428571428572,420.76578110808356,69.39428571428572,421.96383969118983,69.39428571428572C423.16189827429616,69.39428571428572,424.49307447774754,69.39428571428572,425.8242506811989,69.39428571428572C427.1554268846503,69.39428571428572,428.4866030881017,69.39428571428572,429.684661671208,70.35809523809525C430.8827202543143,71.32190476190476,431.9476612170754,73.24952380952381,433.0126021798365,72.28571428571429C434.07754314259756,71.32190476190476,435.14248410535873,67.46666666666665,436.34054268846495,64.57523809523809C437.5386012715712,61.683809523809515,438.86977747502266,59.756190476190476,440.20095367847415,61.68380952380952C441.5321298819255,63.61142857142857,442.8633060853769,69.39428571428572,444.0613646684831,69.39428571428572C445.25942325158945,69.39428571428572,446.3243642143506,63.61142857142857,447.3893051771117,61.683809523809515C448.45424613987285,59.756190476190476,449.5191871026339,61.683809523809515,450.5841280653951,58.792380952380945C451.6490690281562,55.90095238095237,452.7140099909173,48.19047619047618,453.7789509536785,47.22666666666666C454.8438919164396,46.262857142857136,455.9088328792007,52.045714285714276,456.9357402361489,53.97333333333333C457.9626475930972,55.90095238095237,458.9515213442325,53.97333333333333,460.0164623069936,53.009523809523806C461.08140326975473,52.04571428571429,462.2224114441417,52.04571428571429,463.45850363306084,52.045714285714276C464.69459582198004,52.04571428571429,466.0257720254314,52.04571428571429,467.22383060853764,53.009523809523806C468.4218891916439,53.97333333333333,469.486830154405,55.90095238095237,470.5517711171662,56.8647619047619C471.6167120799273,57.82857142857142,472.6816530426884,57.82857142857142,473.7465940054496,57.82857142857142C474.8115349682107,57.82857142857142,475.8764759309718,57.82857142857142,476.941416893733,56.8647619047619C478.0063578564941,55.90095238095237,479.0712988192552,53.97333333333333,480.1362397820163,52.04571428571429C481.2011807447775,50.118095238095236,482.2661217075386,48.19047619047618,483.3310626702997,47.22666666666667C484.39600363306084,46.26285714285714,485.46094459582196,46.26285714285714,486.52588555858307,46.26285714285714C487.59082652134424,46.26285714285714,488.65576748410535,46.26285714285714,489.8538260672116,45.29904761904762C491.05188465031785,44.33523809523809,492.38306085376934,42.40761904761904,493.71423705722077,43.37142857142857C495.04541326067215,44.33523809523809,496.3765894641235,48.19047619047618,497.80284968210725,50.118095238095236C499.22910990009086,52.04571428571429,500.75045413260676,52.04571428571429,502.0816303360582,52.045714285714276C503.4128065395096,52.04571428571429,504.55381471389654,52.04571428571429,505.6567892824705,52.045714285714276C506.7597638510445,52.04571428571429,507.8247048138057,52.04571428571429,509.02276339691184,52.045714285714276C510.2208219800182,52.04571428571429,511.55199818346955,52.04571428571429,512.7500567665758,52.045714285714276C513.9481153496821,52.04571428571429,515.0130563124432,52.04571428571429,516.0779972752043,52.045714285714276C517.1429382379655,52.04571428571429,518.2078792007266,52.04571428571429,519.2728201634877,53.009523809523806C520.3377611262489,53.97333333333333,521.40270208901,55.90095238095237,522.6007606721163,59.756190476190476C523.7988192552225,63.61142857142857,525.129995458674,69.39428571428572,526.3280540417802,71.32190476190476C527.5261126248864,73.24952380952381,528.5910535876475,71.32190476190476,529.6179609445958,70.35809523809525C530.6448683015441,69.39428571428572,531.6337420526794,69.39428571428572,532.7937670299727,68.4304761904762C533.9537920072661,67.46666666666665,535.2849682107176,65.53904761904761,536.616144414169,64.57523809523809C537.9473206176203,63.611428571428554,539.2784968210718,63.611428571428554,540.4195049954587,63.61142857142857C541.5605131698456,63.611428571428554,542.511353315168,63.611428571428554,543.614327883742,63.61142857142857C544.7173024523161,63.611428571428554,545.9724114441417,63.611428571428554,547.132436421435,63.61142857142857C548.2924613987284,63.611428571428554,549.3574023614896,63.611428571428554,550.4223433242506,63.61142857142857C551.4872842870118,63.611428571428554,552.552225249773,63.611428571428554,553.7502838328792,65.53904761904761C554.9483424159854,67.46666666666665,556.2795186194368,71.32190476190476,557.4775772025431,72.28571428571429C558.6756357856494,73.24952380952381,559.7405767484105,71.32190476190476,561.3379881925522,59.75619047619048C562.9353996366939,48.1904761904762,565.0652815622161,26.986666666666668,566.7958106267029,16.384761904761906C568.5263396911897,5.782857142857143,569.8575158946411,5.782857142857143,571.0555744777474,8.674285714285714C572.2536330608538,11.565714285714286,573.3185740236148,17.34857142857143,574.5166326067211,17.34857142857143C575.7146911898275,17.34857142857143,577.0458673932789,11.565714285714286,578.3770435967302,8.674285714285714C579.7082198001816,5.782857142857143,581.0393960036331,5.782857142857143,582.1994209809264,5.782857142857143C583.3594459582199,5.782857142857143,584.3483197093552,5.782857142857143,585.4132606721163,5.782857142857143C586.4782016348775,5.782857142857143,587.6192098092644,5.782857142857143,588.7221843778384,4.819047619047619C589.8251589464124,3.855238095238095,590.8900999091735,1.9276190476190476,591.9550408719346,1.9276190476190476C593.0199818346956,1.9276190476190476,594.0849227974568,3.855238095238095,595.2829813805631,3.855238095238095C596.4810399636693,3.855238095238095,597.8122161671208,1.9276190476190476,599.010274750227,0.9638095238095238C600.2083333333334,0,601.2732742960944,0,602.3382152588556,0C603.4031562216168,0,604.4680971843778,0,605.666155767484,1.9276190476190476C606.8642143505903,3.855238095238095,608.1953905540418,7.71047619047619,609.5265667574931,9.638095238095238C610.8577429609445,11.565714285714286,612.188919164396,11.565714285714286,613.3869777475022,9.638095238095238C614.5850363306085,7.71047619047619,615.6499772933697,3.855238095238095,616.8480358764759,3.855238095238095C618.0460944595822,3.855238095238095,619.3772706630335,7.71047619047619,620.6133628519527,9.638095238095238C621.8494550408719,11.565714285714286,622.9904632152588,11.565714285714286,624.017370572207,11.565714285714286C625.0442779291553,11.565714285714286,625.9570844686649,11.565714285714286,626.9839918256131,11.565714285714286C628.0108991825613,11.565714285714286,629.1519073569482,11.565714285714286,630.2548819255222,11.565714285714286C631.3578564940963,11.565714285714286,632.4227974568574,11.565714285714286,633.4877384196185,11.565714285714286C634.5526793823797,11.565714285714286,635.6176203451408,11.565714285714286,636.6825613079019,11.565714285714286C637.7475022706631,11.565714285714286,638.8124432334242,11.565714285714286,639.8773841961853,11.565714285714286C640.9423251589463,11.565714285714286,642.0072661217074,11.565714285714286,643.0722070844686,11.565714285714286C644.1371480472297,11.565714285714286,645.2020890099908,11.565714285714286,646.267029972752,10.601904761904763C647.3319709355131,9.638095238095238,648.3969118982743,7.71047619047619,649.5949704813805,7.71047619047619C650.7930290644869,7.71047619047619,652.1242052679382,9.638095238095238,653.3222638510445,9.638095238095238C654.5203224341508,9.638095238095238,655.585263396912,7.71047619047619,656.7833219800182,6.746666666666667C657.9813805631244,5.782857142857143,659.3125567665758,5.782857142857143,660.6437329700273,6.746666666666667C661.9749091734787,7.71047619047619,663.3060853769301,9.638095238095238,664.6372615803815,11.565714285714286C665.9684377838329,13.493333333333334,667.2996139872843,15.42095238095238,668.4976725703906,16.384761904761906C669.6957311534967,17.34857142857143,670.7606721162579,17.34857142857143,671.825613079019,17.34857142857143C672.8905540417801,17.34857142857143,673.9554950045413,17.34857142857143,675.0204359673024,17.34857142857143C676.0853769300635,17.34857142857143,677.1503178928247,17.34857142857143,678.2152588555858,18.312380952380952C679.2801998183469,19.276190476190475,680.3451407811081,21.203809523809525,681.4100817438692,22.167619047619052C682.4750227066303,23.13142857142857,683.5399636693915,23.13142857142857,684.6049046321526,22.167619047619045C685.6698455949136,21.203809523809525,686.7347865576749,19.276190476190475,687.7997275204358,18.312380952380952C688.8646684831971,17.34857142857143,689.9296094459582,17.34857142857143,691.1276680290645,18.312380952380952C692.3257266121708,19.276190476190475,693.6569028156222,21.203809523809525,694.8549613987284,21.203809523809525C696.0530199818346,21.203809523809525,697.1179609445958,19.276190476190475,698.4871707538601,18.312380952380952C699.8563805631244,17.34857142857143,701.5298592188919,17.34857142857143,703.0321866485014,17.34857142857143C704.5345140781109,17.34857142857143,705.8656902815623,17.34857142857143,707.0257152588556,17.34857142857143C708.185740236149,17.34857142857143,709.1746139872843,17.34857142857143,710.6008742052678,17.34857142857143C712.0271344232515,17.34857142857143,713.8907811080835,17.34857142857143,715.35507493188,17.34857142857143C716.8193687556767,17.34857142857143,717.8843097184377,17.34857142857143,718.9492506811988,18.312380952380952C720.0141916439601,19.276190476190475,721.0791326067211,21.203809523809525,722.1440735694823,22.167619047619052C723.2090145322435,23.13142857142857,724.2739554950045,23.13142857142857,725.3388964577657,23.13142857142857C726.4038374205269,23.13142857142857,727.4687783832879,23.13142857142857,728.9330722070845,28.91428571428571C730.3973660308811,34.69714285714286,732.261012715713,46.262857142857136,733.7253065395095,52.045714285714276C735.1896003633061,57.82857142857142,736.2545413260672,57.82857142857142,737.4525999091735,59.756190476190476C738.6506584922798,61.68380952380952,739.9818346957312,65.53904761904762,741.3130108991827,70.35809523809523C742.644187102634,75.17714285714287,743.9753633060855,80.96,745.1734218891917,81.92380952380954C746.371480472298,82.88761904761905,747.436421435059,79.03238095238095,748.5013623978201,77.1047619047619C749.5663033605812,75.17714285714285,750.6312443233423,75.17714285714285,751.6961852861035,75.17714285714284C752.7611262488646,75.17714285714285,753.8260672116257,75.17714285714285,754.7578905540418,74.21333333333332C755.6897138964578,73.24952380952381,756.4884196185286,71.32190476190476,757.5533605812898,68.4304761904762C758.618301544051,65.53904761904762,759.9494777475023,61.68380952380952,761.2806539509537,57.82857142857142C762.6118301544051,53.97333333333333,763.9430063578565,50.118095238095236,765.2741825613078,48.19047619047618C766.6053587647593,46.26285714285714,767.9365349682107,46.26285714285714,769.4008287920072,43.37142857142857C770.8651226158039,40.48,772.4625340599456,34.69714285714286,773.793710263397,33.73333333333333C775.1248864668484,32.769523809523804,776.1898274296095,36.624761904761904,777.2547683923707,37.58857142857143C778.3197093551316,38.55238095238095,779.3846503178929,36.624761904761904,780.4495912806539,34.69714285714286C781.5145322434151,32.76952380952381,782.5794732061762,30.84190476190476,783.6444141689375,29.878095238095238C784.7093551316984,28.91428571428571,785.7742960944597,28.91428571428571,786.9723546775658,31.805714285714284C788.1704132606723,34.69714285714286,789.5015894641236,40.48,790.6996480472299,43.37142857142857C791.8977066303361,46.26285714285714,792.9626475930972,46.26285714285714,794.0275885558584,46.26285714285714C795.0925295186195,46.26285714285714,796.1574704813805,46.26285714285714,797.2224114441418,45.29904761904762C798.2873524069028,44.33523809523809,799.352293369664,42.40761904761904,800.2841167120799,42.40761904761904C801.215940054496,42.40761904761904,802.0146457765668,44.33523809523809,803.079586739328,48.19047619047618C804.1445277020889,52.04571428571429,805.4757039055403,57.82857142857142,806.6737624886467,60.72C807.871821071753,63.611428571428554,808.9367620345141,63.611428571428554,810.0017029972752,63.61142857142857C811.0666439600363,63.611428571428554,812.1315849227975,63.611428571428554,813.1965258855586,57.82857142857142C814.2614668483197,52.045714285714276,815.3264078110809,40.48,816.5244663941871,34.69714285714286C817.7225249772933,28.91428571428571,819.0537011807447,28.91428571428571,820.251759763851,28.91428571428571C821.4498183469573,28.91428571428571,822.5147593097184,28.91428571428571,823.5797002724795,30.841904761904757C824.6446412352407,32.769523809523804,825.7095821980018,36.624761904761904,826.9076407811081,35.66095238095238C828.1056993642143,34.69714285714286,829.4368755676657,28.91428571428571,830.9011693914623,25.059047619047618C832.3654632152588,21.203809523809525,833.9628746594004,19.276190476190475,835.3130676657584,18.312380952380952C836.6632606721163,17.34857142857143,837.7662352406902,17.34857142857143,838.8501930063579,18.312380952380952C839.9341507720255,19.276190476190475,840.9990917347865,21.203809523809525,842.0640326975476,22.167619047619052C843.1289736603088,23.13142857142857,844.1939146230699,23.13142857142857,845.258855585831,26.022857142857145C846.3237965485922,28.91428571428571,847.3887375113533,34.69714285714286,848.4536784741144,37.58857142857143C849.5186194368756,40.48,850.5835603996367,40.48,851.6485013623977,40.48C852.713442325159,40.48,853.7783832879201,40.48,854.8433242506811,38.55238095238095C855.9082652134422,36.624761904761904,856.9732061762033,32.769523809523804,858.1712647593098,30.841904761904757C859.3693233424159,28.91428571428571,860.7004995458674,28.91428571428571,862.0316757493188,26.986666666666665C863.3628519527701,25.059047619047618,864.6940281562216,21.20380952380952,866.025204359673,23.13142857142857C867.3563805631244,25.059047619047618,868.6875567665758,32.76952380952381,870.1518505903723,35.66095238095238C871.616144414169,38.55238095238095,873.2135558583108,36.624761904761904,874.411614441417,35.66095238095238C875.6096730245232,34.69714285714286,876.4083787465939,34.69714285714286,877.34020208901,34.69714285714286C878.272025431426,34.69714285714286,879.3369663941871,34.69714285714286,880.4019073569483,35.66095238095238C881.4668483197092,36.624761904761904,882.5317892824705,38.55238095238095,883.5967302452315,39.516190476190474C884.6616712079928,40.48,885.7266121707538,40.48,886.7915531335151,41.44380952380952C887.856494096276,42.40761904761904,888.9214350590373,44.33523809523809,889.9863760217983,45.29904761904762C891.0513169845594,46.26285714285714,892.1162579473206,46.26285714285714,893.1811989100817,46.26285714285714C894.2461398728428,46.26285714285714,895.311080835604,46.26285714285714,896.6422570390554,51.08190476190476C897.9734332425068,55.90095238095238,899.5708446866485,65.53904761904762,900.9020208900998,70.35809523809523C902.2331970935512,75.17714285714285,903.2981380563124,75.17714285714285,904.4961966394188,74.21333333333332C905.6942552225249,73.24952380952381,907.0254314259764,71.32190476190476,908.3566076294278,68.4304761904762C909.6877838328792,65.53904761904762,911.0189600363307,61.68380952380952,912.350136239782,59.756190476190476C913.6813124432334,57.82857142857142,915.0124886466848,57.82857142857142,916.077429609446,57.82857142857142C917.1423705722071,57.82857142857142,917.941076294278,57.82857142857142,918.7397820163487,57.82857142857142C919.5384877384196,57.82857142857142,920.3371934604905,57.82857142857142,921.4021344232515,58.792380952380945C922.4670753860128,59.756190476190476,923.7982515894641,61.683809523809515,924.9963101725704,60.71999999999999C926.1943687556767,59.756190476190476,927.2593097184377,55.90095238095237,928.3242506811989,56.864761904761906C929.3891916439601,57.82857142857142,930.4541326067211,63.611428571428576,931.5190735694822,66.50285714285714C932.5840145322435,69.39428571428572,933.6489554950045,69.39428571428572,934.7138964577656,69.39428571428572C935.7788374205267,69.39428571428572,936.8437783832878,69.39428571428572,938.0418369663943,73.24952380952381C939.2398955495004,77.1047619047619,940.5710717529519,84.8152380952381,941.7691303360581,87.70666666666666C942.9671889191644,90.59809523809524,944.0321298819255,88.67047619047621,945.0970708446866,87.70666666666666C946.1620118074478,86.74285714285715,947.2269527702089,86.74285714285715,948.29189373297,87.70666666666666C949.3568346957312,88.67047619047621,950.4217756584922,90.59809523809524,951.6198342415986,87.70666666666666C952.8178928247047,84.8152380952381,954.1490690281562,77.1047619047619,955.3471276112624,75.17714285714285C956.5451861943687,73.24952380952381,957.6101271571298,77.1047619047619,958.8081857402361,79.03238095238095C960.0062443233423,80.96,961.3374205267937,80.96,962.5354791099002,80.96C963.7335376930064,80.96,964.7984786557676,80.96,965.8634196185285,79.99619047619046C966.9283605812898,79.03238095238095,967.9933015440507,77.1047619047619,969.191360127157,77.1047619047619C970.3894187102633,77.1047619047619,971.7205949137148,79.03238095238095,972.9186534968211,79.99619047619048C974.1167120799273,80.96,975.1816530426885,80.96,976.2465940054495,78.06857142857142C977.3115349682107,75.17714285714284,978.3764759309719,69.39428571428572,979.7076521344233,64.57523809523808C981.0388283378746,59.756190476190476,982.6362397820163,55.90095238095237,983.9674159854677,53.97333333333333C985.2985921889191,52.04571428571429,986.3635331516803,52.04571428571429,987.5615917347865,54.93714285714285C988.7596503178929,57.82857142857142,990.0908265213443,63.611428571428576,991.4220027247957,66.50285714285714C992.753178928247,69.39428571428572,994.0843551316984,69.39428571428572,995.4155313351498,72.28571428571429C996.7467075386013,75.17714285714287,998.0778837420527,80.96,999.2759423251591,83.85142857142857C1000.4740009082652,86.74285714285715,1001.5389418710264,86.74285714285715,1002.4707652134424,86.74285714285715C1003.4025885558582,86.74285714285715,1004.2012942779292,86.74285714285715,1004.6006471389646,86.74285714285715L1005,86.74285714285715"
           style="stroke: rgb(255, 127, 14);"
           id="path143" />
      </g>
    </g>
  </svg>
  <text
     y="117.33721"
     clip-path="none"
     mask="none"
     x="1056.7347"
     dy="0"
     style="color:#333333;font-style:normal;font-variant:normal;font-weight:normal;font-stretch:normal;font-size:14px;line-height:normal;font-family:sans-serif;text-indent:0px;text-align:start;text-decoration:none;text-decoration-line:none;letter-spacing:normal;word-spacing:0px;text-transform:none;direction:ltr;baseline-shift:0px;text-anchor:start;white-space:normal;clip-rule:nonzero;display:inline;visibility:visible;opacity:1;isolation:auto;mix-blend-mode:normal;color-interpolation:sRGB;color-interpolation-filters:linearRGB;fill:#ff7f0e;fill-opacity:1;fill-rule:nonzero;stroke:none;stroke-width:1px;stroke-linecap:butt;stroke-linejoin:miter;stroke-miterlimit:4;stroke-dasharray:none;stroke-dashoffset:0px;stroke-opacity:1;marker-start:none;marker-mid:none;marker-end:none;paint-order:fill stroke markers;color-rendering:auto;image-rendering:auto;shape-rendering:auto;text-rendering:auto"
     id="text145-9-93">Italy</text>
</svg>
