<svg width="1140" height="478.88" xmlns="http://www.w3.org/2000/svg" style="animation-delay: 0s; animation-direction: normal; animation-duration: 0s; animation-fill-mode: none; animation-iteration-count: 1; animation-name: none; animation-play-state: running; animation-timing-function: ease; background-attachment: scroll; background-blend-mode: normal; background-clip: border-box; background-color: rgba(0, 0, 0, 0); background-image: none; background-origin: padding-box; background-position: 0% 0%; background-repeat: repeat; background-size: auto; border-bottom-color: rgb(51, 51, 51); border-bottom-left-radius: 0px; border-bottom-right-radius: 0px; border-bottom-style: none; border-bottom-width: 0px; border-collapse: separate; border-image-outset: 0px; border-image-repeat: stretch; border-image-slice: 100%; border-image-source: none; border-image-width: 1; border-left-color: rgb(51, 51, 51); border-left-style: none; border-left-width: 0px; border-right-color: rgb(51, 51, 51); border-right-style: none; border-right-width: 0px; border-top-color: rgb(51, 51, 51); border-top-left-radius: 0px; border-top-right-radius: 0px; border-top-style: none; border-top-width: 0px; bottom: auto; box-shadow: none; box-sizing: border-box; break-after: auto; break-before: auto; break-inside: auto; caption-side: top; clear: none; clip: auto; color: rgb(51, 51, 51); content: ; cursor: auto; direction: ltr; display: inline; empty-cells: show; float: none; font-family: &quot;Helvetica Neue&quot;, Helvetica, Arial, sans-serif; font-kerning: auto; font-size: 14px; font-stretch: normal; font-style: normal; font-variant: normal; font-variant-ligatures: normal; font-variant-caps: normal; font-variant-numeric: normal; font-weight: normal; height: 478.875px; image-rendering: auto; isolation: auto; left: auto; letter-spacing: normal; line-height: 20px; list-style-image: none; list-style-position: outside; list-style-type: disc; margin-bottom: 0px; margin-left: 0px; margin-right: 0px; margin-top: 0px; max-height: none; max-width: none; min-height: 0px; min-width: 0px; mix-blend-mode: normal; object-fit: fill; object-position: 50% 50%; offset-distance: 0px; offset-path: none; offset-rotate: auto 0deg; offset-rotation: auto 0deg; opacity: 1; orphans: 2; outline-color: rgb(51, 51, 51); outline-offset: 0px; outline-style: none; outline-width: 0px; overflow-anchor: auto; overflow-wrap: normal; overflow-x: hidden; overflow-y: hidden; padding-bottom: 0px; padding-left: 0px; padding-right: 0px; padding-top: 0px; pointer-events: auto; position: static; resize: none; right: auto; speak: normal; table-layout: auto; tab-size: 8; text-align: start; text-align-last: auto; text-decoration: none; text-indent: 0px; text-rendering: auto; text-shadow: none; text-size-adjust: 100%; text-overflow: clip; text-transform: none; top: auto; touch-action: auto; transition-delay: 0s; transition-duration: 0s; transition-property: all; transition-timing-function: ease; unicode-bidi: normal; vertical-align: baseline; visibility: visible; white-space: normal; widows: 2; width: 1140px; will-change: auto; word-break: normal; word-spacing: 0px; word-wrap: normal; z-index: auto; zoom: 1; -webkit-appearance: none; backface-visibility: visible; -webkit-background-clip: border-box; -webkit-background-origin: padding-box; -webkit-border-horizontal-spacing: 0px; -webkit-border-image: none; -webkit-border-vertical-spacing: 0px; -webkit-box-align: stretch; -webkit-box-decoration-break: slice; -webkit-box-direction: normal; -webkit-box-flex: 0; -webkit-box-flex-group: 1; -webkit-box-lines: single; -webkit-box-ordinal-group: 1; -webkit-box-orient: horizontal; -webkit-box-pack: start; -webkit-box-reflect: none; column-count: auto; column-gap: normal; column-rule-color: rgb(51, 51, 51); column-rule-style: none; column-rule-width: 0px; column-span: none; column-width: auto; align-content: stretch; align-items: stretch; align-self: stretch; flex-basis: auto; flex-grow: 0; flex-shrink: 1; flex-direction: row; flex-wrap: nowrap; justify-content: flex-start; -webkit-font-smoothing: auto; -webkit-highlight: none; hyphens: manual; -webkit-hyphenate-character: auto; -webkit-line-break: auto; -webkit-line-clamp: none; -webkit-locale: &quot;en&quot;; -webkit-margin-before-collapse: collapse; -webkit-margin-after-collapse: collapse; -webkit-mask-box-image: none; -webkit-mask-box-image-outset: 0px; -webkit-mask-box-image-repeat: stretch; -webkit-mask-box-image-slice: 0 fill; -webkit-mask-box-image-source: none; -webkit-mask-box-image-width: auto; -webkit-mask-clip: border-box; -webkit-mask-composite: source-over; -webkit-mask-image: none; -webkit-mask-origin: border-box; -webkit-mask-position: 0% 0%; -webkit-mask-repeat: repeat; -webkit-mask-size: auto; order: 0; perspective: none; perspective-origin: 570px 239.438px; -webkit-print-color-adjust: economy; -webkit-rtl-ordering: logical; shape-outside: none; shape-image-threshold: 0; shape-margin: 0px; -webkit-tap-highlight-color: rgba(0, 0, 0, 0); -webkit-text-combine: none; -webkit-text-decorations-in-effect: none; -webkit-text-emphasis-color: rgb(51, 51, 51); -webkit-text-emphasis-position: over; -webkit-text-emphasis-style: none; -webkit-text-fill-color: rgb(51, 51, 51); -webkit-text-orientation: vertical-right; -webkit-text-security: none; -webkit-text-stroke-color: rgb(51, 51, 51); -webkit-text-stroke-width: 0px; transform: none; transform-origin: 570px 239.438px; transform-style: flat; -webkit-user-drag: auto; -webkit-user-modify: read-only; user-select: text; -webkit-writing-mode: horizontal-tb; -webkit-app-region: no-drag; buffered-rendering: auto; clip-path: none; clip-rule: nonzero; mask: none; filter: none; flood-color: rgb(0, 0, 0); flood-opacity: 1; lighting-color: rgb(255, 255, 255); stop-color: rgb(0, 0, 0); stop-opacity: 1; color-interpolation: sRGB; color-interpolation-filters: linearRGB; color-rendering: auto; fill: rgb(0, 0, 0); fill-opacity: 1; fill-rule: nonzero; marker-end: none; marker-mid: none; marker-start: none; mask-type: luminance; shape-rendering: auto; stroke: none; stroke-dasharray: none; stroke-dashoffset: 0px; stroke-linecap: butt; stroke-linejoin: miter; stroke-miterlimit: 4; stroke-opacity: 1; stroke-width: 1px; alignment-baseline: auto; baseline-shift: 0px; dominant-baseline: auto; text-anchor: start; writing-mode: horizontal-tb; vector-effect: none; paint-order: fill stroke markers; d: none; cx: 0px; cy: 0px; x: 0px; y: 0px; r: 0px; rx: auto; ry: auto;" version="1.1" xmlns:xlink="http://www.w3.org/1999/xlink"><style type="text/css">svg:not(:root) { overflow: hidden; }
*, ::before, ::after { box-sizing: border-box; }
.axis path, .axis line { fill: none; stroke: rgb(0, 0, 0); shape-rendering: crispEdges; }
.line { fill: none; stroke: steelblue; stroke-width: 1.5px; }</style><svg xmlns="http://www.w3.org/2000/svg" id="svg"><g transform="translate(50,20)"><g class="axis axis--x" transform="translate(0,428.88)" fill="none" font-size="10" font-family="sans-serif" text-anchor="middle" style="font-style: normal; font-variant: normal; font-weight: normal; font-stretch: normal; font-size: 12px; line-height: normal; font-family: sans-serif;"><path class="domain" stroke="#000" d="M0.5,6V0.5H1005.5V6"/><g class="tick" opacity="1" transform="translate(45.17916950499546,0)"><line stroke="#000" y2="6" x1="0.5" x2="0.5"/><text fill="#000" y="9" x="0.5" dy="0.71em">1994</text></g><g class="tick" opacity="1" transform="translate(128.47276623524067,0)"><line stroke="#000" y2="6" x1="0.5" x2="0.5"/><text fill="#000" y="9" x="0.5" dy="0.71em">1996</text></g><g class="tick" opacity="1" transform="translate(211.8804637829246,0)"><line stroke="#000" y2="6" x1="0.5" x2="0.5"/><text fill="#000" y="9" x="0.5" dy="0.71em">1998</text></g><g class="tick" opacity="1" transform="translate(295.1740605131698,0)"><line stroke="#000" y2="6" x1="0.5" x2="0.5"/><text fill="#000" y="9" x="0.5" dy="0.71em">2000</text></g><g class="tick" opacity="1" transform="translate(378.58175806085376,0)"><line stroke="#000" y2="6" x1="0.5" x2="0.5"/><text fill="#000" y="9" x="0.5" dy="0.71em">2002</text></g><g class="tick" opacity="1" transform="translate(461.87535479109897,0)"><line stroke="#000" y2="6" x1="0.5" x2="0.5"/><text fill="#000" y="9" x="0.5" dy="0.71em">2004</text></g><g class="tick" opacity="1" transform="translate(545.2830523387829,0)"><line stroke="#000" y2="6" x1="0.5" x2="0.5"/><text fill="#000" y="9" x="0.5" dy="0.71em">2006</text></g><g class="tick" opacity="1" transform="translate(628.5766490690281,0)"><line stroke="#000" y2="6" x1="0.5" x2="0.5"/><text fill="#000" y="9" x="0.5" dy="0.71em">2008</text></g><g class="tick" opacity="1" transform="translate(711.9843466167122,0)"><line stroke="#000" y2="6" x1="0.5" x2="0.5"/><text fill="#000" y="9" x="0.5" dy="0.71em">2010</text></g><g class="tick" opacity="1" transform="translate(795.2779433469573,0)"><line stroke="#000" y2="6" x1="0.5" x2="0.5"/><text fill="#000" y="9" x="0.5" dy="0.71em">2012</text></g><g class="tick" opacity="1" transform="translate(878.6856408946412,0)"><line stroke="#000" y2="6" x1="0.5" x2="0.5"/><text fill="#000" y="9" x="0.5" dy="0.71em">2014</text></g><g class="tick" opacity="1" transform="translate(961.9792376248864,0)"><line stroke="#000" y2="6" x1="0.5" x2="0.5"/><text fill="#000" y="9" x="0.5" dy="0.71em">2016</text></g><text transform="translate(994.95,0)" y="-16" dy="0.71em" fill="#000" style="font-style: normal; font-variant: normal; font-weight: normal; font-stretch: normal; font-size: 12px; line-height: normal; font-family: sans-serif;">Year</text></g><g class="axis axis--y" fill="none" font-size="10" font-family="sans-serif" text-anchor="end" style="font-style: normal; font-variant: normal; font-weight: normal; font-stretch: normal; font-size: 12px; line-height: normal; font-family: sans-serif;"><path class="domain" stroke="#000" d="M-6,429.38H0.5V0.5H-6"/><g class="tick" opacity="1" transform="translate(0,401.33724770642203)"><line stroke="#000" x2="-6" y1="0.5" y2="0.5"/><text fill="#000" x="-9" y="0.5" dy="0.32em">110</text></g><g class="tick" opacity="1" transform="translate(0,361.99045871559633)"><line stroke="#000" x2="-6" y1="0.5" y2="0.5"/><text fill="#000" x="-9" y="0.5" dy="0.32em">100</text></g><g class="tick" opacity="1" transform="translate(0,322.64366972477063)"><line stroke="#000" x2="-6" y1="0.5" y2="0.5"/><text fill="#000" x="-9" y="0.5" dy="0.32em">90</text></g><g class="tick" opacity="1" transform="translate(0,283.296880733945)"><line stroke="#000" x2="-6" y1="0.5" y2="0.5"/><text fill="#000" x="-9" y="0.5" dy="0.32em">80</text></g><g class="tick" opacity="1" transform="translate(0,243.9500917431193)"><line stroke="#000" x2="-6" y1="0.5" y2="0.5"/><text fill="#000" x="-9" y="0.5" dy="0.32em">70</text></g><g class="tick" opacity="1" transform="translate(0,204.6033027522936)"><line stroke="#000" x2="-6" y1="0.5" y2="0.5"/><text fill="#000" x="-9" y="0.5" dy="0.32em">60</text></g><g class="tick" opacity="1" transform="translate(0,165.2565137614679)"><line stroke="#000" x2="-6" y1="0.5" y2="0.5"/><text fill="#000" x="-9" y="0.5" dy="0.32em">50</text></g><g class="tick" opacity="1" transform="translate(0,125.90972477064221)"><line stroke="#000" x2="-6" y1="0.5" y2="0.5"/><text fill="#000" x="-9" y="0.5" dy="0.32em">40</text></g><g class="tick" opacity="1" transform="translate(0,86.56293577981651)"><line stroke="#000" x2="-6" y1="0.5" y2="0.5"/><text fill="#000" x="-9" y="0.5" dy="0.32em">30</text></g><g class="tick" opacity="1" transform="translate(0,47.21614678899083)"><line stroke="#000" x2="-6" y1="0.5" y2="0.5"/><text fill="#000" x="-9" y="0.5" dy="0.32em">20</text></g><g class="tick" opacity="1" transform="translate(0,7.869357798165138)"><line stroke="#000" x2="-6" y1="0.5" y2="0.5"/><text fill="#000" x="-9" y="0.5" dy="0.32em">10</text></g><text y="-20" dy="0.71em" fill="#000">Position</text></g><g class="team"><path class="line" d="M0,78.69357798165137L4.75420072661217,78.03779816513762C9.50840145322434,77.38201834862384,19.01680290644868,76.07045871559633,24.64577656675749,76.72623853211009C30.274750227066303,77.38201834862386,32.02429609445958,80.0051376146789,33.45055631244323,80.66091743119266C34.87681653042688,81.31669724770641,35.9797910990009,80.0051376146789,37.063748864668476,79.34935779816514C38.14770663033605,78.69357798165137,39.21264759309719,78.69357798165137,40.391689373297005,79.34935779816514C41.57073115349683,80.0051376146789,42.86387375113534,81.31669724770641,44.53735240690282,80.66091743119266C46.2108310626703,80.0051376146789,48.26464577656676,77.38201834862386,49.824023614895545,76.07045871559633C51.38340145322434,74.75889908256882,52.44834241598547,74.75889908256882,53.64640099909173,78.03779816513763C54.844459582198,81.31669724770643,56.17563578564941,87.87449541284404,57.37369436875568,93.77651376146788C58.571752951861946,99.67853211009174,59.636693914623066,104.92477064220184,60.70163487738419,106.89211009174312C61.76657584014532,108.8594495412844,62.83151680290644,107.54788990825689,64.06760899182561,106.89211009174312C65.30370118074478,106.23633027522936,66.71094459582199,106.23633027522936,68.4414736603088,105.5805504587156C70.17200272479563,104.92477064220184,72.22581743869209,103.61321100917432,74.05143051771117,106.89211009174312C75.87704359673023,110.17100917431192,77.47445504087193,118.04036697247709,78.80563124432332,121.97504587155964C80.13680744777474,125.9097247706422,81.20174841053587,125.9097247706422,82.266689373297,126.56550458715598C83.33163033605813,127.22128440366974,84.39657129881925,128.53284403669727,86.10808356039963,131.81174311926608C87.81959582198003,135.09064220183487,90.17767938237965,140.33688073394498,92.45969573115349,145.58311926605506C94.74171207992732,150.82935779816515,96.94766121707539,156.07559633027523,98.56408946412353,154.7640366972477C100.18051771117166,153.45247706422018,101.20742506811989,145.58311926605506,102.25334922797457,147.55045871559636C103.29927338782925,149.51779816513763,104.36421435059037,161.32183486238532,105.69539055404177,170.502752293578C107.02656675749319,179.68366972477065,108.62397820163487,186.24146788990825,109.95515440508628,192.79926605504588C111.2863306085377,199.35706422018347,112.35127157129882,205.91486238532113,113.41621253405994,190.83192660550458C114.48115349682108,175.74899082568808,115.5460944595822,139.02532110091744,116.61103542234333,137.05798165137614C117.67597638510445,135.09064220183487,118.74091734786559,167.87963302752294,119.93897593097186,182.96256880733947C121.13703451407811,198.04550458715596,122.46821071752952,195.42238532110093,123.66626930063576,196.73394495412845C124.86432788374204,198.04550458715596,125.92926884650318,203.29174311926604,127.14634423251589,207.22642201834864C128.3634196185286,211.1611009174312,129.73262942779292,213.78422018348624,130.94970481380562,216.40733944954127C132.16678019981836,219.0304587155963,133.23172116257948,221.65357798165135,134.9622502270663,223.62091743119265C136.69277929155314,225.58825688073395,139.08889645776568,226.89981651376146,140.8194255222525,231.49027522935782C142.54995458673932,236.08073394495418,143.61489554950046,243.9500917431193,144.94607175295187,246.57321100917434C146.27724795640327,249.19633027522937,147.87465940054494,246.57321100917434,149.73830608537693,245.9174311926606C151.6019527702089,245.2616513761468,153.73183469573112,246.57321100917432,155.32924613987282,245.26165137614677C156.92665758401452,243.95009174311926,157.99159854677563,240.01541284403672,159.0565395095368,242.63853211009177C160.12148047229792,245.2616513761468,161.18642143505903,254.44256880733943,162.25136239782017,263.6234862385321C163.3163033605813,272.80440366972476,164.38124432334243,281.9853211009175,165.44618528610354,285.2642201834863C166.51112624886468,288.5431192660551,167.57606721162583,285.92,169.45873069936422,285.92C171.34139418710265,285.92,174.04178019981836,288.5431192660551,176.17166212534062,289.19889908256886C178.30154405086287,289.85467889908256,179.86092188919164,288.54311926605504,181.30619891008178,289.19889908256886C182.75147593097185,289.85467889908256,184.08265213442326,292.4777981651376,185.41382833787466,295.10091743119267C186.74500454132604,297.72403669724775,188.07618074477747,300.3471559633028,189.27423932788372,304.93761467889914C190.47229791099002,309.5280733944954,191.53723887375114,316.085871559633,192.7352974568574,320.0205504587156C193.93335603996366,323.95522935779815,195.26453224341506,325.26678899082566,196.46259082652134,330.5130275229358C197.6606494096276,335.7592660550458,198.72559037238875,344.94018348623854,199.82856494096276,349.53064220183484C200.9315395095368,354.1211009174312,202.07254768392372,354.1211009174312,203.27060626702996,354.1211009174312C204.4686648501362,354.1211009174312,205.72377384196184,354.1211009174312,206.99789963669392,356.7442201834863C208.27202543142596,359.3673394495413,209.56516802906447,364.61357798165136,211.2956970935513,370.51559633027523C213.02622615803816,376.4176146788991,215.19414168937328,382.9754128440367,216.81056993642144,386.9100917431192C218.42699818346955,390.8447706422018,219.4919391462307,392.1563302752293,220.68999772933697,388.2216513761468C221.88805631244324,384.28697247706424,223.21923251589465,375.1060550458715,224.4172910990009,371.8271559633027C225.61534968210717,368.54825688073396,226.68029064486828,371.171376146789,228.27770208900998,371.171376146789C229.87511353315168,371.171376146789,232.00499545867396,368.54825688073396,233.73552452316073,368.54825688073396C235.4660535876476,368.54825688073396,236.797229791099,371.171376146789,237.99528837420527,375.1060550458715C239.19334695731155,379.0407339449541,240.2582879200727,384.2869724770642,241.45634650317893,375.7618348623853C242.6544050862852,367.2366972477064,243.98558128973661,344.94018348623854,245.18363987284292,335.10348623853207C246.38169845594916,325.26678899082566,247.44663941871025,327.88990825688074,248.64469800181655,332.48036697247704C249.8427565849228,337.0708256880734,251.17393278837417,343.62862385321097,252.50510899182555,331.8245871559633C253.83628519527701,320.0205504587156,255.1674613987284,289.85467889908256,256.36551998183467,274.7717431192661C257.563578564941,259.68880733944957,258.6285195277021,259.68880733944957,259.6934604904632,261.65614678899084C260.75840145322434,263.62348623853217,261.82334241598545,267.5581651376147,262.88828337874656,272.80440366972476C263.9532243415077,278.0506422018349,265.01816530426885,284.6084403669725,266.08310626703,287.88733944954134C267.14804722979113,291.1662385321101,268.21298819255225,291.1662385321101,269.27792915531336,292.47779816513764C270.3428701180745,293.78935779816516,271.40781108083564,296.41247706422024,272.60586966394186,297.72403669724775C273.8039282470482,299.03559633027527,275.13510445049957,299.03559633027527,276.33316303360584,300.3471559633028C277.5312216167121,301.6587155963303,278.59616257947323,304.2818348623853,279.66110354223434,300.3471559633028C280.7260445049955,296.41247706422024,281.7909854677566,285.92,282.85592643051774,289.1988990825688C283.92086739327885,292.4777981651376,284.98580835603997,309.5280733944954,286.1838669391462,320.02055045871555C287.3819255222525,330.5130275229358,288.7131017257039,334.44770642201837,290.0442779291553,339.03816513761467C291.37545413260676,343.62862385321097,292.70663033605814,348.87486238532114,293.9046889191644,351.49798165137616C295.10274750227063,354.1211009174312,296.16768846503174,354.1211009174312,297.2326294277929,354.776880733945C298.29757039055403,355.4326605504587,299.36251135331514,356.7442201834862,300.4274523160763,354.7768807339449C301.4923932788374,352.8095412844036,302.55733424159854,347.56330275229357,303.6222752043597,346.90752293577975C304.68721616712077,346.251743119266,305.75215712988194,350.1864220183486,306.817098092643,354.1211009174312C307.88203905540416,358.05577981651373,308.94698001816533,361.99045871559633,310.0119209809264,364.61357798165136C311.07686194368756,367.2366972477064,312.1418029064487,368.54825688073396,313.2067438692098,369.20403669724766C314.27168483197096,369.8598165137615,315.3366257947321,369.8598165137615,316.53468437783835,370.51559633027523C317.7327429609446,371.171376146789,319.063919164396,372.4829357798165,320.2619777475022,379.6965137614679C321.4600363306085,386.9100917431192,322.52497729336966,400.0256880733945,323.7230358764759,403.96036697247706C324.9210944595822,407.8950458715596,326.2522706630336,402.64880733944955,327.583446866485,398.71412844036695C328.91462306993645,394.77944954128435,330.24579927338783,392.1563302752293,331.57697547683927,392.1563302752293C332.9081516802907,392.1563302752293,334.2393278837421,394.77944954128435,335.4373864668483,396.0910091743119C336.63544504995457,397.4025688073395,337.7003860127157,397.4025688073395,338.76532697547685,397.4025688073394C339.83026793823797,397.4025688073395,340.8952089009991,397.4025688073395,341.96014986376025,397.4025688073394C343.02509082652136,397.4025688073395,344.0900317892825,397.4025688073395,345.15497275204365,396.7467889908257C346.2199137148047,396.0910091743119,347.2848546775658,394.77944954128435,348.48291326067215,395.43522935779816C349.6809718437784,396.0910091743119,351.01214804722986,398.71412844036695,352.34332425068123,397.4025688073395C353.6745004541326,396.0910091743119,355.005676657584,390.84477064220187,356.2037352406903,387.565871559633C357.4017938237966,384.28697247706424,358.4667347865577,382.9754128440367,359.664793369664,382.3196330275229C360.8628519527702,381.66385321100915,362.1940281562216,381.66385321100915,363.39208673932785,381.66385321100915C364.5901453224341,381.66385321100915,365.65508628519524,381.66385321100915,366.72002724795635,379.0407339449541C367.7849682107175,376.4176146788991,368.84990917347864,371.171376146789,370.0479677565849,367.8924770642202C371.24602633969124,364.61357798165136,372.5772025431426,363.3020183486239,373.77526112624884,362.64623853211015C374.9733197093551,361.99045871559633,376.0382606721162,361.99045871559633,377.1032016348774,361.99045871559633C378.1681425976385,361.99045871559633,379.2330835603996,361.99045871559633,380.2980245231608,362.6462385321101C381.3629654859219,363.3020183486239,382.427906448683,364.61357798165136,383.6259650317893,362.6462385321101C384.82402361489557,360.67889908256876,386.15519981834694,355.4326605504587,387.35325840145316,352.8095412844036C388.55131698455943,350.1864220183486,389.61625794732066,350.1864220183486,390.6811989100818,349.53064220183484C391.7461398728429,348.874862385321,392.81108083560395,347.56330275229357,394.27537465940054,344.2844036697247C395.73966848319714,341.00550458715594,397.60331516802904,335.7592660550459,399.3338442325159,331.16880733944953C401.06437329700276,326.5783486238532,402.6617847411444,322.64366972477063,404.126078564941,312.15119266055046C405.5903723887375,301.6587155963303,406.9215485921889,284.6084403669725,408.2527247956403,266.2466055045872C409.58390099909167,247.88477064220186,410.91507720254316,228.211376146789,412.1131357856494,218.3746788990826C413.31119436875565,208.53798165137616,414.37613533151676,208.53798165137616,415.44107629427793,202.6359633027523C416.50601725703905,196.73394495412845,417.57095821980016,184.92990825688074,418.63589918256133,179.68366972477065C419.70084014532245,174.43743119266057,420.76578110808356,175.74899082568808,421.96383969118983,176.40477064220184C423.16189827429616,177.0605504587156,424.49307447774754,177.0605504587156,425.8242506811989,176.40477064220184C427.1554268846503,175.74899082568808,428.4866030881017,174.43743119266057,429.684661671208,171.81431192660548C430.8827202543143,169.19119266055046,431.9476612170754,165.2565137614679,433.0126021798365,163.94495412844037C434.07754314259756,162.63339449541283,435.14248410535873,163.94495412844037,436.34054268846495,165.2565137614679C437.5386012715712,166.5680733944954,438.86977747502266,167.87963302752294,440.20095367847415,168.5354128440367C441.5321298819255,169.19119266055046,442.8633060853769,169.19119266055046,444.0613646684831,169.8469724770642C445.25942325158945,170.50275229357797,446.3243642143506,171.81431192660548,447.3893051771117,173.125871559633C448.45424613987285,174.43743119266057,449.5191871026339,175.74899082568808,450.5841280653951,180.33944954128444C451.6490690281562,184.92990825688074,452.7140099909173,192.79926605504588,453.7789509536785,196.07816513761472C454.8438919164396,199.35706422018347,455.9088328792007,198.04550458715596,456.9357402361489,202.63596330275232C457.9626475930972,207.22642201834864,458.9515213442325,217.7188990825688,460.0164623069936,222.30935779816514C461.08140326975473,226.89981651376146,462.2224114441417,225.58825688073395,463.45850363306084,226.2440366972477C464.69459582198004,226.89981651376146,466.0257720254314,229.5229357798165,467.22383060853764,229.5229357798165C468.4218891916439,229.5229357798165,469.486830154405,226.89981651376146,470.5517711171662,226.2440366972477C471.6167120799273,225.58825688073395,472.6816530426884,226.89981651376146,473.7465940054496,227.55559633027522C474.8115349682107,228.211376146789,475.8764759309718,228.211376146789,476.941416893733,224.27669724770644C478.0063578564941,220.34201834862384,479.0712988192552,212.47266055045873,480.1362397820163,209.1937614678899C481.2011807447775,205.91486238532113,482.2661217075386,207.22642201834864,483.3310626702997,209.8495412844037C484.39600363306084,212.47266055045873,485.46094459582196,216.4073394495413,486.52588555858307,213.78422018348624C487.59082652134424,211.1611009174312,488.65576748410535,201.98018348623853,489.8538260672116,197.38972477064218C491.05188465031785,192.79926605504588,492.38306085376934,192.79926605504588,493.71423705722077,196.73394495412845C495.04541326067215,200.66862385321102,496.3765894641235,208.53798165137616,497.80284968210725,215.75155963302748C499.22910990009086,222.96513761467887,500.75045413260676,229.52293577981652,502.0816303360582,232.80183486238533C503.4128065395096,236.08073394495418,504.55381471389654,236.08073394495418,505.6567892824705,234.11339449541285C506.7597638510445,232.14605504587158,507.8247048138057,228.211376146789,509.02276339691184,230.17871559633025C510.2208219800182,232.14605504587155,511.55199818346955,240.01541284403666,512.7500567665758,245.26165137614677C513.9481153496821,250.50788990825686,515.0130563124432,253.1310091743119,516.0779972752043,255.0983486238532C517.1429382379655,257.0656880733945,518.2078792007266,258.377247706422,519.2728201634877,262.3119266055046C520.3377611262489,266.2466055045872,521.40270208901,272.80440366972476,522.6007606721163,276.73908256880736C523.7988192552225,280.67376146788996,525.129995458674,281.9853211009175,526.3280540417802,284.6084403669725C527.5261126248864,287.23155963302753,528.5910535876475,291.1662385321101,529.6179609445958,292.47779816513764C530.6448683015441,293.78935779816516,531.6337420526794,292.47779816513764,532.7937670299727,285.92C533.9537920072661,279.3622018348624,535.2849682107176,267.5581651376147,536.616144414169,261.0003669724771C537.9473206176203,254.44256880733943,539.2784968210718,253.13100917431197,540.4195049954587,251.8194495412844C541.5605131698456,250.50788990825689,542.511353315168,249.19633027522937,543.614327883742,249.19633027522937C544.7173024523161,249.19633027522937,545.9724114441417,250.50788990825689,547.132436421435,252.47522935779818C548.2924613987284,254.44256880733948,549.3574023614896,257.06568807339454,550.4223433242506,259.68880733944957C551.4872842870118,262.3119266055046,552.552225249773,264.9350458715597,553.7502838328792,264.9350458715597C554.9483424159854,264.9350458715597,556.2795186194368,262.3119266055046,557.4775772025431,261.0003669724771C558.6756357856494,259.68880733944957,559.7405767484105,259.68880733944957,561.3379881925522,249.19633027522937C562.9353996366939,238.7038532110092,565.0652815622161,217.7188990825688,566.7958106267029,205.91486238532113C568.5263396911897,194.11082568807342,569.8575158946411,191.48770642201836,571.0555744777474,194.11082568807342C572.2536330608538,196.73394495412845,573.3185740236148,204.60330275229362,574.5166326067211,218.3746788990826C575.7146911898275,232.14605504587158,577.0458673932789,251.8194495412844,578.3770435967302,259.03302752293575C579.7082198001816,266.2466055045872,581.0393960036331,261.000366972477,582.1994209809264,258.377247706422C583.3594459582199,255.754128440367,584.3483197093552,255.754128440367,585.4132606721163,256.4099082568807C586.4782016348775,257.0656880733945,587.6192098092644,258.377247706422,588.7221843778384,259.68880733944957C589.8251589464124,261.0003669724771,590.8900999091735,262.3119266055046,591.9550408719346,264.27926605504587C593.0199818346956,266.2466055045872,594.0849227974568,268.8697247706422,595.2829813805631,268.2139449541284C596.4810399636693,267.5581651376147,597.8122161671208,263.62348623853217,599.010274750227,262.3119266055046C600.2083333333334,261.0003669724771,601.2732742960944,262.3119266055046,602.3382152588556,262.96770642201835C603.4031562216168,263.6234862385321,604.4680971843778,263.6234862385321,605.666155767484,262.96770642201835C606.8642143505903,262.3119266055046,608.1953905540418,261.0003669724771,609.5265667574931,260.3445871559633C610.8577429609445,259.68880733944957,612.188919164396,259.68880733944957,613.3869777475022,245.9174311926606C614.5850363306085,232.14605504587158,615.6499772933697,204.60330275229362,616.8480358764759,194.11082568807342C618.0460944595822,183.61834862385322,619.3772706630335,190.17614678899085,620.6133628519527,193.45504587155963C621.8494550408719,196.73394495412845,622.9904632152588,196.73394495412845,624.017370572207,196.07816513761466C625.0442779291553,195.42238532110093,625.9570844686649,194.11082568807342,626.9839918256131,194.11082568807342C628.0108991825613,194.11082568807342,629.1519073569482,195.42238532110093,630.2548819255222,193.45504587155963C631.3578564940963,191.48770642201836,632.4227974568574,186.24146788990825,633.4877384196185,182.96256880733947C634.5526793823797,179.68366972477065,635.6176203451408,178.3721100917431,636.6825613079019,177.0605504587156C637.7475022706631,175.74899082568808,638.8124432334242,174.43743119266057,639.8773841961853,173.78165137614678C640.9423251589463,173.12587155963305,642.0072661217074,173.12587155963305,643.0722070844686,173.78165137614678C644.1371480472297,174.43743119266057,645.2020890099908,175.74899082568808,646.267029972752,177.06055045871562C647.3319709355131,178.3721100917431,648.3969118982743,179.68366972477065,649.5949704813805,178.37211009174314C650.7930290644869,177.0605504587156,652.1242052679382,173.12587155963305,653.3222638510445,172.47009174311927C654.5203224341508,171.81431192660548,655.585263396912,174.43743119266057,656.7833219800182,180.99522935779817C657.9813805631244,187.55302752293576,659.3125567665758,198.04550458715596,660.6437329700273,203.94752293577983C661.9749091734787,209.84954128440367,663.3060853769301,211.1611009174312,664.6372615803815,210.50532110091743C665.9684377838329,209.84954128440367,667.2996139872843,207.22642201834864,668.4976725703906,205.91486238532107C669.6957311534967,204.60330275229362,670.7606721162579,204.60330275229362,671.825613079019,207.88220183486237C672.8905540417801,211.1611009174312,673.9554950045413,217.7188990825688,675.0204359673024,222.96513761467887C676.0853769300635,228.211376146789,677.1503178928247,232.14605504587158,678.2152588555858,237.39229357798163C679.2801998183469,242.63853211009177,680.3451407811081,249.19633027522937,681.4100817438692,252.47522935779816C682.4750227066303,255.754128440367,683.5399636693915,255.754128440367,684.6049046321526,256.4099082568807C685.6698455949136,257.0656880733945,686.7347865576749,258.377247706422,687.7997275204358,254.44256880733943C688.8646684831971,250.50788990825689,689.9296094459582,241.32697247706423,691.1276680290645,236.7365137614679C692.3257266121708,232.14605504587155,693.6569028156222,232.14605504587155,694.8549613987284,232.14605504587152C696.0530199818346,232.14605504587155,697.1179609445958,232.14605504587155,698.4871707538601,239.35963302752293C699.8563805631244,246.57321100917432,701.5298592188919,261.0003669724771,703.0321866485014,268.8697247706422C704.5345140781109,276.73908256880736,705.8656902815623,278.0506422018349,707.0257152588556,277.3948623853211C708.185740236149,276.73908256880736,709.1746139872843,274.1159633027523,710.6008742052678,272.148623853211C712.0271344232515,270.18128440366974,713.8907811080835,268.8697247706422,715.35507493188,268.21394495412846C716.8193687556767,267.5581651376147,717.8843097184377,267.5581651376147,718.9492506811988,268.21394495412846C720.0141916439601,268.8697247706422,721.0791326067211,270.18128440366974,722.1440735694823,269.5255045871559C723.2090145322435,268.8697247706422,724.2739554950045,266.2466055045872,725.3388964577657,266.2466055045872C726.4038374205269,266.2466055045872,727.4687783832879,268.8697247706422,728.9330722070845,274.77174311926603C730.3973660308811,280.67376146788996,732.261012715713,289.85467889908256,733.7253065395095,294.4451376146789C735.1896003633061,299.03559633027527,736.2545413260672,299.03559633027527,737.4525999091735,299.691376146789C738.6506584922798,300.3471559633028,739.9818346957312,301.6587155963303,741.3130108991827,314.77431192660555C742.644187102634,327.88990825688074,743.9753633060855,352.8095412844037,745.1734218891917,369.8598165137615C746.371480472298,386.91009174311927,747.436421435059,396.0910091743119,748.5013623978201,401.337247706422C749.5663033605812,406.5834862385321,750.6312443233423,407.89504587155966,751.6961852861035,409.20660550458723C752.7611262488646,410.5181651376147,753.8260672116257,411.82972477064214,754.7578905540418,414.4528440366973C755.6897138964578,417.0759633027523,756.4884196185286,421.01064220183486,757.5533605812898,422.9779816513762C758.618301544051,424.94532110091745,759.9494777475023,424.94532110091745,761.2806539509537,424.2895412844037C762.6118301544051,423.6337614678899,763.9430063578565,422.3222018348624,765.2741825613078,421.01064220183486C766.6053587647593,419.69908256880734,767.9365349682107,418.3875229357798,769.4008287920072,417.7317431192661C770.8651226158039,417.0759633027523,772.4625340599456,417.0759633027523,773.793710263397,415.76440366972474C775.1248864668484,414.4528440366973,776.1898274296095,411.82972477064226,777.2547683923707,413.79706422018353C778.3197093551316,415.76440366972474,779.3846503178929,422.3222018348624,780.4495912806539,407.8950458715596C781.5145322434151,393.4678899082569,782.5794732061762,358.05577981651373,783.6444141689375,310.8396330275229C784.7093551316984,263.6234862385321,785.7742960944597,204.60330275229362,786.9723546775658,178.37211009174314C788.1704132606723,152.14091743119266,789.5015894641236,158.6987155963303,790.6996480472299,160.66605504587156C791.8977066303361,162.63339449541283,792.9626475930972,160.0102752293578,794.0275885558584,159.35449541284405C795.0925295186195,158.6987155963303,796.1574704813805,160.0102752293578,797.2224114441418,156.0755963302752C798.2873524069028,152.14091743119266,799.352293369664,142.96,800.2841167120799,142.30422018348625C801.215940054496,141.6484403669725,802.0146457765668,149.5177981651376,803.079586739328,148.86201834862385C804.1445277020889,148.2062385321101,805.4757039055403,139.02532110091744,806.6737624886467,134.4348623853211C807.871821071753,129.84440366972478,808.9367620345141,129.84440366972478,810.0017029972752,127.8770642201835C811.0666439600363,125.9097247706422,812.1315849227975,121.97504587155964,813.1965258855586,120.00770642201836C814.2614668483197,118.04036697247709,815.3264078110809,118.04036697247709,816.5244663941871,117.3845871559633C817.7225249772933,116.72880733944955,819.0537011807447,115.41724770642202,820.251759763851,120.00770642201836C821.4498183469573,124.59816513761469,822.5147593097184,135.09064220183487,823.5797002724795,148.20623853211012C824.6446412352407,161.32183486238534,825.7095821980018,177.06055045871562,826.9076407811081,190.83192660550458C828.1056993642143,204.60330275229362,829.4368755676657,216.4073394495413,830.9011693914623,232.80183486238533C832.3654632152588,249.19633027522937,833.9628746594004,270.18128440366974,835.3130676657584,280.01798165137615C836.6632606721163,289.85467889908256,837.7662352406902,288.54311926605504,838.8501930063579,279.3622018348624C839.9341507720255,270.18128440366974,840.9990917347865,253.13100917431197,842.0640326975476,246.57321100917432C843.1289736603088,240.01541284403672,844.1939146230699,243.95009174311926,845.258855585831,231.49027522935776C846.3237965485922,219.03045871559632,847.3887375113533,190.17614678899085,848.4536784741144,175.74899082568808C849.5186194368756,161.32183486238532,850.5835603996367,161.32183486238532,851.6485013623977,158.6987155963303C852.713442325159,156.07559633027523,853.7783832879201,150.82935779816515,854.8433242506811,148.86201834862388C855.9082652134422,146.89467889908258,856.9732061762033,148.20623853211012,858.1712647593098,148.86201834862388C859.3693233424159,149.51779816513763,860.7004995458674,149.51779816513763,862.0316757493188,153.45247706422018C863.3628519527701,157.38715596330277,864.6940281562216,165.2565137614679,866.025204359673,163.94495412844037C867.3563805631244,162.63339449541286,868.6875567665758,152.14091743119266,870.1518505903723,154.76403669724775C871.616144414169,157.38715596330277,873.2135558583108,173.12587155963305,874.411614441417,180.99522935779817C875.6096730245232,188.86458715596328,876.4083787465939,188.86458715596328,877.34020208901,188.20880733944955C878.272025431426,187.55302752293576,879.3369663941871,186.24146788990825,880.4019073569483,182.96256880733947C881.4668483197092,179.68366972477065,882.5317892824705,174.43743119266057,883.5967302452315,170.50275229357797C884.6616712079928,166.5680733944954,885.7266121707538,163.94495412844037,886.7915531335151,161.32183486238532C887.856494096276,158.6987155963303,888.9214350590373,156.07559633027526,889.9863760217983,154.76403669724775C891.0513169845594,153.4524770642202,892.1162579473206,153.4524770642202,893.1811989100817,149.51779816513763C894.2461398728428,145.58311926605506,895.311080835604,137.71376146788992,896.6422570390554,135.74642201834862C897.9734332425068,133.77908256880735,899.5708446866485,137.71376146788992,900.9020208900998,137.71376146788992C902.2331970935512,137.71376146788992,903.2981380563124,133.77908256880735,904.4961966394188,123.94238532110093C905.6942552225249,114.1056880733945,907.0254314259764,98.36697247706422,908.3566076294278,93.77651376146788C909.6877838328792,89.18605504587156,911.0189600363307,95.74385321100918,912.350136239782,99.02275229357798C913.6813124432334,102.30165137614681,915.0124886466848,102.30165137614681,916.077429609446,102.30165137614678C917.1423705722071,102.30165137614681,917.941076294278,102.30165137614681,918.7397820163487,102.30165137614678C919.5384877384196,102.30165137614681,920.3371934604905,102.30165137614681,921.4021344232515,102.30165137614678C922.4670753860128,102.30165137614681,923.7982515894641,102.30165137614681,924.9963101725704,104.26899082568808C926.1943687556767,106.23633027522936,927.2593097184377,110.17100917431192,928.3242506811989,102.30165137614678C929.3891916439601,94.43229357798167,930.4541326067211,74.75889908256882,931.5190735694822,64.26642201834862C932.5840145322435,53.773944954128446,933.6489554950045,52.46238532110092,934.7138964577656,52.462385321100925C935.7788374205267,52.46238532110092,936.8437783832878,53.773944954128446,938.0418369663943,46.56036697247706C939.2398955495004,39.346788990825694,940.5710717529519,23.608073394495417,941.7691303360581,15.082935779816514C942.9671889191644,6.557798165137616,944.0321298819255,5.246238532110092,945.0970708446866,4.590458715596331C946.1620118074478,3.9346788990825687,947.2269527702089,3.9346788990825687,948.29189373297,3.278899082568808C949.3568346957312,2.623119266055046,950.4217756584922,1.311559633027523,951.6198342415986,5.246238532110092C952.8178928247047,9.180917431192661,954.1490690281562,18.361834862385322,955.3471276112624,24.263853211009177C956.5451861943687,30.16587155963303,957.6101271571298,32.788990825688074,958.8081857402361,34.1005504587156C960.0062443233423,35.41211009174312,961.3374205267937,35.41211009174312,962.5354791099002,35.41211009174312C963.7335376930064,35.41211009174312,964.7984786557676,35.41211009174312,965.8634196185285,35.41211009174312C966.9283605812898,35.41211009174312,967.9933015440507,35.41211009174312,969.191360127157,40.00256880733946C970.3894187102633,44.593027522935785,971.7205949137148,53.773944954128446,972.9186534968211,58.36440366972477C974.1167120799273,62.9548623853211,975.1816530426885,62.9548623853211,976.2465940054495,64.26642201834863C977.3115349682107,65.57798165137615,978.3764759309719,68.20110091743119,979.7076521344233,59.6759633027523C981.0388283378746,51.150825688073404,982.6362397820163,31.47743119266055,983.9674159854677,21.640733944954132C985.2985921889191,11.804036697247705,986.3635331516803,11.804036697247705,987.5615917347865,11.148256880733946C988.7596503178929,10.492477064220184,990.0908265213443,9.180917431192661,991.4220027247957,9.180917431192661C992.753178928247,9.180917431192661,994.0843551316984,10.492477064220184,995.4155313351498,11.804036697247708C996.7467075386013,13.11559633027523,998.0778837420527,14.427155963302752,999.2759423251591,15.082935779816516C1000.4740009082652,15.738715596330275,1001.5389418710264,15.738715596330275,1002.4707652134424,15.738715596330279C1003.4025885558582,15.738715596330275,1004.2012942779292,15.738715596330275,1004.6006471389646,15.738715596330279L1005,15.738715596330277" style="stroke: rgb(31, 119, 180);"/><text transform="translate(1005,15.738715596330277)" x="3" dy="0.35em" style="font-style: normal; font-variant: normal; font-weight: normal; font-stretch: normal; font-size: 14px; line-height: normal; font-family: sans-serif; fill: rgb(31, 119, 180);">Wales</text></g></g></svg></svg>