<?xml version="1.0" encoding="UTF-8" standalone="no"?>
<svg
   xmlns:dc="http://purl.org/dc/elements/1.1/"
   xmlns:cc="http://creativecommons.org/ns#"
   xmlns:rdf="http://www.w3.org/1999/02/22-rdf-syntax-ns#"
   xmlns:svg="http://www.w3.org/2000/svg"
   xmlns="http://www.w3.org/2000/svg"
   xmlns:sodipodi="http://sodipodi.sourceforge.net/DTD/sodipodi-0.dtd"
   xmlns:inkscape="http://www.inkscape.org/namespaces/inkscape"
   width="1140"
   height="495.28"
   style="animation-delay: 0s; animation-direction: normal; animation-duration: 0s; animation-fill-mode: none; animation-iteration-count: 1; animation-name: none; animation-play-state: running; animation-timing-function: ease; background-attachment: scroll; background-blend-mode: normal; background-clip: border-box; background-color: rgba(0, 0, 0, 0); background-image: none; background-origin: padding-box; background-position: 0% 0%; background-repeat: repeat; background-size: auto; border-bottom-color: rgb(51, 51, 51); border-bottom-left-radius: 0px; border-bottom-right-radius: 0px; border-bottom-style: none; border-bottom-width: 0px; border-collapse: separate; border-image-outset: 0px; border-image-repeat: stretch; border-image-slice: 100%; border-image-source: none; border-image-width: 1; border-left-color: rgb(51, 51, 51); border-left-style: none; border-left-width: 0px; border-right-color: rgb(51, 51, 51); border-right-style: none; border-right-width: 0px; border-top-color: rgb(51, 51, 51); border-top-left-radius: 0px; border-top-right-radius: 0px; border-top-style: none; border-top-width: 0px; bottom: auto; box-shadow: none; box-sizing: border-box; break-after: auto; break-before: auto; break-inside: auto; caption-side: top; clear: none; clip: auto; color: rgb(51, 51, 51); content: ; cursor: auto; direction: ltr; display: inline; empty-cells: show; float: none; font-family: &quot;Helvetica Neue&quot;, Helvetica, Arial, sans-serif; font-kerning: auto; font-size: 14px; font-stretch: normal; font-style: normal; font-variant: normal; font-variant-ligatures: normal; font-variant-caps: normal; font-variant-numeric: normal; font-weight: normal; height: 495.266px; image-rendering: auto; isolation: auto; left: auto; letter-spacing: normal; line-height: 20px; list-style-image: none; list-style-position: outside; list-style-type: disc; margin-bottom: 0px; margin-left: 0px; margin-right: 0px; margin-top: 0px; max-height: none; max-width: none; min-height: 0px; min-width: 0px; mix-blend-mode: normal; object-fit: fill; object-position: 50% 50%; offset-distance: 0px; offset-path: none; offset-rotate: auto 0deg; offset-rotation: auto 0deg; opacity: 1; orphans: 2; outline-color: rgb(51, 51, 51); outline-offset: 0px; outline-style: none; outline-width: 0px; overflow-anchor: auto; overflow-wrap: normal; overflow-x: hidden; overflow-y: hidden; padding-bottom: 0px; padding-left: 0px; padding-right: 0px; padding-top: 0px; pointer-events: auto; position: static; resize: none; right: auto; speak: normal; table-layout: auto; tab-size: 8; text-align: start; text-align-last: auto; text-decoration: none; text-indent: 0px; text-rendering: auto; text-shadow: none; text-size-adjust: 100%; text-overflow: clip; text-transform: none; top: auto; touch-action: auto; transition-delay: 0s; transition-duration: 0s; transition-property: all; transition-timing-function: ease; unicode-bidi: normal; vertical-align: baseline; visibility: visible; white-space: normal; widows: 2; width: 1140px; will-change: auto; word-break: normal; word-spacing: 0px; word-wrap: normal; z-index: auto; zoom: 1; -webkit-appearance: none; backface-visibility: visible; -webkit-background-clip: border-box; -webkit-background-origin: padding-box; -webkit-border-horizontal-spacing: 0px; -webkit-border-image: none; -webkit-border-vertical-spacing: 0px; -webkit-box-align: stretch; -webkit-box-decoration-break: slice; -webkit-box-direction: normal; -webkit-box-flex: 0; -webkit-box-flex-group: 1; -webkit-box-lines: single; -webkit-box-ordinal-group: 1; -webkit-box-orient: horizontal; -webkit-box-pack: start; -webkit-box-reflect: none; column-count: auto; column-gap: normal; column-rule-color: rgb(51, 51, 51); column-rule-style: none; column-rule-width: 0px; column-span: none; column-width: auto; align-content: stretch; align-items: stretch; align-self: stretch; flex-basis: auto; flex-grow: 0; flex-shrink: 1; flex-direction: row; flex-wrap: nowrap; justify-content: flex-start; -webkit-font-smoothing: auto; -webkit-highlight: none; hyphens: manual; -webkit-hyphenate-character: auto; -webkit-line-break: auto; -webkit-line-clamp: none; -webkit-locale: &quot;en&quot;; -webkit-margin-before-collapse: collapse; -webkit-margin-after-collapse: collapse; -webkit-mask-box-image: none; -webkit-mask-box-image-outset: 0px; -webkit-mask-box-image-repeat: stretch; -webkit-mask-box-image-slice: 0 fill; -webkit-mask-box-image-source: none; -webkit-mask-box-image-width: auto; -webkit-mask-clip: border-box; -webkit-mask-composite: source-over; -webkit-mask-image: none; -webkit-mask-origin: border-box; -webkit-mask-position: 0% 0%; -webkit-mask-repeat: repeat; -webkit-mask-size: auto; order: 0; perspective: none; perspective-origin: 570px 247.625px; -webkit-print-color-adjust: economy; -webkit-rtl-ordering: logical; shape-outside: none; shape-image-threshold: 0; shape-margin: 0px; -webkit-tap-highlight-color: rgba(0, 0, 0, 0); -webkit-text-combine: none; -webkit-text-decorations-in-effect: none; -webkit-text-emphasis-color: rgb(51, 51, 51); -webkit-text-emphasis-position: over; -webkit-text-emphasis-style: none; -webkit-text-fill-color: rgb(51, 51, 51); -webkit-text-orientation: vertical-right; -webkit-text-security: none; -webkit-text-stroke-color: rgb(51, 51, 51); -webkit-text-stroke-width: 0px; transform: none; transform-origin: 570px 247.625px; transform-style: flat; -webkit-user-drag: auto; -webkit-user-modify: read-only; user-select: text; -webkit-writing-mode: horizontal-tb; -webkit-app-region: no-drag; buffered-rendering: auto; clip-path: none; clip-rule: nonzero; mask: none; filter: none; flood-color: rgb(0, 0, 0); flood-opacity: 1; lighting-color: rgb(255, 255, 255); stop-color: rgb(0, 0, 0); stop-opacity: 1; color-interpolation: sRGB; color-interpolation-filters: linearRGB; color-rendering: auto; fill: rgb(0, 0, 0); fill-opacity: 1; fill-rule: nonzero; marker-end: none; marker-mid: none; marker-start: none; mask-type: luminance; shape-rendering: auto; stroke: none; stroke-dasharray: none; stroke-dashoffset: 0px; stroke-linecap: butt; stroke-linejoin: miter; stroke-miterlimit: 4; stroke-opacity: 1; stroke-width: 1px; alignment-baseline: auto; baseline-shift: 0px; dominant-baseline: auto; text-anchor: start; writing-mode: horizontal-tb; vector-effect: none; paint-order: fill stroke markers; d: none; cx: 0px; cy: 0px; x: 0px; y: 0px; r: 0px; rx: auto; ry: auto;"
   version="1.1"
   id="svg2"
   mask="none"
   clip-path="none"
   inkscape:version="0.91 r13725"
   sodipodi:docname="yugoslavia.svg">
  <metadata
     id="metadata175">
    <rdf:RDF>
      <cc:Work
         rdf:about="">
        <dc:format>image/svg+xml</dc:format>
        <dc:type
           rdf:resource="http://purl.org/dc/dcmitype/StillImage" />
      </cc:Work>
    </rdf:RDF>
  </metadata>
  <defs
     id="defs173" />
  <sodipodi:namedview
     pagecolor="#ffffff"
     bordercolor="#666666"
     borderopacity="1"
     objecttolerance="10"
     gridtolerance="10"
     guidetolerance="10"
     inkscape:pageopacity="0"
     inkscape:pageshadow="2"
     inkscape:window-width="1920"
     inkscape:window-height="1018"
     id="namedview171"
     showgrid="false"
     inkscape:zoom="1.721867"
     inkscape:cx="789.00692"
     inkscape:cy="306.50226"
     inkscape:window-x="-8"
     inkscape:window-y="-8"
     inkscape:window-maximized="1"
     inkscape:current-layer="svg2" />
  <style
     type="text/css"
     id="style4">svg:not(:root) { overflow: hidden; }
*, ::before, ::after { box-sizing: border-box; }
.axis path, .axis line { fill: none; stroke: rgb(0, 0, 0); shape-rendering: crispEdges; }
.line { fill: none; stroke: steelblue; stroke-width: 1.5px; }</style>
  <svg
     id="svg"
     version="1.1">
    <g
       transform="translate(50,20)"
       id="g7">
      <g
         class="axis axis--x"
         transform="translate(0,445.28)"
         fill="none"
         font-size="10"
         font-family="sans-serif"
         text-anchor="middle"
         style="font-style: normal; font-variant: normal; font-weight: normal; font-stretch: normal; font-size: 12px; line-height: normal; font-family: sans-serif;"
         id="g9">
        <path
           class="domain"
           stroke="#000"
           d="M0.5,6V0.5H1005.5V6"
           id="path11" />
        <g
           class="tick"
           opacity="1"
           transform="translate(45.17916950499546,0)"
           id="g13">
          <line
             stroke="#000"
             y2="6"
             x1="0.5"
             x2="0.5"
             id="line15" />
          <text
             fill="#000"
             y="9"
             x="0.5"
             dy="0.71em"
             id="text17">1994</text>
        </g>
        <g
           class="tick"
           opacity="1"
           transform="translate(128.47276623524067,0)"
           id="g19">
          <line
             stroke="#000"
             y2="6"
             x1="0.5"
             x2="0.5"
             id="line21" />
          <text
             fill="#000"
             y="9"
             x="0.5"
             dy="0.71em"
             id="text23">1996</text>
        </g>
        <g
           class="tick"
           opacity="1"
           transform="translate(211.8804637829246,0)"
           id="g25">
          <line
             stroke="#000"
             y2="6"
             x1="0.5"
             x2="0.5"
             id="line27" />
          <text
             fill="#000"
             y="9"
             x="0.5"
             dy="0.71em"
             id="text29">1998</text>
        </g>
        <g
           class="tick"
           opacity="1"
           transform="translate(295.1740605131698,0)"
           id="g31">
          <line
             stroke="#000"
             y2="6"
             x1="0.5"
             x2="0.5"
             id="line33" />
          <text
             fill="#000"
             y="9"
             x="0.5"
             dy="0.71em"
             id="text35">2000</text>
        </g>
        <g
           class="tick"
           opacity="1"
           transform="translate(378.58175806085376,0)"
           id="g37">
          <line
             stroke="#000"
             y2="6"
             x1="0.5"
             x2="0.5"
             id="line39" />
          <text
             fill="#000"
             y="9"
             x="0.5"
             dy="0.71em"
             id="text41">2002</text>
        </g>
        <g
           class="tick"
           opacity="1"
           transform="translate(461.87535479109897,0)"
           id="g43">
          <line
             stroke="#000"
             y2="6"
             x1="0.5"
             x2="0.5"
             id="line45" />
          <text
             fill="#000"
             y="9"
             x="0.5"
             dy="0.71em"
             id="text47">2004</text>
        </g>
        <g
           class="tick"
           opacity="1"
           transform="translate(545.2830523387829,0)"
           id="g49">
          <line
             stroke="#000"
             y2="6"
             x1="0.5"
             x2="0.5"
             id="line51" />
          <text
             fill="#000"
             y="9"
             x="0.5"
             dy="0.71em"
             id="text53">2006</text>
        </g>
        <g
           class="tick"
           opacity="1"
           transform="translate(628.5766490690281,0)"
           id="g55">
          <line
             stroke="#000"
             y2="6"
             x1="0.5"
             x2="0.5"
             id="line57" />
          <text
             fill="#000"
             y="9"
             x="0.5"
             dy="0.71em"
             id="text59">2008</text>
        </g>
        <g
           class="tick"
           opacity="1"
           transform="translate(711.9843466167122,0)"
           id="g61">
          <line
             stroke="#000"
             y2="6"
             x1="0.5"
             x2="0.5"
             id="line63" />
          <text
             fill="#000"
             y="9"
             x="0.5"
             dy="0.71em"
             id="text65">2010</text>
        </g>
        <g
           class="tick"
           opacity="1"
           transform="translate(795.2779433469573,0)"
           id="g67">
          <line
             stroke="#000"
             y2="6"
             x1="0.5"
             x2="0.5"
             id="line69" />
          <text
             fill="#000"
             y="9"
             x="0.5"
             dy="0.71em"
             id="text71">2012</text>
        </g>
        <g
           class="tick"
           opacity="1"
           transform="translate(878.6856408946412,0)"
           id="g73">
          <line
             stroke="#000"
             y2="6"
             x1="0.5"
             x2="0.5"
             id="line75" />
          <text
             fill="#000"
             y="9"
             x="0.5"
             dy="0.71em"
             id="text77">2014</text>
        </g>
        <g
           class="tick"
           opacity="1"
           transform="translate(961.9792376248864,0)"
           id="g79">
          <line
             stroke="#000"
             y2="6"
             x1="0.5"
             x2="0.5"
             id="line81" />
          <text
             fill="#000"
             y="9"
             x="0.5"
             dy="0.71em"
             id="text83">2016</text>
        </g>
        <text
           transform="translate(994.95,0)"
           y="-16"
           dy="0.71em"
           fill="#000"
           style="font-style: normal; font-variant: normal; font-weight: normal; font-stretch: normal; font-size: 12px; line-height: normal; font-family: sans-serif;"
           id="text85">Year</text>
      </g>
      <g
         class="axis axis--y"
         fill="none"
         font-size="10"
         font-family="sans-serif"
         text-anchor="end"
         style="font-style: normal; font-variant: normal; font-weight: normal; font-stretch: normal; font-size: 12px; line-height: normal; font-family: sans-serif;"
         id="g87">
        <path
           class="domain"
           stroke="#000"
           d="M-6,445.78H0.5V0.5H-6"
           id="path89" />
        <g
           class="tick"
           opacity="1"
           transform="translate(0,401.4441450777202)"
           id="g91">
          <line
             stroke="#000"
             x2="-6"
             y1="0.5"
             y2="0.5"
             id="line93" />
          <text
             fill="#000"
             x="-9"
             y="0.5"
             dy="0.32em"
             id="text95">180</text>
        </g>
        <g
           class="tick"
           opacity="1"
           transform="translate(0,355.301139896373)"
           id="g97">
          <line
             stroke="#000"
             x2="-6"
             y1="0.5"
             y2="0.5"
             id="line99" />
          <text
             fill="#000"
             x="-9"
             y="0.5"
             dy="0.32em"
             id="text101">160</text>
        </g>
        <g
           class="tick"
           opacity="1"
           transform="translate(0,309.1581347150259)"
           id="g103">
          <line
             stroke="#000"
             x2="-6"
             y1="0.5"
             y2="0.5"
             id="line105" />
          <text
             fill="#000"
             x="-9"
             y="0.5"
             dy="0.32em"
             id="text107">140</text>
        </g>
        <g
           class="tick"
           opacity="1"
           transform="translate(0,263.01512953367876)"
           id="g109">
          <line
             stroke="#000"
             x2="-6"
             y1="0.5"
             y2="0.5"
             id="line111" />
          <text
             fill="#000"
             x="-9"
             y="0.5"
             dy="0.32em"
             id="text113">120</text>
        </g>
        <g
           class="tick"
           opacity="1"
           transform="translate(0,216.8721243523316)"
           id="g115">
          <line
             stroke="#000"
             x2="-6"
             y1="0.5"
             y2="0.5"
             id="line117" />
          <text
             fill="#000"
             x="-9"
             y="0.5"
             dy="0.32em"
             id="text119">100</text>
        </g>
        <g
           class="tick"
           opacity="1"
           transform="translate(0,170.72911917098443)"
           id="g121">
          <line
             stroke="#000"
             x2="-6"
             y1="0.5"
             y2="0.5"
             id="line123" />
          <text
             fill="#000"
             x="-9"
             y="0.5"
             dy="0.32em"
             id="text125">80</text>
        </g>
        <g
           class="tick"
           opacity="1"
           transform="translate(0,124.5861139896373)"
           id="g127">
          <line
             stroke="#000"
             x2="-6"
             y1="0.5"
             y2="0.5"
             id="line129" />
          <text
             fill="#000"
             x="-9"
             y="0.5"
             dy="0.32em"
             id="text131">60</text>
        </g>
        <g
           class="tick"
           opacity="1"
           transform="translate(0,78.44310880829015)"
           id="g133">
          <line
             stroke="#000"
             x2="-6"
             y1="0.5"
             y2="0.5"
             id="line135" />
          <text
             fill="#000"
             x="-9"
             y="0.5"
             dy="0.32em"
             id="text137">40</text>
        </g>
        <g
           class="tick"
           opacity="1"
           transform="translate(0,32.300103626943)"
           id="g139">
          <line
             stroke="#000"
             x2="-6"
             y1="0.5"
             y2="0.5"
             id="line141" />
          <text
             fill="#000"
             x="-9"
             y="0.5"
             dy="0.32em"
             id="text143">20</text>
        </g>
        <text
           y="-20"
           dy="0.71em"
           fill="#000"
           id="text145">Position</text>
      </g>
      <g
         class="team"
         id="g147">
        <path
           class="line"
           d="M605.5330381471389,445.28L606.1986262488646,445.2799999999999C606.8642143505903,445.28,608.1953905540418,445.28,609.5265667574931,445.2799999999999C610.8577429609445,445.28,612.188919164396,445.28,613.3869777475022,440.2811744386873C614.5850363306085,435.2823488773747,615.6499772933697,425.2846977547495,616.8480358764759,414.51799654576854C618.0460944595822,403.75129533678756,619.3772706630335,392.2155440414508,620.6133628519527,386.83219343696027C621.8494550408719,381.4488428324698,622.9904632152588,382.2178929188255,624.017370572207,382.60241796200336C625.0442779291553,382.9869430051813,625.9570844686649,382.9869430051813,626.9839918256131,382.9869430051813C628.0108991825613,382.9869430051813,629.1519073569482,382.9869430051813,630.2548819255222,384.14051813471497C631.3578564940963,385.29409326424866,632.4227974568574,387.60124352331604,633.4877384196185,388.7548186528497C634.5526793823797,389.90839378238337,635.6176203451408,389.90839378238337,636.6825613079019,381.4488428324698C637.7475022706631,372.9892918825561,638.8124432334242,356.07018998272883,639.8773841961853,346.4570639032815C640.9423251589463,336.8439378238342,642.0072661217074,334.5367875647668,643.0722070844686,330.30701208981003C644.1371480472297,326.0772366148531,645.2020890099908,319.92483592400686,646.267029972752,318.3867357512953C647.3319709355131,316.84863557858375,648.3969118982743,319.92483592400686,649.5949704813805,320.3093609671848C650.7930290644869,320.69388601036263,652.1242052679382,318.38673575129525,653.3222638510445,314.54148531951637C654.5203224341508,310.69623488773743,655.585263396912,305.31288428324694,656.7833219800182,295.31523316062174C657.9813805631244,285.31758203799654,659.3125567665758,270.7056303972366,660.6437329700273,262.63060449050084C661.9749091734787,254.55557858376508,663.3060853769301,253.01747841105353,664.6372615803815,251.09485319516406C665.9684377838329,249.17222797927457,667.2996139872843,246.8650777202072,668.4976725703906,246.09602763385143C669.6957311534967,245.32697754749566,670.7606721162579,246.09602763385146,671.825613079019,245.71150259067358C672.8905540417801,245.32697754749566,673.9554950045413,243.7888773747841,675.0204359673024,243.40435233160622C676.0853769300635,243.01982728842833,677.1503178928247,243.78887737478408,678.2152588555858,246.09602763385146C679.2801998183469,248.40317789291876,680.3451407811081,252.24842832469776,681.4100817438692,254.1710535405872C682.4750227066303,256.09367875647666,683.5399636693915,256.09367875647666,684.6049046321526,253.40200345423145C685.6698455949136,250.71032815198615,686.7347865576749,245.32697754749566,687.7997275204358,238.0210017271157C688.8646684831971,230.71502590673572,689.9296094459582,221.4864248704663,691.1276680290645,216.1030742659758C692.3257266121708,210.7197236614853,693.6569028156222,209.18162348877374,694.8549613987284,205.7208981001727C696.0530199818346,202.26017271157164,697.1179609445958,196.87682210708113,698.4871707538601,188.8017962003454C699.8563805631244,180.72677029360966,701.5298592188919,169.96006908462866,703.0321866485014,163.80766839378236C704.5345140781109,157.65526770293607,705.8656902815623,156.11716753022452,707.0257152588556,155.73264248704663C708.185740236149,155.34811744386874,709.1746139872843,156.11716753022452,710.6008742052678,155.7326424870466C712.0271344232515,155.34811744386874,713.8907811080835,153.81001727115714,715.35507493188,152.6564421416235C716.8193687556767,151.5028670120898,717.8843097184377,150.733816925734,718.9492506811988,149.58024179620034C720.0141916439601,148.42666666666665,721.0791326067211,146.8885664939551,722.1440735694823,144.5814162348877C723.2090145322435,142.27426597582038,724.2739554950045,139.19806563039722,725.3388964577657,137.27544041450776C726.4038374205269,135.3528151986183,727.4687783832879,134.5837651122625,728.9330722070845,137.27544041450776C730.3973660308811,139.96711571675303,732.261012715713,146.11951640759932,733.7253065395095,149.58024179620034C735.1896003633061,153.04096718480136,736.2545413260672,153.81001727115714,737.4525999091735,141.50521588946458C738.6506584922798,129.20041450777202,739.9818346957312,103.8217616580311,741.3130108991827,85.74908462867012C742.644187102634,67.67640759930914,743.9753633060855,56.90970639032815,745.1734218891917,51.52635578583764C746.371480472298,46.14300518134714,747.436421435059,46.14300518134714,748.5013623978201,45.758480138169254C749.5663033605812,45.373955094991366,750.6312443233423,44.604905008635576,751.6961852861035,44.22037996545769C752.7611262488646,43.83585492227979,753.8260672116257,43.83585492227979,754.7578905540418,43.83585492227979C755.6897138964578,43.83585492227979,756.4884196185286,43.83585492227979,757.5533605812898,43.83585492227979C758.618301544051,43.83585492227979,759.9494777475023,43.83585492227979,761.2806539509537,43.4513298791019C762.6118301544051,43.06680483592401,763.9430063578565,42.29775474956822,765.2741825613078,41.913229706390325C766.6053587647593,41.52870466321243,767.9365349682107,41.52870466321243,769.4008287920072,38.452504317789284C770.8651226158039,35.376303972366145,772.4625340599456,29.223903281519856,773.793710263397,26.53222797927461C775.1248864668484,23.840552677029354,776.1898274296095,24.609602763385144,777.2547683923707,25.763177892918822C778.3197093551316,26.9167530224525,779.3846503178929,28.454853195164077,780.4495912806539,31.91557858376511C781.5145322434151,35.376303972366145,782.5794732061762,40.75965457685664,783.6444141689375,48.450155440414505C784.7093551316984,56.14065630397236,785.7742960944597,66.13830742659758,786.9723546775658,75.7514335060449C788.1704132606723,85.36455958549222,789.5015894641236,94.59316062176164,790.6996480472299,99.20746113989635C791.8977066303361,103.8217616580311,792.9626475930972,103.8217616580311,794.0275885558584,103.43723661485319C795.0925295186195,103.05271157167529,796.1574704813805,102.2836614853195,797.2224114441418,102.2836614853195C798.2873524069028,102.2836614853195,799.352293369664,103.05271157167529,800.2841167120799,100.74556131260793C801.215940054496,98.43841105354058,802.0146457765668,93.05506044905007,803.079586739328,94.20863557858377C804.1445277020889,95.36221070811744,805.4757039055403,103.05271157167529,806.6737624886467,107.28248704663211C807.871821071753,111.51226252158894,808.9367620345141,112.28131260794471,810.0017029972752,110.74321243523316C811.0666439600363,109.20511226252158,812.1315849227975,105.35986183074266,813.1965258855586,103.43723661485319C814.2614668483197,101.51461139896372,815.3264078110809,101.51461139896372,816.5244663941871,101.51461139896372C817.7225249772933,101.51461139896372,819.0537011807447,101.51461139896372,820.251759763851,100.74556131260795C821.4498183469573,99.97651122625216,822.5147593097184,98.43841105354058,823.5797002724795,96.13126079447322C824.6446412352407,93.82411053540586,825.7095821980018,90.74791018998273,826.9076407811081,85.36455958549222C828.1056993642143,79.98120898100173,829.4368755676657,72.29070811744386,830.9011693914623,67.29188255613126C832.3654632152588,62.29305699481864,833.9628746594004,59.985906735751286,835.3130676657584,58.8323316062176C836.6632606721163,57.67875647668393,837.7662352406902,57.67875647668393,838.8501930063579,56.90970639032815C839.9341507720255,56.14065630397236,840.9990917347865,54.60255613126079,842.0640326975476,53.44898100172711C843.1289736603088,52.295405872193435,844.1939146230699,51.526355785837644,845.258855585831,50.75730569948186C846.3237965485922,49.98825561312608,847.3887375113533,49.21920552677029,848.4536784741144,48.8346804835924C849.5186194368756,48.450155440414505,850.5835603996367,48.450155440414505,851.6485013623977,47.68110535405872C852.713442325159,46.91205526770293,853.7783832879201,45.373955094991366,854.8433242506811,45.75848013816926C855.9082652134422,46.14300518134715,856.9732061762033,48.450155440414505,858.1712647593098,49.603730569948176C859.3693233424159,50.75730569948186,860.7004995458674,50.75730569948186,862.0316757493188,50.37278065630397C863.3628519527701,49.98825561312608,864.6940281562216,49.21920552677029,866.025204359673,59.2168566493955C867.3563805631244,69.21450777202072,868.6875567665758,89.97886010362693,870.1518505903723,99.97651122625216C871.616144414169,109.97416234887737,873.2135558583108,109.20511226252158,874.411614441417,108.4360621761658C875.6096730245232,107.66701208981003,876.4083787465939,106.89796200345423,877.34020208901,106.51343696027634C878.272025431426,106.12891191709843,879.3369663941871,106.12891191709843,880.4019073569483,106.12891191709843C881.4668483197092,106.12891191709843,882.5317892824705,106.12891191709843,883.5967302452315,103.82176165803106C884.6616712079928,101.51461139896372,885.7266121707538,96.90031088082901,886.7915531335151,97.66936096718479C887.856494096276,98.43841105354056,888.9214350590373,104.59081174438687,889.9863760217983,107.66701208980999C891.0513169845594,110.74321243523315,892.1162579473206,110.74321243523315,893.1811989100817,109.58963730569945C894.2461398728428,108.43606217616578,895.311080835604,106.12891191709843,896.6422570390554,104.59081174438688C897.9734332425068,103.05271157167529,899.5708446866485,102.2836614853195,900.9020208900998,101.51461139896372C902.2331970935512,100.74556131260795,903.2981380563124,99.97651122625216,904.4961966394188,97.28483592400691C905.6942552225249,94.59316062176164,907.0254314259764,89.97886010362693,908.3566076294278,95.74673575129532C909.6877838328792,101.51461139896372,911.0189600363307,117.66466321243523,912.350136239782,123.43253886010363C913.6813124432334,129.20041450777202,915.0124886466848,124.5861139896373,916.077429609446,122.66348877374783C917.1423705722071,120.74086355785836,917.941076294278,121.50991364421414,918.7397820163487,121.89443868739204C919.5384877384196,122.27896373056994,920.3371934604905,122.27896373056994,921.4021344232515,124.58611398963728C922.4670753860128,126.89326424870463,923.7982515894641,131.50756476683935,924.9963101725704,134.5837651122625C926.1943687556767,137.65996545768564,927.2593097184377,139.19806563039722,928.3242506811989,141.1206908462867C929.3891916439601,143.04331606217616,930.4541326067211,145.35046632124352,931.5190735694822,148.42666666666665C932.5840145322435,151.5028670120898,933.6489554950045,155.34811744386874,934.7138964577656,155.34811744386874C935.7788374205267,155.34811744386874,936.8437783832878,151.5028670120898,938.0418369663943,153.81001727115714C939.2398955495004,156.11716753022452,940.5710717529519,164.57671848013817,941.7691303360581,167.2683937823834C942.9671889191644,169.96006908462866,944.0321298819255,166.8838687392055,945.0970708446866,165.34576856649394C946.1620118074478,163.80766839378236,947.2269527702089,163.80766839378236,948.29189373297,161.8850431778929C949.3568346957312,159.96241796200343,950.4217756584922,156.11716753022452,951.6198342415986,156.5016925734024C952.8178928247047,156.8862176165803,954.1490690281562,161.500518134715,955.3471276112624,166.4993436960276C956.5451861943687,171.49816925734024,957.6101271571298,176.88151986183072,958.8081857402361,179.573195164076C960.0062443233423,182.26487046632124,961.3374205267937,182.26487046632124,962.5354791099002,181.88034542314335C963.7335376930064,181.49582037996547,964.7984786557676,180.72677029360966,965.8634196185285,180.34224525043177C966.9283605812898,179.95772020725386,967.9933015440507,179.95772020725386,969.191360127157,183.80297063903285C970.3894187102633,187.64822107081173,971.7205949137148,195.3387219343696,972.9186534968211,199.1839723661485C974.1167120799273,203.02922279792745,975.1816530426885,203.02922279792745,976.2465940054495,201.4911226252159C977.3115349682107,199.9530224525043,978.3764759309719,196.87682210708115,979.7076521344233,197.26134715025907C981.0388283378746,197.64587219343696,982.6362397820163,201.4911226252159,983.9674159854677,203.41374784110533C985.2985921889191,205.3363730569948,986.3635331516803,205.3363730569948,987.5615917347865,209.18162348877374C988.7596503178929,213.02687392055267,990.0908265213443,220.71737478411055,991.4220027247957,205.7208981001727C992.753178928247,190.7244214162349,994.0843551316984,153.04096718480136,995.4155313351498,136.89091537132984C996.7467075386013,120.74086355785836,998.0778837420527,126.12421416234888,999.2759423251591,128.8158894645941C1000.4740009082652,131.50756476683938,1001.5389418710264,131.50756476683938,1002.4707652134424,131.50756476683935C1003.4025885558582,131.50756476683938,1004.2012942779292,131.50756476683938,1004.6006471389646,131.50756476683935L1005,131.50756476683938"
           style="stroke: rgb(31, 119, 180);"
           id="path149" />
        <text
           transform="translate(1005,131.50756476683938)"
           x="3"
           dy="0.35em"
           style="font-style: normal; font-variant: normal; font-weight: normal; font-stretch: normal; font-size: 14px; line-height: normal; font-family: sans-serif; fill: rgb(31, 119, 180);"
           id="text151">Montenegro</text>
      </g>
      <g
         class="team"
         id="g153">
        <path
           class="line"
           d="M543.4621934604904,94.59316062176165L547.4176884650317,90.36338514680483C551.3731834695731,86.13360967184802,559.2841734786557,77.67405872193437,563.9052565849228,72.29070811744387C568.5263396911897,66.90735751295337,569.8575158946411,64.60020725388601,571.0555744777474,63.06210708117444C572.2536330608538,61.524006908462866,573.3185740236148,60.75495682210708,574.5166326067211,60.370431778929195C575.7146911898275,59.98590673575129,577.0458673932789,59.98590673575129,578.3770435967302,60.37043177892918C579.7082198001816,60.75495682210708,581.0393960036331,61.524006908462866,582.1994209809264,61.908531951640754C583.3594459582199,62.29305699481865,584.3483197093552,62.29305699481865,585.4132606721163,62.29305699481865C586.4782016348775,62.29305699481865,587.6192098092644,62.29305699481865,588.7221843778384,60.75495682210708C589.8251589464124,59.2168566493955,590.8900999091735,56.14065630397236,591.9550408719346,54.21803108808289C593.0199818346956,52.295405872193435,594.0849227974568,51.526355785837644,595.2829813805631,52.67993091537133C596.4810399636693,53.833506044905,597.8122161671208,56.909706390328154,599.010274750227,58.063281519861825C600.2083333333334,59.2168566493955,601.2732742960944,58.44780656303971,602.3382152588556,54.60255613126079C603.4031562216168,50.75730569948186,604.4680971843778,43.83585492227979,605.666155767484,38.452504317789284C606.8642143505903,33.06915371329879,608.1953905540418,29.223903281519863,609.5265667574931,27.68580310880829C610.8577429609445,26.147702936096717,612.188919164396,26.9167530224525,613.3869777475022,28.83937823834197C614.5850363306085,30.762003454231433,615.6499772933697,33.83820379965457,616.8480358764759,37.29892918825561C618.0460944595822,40.75965457685665,619.3772706630335,44.604905008635576,620.6133628519527,47.68110535405872C621.8494550408719,50.75730569948186,622.9904632152588,53.06445595854922,624.017370572207,53.06445595854922C625.0442779291553,53.06445595854922,625.9570844686649,50.75730569948186,626.9839918256131,49.603730569948176C628.0108991825613,48.450155440414505,629.1519073569482,48.450155440414505,630.2548819255222,49.98825561312608C631.3578564940963,51.526355785837644,632.4227974568574,54.60255613126079,633.4877384196185,56.14065630397236C634.5526793823797,57.67875647668393,635.6176203451408,57.67875647668393,636.6825613079019,57.67875647668393C637.7475022706631,57.67875647668393,638.8124432334242,57.67875647668393,639.8773841961853,57.67875647668393C640.9423251589463,57.67875647668393,642.0072661217074,57.67875647668393,643.0722070844686,60.75495682210707C644.1371480472297,63.831157167530215,645.2020890099908,69.9835578583765,646.267029972752,71.52165803108808C647.3319709355131,73.05975820379966,648.3969118982743,69.98355785837651,649.5949704813805,68.06093264248705C650.7930290644869,66.13830742659758,652.1242052679382,65.36925734024179,653.3222638510445,64.600207253886C654.5203224341508,63.831157167530215,655.585263396912,63.06210708117444,656.7833219800182,65.36925734024179C657.9813805631244,67.67640759930914,659.3125567665758,73.05975820379965,660.6437329700273,71.90618307426597C661.9749091734787,70.75260794473229,663.3060853769301,63.06210708117444,664.6372615803815,59.2168566493955C665.9684377838329,55.37160621761657,667.2996139872843,55.37160621761657,668.4976725703906,57.294231433506035C669.6957311534967,59.2168566493955,670.7606721162579,63.06210708117444,671.825613079019,64.21568221070812C672.8905540417801,65.36925734024179,673.9554950045413,63.83115716753022,675.0204359673024,64.21568221070812C676.0853769300635,64.60020725388601,677.1503178928247,66.90735751295337,678.2152588555858,63.06210708117444C679.2801998183469,59.21685664939551,680.3451407811081,49.21920552677029,681.4100817438692,44.22037996545768C682.4750227066303,39.221554404145074,683.5399636693915,39.221554404145074,684.6049046321526,38.067979274611396C685.6698455949136,36.91440414507772,686.7347865576749,34.60725388601036,687.7997275204358,31.14652849740932C688.8646684831971,27.685803108808287,689.9296094459582,23.07150259067357,691.1276680290645,20.764352331606215C692.3257266121708,18.45720207253886,693.6569028156222,18.45720207253886,694.8549613987284,18.072677029360964C696.0530199818346,17.688151986183072,697.1179609445958,16.919101899827286,698.4871707538601,19.226252158894642C699.8563805631244,21.533402417961998,701.5298592188919,26.916753022452497,703.0321866485014,29.60842832469775C704.5345140781109,32.300103626943,705.8656902815623,32.300103626943,707.0257152588556,31.915578583765107C708.185740236149,31.531053540587212,709.1746139872843,30.762003454231433,710.6008742052678,30.37747841105354C712.0271344232515,29.992953367875646,713.8907811080835,29.992953367875646,715.35507493188,27.685803108808287C716.8193687556767,25.37865284974093,717.8843097184377,20.764352331606215,718.9492506811988,19.226252158894642C720.0141916439601,17.688151986183072,721.0791326067211,19.226252158894642,722.1440735694823,20.379827288428324C723.2090145322435,21.533402417961998,724.2739554950045,22.302452504317785,725.3388964577657,22.302452504317785C726.4038374205269,22.302452504317785,727.4687783832879,21.533402417961998,728.9330722070845,20.37982728842832C730.3973660308811,19.226252158894642,732.261012715713,17.688151986183072,733.7253065395095,16.919101899827286C735.1896003633061,16.1500518134715,736.2545413260672,16.1500518134715,737.4525999091735,16.919101899827286C738.6506584922798,17.688151986183072,739.9818346957312,19.226252158894642,741.3130108991827,22.686977547495683C742.644187102634,26.147702936096717,743.9753633060855,31.53105354058722,745.1734218891917,35.376303972366145C746.371480472298,39.221554404145074,747.436421435059,41.52870466321244,748.5013623978201,41.91322970639033C749.5663033605812,42.29775474956822,750.6312443233423,40.75965457685665,751.6961852861035,39.990604490500864C752.7611262488646,39.221554404145074,753.8260672116257,39.221554404145074,754.7578905540418,39.221554404145074C755.6897138964578,39.221554404145074,756.4884196185286,39.221554404145074,757.5533605812898,38.45250431778929C758.618301544051,37.6834542314335,759.9494777475023,36.14535405872193,761.2806539509537,33.453678756476684C762.6118301544051,30.762003454231433,763.9430063578565,26.9167530224525,765.2741825613078,24.994127806563032C766.6053587647593,23.07150259067357,767.9365349682107,23.07150259067357,769.4008287920072,26.147702936096717C770.8651226158039,29.223903281519856,772.4625340599456,35.376303972366145,773.793710263397,39.60607944732296C775.1248864668484,43.83585492227979,776.1898274296095,46.14300518134715,777.2547683923707,48.06563039723661C778.3197093551316,49.98825561312608,779.3846503178929,51.526355785837644,780.4495912806539,49.21920552677029C781.5145322434151,46.91205526770293,782.5794732061762,40.75965457685665,783.6444141689375,38.45250431778929C784.7093551316984,36.14535405872193,785.7742960944597,37.6834542314335,786.9723546775658,39.990604490500864C788.1704132606723,42.29775474956822,789.5015894641236,45.373955094991366,790.6996480472299,46.91205526770293C791.8977066303361,48.450155440414505,792.9626475930972,48.450155440414505,794.0275885558584,48.450155440414505C795.0925295186195,48.450155440414505,796.1574704813805,48.450155440414505,797.2224114441418,47.68110535405872C798.2873524069028,46.91205526770293,799.352293369664,45.373955094991366,800.2841167120799,44.989430051813464C801.215940054496,44.604905008635576,802.0146457765668,45.373955094991366,803.079586739328,48.06563039723661C804.1445277020889,50.75730569948186,805.4757039055403,55.37160621761657,806.6737624886467,57.67875647668394C807.871821071753,59.98590673575129,808.9367620345141,59.98590673575129,810.0017029972752,60.75495682210707C811.0666439600363,61.524006908462866,812.1315849227975,63.062107081174425,813.1965258855586,64.9847322970639C814.2614668483197,66.90735751295335,815.3264078110809,69.21450777202072,816.5244663941871,69.59903281519861C817.7225249772933,69.98355785837651,819.0537011807447,68.44545768566495,820.251759763851,70.3680829015544C821.4498183469573,72.29070811744386,822.5147593097184,77.67405872193437,823.5797002724795,76.90500863557857C824.6446412352407,76.13595854922279,825.7095821980018,69.21450777202072,826.9076407811081,69.21450777202072C828.1056993642143,69.21450777202072,829.4368755676657,76.13595854922279,830.9011693914623,78.05858376511226C832.3654632152588,79.98120898100171,833.9628746594004,76.90500863557857,835.3130676657584,74.98238341968911C836.6632606721163,73.05975820379966,837.7662352406902,72.29070811744386,838.8501930063579,71.52165803108808C839.9341507720255,70.75260794473229,840.9990917347865,69.98355785837651,842.0640326975476,69.21450777202072C843.1289736603088,68.44545768566495,844.1939146230699,67.67640759930914,845.258855585831,69.21450777202072C846.3237965485922,70.75260794473229,847.3887375113533,74.59785837651123,848.4536784741144,76.52048359240068C849.5186194368756,78.44310880829015,850.5835603996367,78.44310880829015,851.6485013623977,76.90500863557858C852.713442325159,75.366908462867,853.7783832879201,72.29070811744386,854.8433242506811,72.67523316062176C855.9082652134422,73.05975820379966,856.9732061762033,76.90500863557857,858.1712647593098,78.82763385146804C859.3693233424159,80.7502590673575,860.7004995458674,80.7502590673575,862.0316757493188,81.51930915371328C863.3628519527701,82.28835924006908,864.6940281562216,83.82645941278065,866.025204359673,78.82763385146804C867.3563805631244,73.82880829015544,868.6875567665758,62.29305699481864,870.1518505903723,57.294231433506035C871.616144414169,52.295405872193435,873.2135558583108,53.833506044905,874.411614441417,54.60255613126079C875.6096730245232,55.37160621761657,876.4083787465939,55.37160621761657,877.34020208901,55.371606217616566C878.272025431426,55.37160621761657,879.3369663941871,55.37160621761657,880.4019073569483,54.98708117443868C881.4668483197092,54.60255613126079,882.5317892824705,53.833506044905,883.5967302452315,53.06445595854922C884.6616712079928,52.295405872193435,885.7266121707538,51.526355785837644,886.7915531335151,51.91088082901555C887.856494096276,52.295405872193435,888.9214350590373,53.833506044905,889.9863760217983,54.60255613126079C891.0513169845594,55.37160621761657,892.1162579473206,55.37160621761657,893.1811989100817,55.371606217616566C894.2461398728428,55.37160621761657,895.311080835604,55.37160621761657,896.6422570390554,55.75613126079446C897.9734332425068,56.14065630397236,899.5708446866485,56.90970639032815,900.9020208900998,57.294231433506035C902.2331970935512,57.67875647668393,903.2981380563124,57.67875647668393,904.4961966394188,58.8323316062176C905.6942552225249,59.985906735751286,907.0254314259764,62.29305699481864,908.3566076294278,68.06093264248703C909.6877838328792,73.82880829015544,911.0189600363307,83.05740932642486,912.350136239782,87.67170984455957C913.6813124432334,92.28601036269428,915.0124886466848,92.28601036269428,916.077429609446,89.20981001727114C917.1423705722071,86.13360967184799,917.941076294278,79.98120898100171,918.7397820163487,76.90500863557858C919.5384877384196,73.82880829015544,920.3371934604905,73.82880829015544,921.4021344232515,74.21333333333332C922.4670753860128,74.59785837651123,923.7982515894641,75.366908462867,924.9963101725704,76.13595854922279C926.1943687556767,76.90500863557857,927.2593097184377,77.67405872193437,928.3242506811989,79.59668393782383C929.3891916439601,81.5193091537133,930.4541326067211,84.59550949913644,931.5190735694822,86.13360967184802C932.5840145322435,87.67170984455959,933.6489554950045,87.67170984455959,934.7138964577656,88.05623488773749C935.7788374205267,88.44075993091538,936.8437783832878,89.20981001727115,938.0418369663943,88.82528497409326C939.2398955495004,88.44075993091536,940.5710717529519,86.9026597582038,941.7691303360581,94.97768566493954C942.9671889191644,103.05271157167529,944.0321298819255,120.74086355785836,945.0970708446866,129.5849395509499C946.1620118074478,138.42901554404145,947.2269527702089,138.42901554404145,948.29189373297,137.27544041450778C949.3568346957312,136.1218652849741,950.4217756584922,133.81471502590674,951.6198342415986,127.27778929188257C952.8178928247047,120.74086355785839,954.1490690281562,109.97416234887737,955.3471276112624,107.28248704663213C956.5451861943687,104.59081174438687,957.6101271571298,109.97416234887737,958.8081857402361,112.28131260794471C960.0062443233423,114.58846286701208,961.3374205267937,113.81941278065631,962.5354791099002,111.89678756476684C963.7335376930064,109.97416234887737,964.7984786557676,106.89796200345423,965.8634196185285,104.97533678756474C966.9283605812898,103.05271157167529,967.9933015440507,102.2836614853195,969.191360127157,103.82176165803106C970.3894187102633,105.35986183074266,971.7205949137148,109.20511226252158,972.9186534968211,111.51226252158894C974.1167120799273,113.81941278065631,975.1816530426885,114.58846286701208,976.2465940054495,114.20393782383417C977.3115349682107,113.8194127806563,978.3764759309719,112.28131260794471,979.7076521344233,108.82058721934368C981.0388283378746,105.35986183074264,982.6362397820163,99.97651122625216,983.9674159854677,97.28483592400691C985.2985921889191,94.59316062176167,986.3635331516803,94.59316062176167,987.5615917347865,95.74673575129532C988.7596503178929,96.90031088082901,990.0908265213443,99.20746113989635,991.4220027247957,97.66936096718479C992.753178928247,96.13126079447322,994.0843551316984,90.74791018998273,995.4155313351498,88.44075993091536C996.7467075386013,86.13360967184799,998.0778837420527,86.9026597582038,999.2759423251591,87.28718480138168C1000.4740009082652,87.67170984455959,1001.5389418710264,87.67170984455959,1002.4707652134424,88.05623488773749C1003.4025885558582,88.44075993091538,1004.2012942779292,89.20981001727115,1004.6006471389646,89.59433506044905L1005,89.97886010362694"
           style="stroke: rgb(255, 127, 14);"
           id="path155" />
        <text
           transform="translate(1005,89.97886010362694)"
           x="3"
           dy="0.35em"
           style="font-style: normal; font-variant: normal; font-weight: normal; font-stretch: normal; font-size: 14px; line-height: normal; font-family: sans-serif; fill: rgb(255, 127, 14);"
           id="text157">Serbia</text>
      </g>
      <g
         class="team"
         id="g159">
        <path
           class="line"
           d="M0,53.06445595854922L4.75420072661217,63.44663212435233C9.50840145322434,73.82880829015544,19.01680290644868,94.59316062176164,24.64577656675749,107.28248704663208C30.274750227066303,119.97181347150257,32.02429609445958,124.58611398963728,33.45055631244323,128.04683937823833C34.87681653042688,131.50756476683935,35.9797910990009,133.8147150259067,37.063748864668476,135.7373402417962C38.14770663033605,137.65996545768564,39.21264759309719,139.19806563039722,40.391689373297005,140.35164075993092C41.57073115349683,141.50521588946458,42.86387375113534,142.27426597582038,44.53735240690282,143.42784110535405C46.2108310626703,144.5814162348877,48.26464577656676,146.11951640759932,49.824023614895545,148.42666666666665C51.38340145322434,150.733816925734,52.44834241598547,153.81001727115714,53.64640099909173,155.34811744386874C54.844459582198,156.8862176165803,56.17563578564941,156.8862176165803,57.37369436875568,157.27074265975818C58.571752951861946,157.65526770293607,59.636693914623066,158.42431778929188,60.70163487738419,159.96241796200346C61.76657584014532,161.500518134715,62.83151680290644,163.80766839378236,64.06760899182561,164.96124352331603C65.30370118074478,166.11481865284972,66.71094459582199,166.11481865284972,68.4414736603088,168.0374438687392C70.17200272479563,169.96006908462866,72.22581743869209,173.8053195164076,74.05143051771117,179.18867012089808C75.87704359673023,184.57202072538857,77.47445504087193,191.49347150259064,78.80563124432332,196.49229706390327C80.13680744777474,201.4911226252159,81.20174841053587,204.567322970639,82.266689373297,208.02804835924007C83.33163033605813,211.48877374784107,84.39657129881925,215.33402417962,86.10808356039963,211.87329879101898C87.81959582198003,208.41257340241793,90.17767938237965,197.64587219343696,92.45969573115349,190.7244214162349C94.74171207992732,183.8029706390328,96.94766121707539,180.72677029360966,98.56408946412353,179.95772020725386C100.18051771117166,179.18867012089808,101.20742506811989,180.72677029360966,102.25334922797457,181.88034542314332C103.29927338782925,183.03392055267702,104.36421435059037,183.8029706390328,105.69539055404177,185.34107081174434C107.02656675749319,186.87917098445595,108.62397820163487,189.18632124352328,109.95515440508628,191.49347150259064C111.2863306085377,193.80062176165802,112.35127157129882,196.10777202072538,113.41621253405994,193.80062176165802C114.48115349682108,191.49347150259064,115.5460944595822,184.57202072538857,116.61103542234333,184.95654576856649C117.67597638510445,185.34107081174434,118.74091734786559,193.03157167530222,119.93897593097186,191.87799654576853C121.13703451407811,190.7244214162349,122.46821071752952,180.72677029360966,123.66626930063576,176.11246977547492C124.86432788374204,171.4981692573402,125.92926884650318,172.26721934369598,127.14634423251589,172.6517443868739C128.3634196185286,173.0362694300518,129.73262942779292,173.0362694300518,130.94970481380562,173.8053195164076C132.16678019981836,174.57436960276337,133.23172116257948,176.11246977547492,134.9622502270663,176.11246977547492C136.69277929155314,176.11246977547492,139.08889645776568,174.57436960276337,140.8194255222525,170.72911917098443C142.54995458673932,166.8838687392055,143.61489554950046,160.73146804835923,144.94607175295187,153.42549222797925C146.27724795640327,146.1195164075993,147.87465940054494,137.65996545768564,149.73830608537693,134.5837651122625C151.6019527702089,131.50756476683935,153.73183469573112,133.8147150259067,155.32924613987282,136.89091537132987C156.92665758401452,139.967115716753,157.99159854677563,143.81236614853194,159.0565395095368,141.50521588946458C160.12148047229792,139.19806563039722,161.18642143505903,130.73851468048358,162.25136239782017,126.12421416234888C163.3163033605813,121.50991364421414,164.38124432334243,120.74086355785836,165.44618528610354,119.2027633851468C166.51112624886468,117.66466321243523,167.57606721162583,115.35751295336787,169.45873069936422,113.81941278065631C171.34139418710265,112.28131260794471,174.04178019981836,111.51226252158894,176.17166212534062,108.05153713298789C178.30154405086287,104.59081174438687,179.86092188919164,98.43841105354056,181.30619891008178,96.13126079447322C182.75147593097185,93.82411053540586,184.08265213442326,95.36221070811744,185.41382833787466,91.13243523316062C186.74500454132604,86.9026597582038,188.07618074477747,76.90500863557858,189.27423932788372,72.67523316062176C190.47229791099002,68.44545768566495,191.53723887375114,69.98355785837651,192.7352974568574,71.52165803108808C193.93335603996366,73.05975820379966,195.26453224341506,74.59785837651123,196.46259082652134,74.59785837651121C197.6606494096276,74.59785837651123,198.72559037238875,73.05975820379966,199.82856494096276,71.90618307426597C200.9315395095368,70.75260794473229,202.07254768392372,69.98355785837651,203.27060626702996,64.21568221070811C204.4686648501362,58.44780656303973,205.72377384196184,47.68110535405872,206.99789963669392,41.52870466321243C208.27202543142596,35.376303972366145,209.56516802906447,33.83820379965457,211.2956970935513,28.454853195164073C213.02622615803816,23.07150259067357,215.19414168937328,13.842901554404143,216.81056993642144,10.766701208980999C218.42699818346955,7.690500863557858,219.4919391462307,10.766701208980999,220.68999772933697,10.766701208980999C221.88805631244324,10.766701208980999,223.21923251589465,7.690500863557858,224.4172910990009,6.152400690846285C225.61534968210717,4.614300518134715,226.68029064486828,4.614300518134715,228.27770208900998,4.2297754749568215C229.87511353315168,3.845250431778929,232.00499545867396,3.076200345423143,233.73552452316073,2.6916753022452498C235.4660535876476,2.3071502590673574,236.797229791099,2.3071502590673574,237.99528837420527,2.6916753022452506C239.19334695731155,3.076200345423143,240.2582879200727,3.845250431778929,241.45634650317893,4.2297754749568215C242.6544050862852,4.614300518134715,243.98558128973661,4.614300518134715,245.18363987284292,4.2297754749568215C246.38169845594916,3.845250431778929,247.44663941871025,3.076200345423143,248.64469800181655,2.3071502590673574C249.8427565849228,1.5381001727115715,251.17393278837417,0.7690500863557858,252.50510899182555,4.2297754749568215C253.83628519527701,7.690500863557857,255.1674613987284,15.381001727115715,256.36551998183467,19.226252158894642C257.563578564941,23.07150259067357,258.6285195277021,23.07150259067357,259.6934604904632,23.07150259067357C260.75840145322434,23.07150259067357,261.82334241598545,23.07150259067357,262.88828337874656,23.07150259067357C263.9532243415077,23.07150259067357,265.01816530426885,23.07150259067357,266.08310626703,23.07150259067357C267.14804722979113,23.07150259067357,268.21298819255225,23.07150259067357,269.27792915531336,23.07150259067357C270.3428701180745,23.07150259067357,271.40781108083564,23.07150259067357,272.60586966394186,24.99412780656304C273.8039282470482,26.9167530224525,275.13510445049957,30.762003454231433,276.33316303360584,33.06915371329879C277.5312216167121,35.376303972366145,278.59616257947323,36.14535405872193,279.66110354223434,34.60725388601036C280.7260445049955,33.06915371329879,281.7909854677566,29.223903281519863,282.85592643051774,26.53222797927461C283.92086739327885,23.84055267702936,284.98580835603997,22.302452504317785,286.1838669391462,20.764352331606215C287.3819255222525,19.226252158894642,288.7131017257039,17.688151986183072,290.0442779291553,16.919101899827286C291.37545413260676,16.1500518134715,292.70663033605814,16.1500518134715,293.9046889191644,16.150051813471496C295.10274750227063,16.1500518134715,296.16768846503174,16.1500518134715,297.2326294277929,16.150051813471496C298.29757039055403,16.1500518134715,299.36251135331514,16.1500518134715,300.4274523160763,16.150051813471496C301.4923932788374,16.1500518134715,302.55733424159854,16.1500518134715,303.6222752043597,15.381001727115711C304.68721616712077,14.611951640759928,305.75215712988194,13.073851468048355,306.817098092643,12.30480138169257C307.88203905540416,11.535751295336786,308.94698001816533,11.535751295336786,310.0119209809264,11.151226252158892C311.07686194368756,10.766701208980999,312.1418029064487,9.997651122625214,313.2067438692098,9.997651122625216C314.27168483197096,9.997651122625214,315.3366257947321,10.766701208980999,316.53468437783835,10.766701208980999C317.7327429609446,10.766701208980999,319.063919164396,9.997651122625214,320.2619777475022,8.844075993091536C321.4600363306085,7.690500863557858,322.52497729336966,6.152400690846286,323.7230358764759,6.152400690846286C324.9210944595822,6.152400690846286,326.2522706630336,7.690500863557858,327.583446866485,8.075025906735751C328.91462306993645,8.459550949913643,330.24579927338783,7.690500863557858,331.57697547683927,7.305975820379966C332.9081516802907,6.921450777202072,334.2393278837421,6.921450777202072,335.4373864668483,6.921450777202071C336.63544504995457,6.921450777202072,337.7003860127157,6.921450777202072,338.76532697547685,6.921450777202071C339.83026793823797,6.921450777202072,340.8952089009991,6.921450777202072,341.96014986376025,7.305975820379964C343.02509082652136,7.690500863557858,344.0900317892825,8.459550949913643,345.15497275204365,9.22860103626943C346.2199137148047,9.997651122625214,347.2848546775658,10.766701208980999,348.48291326067215,11.151226252158892C349.6809718437784,11.535751295336786,351.01214804722986,11.535751295336786,352.34332425068123,11.535751295336786C353.6745004541326,11.535751295336786,355.005676657584,11.535751295336786,356.2037352406903,11.920276338514677C357.4017938237966,12.30480138169257,358.4667347865577,13.073851468048359,359.664793369664,13.842901554404142C360.8628519527702,14.611951640759928,362.1940281562216,15.381001727115715,363.39208673932785,15.765526770293604C364.5901453224341,16.1500518134715,365.65508628519524,16.1500518134715,366.72002724795635,15.765526770293604C367.7849682107175,15.381001727115715,368.84990917347864,14.611951640759928,370.0479677565849,14.227426597582033C371.24602633969124,13.842901554404143,372.5772025431426,13.842901554404143,373.77526112624884,13.458376511226248C374.9733197093551,13.073851468048359,376.0382606721162,12.30480138169257,377.1032016348774,11.920276338514677C378.1681425976385,11.535751295336786,379.2330835603996,11.535751295336786,380.2980245231608,11.535751295336786C381.3629654859219,11.535751295336786,382.427906448683,11.535751295336786,383.6259650317893,11.535751295336786C384.82402361489557,11.535751295336786,386.15519981834694,11.535751295336786,387.35325840145316,11.151226252158892C388.55131698455943,10.766701208980999,389.61625794732066,9.997651122625214,390.6811989100818,9.613126079447323C391.7461398728429,9.22860103626943,392.81108083560395,9.22860103626943,394.27537465940054,11.535751295336787C395.73966848319714,13.842901554404143,397.60331516802904,18.45720207253886,399.3338442325159,20.764352331606215C401.06437329700276,23.07150259067357,402.6617847411444,23.07150259067357,404.126078564941,24.60960276338514C405.5903723887375,26.14770293609671,406.9215485921889,29.223903281519856,408.2527247956403,29.223903281519853C409.58390099909167,29.223903281519856,410.91507720254316,26.14770293609671,412.1131357856494,24.60960276338514C413.31119436875565,23.07150259067357,414.37613533151676,23.07150259067357,414.90860581289735,23.07150259067357L415.44107629427793,23.07150259067357"
           style="stroke: rgb(44, 160, 44);"
           id="path161" />
        <text
           transform="translate(415.44107629427793,23.07150259067357)"
           x="3"
           dy="0.35em"
           style="font-style: normal; font-variant: normal; font-weight: normal; font-stretch: normal; font-size: 14px; line-height: normal; font-family: sans-serif; fill: rgb(44, 160, 44);"
           id="text163">Yugoslavia</text>
      </g>
      <g
         class="team"
         id="g165">
        <path
           class="line"
           d="M418.6358991825613,29.992953367875646L419.16836966394186,29.992953367875646C419.70084014532245,29.992953367875646,420.76578110808356,29.992953367875646,421.96383969118983,29.992953367875646C423.16189827429616,29.992953367875646,424.49307447774754,29.992953367875646,425.8242506811989,30.377478411053534C427.1554268846503,30.762003454231433,428.4866030881017,31.531053540587212,429.684661671208,32.684628670120894C430.8827202543143,33.83820379965457,431.9476612170754,35.376303972366145,433.0126021798365,36.145354058721935C434.07754314259756,36.91440414507772,435.14248410535873,36.91440414507772,436.34054268846495,38.837029360967186C437.5386012715712,40.75965457685665,438.86977747502266,44.604905008635576,440.20095367847415,48.8346804835924C441.5321298819255,53.06445595854922,442.8633060853769,57.67875647668393,444.0613646684831,58.44780656303971C445.25942325158945,59.2168566493955,446.3243642143506,56.14065630397236,447.3893051771117,56.90970639032815C448.45424613987285,57.67875647668393,449.5191871026339,62.29305699481865,450.5841280653951,63.446632124352334C451.6490690281562,64.60020725388601,452.7140099909173,62.29305699481865,453.7789509536785,62.67758203799655C454.8438919164396,63.06210708117444,455.9088328792007,66.13830742659758,456.9357402361489,69.59903281519861C457.9626475930972,73.05975820379966,458.9515213442325,76.90500863557857,460.0164623069936,78.82763385146804C461.08140326975473,80.7502590673575,462.2224114441417,80.7502590673575,463.45850363306084,81.51930915371328C464.69459582198004,82.28835924006908,466.0257720254314,83.82645941278065,467.22383060853764,84.59550949913643C468.4218891916439,85.36455958549222,469.486830154405,85.36455958549222,470.5517711171662,85.7490846286701C471.6167120799273,86.13360967184799,472.6816530426884,86.9026597582038,473.7465940054496,87.67170984455959C474.8115349682107,88.44075993091538,475.8764759309718,89.20981001727115,476.941416893733,89.20981001727115C478.0063578564941,89.20981001727115,479.0712988192552,88.44075993091538,480.1362397820163,89.59433506044905C481.2011807447775,90.74791018998273,482.2661217075386,93.82411053540586,483.3310626702997,93.82411053540586C484.39600363306084,93.82411053540586,485.46094459582196,90.74791018998273,486.52588555858307,91.9014853195164C487.59082652134424,93.05506044905007,488.65576748410535,98.43841105354058,489.8538260672116,102.6681865284974C491.05188465031785,106.89796200345423,492.38306085376934,109.97416234887737,493.71423705722077,111.12773747841106C495.04541326067215,112.28131260794471,496.3765894641235,111.51226252158894,497.80284968210725,108.05153713298789C499.22910990009086,104.59081174438687,500.75045413260676,98.43841105354056,502.0816303360582,95.36221070811742C503.4128065395096,92.28601036269428,504.55381471389654,92.28601036269428,505.6567892824705,92.28601036269428C506.7597638510445,92.28601036269428,507.8247048138057,92.28601036269428,509.02276339691184,92.28601036269428C510.2208219800182,92.28601036269428,511.55199818346955,92.28601036269428,512.7500567665758,92.67053540587217C513.9481153496821,93.05506044905007,515.0130563124432,93.82411053540586,516.0779972752043,93.82411053540586C517.1429382379655,93.82411053540586,518.2078792007266,93.05506044905007,519.2728201634877,93.82411053540586C520.3377611262489,94.59316062176164,521.40270208901,96.90031088082901,522.6007606721163,98.05388601036269C523.7988192552225,99.20746113989635,525.129995458674,99.20746113989635,526.3280540417802,99.20746113989638C527.5261126248864,99.20746113989635,528.5910535876475,99.20746113989635,529.6179609445958,98.82293609671848C530.6448683015441,98.43841105354058,531.6337420526794,97.6693609671848,532.7937670299727,94.97768566493954C533.9537920072661,92.2860103626943,535.2849682107176,87.67170984455959,536.616144414169,87.28718480138168C537.9473206176203,86.9026597582038,539.2784968210718,90.74791018998273,540.4195049954587,92.6705354058722C541.5605131698456,94.59316062176167,542.511353315168,94.59316062176167,543.614327883742,94.59316062176164C544.7173024523161,94.59316062176167,545.9724114441417,94.59316062176167,547.132436421435,94.59316062176164C548.2924613987284,94.59316062176167,549.3574023614896,94.59316062176167,550.4223433242506,94.20863557858375C551.4872842870118,93.82411053540586,552.552225249773,93.05506044905007,553.7502838328792,92.67053540587217C554.9483424159854,92.28601036269428,556.2795186194368,92.28601036269428,557.4775772025431,91.51696027633851C558.6756357856494,90.74791018998273,559.7405767484105,89.20981001727115,561.3379881925522,85.36455958549222C562.9353996366939,81.51930915371331,565.0652815622161,75.36690846286702,566.1302225249772,72.29070811744387L567.1951634877383,69.21450777202072"
           style="stroke: rgb(214, 39, 40);"
           id="path167" />
      </g>
    </g>
  </svg>
  <text
     y="97.263222"
     clip-path="none"
     mask="none"
     x="618.81873"
     dy="0"
     style="color:#333333;font-style:normal;font-variant:normal;font-weight:normal;font-stretch:normal;font-size:14px;line-height:normal;font-family:sans-serif;text-indent:0px;text-align:start;text-decoration:none;text-decoration-line:none;letter-spacing:normal;word-spacing:0px;text-transform:none;direction:ltr;baseline-shift:0px;text-anchor:start;white-space:normal;clip-rule:nonzero;display:inline;visibility:visible;opacity:1;isolation:auto;mix-blend-mode:normal;color-interpolation:sRGB;color-interpolation-filters:linearRGB;fill:#d62728;fill-opacity:1;fill-rule:nonzero;stroke:none;stroke-width:1px;stroke-linecap:butt;stroke-linejoin:miter;stroke-miterlimit:4;stroke-dasharray:none;stroke-dashoffset:0px;stroke-opacity:1;marker-start:none;marker-mid:none;marker-end:none;paint-order:fill stroke markers;color-rendering:auto;image-rendering:auto;shape-rendering:auto;text-rendering:auto"
     id="text169-0">Serbia and Montenegro</text>
</svg>
